<svg width="41" height="41" viewBox="0 0 41 41" fill="none" xmlns="http://www.w3.org/2000/svg">
<g clip-path="url(#clip0_4970_2566)">
<path d="M23.3698 32.5535L18.6958 33.8655L19.5158 29.1095L35.0958 11.6435C36.0798 10.5775 37.7198 10.4955 38.7858 11.3975C39.8518 12.3815 39.9338 14.0215 39.0318 15.0875L23.3698 32.5535Z" stroke="#3D4DB6" stroke-miterlimit="10" stroke-linecap="round" stroke-linejoin="round"/>
<path d="M20.6641 27.7158L24.5181 31.1598" stroke="#3D4DB6" stroke-miterlimit="10" stroke-linecap="round" stroke-linejoin="round"/>
<path d="M22.3042 25.9111L26.1582 29.3551" stroke="#3D4DB6" stroke-miterlimit="10" stroke-linecap="round" stroke-linejoin="round"/>
<path d="M36.4902 17.7936L32.6362 14.3496" stroke="#3D4DB6" stroke-miterlimit="10" stroke-linecap="round" stroke-linejoin="round"/>
<path d="M34.686 19.8434L30.832 16.3994" stroke="#3D4DB6" stroke-miterlimit="10" stroke-linecap="round" stroke-linejoin="round"/>
<path d="M33.046 21.6476V37.0636C33.046 38.4576 31.98 39.5236 30.586 39.5236H3.85404C2.54204 39.5236 1.39404 38.4576 1.39404 37.0636V3.93559C1.39404 2.62359 2.46004 1.47559 3.85404 1.47559H30.586C31.898 1.47559 33.046 2.54159 33.046 3.93559V13.9396" stroke="#3D4DB6" stroke-miterlimit="10" stroke-linecap="round" stroke-linejoin="round"/>
<path d="M20.0898 20.5H22.8778" stroke="#3D4DB6" stroke-miterlimit="10" stroke-linecap="round" stroke-linejoin="round"/>
<path d="M5.49414 20.5H6.39614" stroke="#3D4DB6" stroke-miterlimit="10" stroke-linecap="round" stroke-linejoin="round"/>
<path d="M5.57617 25.2559H18.4502" stroke="#3D4DB6" stroke-miterlimit="10" stroke-linecap="round" stroke-linejoin="round"/>
<path d="M5.57617 29.9297H15.4162" stroke="#3D4DB6" stroke-miterlimit="10" stroke-linecap="round" stroke-linejoin="round"/>
<path d="M22.7959 34.6855H28.9459" stroke="#3D4DB6" stroke-miterlimit="10" stroke-linecap="round" stroke-linejoin="round"/>
<path d="M5.57617 34.6855H16.0722" stroke="#3D4DB6" stroke-miterlimit="10" stroke-linecap="round" stroke-linejoin="round"/>
<path d="M25.0103 6.39551H28.9463" stroke="#3D4DB6" stroke-miterlimit="10" stroke-linecap="round" stroke-linejoin="round"/>
<path d="M20.6641 6.39551H21.7301" stroke="#3D4DB6" stroke-miterlimit="10" stroke-linecap="round" stroke-linejoin="round"/>
<path d="M23.3701 11.0693H28.9461" stroke="#3D4DB6" stroke-miterlimit="10" stroke-linecap="round" stroke-linejoin="round"/>
<path d="M22.1401 15.8252H28.9461" stroke="#3D4DB6" stroke-miterlimit="10" stroke-linecap="round" stroke-linejoin="round"/>
<path d="M18.3682 14.7595C18.2042 15.4975 17.9582 16.1535 17.5482 16.8095L18.6142 18.2035L17.3842 19.4335L15.9902 18.3675C15.4162 18.7775 14.6782 19.0235 13.9402 19.1875L13.6942 20.9095H11.9722L11.7262 19.1875C10.9882 19.0235 10.3322 18.7775 9.67617 18.3675L8.28217 19.4335L7.05217 18.2035L8.11817 16.8095C7.70817 16.2355 7.46217 15.4975 7.29817 14.7595L5.57617 14.5135V12.7915L7.29817 12.5455C7.46217 11.8075 7.70817 11.1515 8.11817 10.4955L7.05217 9.10151L8.28217 7.87151L9.67617 8.93751C10.2502 8.52751 10.9882 8.28151 11.7262 8.11751L11.9722 6.39551H13.6942L13.9402 8.11751C14.6782 8.28151 15.3342 8.52751 15.9902 8.93751L17.3842 7.87151L18.6142 9.10151L17.5482 10.4955C17.9582 11.0695 18.2042 11.8075 18.3682 12.5455L20.0902 12.7915V14.5135L18.3682 14.7595Z" stroke="#3D4DB6" stroke-miterlimit="10" stroke-linecap="round" stroke-linejoin="round"/>
<path d="M12.7923 15.4976C13.8339 15.4976 14.6782 14.6532 14.6782 13.6116C14.6782 12.57 13.8339 11.7256 12.7923 11.7256C11.7506 11.7256 10.9062 12.57 10.9062 13.6116C10.9062 14.6532 11.7506 15.4976 12.7923 15.4976Z" stroke="#3D4DB6" stroke-miterlimit="10" stroke-linecap="round" stroke-linejoin="round"/>
</g>
<defs>
<clipPath id="clip0_4970_2566">
<rect width="41" height="41" fill="white"/>
</clipPath>
</defs>
</svg>
