<svg xmlns="http://www.w3.org/2000/svg" width="20" height="20" viewBox="0 0 20 20" fill="none">
  <mask id="mask0_9315_482" style="mask-type:alpha" maskUnits="userSpaceOnUse" x="0" y="0" width="20" height="20">
    <rect width="20" height="20" fill="#D9D9D9"/>
  </mask>
  <g mask="url(#mask0_9315_482)">
    <path d="M9.99935 16.439L9.24622 15.7579C7.87872 14.5325 6.75025 13.4869 5.86081 12.6211C4.97136 11.7551 4.27289 10.9917 3.76539 10.3309C3.25789 9.67016 2.90615 9.07106 2.71018 8.53356C2.51407 7.9962 2.41602 7.4503 2.41602 6.89585C2.41602 5.78266 2.80088 4.84113 3.5706 4.07127C4.34046 3.30155 5.28199 2.91669 6.39518 2.91669C7.08102 2.91669 7.74074 3.07988 8.37435 3.40627C9.00796 3.73266 9.54963 4.19981 9.99935 4.80773C10.4491 4.19981 10.9907 3.73266 11.6243 3.40627C12.258 3.07988 12.9177 2.91669 13.6035 2.91669C14.7167 2.91669 15.6582 3.30155 16.4281 4.07127C17.1978 4.84113 17.5827 5.78266 17.5827 6.89585C17.5827 7.4503 17.4881 7.98926 17.2989 8.51273C17.1099 9.03634 16.7616 9.62502 16.2541 10.2788C15.7466 10.9327 15.046 11.6995 14.1523 12.5794C13.2587 13.4591 12.1115 14.5325 10.7108 15.7996L9.99935 16.439ZM9.99935 14.9792C11.291 13.8211 12.3535 12.8345 13.1868 12.0192C14.0202 11.204 14.6834 10.4944 15.1764 9.89023C15.6695 9.28606 16.0132 8.74919 16.2077 8.2796C16.4021 7.81016 16.4993 7.34891 16.4993 6.89585C16.4993 6.07641 16.2216 5.38891 15.666 4.83335C15.1105 4.2778 14.423 4.00002 13.6035 4.00002C13.1121 4.00002 12.6532 4.10335 12.2268 4.31002C11.8006 4.51683 11.3759 4.84884 10.9529 5.30606L10.2237 6.16023H9.77497L9.04581 5.30606C8.61734 4.84342 8.18435 4.51009 7.74685 4.30606C7.30935 4.10203 6.85879 4.00002 6.39518 4.00002C5.58102 4.00002 4.89484 4.2778 4.33664 4.83335C3.77845 5.38891 3.49935 6.07641 3.49935 6.89585C3.49935 7.34891 3.58963 7.79974 3.77018 8.24835C3.95074 8.6971 4.2806 9.22009 4.75977 9.81731C5.23893 10.4145 5.89865 11.1229 6.73893 11.9423C7.57921 12.7618 8.66602 13.774 9.99935 14.9792Z" fill="#010E87"/>
  </g>
</svg>
