<svg xmlns="http://www.w3.org/2000/svg" width="20" height="20" viewBox="0 0 20 20" fill="none">
  <mask id="mask0_9315_1212" style="mask-type:alpha" maskUnits="userSpaceOnUse" x="0" y="0" width="20" height="20">
    <rect width="20" height="20" fill="#D9D9D9"/>
  </mask>
  <g mask="url(#mask0_9315_1212)">
    <path d="M9.99935 16.439L9.24622 15.7579C7.87872 14.5325 6.75025 13.4869 5.86081 12.621C4.97136 11.7551 4.27289 10.9917 3.76539 10.3308C3.25789 9.67014 2.90615 9.07105 2.71018 8.53355C2.51407 7.99619 2.41602 7.45028 2.41602 6.89584C2.41602 5.78264 2.80088 4.84112 3.5706 4.07125C4.34046 3.30153 5.28199 2.91667 6.39518 2.91667C7.08102 2.91667 7.74074 3.07987 8.37435 3.40626C9.00796 3.73264 9.54963 4.1998 9.99935 4.80771C10.4491 4.1998 10.9907 3.73264 11.6243 3.40626C12.258 3.07987 12.9177 2.91667 13.6035 2.91667C14.7167 2.91667 15.6582 3.30153 16.4281 4.07125C17.1978 4.84112 17.5827 5.78264 17.5827 6.89584C17.5827 7.45028 17.4881 7.98924 17.2989 8.51271C17.1099 9.03632 16.7616 9.62501 16.2541 10.2788C15.7466 10.9326 15.046 11.6995 14.1523 12.5794C13.2587 13.4591 12.1115 14.5325 10.7108 15.7996L9.99935 16.439ZM9.99927 5.49992C11.2909 4.34187 11.8008 11.094 12.6342 10.2788C13.4675 9.46362 14.6834 10.4944 15.1764 9.89021C15.6695 9.28605 14.8048 10.9695 14.9993 10.4999C15.1937 10.0305 12.4993 13.0324 12.4993 12.5794C12.4993 11.7599 11.5548 11.0555 10.9993 10.4999C10.4437 9.94437 11.3187 9.49992 10.4993 9.49992C10.0079 9.49992 10.4257 8.29326 9.99927 8.49992C9.57302 8.70673 10.198 7.30451 9.77497 7.76173L10.2237 6.16021H9.77497L9.24622 6.72089C8.81775 6.25825 9.43677 7.20395 8.99927 6.99992C8.56177 6.7959 9.46288 7.99992 8.99927 7.99992C8.1851 7.99992 9.55746 8.44437 8.99927 8.99992C8.44107 9.55548 8.68541 9.07077 8.68541 9.89021C8.68541 10.3433 8.81871 10.5513 8.99927 10.9999C9.17982 11.4487 7.5201 10.9027 7.99927 11.4999C8.47843 12.0971 6.65899 10.6805 7.49927 11.4999C8.33955 12.3194 8.66593 4.29478 9.99927 5.49992Z" fill="#010E87"/>
  </g>
</svg>
