<svg width="11" height="11" viewBox="0 0 11 11" fill="none" xmlns="http://www.w3.org/2000/svg">
<g id="book-open" clip-path="url(#clip0_871_297)">
<path id="Icon" d="M5.50008 3.20833C5.50008 2.7221 5.30693 2.25579 4.96311 1.91197C4.61929 1.56815 4.15298 1.375 3.66675 1.375H0.916748V8.25H4.12508C4.48975 8.25 4.83949 8.39487 5.09735 8.65273C5.35522 8.91059 5.50008 9.26033 5.50008 9.625M5.50008 3.20833V9.625M5.50008 3.20833C5.50008 2.7221 5.69324 2.25579 6.03705 1.91197C6.38087 1.56815 6.84718 1.375 7.33341 1.375H10.0834V8.25H6.87508C6.51041 8.25 6.16067 8.39487 5.90281 8.65273C5.64495 8.91059 5.50008 9.26033 5.50008 9.625" stroke="white" stroke-linecap="round" stroke-linejoin="round"/>
</g>
<defs>
<clipPath id="clip0_871_297">
<rect width="11" height="11" fill="white"/>
</clipPath>
</defs>
</svg>
