<svg width="48" height="48" viewBox="0 0 48 48" fill="none" xmlns="http://www.w3.org/2000/svg">
<rect width="48" height="48" rx="2" fill="#EDF4FF"/>
<g clip-path="url(#clip0_3128_15125)">
<path d="M14.2243 19.2406C14.1151 19.2406 14.0103 19.196 13.9331 19.1166C13.8559 19.0372 13.8125 18.9295 13.8125 18.8172V16.5687C13.8125 16.4565 13.8559 16.3488 13.9331 16.2694C14.0103 16.19 14.1151 16.1454 14.2243 16.1454C14.3335 16.1454 14.4382 16.19 14.5154 16.2694C14.5926 16.3488 14.636 16.4565 14.636 16.5687V18.8172C14.636 18.9295 14.5926 19.0372 14.5154 19.1166C14.4382 19.196 14.3335 19.2406 14.2243 19.2406Z" fill="#3D4DB6"/>
<path d="M15.8874 19.2406C15.7781 19.2406 15.6734 19.196 15.5962 19.1166C15.519 19.0372 15.4756 18.9295 15.4756 18.8172V16.5687C15.4756 16.4565 15.519 16.3488 15.5962 16.2694C15.6734 16.19 15.7781 16.1454 15.8874 16.1454C15.9966 16.1454 16.1013 16.19 16.1785 16.2694C16.2557 16.3488 16.2991 16.4565 16.2991 16.5687V18.8172C16.2991 18.9295 16.2557 19.0372 16.1785 19.1166C16.1013 19.196 15.9966 19.2406 15.8874 19.2406V19.2406Z" fill="#3D4DB6"/>
<path d="M28.4323 19.2406C28.3231 19.2406 28.2183 19.196 28.1411 19.1166C28.0639 19.0372 28.0205 18.9295 28.0205 18.8172V16.5687C28.0205 16.4565 28.0639 16.3488 28.1411 16.2694C28.2183 16.19 28.3231 16.1454 28.4323 16.1454C28.5415 16.1454 28.6462 16.19 28.7234 16.2694C28.8007 16.3488 28.844 16.4565 28.844 16.5687V18.8172C28.844 18.9295 28.8007 19.0372 28.7234 19.1166C28.6462 19.196 28.5415 19.2406 28.4323 19.2406Z" fill="#3D4DB6"/>
<path d="M30.0956 19.2406C29.9864 19.2406 29.8817 19.196 29.8044 19.1166C29.7272 19.0372 29.6838 18.9295 29.6838 18.8172V16.5687C29.6838 16.4565 29.7272 16.3488 29.8044 16.2694C29.8817 16.19 29.9864 16.1454 30.0956 16.1454C30.2048 16.1454 30.3095 16.19 30.3868 16.2694C30.464 16.3488 30.5074 16.4565 30.5074 16.5687V18.8172C30.5074 18.9295 30.464 19.0372 30.3868 19.1166C30.3095 19.196 30.2048 19.2406 30.0956 19.2406Z" fill="#3D4DB6"/>
<path d="M14.2243 28.6343C14.1151 28.6343 14.0103 28.5897 13.9331 28.5103C13.8559 28.4309 13.8125 28.3232 13.8125 28.2109V25.9626C13.8125 25.8504 13.8559 25.7427 13.9331 25.6633C14.0103 25.5839 14.1151 25.5393 14.2243 25.5393C14.3335 25.5393 14.4382 25.5839 14.5154 25.6633C14.5926 25.7427 14.636 25.8504 14.636 25.9626V28.2109C14.636 28.2665 14.6254 28.3216 14.6047 28.3729C14.584 28.4243 14.5537 28.471 14.5154 28.5103C14.4772 28.5496 14.4318 28.5808 14.3818 28.602C14.3319 28.6233 14.2783 28.6343 14.2243 28.6343Z" fill="#3D4DB6"/>
<path d="M15.8874 28.6343C15.7781 28.6343 15.6734 28.5897 15.5962 28.5103C15.519 28.4309 15.4756 28.3232 15.4756 28.2109V25.9626C15.4756 25.8504 15.519 25.7427 15.5962 25.6633C15.6734 25.5839 15.7781 25.5393 15.8874 25.5393C15.9966 25.5393 16.1013 25.5839 16.1785 25.6633C16.2557 25.7427 16.2991 25.8504 16.2991 25.9626V28.2109C16.2991 28.2665 16.2885 28.3216 16.2678 28.3729C16.2471 28.4243 16.2167 28.471 16.1785 28.5103C16.1403 28.5496 16.0949 28.5808 16.0449 28.602C15.995 28.6233 15.9414 28.6343 15.8874 28.6343V28.6343Z" fill="#3D4DB6"/>
<path d="M26.4491 14.261C26.2057 14.261 25.9678 14.1869 25.7655 14.0479C25.5631 13.9089 25.4054 13.7114 25.3122 13.4802C25.2191 13.2491 25.1947 12.9948 25.2421 12.7494C25.2896 12.504 25.4067 12.2786 25.5788 12.1016C25.7509 11.9247 25.9701 11.8042 26.2088 11.7554C26.4475 11.7066 26.6949 11.7316 26.9197 11.8273C27.1445 11.9231 27.3367 12.0852 27.4719 12.2932C27.6071 12.5013 27.6793 12.7458 27.6793 12.996C27.6789 13.3314 27.5492 13.6529 27.3186 13.89C27.088 14.1271 26.7753 14.2606 26.4491 14.261V14.261ZM26.4491 12.5777C26.3686 12.5777 26.2899 12.6022 26.223 12.6481C26.1561 12.6941 26.1039 12.7594 26.0731 12.8358C26.0422 12.9122 26.0342 12.9964 26.0498 13.0775C26.0655 13.1587 26.1042 13.2332 26.1611 13.2917C26.218 13.3503 26.2905 13.3901 26.3695 13.4063C26.4484 13.4224 26.5302 13.4142 26.6046 13.3825C26.6789 13.3508 26.7425 13.2972 26.7872 13.2284C26.8319 13.1596 26.8558 13.0788 26.8558 12.996C26.8556 12.8852 26.8127 12.7789 26.7365 12.7005C26.6603 12.6221 26.5569 12.578 26.4491 12.5777Z" fill="#3D4DB6"/>
<path d="M29.7705 14.261C29.5271 14.2611 29.2891 14.1871 29.0867 14.0482C28.8843 13.9093 28.7264 13.7118 28.6332 13.4807C28.5399 13.2495 28.5155 12.9952 28.5629 12.7497C28.6102 12.5043 28.7274 12.2788 28.8994 12.1019C29.0714 11.9249 29.2907 11.8043 29.5294 11.7554C29.7681 11.7066 30.0155 11.7316 30.2404 11.8273C30.4652 11.923 30.6574 12.0851 30.7927 12.2932C30.9279 12.5012 31.0001 12.7458 31.0001 12.996C30.9997 13.3313 30.8701 13.6527 30.6396 13.8898C30.4091 14.1269 30.0966 14.2604 29.7705 14.261ZM29.7705 12.5777C29.69 12.5776 29.6112 12.602 29.5442 12.6478C29.4772 12.6937 29.4249 12.759 29.394 12.8354C29.3631 12.9118 29.3549 12.9959 29.3706 13.0771C29.3862 13.1583 29.4249 13.2329 29.4817 13.2915C29.5386 13.3501 29.6111 13.39 29.69 13.4062C29.769 13.4224 29.8508 13.4142 29.9252 13.3826C29.9996 13.3509 30.0632 13.2973 30.1079 13.2285C30.1527 13.1597 30.1766 13.0788 30.1766 12.996C30.1764 12.8853 30.1336 12.7791 30.0575 12.7007C29.9814 12.6223 29.8782 12.5781 29.7705 12.5777Z" fill="#3D4DB6"/>
<path d="M22.4211 12.5777H13.7311C13.6219 12.5777 13.5172 12.5331 13.4399 12.4537C13.3627 12.3744 13.3193 12.2667 13.3193 12.1544C13.3193 12.0421 13.3627 11.9345 13.4399 11.8551C13.5172 11.7757 13.6219 11.7311 13.7311 11.7311H22.4211C22.5303 11.7311 22.635 11.7757 22.7123 11.8551C22.7895 11.9345 22.8329 12.0421 22.8329 12.1544C22.8329 12.2667 22.7895 12.3744 22.7123 12.4537C22.635 12.5331 22.5303 12.5777 22.4211 12.5777V12.5777Z" fill="#3D4DB6"/>
<path d="M22.4211 14.261H13.7311C13.6219 14.261 13.5172 14.2164 13.4399 14.137C13.3627 14.0576 13.3193 13.9499 13.3193 13.8377C13.3193 13.7254 13.3627 13.6177 13.4399 13.5383C13.5172 13.4589 13.6219 13.4143 13.7311 13.4143H22.4211C22.5303 13.4143 22.635 13.4589 22.7123 13.5383C22.7895 13.6177 22.8329 13.7254 22.8329 13.8377C22.8329 13.9499 22.7895 14.0576 22.7123 14.137C22.635 14.2164 22.5303 14.261 22.4211 14.261V14.261Z" fill="#3D4DB6"/>
<path d="M32.9082 16.9921H11.4118C11.3026 16.9921 11.1978 16.9475 11.1206 16.8681C11.0434 16.7887 11 16.681 11 16.5687V9.42333C11 9.31106 11.0434 9.20338 11.1206 9.12399C11.1978 9.0446 11.3026 9 11.4118 9H32.9082C33.0174 9 33.1222 9.0446 33.1994 9.12399C33.2766 9.20338 33.32 9.31106 33.32 9.42333V16.5687C33.32 16.681 33.2766 16.7887 33.1994 16.8681C33.1222 16.9475 33.0174 16.9921 32.9082 16.9921ZM11.8235 16.1454H32.4965V9.84666H11.8235V16.1454Z" fill="#3D4DB6"/>
<path d="M22.4211 21.9716H13.7311C13.6219 21.9716 13.5172 21.927 13.4399 21.8476C13.3627 21.7682 13.3193 21.6606 13.3193 21.5483C13.3193 21.436 13.3627 21.3283 13.4399 21.249C13.5172 21.1696 13.6219 21.125 13.7311 21.125H22.4211C22.5303 21.125 22.635 21.1696 22.7123 21.249C22.7895 21.3283 22.8329 21.436 22.8329 21.5483C22.8329 21.6606 22.7895 21.7682 22.7123 21.8476C22.635 21.927 22.5303 21.9716 22.4211 21.9716V21.9716Z" fill="#3D4DB6"/>
<path d="M22.4211 23.6547H13.7311C13.6219 23.6547 13.5172 23.6101 13.4399 23.5307C13.3627 23.4513 13.3193 23.3436 13.3193 23.2313C13.3193 23.1191 13.3627 23.0114 13.4399 22.932C13.5172 22.8526 13.6219 22.808 13.7311 22.808H22.4211C22.5303 22.808 22.635 22.8526 22.7123 22.932C22.7895 23.0114 22.8329 23.1191 22.8329 23.2313C22.8329 23.3436 22.7895 23.4513 22.7123 23.5307C22.635 23.6101 22.5303 23.6547 22.4211 23.6547V23.6547Z" fill="#3D4DB6"/>
<path d="M26.4491 23.6547C26.2057 23.6547 25.9678 23.5806 25.7655 23.4416C25.5631 23.3026 25.4054 23.1051 25.3122 22.8739C25.2191 22.6428 25.1947 22.3884 25.2421 22.143C25.2896 21.8976 25.4068 21.6722 25.5789 21.4953C25.751 21.3184 25.9702 21.1979 26.2089 21.1491C26.4476 21.1003 26.695 21.1253 26.9198 21.2211C27.1447 21.3169 27.3368 21.479 27.472 21.6871C27.6072 21.8951 27.6793 22.1397 27.6793 22.3899C27.6789 22.7253 27.5492 23.0467 27.3186 23.2838C27.0879 23.5209 26.7753 23.6543 26.4491 23.6547V23.6547ZM26.4491 21.9716C26.3686 21.9716 26.2899 21.9961 26.223 22.042C26.1561 22.088 26.1039 22.1533 26.0731 22.2297C26.0422 22.3062 26.0342 22.3903 26.0498 22.4714C26.0655 22.5526 26.1042 22.6271 26.1611 22.6856C26.218 22.7442 26.2905 22.784 26.3695 22.8002C26.4484 22.8163 26.5302 22.8081 26.6046 22.7764C26.6789 22.7448 26.7425 22.6911 26.7872 22.6223C26.8319 22.5536 26.8558 22.4727 26.8558 22.3899C26.8556 22.2791 26.8127 22.1728 26.7365 22.0944C26.6603 22.016 26.5569 21.9719 26.4491 21.9716V21.9716Z" fill="#3D4DB6"/>
<path d="M29.7705 23.6547C29.5271 23.6548 29.2891 23.5808 29.0867 23.4419C28.8842 23.303 28.7264 23.1055 28.6332 22.8743C28.5399 22.6432 28.5155 22.3888 28.5629 22.1434C28.6103 21.8979 28.7274 21.6725 28.8995 21.4955C29.0715 21.3185 29.2908 21.198 29.5295 21.1491C29.7682 21.1003 30.0156 21.1253 30.2405 21.2211C30.4654 21.3168 30.6576 21.479 30.7928 21.687C30.928 21.8951 31.0001 22.1397 31.0001 22.3899C30.9997 22.7252 30.8701 23.0465 30.6396 23.2836C30.4091 23.5207 30.0965 23.6542 29.7705 23.6547V23.6547ZM29.7705 21.9716C29.69 21.9715 29.6112 21.9959 29.5442 22.0418C29.4772 22.0876 29.4249 22.1529 29.394 22.2293C29.3631 22.3057 29.3549 22.3899 29.3706 22.471C29.3862 22.5522 29.4249 22.6268 29.4817 22.6854C29.5386 22.744 29.6111 22.7839 29.69 22.8001C29.769 22.8163 29.8508 22.8081 29.9252 22.7765C29.9996 22.7448 30.0632 22.6912 30.1079 22.6224C30.1527 22.5536 30.1766 22.4727 30.1766 22.3899C30.1764 22.2792 30.1336 22.173 30.0575 22.0946C29.9814 22.0162 29.8782 21.972 29.7705 21.9716Z" fill="#3D4DB6"/>
<path d="M26.9433 26.386H11.4118C11.3026 26.386 11.1978 26.3414 11.1206 26.262C11.0434 26.1826 11 26.0749 11 25.9626V18.8172C11 18.7049 11.0434 18.5973 11.1206 18.5179C11.1978 18.4385 11.3026 18.3939 11.4118 18.3939H32.908C33.0172 18.3939 33.122 18.4385 33.1992 18.5179C33.2764 18.5973 33.3198 18.7049 33.3198 18.8172V22.785C33.3198 22.8973 33.2764 23.005 33.1992 23.0844C33.122 23.1638 33.0172 23.2084 32.908 23.2084C32.7988 23.2084 32.6941 23.1638 32.6169 23.0844C32.5397 23.005 32.4963 22.8973 32.4963 22.785V19.2406H11.8235V25.5393H26.9433C27.0525 25.5393 27.1573 25.5839 27.2345 25.6633C27.3117 25.7427 27.3551 25.8504 27.3551 25.9626C27.3551 26.0749 27.3117 26.1826 27.2345 26.262C27.1573 26.3414 27.0525 26.386 26.9433 26.386V26.386Z" fill="#3D4DB6"/>
<path d="M22.4211 31.3653H13.7309C13.6216 31.3653 13.5169 31.3207 13.4397 31.2413C13.3625 31.162 13.3191 31.0543 13.3191 30.942C13.3191 30.8297 13.3625 30.7221 13.4397 30.6427C13.5169 30.5633 13.6216 30.5187 13.7309 30.5187H22.4211C22.5303 30.5187 22.635 30.5633 22.7122 30.6427C22.7894 30.7221 22.8328 30.8297 22.8328 30.942C22.8328 31.0543 22.7894 31.162 22.7122 31.2413C22.635 31.3207 22.5303 31.3653 22.4211 31.3653V31.3653Z" fill="#3D4DB6"/>
<path d="M22.4211 33.0486H13.7311C13.6219 33.0486 13.5172 33.004 13.4399 32.9246C13.3627 32.8452 13.3193 32.7375 13.3193 32.6253C13.3193 32.513 13.3627 32.4053 13.4399 32.3259C13.5172 32.2465 13.6219 32.2019 13.7311 32.2019H22.4211C22.5303 32.2019 22.635 32.2465 22.7123 32.3259C22.7895 32.4053 22.8329 32.513 22.8329 32.6253C22.8329 32.7375 22.7895 32.8452 22.7123 32.9246C22.635 33.004 22.5303 33.0486 22.4211 33.0486V33.0486Z" fill="#3D4DB6"/>
<path d="M26.9849 35.7799H11.4118C11.3026 35.7799 11.1978 35.7353 11.1206 35.6559C11.0434 35.5765 11 35.4688 11 35.3565V28.2109C11 28.0987 11.0434 27.991 11.1206 27.9116C11.1978 27.8322 11.3026 27.7876 11.4118 27.7876H27.3171C27.4263 27.7876 27.531 27.8322 27.6082 27.9116C27.6854 27.991 27.7288 28.0987 27.7288 28.2109C27.7288 28.3232 27.6854 28.4309 27.6082 28.5103C27.531 28.5897 27.4263 28.6343 27.3171 28.6343H11.8235V34.9332H26.9849C27.0941 34.9332 27.1988 34.9778 27.2761 35.0572C27.3533 35.1366 27.3967 35.2443 27.3967 35.3565C27.3967 35.4688 27.3533 35.5765 27.2761 35.6559C27.1988 35.7353 27.0941 35.7799 26.9849 35.7799V35.7799Z" fill="#3D4DB6"/>
<path d="M33.8808 39H31.9359C31.8267 39 31.7219 38.9554 31.6447 38.876C31.5675 38.7966 31.5241 38.6889 31.5241 38.5767V37.2059C30.7691 37.0361 30.0495 36.7295 29.399 36.3005L28.4565 37.2696C28.4182 37.3089 28.3728 37.3401 28.3229 37.3613C28.2729 37.3826 28.2194 37.3936 28.1653 37.3936C28.1112 37.3936 28.0577 37.3826 28.0077 37.3613C27.9577 37.3401 27.9123 37.3089 27.8741 37.2696L26.4988 35.8556C26.4606 35.8163 26.4302 35.7697 26.4095 35.7183C26.3888 35.6669 26.3782 35.6119 26.3782 35.5563C26.3782 35.5007 26.3888 35.4456 26.4095 35.3943C26.4302 35.3429 26.4606 35.2962 26.4988 35.2569L27.4414 34.2879C27.0242 33.6193 26.726 32.8797 26.5608 32.1037H25.2274C25.1182 32.1037 25.0135 32.0591 24.9363 31.9797C24.8591 31.9004 24.8157 31.7927 24.8157 31.6804V29.6809C24.8157 29.5686 24.8591 29.4609 24.9363 29.3815C25.0135 29.3021 25.1182 29.2575 25.2274 29.2575H26.5608C26.7259 28.4813 27.0241 27.7416 27.4414 27.0728L26.4988 26.1037C26.4606 26.0644 26.4302 26.0178 26.4095 25.9664C26.3888 25.915 26.3782 25.86 26.3782 25.8044C26.3782 25.7488 26.3888 25.6937 26.4095 25.6424C26.4302 25.591 26.4606 25.5443 26.4988 25.505L27.8741 24.0911C27.9123 24.0518 27.9577 24.0206 28.0077 23.9993C28.0577 23.978 28.1112 23.9671 28.1653 23.9671C28.2194 23.9671 28.2729 23.978 28.3229 23.9993C28.3728 24.0206 28.4182 24.0518 28.4565 24.0911L29.399 25.0601C30.0495 24.6311 30.7691 24.3246 31.5241 24.1548V22.784C31.5241 22.6717 31.5675 22.5641 31.6447 22.4847C31.7219 22.4053 31.8267 22.3607 31.9359 22.3607H33.8808C33.99 22.3607 34.0947 22.4053 34.1719 22.4847C34.2492 22.5641 34.2925 22.6717 34.2925 22.784V24.1548C35.0475 24.3246 35.7671 24.6311 36.4176 25.0601L37.3602 24.0911C37.3984 24.0518 37.4438 24.0206 37.4938 23.9993C37.5437 23.978 37.5973 23.9671 37.6514 23.9671C37.7054 23.9671 37.759 23.978 37.8089 23.9993C37.8589 24.0206 37.9043 24.0518 37.9425 24.0911L39.3178 25.505C39.3561 25.5443 39.3864 25.591 39.4071 25.6424C39.4278 25.6937 39.4384 25.7488 39.4384 25.8044C39.4384 25.86 39.4278 25.915 39.4071 25.9664C39.3864 26.0178 39.3561 26.0644 39.3178 26.1037L38.3753 27.0728C38.7923 27.7417 39.0902 28.4815 39.2551 29.2577H40.5884C40.6976 29.2577 40.8024 29.3023 40.8796 29.3817C40.9568 29.4611 41.0002 29.5688 41.0002 29.6811V31.6804C41.0002 31.7927 40.9568 31.9004 40.8796 31.9797C40.8024 32.0591 40.6976 32.1037 40.5884 32.1037H39.2551C39.0899 32.8799 38.7918 33.6197 38.3745 34.2885L39.317 35.2575C39.3553 35.2969 39.3856 35.3435 39.4063 35.3949C39.427 35.4463 39.4377 35.5013 39.4377 35.5569C39.4377 35.6125 39.427 35.6675 39.4063 35.7189C39.3856 35.7703 39.3553 35.8169 39.317 35.8563L37.9418 37.2702C37.9035 37.3095 37.8581 37.3407 37.8082 37.362C37.7582 37.3832 37.7047 37.3942 37.6506 37.3942C37.5965 37.3942 37.543 37.3832 37.493 37.362C37.443 37.3407 37.3976 37.3095 37.3594 37.2702L36.4169 36.3012C35.7663 36.7301 35.0467 37.0367 34.2918 37.2065V38.5773C34.2916 38.6893 34.2483 38.7967 34.1712 38.8759C34.0942 38.9552 33.9897 38.9998 33.8808 39V39ZM32.3476 38.1533H33.469V36.8561C33.469 36.7555 33.5039 36.6582 33.5674 36.5816C33.6309 36.505 33.7188 36.4542 33.8155 36.4382C34.6862 36.2929 35.512 35.9409 36.2272 35.4101C36.3066 35.3512 36.4037 35.3233 36.5013 35.3314C36.5988 35.3394 36.6904 35.3829 36.7596 35.4541L37.6521 36.3715L38.4451 35.5563L37.5525 34.6387C37.4834 34.5675 37.4411 34.4734 37.4333 34.3732C37.4255 34.2729 37.4527 34.1731 37.51 34.0916C38.0262 33.3562 38.3686 32.5072 38.51 31.6121C38.5255 31.5127 38.5749 31.4223 38.6494 31.357C38.7239 31.2917 38.8186 31.2559 38.9165 31.2559H40.1767V30.103H38.9149C38.817 30.103 38.7223 30.0671 38.6479 30.0018C38.5734 29.9366 38.5239 29.8461 38.5084 29.7468C38.3671 28.8516 38.0247 28.0026 37.5084 27.2673C37.4511 27.1857 37.4239 27.0859 37.4317 26.9856C37.4395 26.8853 37.4818 26.7911 37.551 26.72L38.4435 25.8024L37.6506 24.9871L36.758 25.9048C36.6888 25.9759 36.5972 26.0194 36.4997 26.0274C36.4021 26.0354 36.305 26.0074 36.2257 25.9485C35.5104 25.4178 34.6846 25.0657 33.8139 24.9204C33.7173 24.9045 33.6293 24.8536 33.5658 24.7771C33.5023 24.7005 33.4675 24.6032 33.4674 24.5025V23.2084H32.3461V24.5056C32.346 24.6062 32.3112 24.7035 32.2477 24.7801C32.1842 24.8567 32.0962 24.9075 31.9996 24.9234C31.1289 25.0688 30.3031 25.4208 29.5878 25.9515C29.5085 26.0104 29.4114 26.0384 29.3139 26.0303C29.2164 26.0223 29.1249 25.9789 29.0557 25.9078L28.1631 24.9902L27.3727 25.8046L28.2649 26.7214C28.3341 26.7925 28.3764 26.8867 28.3842 26.987C28.392 27.0873 28.3648 27.1872 28.3074 27.2687C27.7911 28.004 27.4487 28.853 27.3074 29.7482C27.2919 29.8476 27.2425 29.938 27.168 30.0032C27.0935 30.0685 26.9988 30.1044 26.901 30.1044H25.64V31.2571H26.9021C27 31.2571 27.0947 31.293 27.1692 31.3582C27.2437 31.4235 27.2931 31.5139 27.3086 31.6133C27.45 32.5084 27.7924 33.3574 28.3086 34.0928C28.3659 34.1743 28.3931 34.2741 28.3853 34.3744C28.3775 34.4746 28.3352 34.5688 28.2661 34.6399L27.3727 35.5571L28.1657 36.3723L29.0582 35.4549C29.1274 35.3838 29.2189 35.3403 29.3164 35.3322C29.4139 35.3242 29.5111 35.3521 29.5904 35.411C30.3057 35.9417 31.1314 36.2937 32.0021 36.439C32.0988 36.455 32.1867 36.5058 32.2502 36.5824C32.3137 36.659 32.3486 36.7563 32.3486 36.8569L32.3476 38.1533Z" fill="#3D4DB6"/>
<path d="M32.9081 34.6544C30.7769 34.6544 29.0432 32.872 29.0432 30.681C29.0432 28.4899 30.7769 26.7073 32.9081 26.7073C35.0393 26.7073 36.7732 28.4899 36.7732 30.681C36.7732 32.872 35.0393 34.6544 32.9081 34.6544ZM32.9081 27.554C31.2311 27.554 29.8667 28.9568 29.8667 30.681C29.8667 32.4051 31.2311 33.8078 32.9081 33.8078C34.5852 33.8078 35.9497 32.4051 35.9497 30.681C35.9497 28.9568 34.5854 27.554 32.9081 27.554Z" fill="#3D4DB6"/>
</g>
<defs>
<clipPath id="clip0_3128_15125">
<rect width="30" height="30" fill="white" transform="translate(11 9)"/>
</clipPath>
</defs>
</svg>
