<svg width="24" height="24" viewBox="0 0 24 24" fill="none" xmlns="http://www.w3.org/2000/svg">
<path d="M16.7263 14.336V3.86749C16.7263 2.62699 15.7168 1.61749 14.4763 1.61749H4.00781C2.76731 1.61749 1.75781 2.62699 1.75781 3.86749V14.336C1.75781 15.5765 2.76731 16.586 4.00781 16.586H14.4763C15.7168 16.586 16.7263 15.5765 16.7263 14.336ZM3.25781 14.336V3.86749C3.25781 3.45399 3.59431 3.11749 4.00781 3.11749H14.4763C14.8898 3.11749 15.2263 3.45399 15.2263 3.86749V14.336C15.2263 14.7495 14.8898 15.086 14.4763 15.086H4.00781C3.59431 15.086 3.25781 14.7495 3.25781 14.336ZM19.9848 7.41399H18.1618C17.7478 7.41399 17.4118 7.74949 17.4118 8.16399C17.4118 8.57849 17.7478 8.91399 18.1618 8.91399H19.9848C20.3983 8.91399 20.7348 9.25049 20.7348 9.66399V20.1325C20.7348 20.546 20.3983 20.8825 19.9848 20.8825H9.51681C9.10331 20.8825 8.76681 20.546 8.76681 20.1325V18.059C8.76681 17.645 8.43131 17.309 8.01681 17.309C7.60231 17.309 7.26681 17.645 7.26681 18.059V20.1325C7.26681 21.373 8.27631 22.3825 9.51681 22.3825H19.9848C21.2253 22.3825 22.2348 21.373 22.2348 20.1325V9.66399C22.2348 8.42349 21.2253 7.41399 19.9848 7.41399Z" fill="black" stroke="black" stroke-width="0.5"/>
</svg>
