<svg width="25" height="25" viewBox="0 0 25 25" fill="none" xmlns="http://www.w3.org/2000/svg">
<mask id="mask0_9150_4003" style="mask-type:alpha" maskUnits="userSpaceOnUse" x="0" y="0" width="25" height="25">
<rect x="0.912109" y="0.72168" width="24" height="24" fill="#D9D9D9"/>
</mask>
<g mask="url(#mask0_9150_4003)">
<path d="M12.9121 16.2987L9.37361 12.7602L10.0814 12.0409L12.4121 14.3717V5.72168H13.4121V14.3717L15.7429 12.0409L16.4506 12.7602L12.9121 16.2987ZM7.52761 19.7217C7.06728 19.7217 6.68294 19.5675 6.37461 19.2592C6.06628 18.9508 5.91211 18.5665 5.91211 18.1062V15.6832H6.91211V18.1062C6.91211 18.2602 6.97619 18.4013 7.10436 18.5294C7.23253 18.6576 7.37361 18.7217 7.52761 18.7217H18.2966C18.4506 18.7217 18.5917 18.6576 18.7199 18.5294C18.848 18.4013 18.9121 18.2602 18.9121 18.1062V15.6832H19.9121V18.1062C19.9121 18.5665 19.7579 18.9508 19.4496 19.2592C19.1413 19.5675 18.7569 19.7217 18.2966 19.7217H7.52761Z" fill="#24727B"/>
</g>
</svg>
