<svg width="31" height="31" viewBox="0 0 31 31" fill="none" xmlns="http://www.w3.org/2000/svg">
<g id="ei:arrow-left">
<g clip-path="url(#clip0_30_3318)">
<rect x="30.3369" y="29.998" width="30" height="30" rx="15" transform="rotate(179.352 30.3369 29.998)" fill="#010B65"/>
<path id="Vector" d="M14.9089 0.11094C23.2025 0.0171778 29.9837 6.64682 30.0775 14.9404C30.1713 23.234 23.5416 30.0153 15.248 30.109C6.95444 30.2028 0.173179 23.5731 0.0794171 15.2796C-0.0143451 6.98596 6.6153 0.204702 14.9089 0.11094ZM15.2281 28.3444C22.5511 28.2616 28.3957 22.2834 28.3129 14.9604C28.2301 7.6373 22.2519 1.79274 14.9288 1.87553C7.60578 1.95832 1.76122 7.93654 1.84401 15.2596C1.9268 22.5827 7.90502 28.4272 15.2281 28.3444Z" fill="#010B65"/>
<path id="Vector_2" d="M14.7757 6.58968L23.3985 15.0386L14.9689 23.6804L13.7243 22.4609L20.9373 15.0665L13.559 7.83694L14.7757 6.58968Z" fill="white"/>
<path id="Vector_3" d="M22.1787 15.9316L7.23581 16.1006L7.21589 14.3386L22.1588 14.1697L22.1787 15.9316Z" fill="white"/>
</g>
</g>
<defs>
<clipPath id="clip0_30_3318">
<rect x="30.3369" y="29.998" width="30" height="30" rx="15" transform="rotate(179.352 30.3369 29.998)" fill="white"/>
</clipPath>
</defs>
</svg>
