<svg width="31" height="31" viewBox="0 0 31 31" fill="none" xmlns="http://www.w3.org/2000/svg">
<g clip-path="url(#clip0_443_145)">
<path d="M15.573 0.112893C23.8665 0.0191309 30.6478 6.64878 30.7416 14.9424C30.8353 23.236 24.2057 30.0172 15.9121 30.111C7.6185 30.2047 0.837242 23.5751 0.74348 15.2815C0.649717 6.98792 7.27936 0.206655 15.573 0.112893ZM15.8921 28.3464C23.2152 28.2636 29.0598 22.2854 28.977 14.9623C28.8942 7.63925 22.916 1.7947 15.5929 1.87749C8.26984 1.96028 2.42528 7.93849 2.50807 15.2616C2.59086 22.5846 8.56908 28.4292 15.8921 28.3464Z" fill="#2255A4"/>
<path d="M15.4392 6.59163L24.0621 15.0406L15.6324 23.6823L14.3879 22.4629L21.6009 15.0684L14.2226 7.83889L15.4392 6.59163Z" fill="#2255A4"/>
<path d="M22.8413 15.9336L7.89841 16.1025L7.87849 14.3406L22.8214 14.1717L22.8413 15.9336Z" fill="#2255A4"/>
</g>
<defs>
<clipPath id="clip0_443_145">
<rect width="30" height="30" fill="white" transform="translate(31 30) rotate(179.352)"/>
</clipPath>
</defs>
</svg>
