<svg width="252" height="46" viewBox="0 0 252 46" fill="none" xmlns="http://www.w3.org/2000/svg">
<g clip-path="url(#clip0_9043_2466)">
<path d="M12.5469 12.6C12.6509 12.6 12.7309 12.632 12.7869 12.696C12.8509 12.76 12.8829 12.84 12.8829 12.936V20.616C12.8829 20.736 12.8429 20.832 12.7629 20.904C12.6909 20.968 12.6069 21 12.5109 21C12.4629 21 12.4109 20.992 12.3549 20.976C12.2989 20.952 12.2549 20.92 12.2229 20.88L6.87086 13.668L7.07486 13.56V20.676C7.07486 20.764 7.04286 20.84 6.97886 20.904C6.91486 20.968 6.83486 21 6.73886 21C6.63486 21 6.55086 20.968 6.48686 20.904C6.43086 20.84 6.40286 20.764 6.40286 20.676V12.96C6.40286 12.84 6.43886 12.752 6.51086 12.696C6.58286 12.632 6.66286 12.6 6.75086 12.6C6.79886 12.6 6.85086 12.612 6.90686 12.636C6.96286 12.652 7.00686 12.684 7.03886 12.732L12.3309 19.86L12.2109 20.076V12.936C12.2109 12.84 12.2429 12.76 12.3069 12.696C12.3789 12.632 12.4589 12.6 12.5469 12.6ZM20.2213 14.868C20.3253 14.868 20.4093 14.904 20.4733 14.976C20.5453 15.048 20.5813 15.136 20.5813 15.24V20.64C20.5813 20.736 20.5453 20.82 20.4733 20.892C20.4013 20.964 20.3173 21 20.2213 21C20.1173 21 20.0293 20.964 19.9573 20.892C19.8933 20.82 19.8613 20.736 19.8613 20.64V19.212L20.0653 19.116C20.0653 19.34 20.0013 19.568 19.8733 19.8C19.7533 20.032 19.5853 20.248 19.3693 20.448C19.1533 20.648 18.8973 20.812 18.6013 20.94C18.3133 21.06 18.0013 21.12 17.6653 21.12C17.1213 21.12 16.6333 20.98 16.2013 20.7C15.7773 20.42 15.4413 20.036 15.1933 19.548C14.9533 19.06 14.8333 18.512 14.8333 17.904C14.8333 17.28 14.9573 16.732 15.2053 16.26C15.4533 15.78 15.7893 15.404 16.2133 15.132C16.6373 14.86 17.1173 14.724 17.6533 14.724C17.9973 14.724 18.3173 14.784 18.6133 14.904C18.9173 15.024 19.1813 15.188 19.4053 15.396C19.6293 15.604 19.8013 15.844 19.9213 16.116C20.0493 16.38 20.1133 16.656 20.1133 16.944L19.8613 16.764V15.24C19.8613 15.136 19.8933 15.048 19.9573 14.976C20.0293 14.904 20.1173 14.868 20.2213 14.868ZM17.7253 20.448C18.1493 20.448 18.5253 20.34 18.8533 20.124C19.1813 19.9 19.4373 19.596 19.6213 19.212C19.8133 18.82 19.9093 18.384 19.9093 17.904C19.9093 17.432 19.8133 17.008 19.6213 16.632C19.4373 16.256 19.1813 15.956 18.8533 15.732C18.5253 15.508 18.1493 15.396 17.7253 15.396C17.3093 15.396 16.9333 15.504 16.5973 15.72C16.2693 15.936 16.0093 16.232 15.8173 16.608C15.6333 16.984 15.5413 17.416 15.5413 17.904C15.5413 18.384 15.6333 18.82 15.8173 19.212C16.0093 19.596 16.2693 19.9 16.5973 20.124C16.9253 20.34 17.3013 20.448 17.7253 20.448ZM22.3147 14.892H25.1107C25.2067 14.892 25.2867 14.928 25.3507 15C25.4147 15.064 25.4467 15.144 25.4467 15.24C25.4467 15.328 25.4147 15.404 25.3507 15.468C25.2867 15.532 25.2067 15.564 25.1107 15.564H22.3147C22.2187 15.564 22.1347 15.532 22.0627 15.468C21.9987 15.396 21.9667 15.316 21.9667 15.228C21.9667 15.132 21.9987 15.052 22.0627 14.988C22.1347 14.924 22.2187 14.892 22.3147 14.892ZM23.5507 13.2C23.6547 13.2 23.7387 13.236 23.8027 13.308C23.8747 13.38 23.9107 13.464 23.9107 13.56V19.584C23.9107 19.808 23.9387 19.976 23.9947 20.088C24.0587 20.2 24.1387 20.276 24.2347 20.316C24.3307 20.348 24.4267 20.364 24.5227 20.364C24.5867 20.364 24.6427 20.356 24.6907 20.34C24.7467 20.316 24.8067 20.304 24.8707 20.304C24.9427 20.304 25.0027 20.332 25.0507 20.388C25.1067 20.444 25.1347 20.516 25.1347 20.604C25.1347 20.716 25.0707 20.812 24.9427 20.892C24.8147 20.964 24.6627 21 24.4867 21C24.4147 21 24.3067 20.996 24.1627 20.988C24.0187 20.972 23.8707 20.928 23.7187 20.856C23.5667 20.776 23.4387 20.64 23.3347 20.448C23.2387 20.256 23.1907 19.98 23.1907 19.62V13.56C23.1907 13.464 23.2227 13.38 23.2867 13.308C23.3587 13.236 23.4467 13.2 23.5507 13.2ZM27.7131 20.64C27.7131 20.736 27.6771 20.82 27.6051 20.892C27.5331 20.964 27.4491 21 27.3531 21C27.2491 21 27.1611 20.964 27.0891 20.892C27.0251 20.82 26.9931 20.736 26.9931 20.64V15.12C26.9931 15.024 27.0251 14.94 27.0891 14.868C27.1611 14.796 27.2491 14.76 27.3531 14.76C27.4571 14.76 27.5411 14.796 27.6051 14.868C27.6771 14.94 27.7131 15.024 27.7131 15.12V20.64ZM27.3531 13.956C27.1851 13.956 27.0571 13.92 26.9691 13.848C26.8891 13.768 26.8491 13.656 26.8491 13.512V13.392C26.8491 13.248 26.8931 13.14 26.9811 13.068C27.0771 12.988 27.2051 12.948 27.3651 12.948C27.5171 12.948 27.6331 12.988 27.7131 13.068C27.8011 13.14 27.8451 13.248 27.8451 13.392V13.512C27.8451 13.656 27.8011 13.768 27.7131 13.848C27.6331 13.92 27.5131 13.956 27.3531 13.956ZM35.5355 17.928C35.5355 18.536 35.4035 19.084 35.1395 19.572C34.8755 20.052 34.5155 20.432 34.0595 20.712C33.6035 20.984 33.0835 21.12 32.4995 21.12C31.9315 21.12 31.4155 20.984 30.9515 20.712C30.4955 20.432 30.1315 20.052 29.8595 19.572C29.5955 19.084 29.4635 18.536 29.4635 17.928C29.4635 17.312 29.5955 16.764 29.8595 16.284C30.1315 15.804 30.4955 15.424 30.9515 15.144C31.4155 14.864 31.9315 14.724 32.4995 14.724C33.0835 14.724 33.6035 14.864 34.0595 15.144C34.5155 15.424 34.8755 15.804 35.1395 16.284C35.4035 16.764 35.5355 17.312 35.5355 17.928ZM34.8155 17.928C34.8155 17.44 34.7155 17.008 34.5155 16.632C34.3155 16.248 34.0395 15.948 33.6875 15.732C33.3435 15.508 32.9475 15.396 32.4995 15.396C32.0675 15.396 31.6755 15.508 31.3235 15.732C30.9715 15.948 30.6915 16.248 30.4835 16.632C30.2835 17.008 30.1835 17.44 30.1835 17.928C30.1835 18.416 30.2835 18.848 30.4835 19.224C30.6915 19.6 30.9715 19.9 31.3235 20.124C31.6755 20.34 32.0675 20.448 32.4995 20.448C32.9475 20.448 33.3435 20.34 33.6875 20.124C34.0395 19.9 34.3155 19.6 34.5155 19.224C34.7155 18.848 34.8155 18.416 34.8155 17.928ZM40.1977 14.724C40.7257 14.724 41.1457 14.832 41.4577 15.048C41.7777 15.256 42.0057 15.544 42.1417 15.912C42.2857 16.272 42.3577 16.672 42.3577 17.112V20.64C42.3577 20.736 42.3217 20.82 42.2497 20.892C42.1777 20.964 42.0937 21 41.9977 21C41.8857 21 41.7977 20.964 41.7337 20.892C41.6697 20.82 41.6377 20.736 41.6377 20.64V17.148C41.6377 16.828 41.5857 16.536 41.4817 16.272C41.3777 16.008 41.2057 15.796 40.9657 15.636C40.7337 15.476 40.4257 15.396 40.0417 15.396C39.6977 15.396 39.3697 15.476 39.0577 15.636C38.7537 15.796 38.5057 16.008 38.3137 16.272C38.1217 16.536 38.0257 16.828 38.0257 17.148V20.64C38.0257 20.736 37.9897 20.82 37.9177 20.892C37.8457 20.964 37.7617 21 37.6657 21C37.5537 21 37.4657 20.964 37.4017 20.892C37.3377 20.82 37.3057 20.736 37.3057 20.64V15.264C37.3057 15.168 37.3377 15.084 37.4017 15.012C37.4737 14.94 37.5617 14.904 37.6657 14.904C37.7697 14.904 37.8537 14.94 37.9177 15.012C37.9897 15.084 38.0257 15.168 38.0257 15.264V16.272L37.7497 16.704C37.7657 16.448 37.8457 16.204 37.9897 15.972C38.1417 15.732 38.3337 15.52 38.5657 15.336C38.7977 15.144 39.0537 14.996 39.3337 14.892C39.6217 14.78 39.9097 14.724 40.1977 14.724ZM49.5112 14.868C49.6152 14.868 49.6992 14.904 49.7632 14.976C49.8352 15.048 49.8712 15.136 49.8712 15.24V20.64C49.8712 20.736 49.8352 20.82 49.7632 20.892C49.6912 20.964 49.6072 21 49.5112 21C49.4072 21 49.3192 20.964 49.2472 20.892C49.1832 20.82 49.1512 20.736 49.1512 20.64V19.212L49.3552 19.116C49.3552 19.34 49.2912 19.568 49.1632 19.8C49.0432 20.032 48.8752 20.248 48.6592 20.448C48.4432 20.648 48.1872 20.812 47.8912 20.94C47.6032 21.06 47.2912 21.12 46.9552 21.12C46.4112 21.12 45.9232 20.98 45.4912 20.7C45.0672 20.42 44.7312 20.036 44.4832 19.548C44.2432 19.06 44.1232 18.512 44.1232 17.904C44.1232 17.28 44.2472 16.732 44.4952 16.26C44.7432 15.78 45.0792 15.404 45.5032 15.132C45.9272 14.86 46.4072 14.724 46.9432 14.724C47.2872 14.724 47.6072 14.784 47.9032 14.904C48.2072 15.024 48.4712 15.188 48.6952 15.396C48.9192 15.604 49.0912 15.844 49.2112 16.116C49.3392 16.38 49.4032 16.656 49.4032 16.944L49.1512 16.764V15.24C49.1512 15.136 49.1832 15.048 49.2472 14.976C49.3192 14.904 49.4072 14.868 49.5112 14.868ZM47.0152 20.448C47.4392 20.448 47.8152 20.34 48.1432 20.124C48.4712 19.9 48.7272 19.596 48.9112 19.212C49.1032 18.82 49.1992 18.384 49.1992 17.904C49.1992 17.432 49.1032 17.008 48.9112 16.632C48.7272 16.256 48.4712 15.956 48.1432 15.732C47.8152 15.508 47.4392 15.396 47.0152 15.396C46.5992 15.396 46.2232 15.504 45.8872 15.72C45.5592 15.936 45.2992 16.232 45.1072 16.608C44.9232 16.984 44.8312 17.416 44.8312 17.904C44.8312 18.384 44.9232 18.82 45.1072 19.212C45.2992 19.596 45.5592 19.9 45.8872 20.124C46.2152 20.34 46.5912 20.448 47.0152 20.448ZM52.7925 20.64C52.7925 20.736 52.7565 20.82 52.6845 20.892C52.6125 20.964 52.5285 21 52.4325 21C52.3285 21 52.2405 20.964 52.1685 20.892C52.1045 20.82 52.0725 20.736 52.0725 20.64V12.48C52.0725 12.384 52.1085 12.3 52.1805 12.228C52.2525 12.156 52.3365 12.12 52.4325 12.12C52.5365 12.12 52.6205 12.156 52.6845 12.228C52.7565 12.3 52.7925 12.384 52.7925 12.48V20.64ZM61.9114 12.6C62.3594 12.6 62.7554 12.704 63.0994 12.912C63.4434 13.112 63.7154 13.392 63.9154 13.752C64.1154 14.112 64.2154 14.524 64.2154 14.988C64.2154 15.452 64.1154 15.872 63.9154 16.248C63.7154 16.616 63.4434 16.908 63.0994 17.124C62.7554 17.34 62.3594 17.448 61.9114 17.448H59.3674L59.4274 17.328V20.64C59.4274 20.736 59.3914 20.82 59.3194 20.892C59.2474 20.964 59.1634 21 59.0674 21C58.9554 21 58.8674 20.964 58.8034 20.892C58.7394 20.82 58.7074 20.736 58.7074 20.64V12.96C58.7074 12.864 58.7434 12.78 58.8154 12.708C58.8874 12.636 58.9714 12.6 59.0674 12.6H61.9114ZM61.9114 16.752C62.2234 16.752 62.4954 16.676 62.7274 16.524C62.9594 16.364 63.1394 16.152 63.2674 15.888C63.4034 15.616 63.4714 15.316 63.4714 14.988C63.4714 14.66 63.4034 14.372 63.2674 14.124C63.1394 13.868 62.9594 13.668 62.7274 13.524C62.4954 13.38 62.2234 13.308 61.9114 13.308H59.3674L59.4274 13.2V16.824L59.3554 16.752H61.9114ZM71.5106 17.928C71.5106 18.536 71.3786 19.084 71.1146 19.572C70.8506 20.052 70.4906 20.432 70.0346 20.712C69.5786 20.984 69.0586 21.12 68.4746 21.12C67.9066 21.12 67.3906 20.984 66.9266 20.712C66.4706 20.432 66.1066 20.052 65.8346 19.572C65.5706 19.084 65.4386 18.536 65.4386 17.928C65.4386 17.312 65.5706 16.764 65.8346 16.284C66.1066 15.804 66.4706 15.424 66.9266 15.144C67.3906 14.864 67.9066 14.724 68.4746 14.724C69.0586 14.724 69.5786 14.864 70.0346 15.144C70.4906 15.424 70.8506 15.804 71.1146 16.284C71.3786 16.764 71.5106 17.312 71.5106 17.928ZM70.7906 17.928C70.7906 17.44 70.6906 17.008 70.4906 16.632C70.2906 16.248 70.0146 15.948 69.6626 15.732C69.3186 15.508 68.9226 15.396 68.4746 15.396C68.0426 15.396 67.6506 15.508 67.2986 15.732C66.9466 15.948 66.6666 16.248 66.4586 16.632C66.2586 17.008 66.1586 17.44 66.1586 17.928C66.1586 18.416 66.2586 18.848 66.4586 19.224C66.6666 19.6 66.9466 19.9 67.2986 20.124C67.6506 20.34 68.0426 20.448 68.4746 20.448C68.9226 20.448 69.3186 20.34 69.6626 20.124C70.0146 19.9 70.2906 19.6 70.4906 19.224C70.6906 18.848 70.7906 18.416 70.7906 17.928ZM74.0728 20.64C74.0728 20.736 74.0368 20.82 73.9648 20.892C73.8928 20.964 73.8088 21 73.7128 21C73.6088 21 73.5208 20.964 73.4488 20.892C73.3848 20.82 73.3528 20.736 73.3528 20.64V12.48C73.3528 12.384 73.3888 12.3 73.4608 12.228C73.5328 12.156 73.6168 12.12 73.7128 12.12C73.8168 12.12 73.9008 12.156 73.9648 12.228C74.0368 12.3 74.0728 12.384 74.0728 12.48V20.64ZM76.9825 20.64C76.9825 20.736 76.9465 20.82 76.8745 20.892C76.8025 20.964 76.7185 21 76.6225 21C76.5185 21 76.4305 20.964 76.3585 20.892C76.2945 20.82 76.2625 20.736 76.2625 20.64V15.12C76.2625 15.024 76.2945 14.94 76.3585 14.868C76.4305 14.796 76.5185 14.76 76.6225 14.76C76.7265 14.76 76.8105 14.796 76.8745 14.868C76.9465 14.94 76.9825 15.024 76.9825 15.12V20.64ZM76.6225 13.956C76.4545 13.956 76.3265 13.92 76.2385 13.848C76.1585 13.768 76.1185 13.656 76.1185 13.512V13.392C76.1185 13.248 76.1625 13.14 76.2505 13.068C76.3465 12.988 76.4745 12.948 76.6345 12.948C76.7865 12.948 76.9025 12.988 76.9825 13.068C77.0705 13.14 77.1145 13.248 77.1145 13.392V13.512C77.1145 13.656 77.0705 13.768 76.9825 13.848C76.9025 13.92 76.7825 13.956 76.6225 13.956ZM78.7449 20.028C78.6809 19.932 78.6489 19.84 78.6489 19.752C78.6569 19.656 78.7089 19.58 78.8049 19.524C78.8689 19.468 78.9409 19.444 79.0209 19.452C79.1089 19.46 79.1889 19.5 79.2609 19.572C79.4769 19.852 79.7369 20.08 80.0409 20.256C80.3529 20.424 80.7209 20.508 81.1449 20.508C81.3689 20.508 81.5889 20.472 81.8049 20.4C82.0289 20.32 82.2129 20.204 82.3569 20.052C82.5009 19.892 82.5729 19.692 82.5729 19.452C82.5729 19.204 82.5009 19.004 82.3569 18.852C82.2129 18.7 82.0249 18.58 81.7929 18.492C81.5689 18.404 81.3289 18.328 81.0729 18.264C80.8009 18.192 80.5369 18.112 80.2809 18.024C80.0249 17.928 79.7969 17.812 79.5969 17.676C79.4049 17.532 79.2489 17.36 79.1289 17.16C79.0089 16.96 78.9489 16.716 78.9489 16.428C78.9489 16.092 79.0409 15.796 79.2249 15.54C79.4089 15.284 79.6569 15.084 79.9689 14.94C80.2889 14.796 80.6489 14.724 81.0489 14.724C81.2489 14.724 81.4649 14.752 81.6969 14.808C81.9289 14.856 82.1569 14.94 82.3809 15.06C82.6049 15.18 82.8049 15.344 82.9809 15.552C83.0529 15.624 83.0889 15.708 83.0889 15.804C83.0889 15.892 83.0489 15.972 82.9689 16.044C82.9049 16.092 82.8289 16.116 82.7409 16.116C82.6609 16.116 82.5929 16.084 82.5369 16.02C82.3449 15.804 82.1169 15.64 81.8529 15.528C81.5889 15.416 81.3049 15.36 81.0009 15.36C80.7689 15.36 80.5489 15.4 80.3409 15.48C80.1409 15.552 79.9729 15.664 79.8369 15.816C79.7009 15.968 79.6329 16.168 79.6329 16.416C79.6489 16.648 79.7289 16.836 79.8729 16.98C80.0249 17.124 80.2209 17.244 80.4609 17.34C80.7089 17.436 80.9849 17.524 81.2889 17.604C81.5449 17.668 81.7889 17.744 82.0209 17.832C82.2609 17.92 82.4689 18.032 82.6449 18.168C82.8289 18.296 82.9729 18.46 83.0769 18.66C83.1889 18.86 83.2449 19.112 83.2449 19.416C83.2449 19.768 83.1449 20.072 82.9449 20.328C82.7529 20.584 82.4929 20.78 82.1649 20.916C81.8369 21.052 81.4729 21.12 81.0729 21.12C80.6409 21.12 80.2209 21.036 79.8129 20.868C79.4129 20.7 79.0569 20.42 78.7449 20.028ZM87.7539 14.82C88.2579 14.82 88.6659 14.928 88.9779 15.144C89.2899 15.36 89.5179 15.652 89.6619 16.02C89.8139 16.388 89.8899 16.796 89.8899 17.244V20.64C89.8899 20.736 89.8539 20.82 89.7819 20.892C89.7099 20.964 89.6259 21 89.5299 21C89.4179 21 89.3299 20.964 89.2659 20.892C89.2019 20.82 89.1699 20.736 89.1699 20.64V17.244C89.1699 16.916 89.1179 16.62 89.0139 16.356C88.9179 16.092 88.7579 15.884 88.5339 15.732C88.3099 15.572 88.0099 15.492 87.6339 15.492C87.2979 15.492 86.9779 15.572 86.6739 15.732C86.3779 15.884 86.1379 16.092 85.9539 16.356C85.7699 16.62 85.6779 16.916 85.6779 17.244V20.64C85.6779 20.736 85.6419 20.82 85.5699 20.892C85.4979 20.964 85.4139 21 85.3179 21C85.2059 21 85.1179 20.964 85.0539 20.892C84.9899 20.82 84.9579 20.736 84.9579 20.64V12.48C84.9579 12.384 84.9899 12.3 85.0539 12.228C85.1259 12.156 85.2139 12.12 85.3179 12.12C85.4219 12.12 85.5059 12.156 85.5699 12.228C85.6419 12.3 85.6779 12.384 85.6779 12.48V16.368L85.4019 16.788C85.4179 16.54 85.4939 16.3 85.6299 16.068C85.7739 15.828 85.9579 15.616 86.1819 15.432C86.4059 15.24 86.6539 15.092 86.9259 14.988C87.1979 14.876 87.4739 14.82 87.7539 14.82ZM26.8259 26.6C27.2739 26.6 27.6699 26.704 28.0139 26.912C28.3579 27.112 28.6299 27.392 28.8299 27.752C29.0299 28.112 29.1299 28.524 29.1299 28.988C29.1299 29.452 29.0299 29.872 28.8299 30.248C28.6299 30.616 28.3579 30.908 28.0139 31.124C27.6699 31.34 27.2739 31.448 26.8259 31.448H24.2819L24.3419 31.328V34.64C24.3419 34.736 24.3059 34.82 24.2339 34.892C24.1619 34.964 24.0779 35 23.9819 35C23.8699 35 23.7819 34.964 23.7179 34.892C23.6539 34.82 23.6219 34.736 23.6219 34.64V26.96C23.6219 26.864 23.6579 26.78 23.7299 26.708C23.8019 26.636 23.8859 26.6 23.9819 26.6H26.8259ZM26.8259 30.752C27.1379 30.752 27.4099 30.676 27.6419 30.524C27.8739 30.364 28.0539 30.152 28.1819 29.888C28.3179 29.616 28.3859 29.316 28.3859 28.988C28.3859 28.66 28.3179 28.372 28.1819 28.124C28.0539 27.868 27.8739 27.668 27.6419 27.524C27.4099 27.38 27.1379 27.308 26.8259 27.308H24.2819L24.3419 27.2V30.824L24.2699 30.752H26.8259ZM31.1904 35C31.0784 35 30.9904 34.964 30.9264 34.892C30.8624 34.82 30.8304 34.736 30.8304 34.64V29.264C30.8304 29.168 30.8624 29.084 30.9264 29.012C30.9984 28.94 31.0864 28.904 31.1904 28.904C31.2944 28.904 31.3784 28.94 31.4424 29.012C31.5144 29.084 31.5504 29.168 31.5504 29.264V31.064L31.3704 31.1C31.3944 30.82 31.4624 30.544 31.5744 30.272C31.6944 29.992 31.8544 29.736 32.0544 29.504C32.2544 29.272 32.4904 29.084 32.7624 28.94C33.0424 28.796 33.3544 28.724 33.6984 28.724C33.8424 28.724 33.9824 28.756 34.1184 28.82C34.2544 28.876 34.3224 28.972 34.3224 29.108C34.3224 29.228 34.2904 29.32 34.2264 29.384C34.1624 29.448 34.0864 29.48 33.9984 29.48C33.9264 29.48 33.8464 29.46 33.7584 29.42C33.6784 29.38 33.5704 29.36 33.4344 29.36C33.2104 29.36 32.9864 29.428 32.7624 29.564C32.5384 29.692 32.3344 29.868 32.1504 30.092C31.9664 30.316 31.8184 30.568 31.7064 30.848C31.6024 31.12 31.5504 31.396 31.5504 31.676V34.64C31.5504 34.736 31.5144 34.82 31.4424 34.892C31.3704 34.964 31.2864 35 31.1904 35ZM41.13 31.928C41.13 32.536 40.998 33.084 40.734 33.572C40.47 34.052 40.11 34.432 39.654 34.712C39.198 34.984 38.678 35.12 38.094 35.12C37.526 35.12 37.01 34.984 36.546 34.712C36.09 34.432 35.726 34.052 35.454 33.572C35.19 33.084 35.058 32.536 35.058 31.928C35.058 31.312 35.19 30.764 35.454 30.284C35.726 29.804 36.09 29.424 36.546 29.144C37.01 28.864 37.526 28.724 38.094 28.724C38.678 28.724 39.198 28.864 39.654 29.144C40.11 29.424 40.47 29.804 40.734 30.284C40.998 30.764 41.13 31.312 41.13 31.928ZM40.41 31.928C40.41 31.44 40.31 31.008 40.11 30.632C39.91 30.248 39.634 29.948 39.282 29.732C38.938 29.508 38.542 29.396 38.094 29.396C37.662 29.396 37.27 29.508 36.918 29.732C36.566 29.948 36.286 30.248 36.078 30.632C35.878 31.008 35.778 31.44 35.778 31.928C35.778 32.416 35.878 32.848 36.078 33.224C36.286 33.6 36.566 33.9 36.918 34.124C37.27 34.34 37.662 34.448 38.094 34.448C38.542 34.448 38.938 34.34 39.282 34.124C39.634 33.9 39.91 33.6 40.11 33.224C40.31 32.848 40.41 32.416 40.41 31.928ZM45.4562 28.724C45.8162 28.724 46.1482 28.788 46.4522 28.916C46.7562 29.036 47.0202 29.196 47.2442 29.396C47.4762 29.588 47.6562 29.796 47.7842 30.02C47.9122 30.236 47.9762 30.444 47.9762 30.644L47.7722 30.356V29.24C47.7722 29.136 47.8042 29.048 47.8682 28.976C47.9402 28.904 48.0282 28.868 48.1322 28.868C48.2442 28.868 48.3322 28.904 48.3962 28.976C48.4602 29.048 48.4922 29.136 48.4922 29.24V34.436C48.4922 35.076 48.3602 35.616 48.0962 36.056C47.8322 36.496 47.4722 36.828 47.0162 37.052C46.5682 37.284 46.0562 37.4 45.4802 37.4C45.2002 37.4 44.9042 37.364 44.5922 37.292C44.2882 37.22 44.0242 37.128 43.8002 37.016C43.5842 36.904 43.4642 36.788 43.4402 36.668C43.3762 36.596 43.3442 36.524 43.3442 36.452C43.3522 36.388 43.3882 36.332 43.4522 36.284C43.5322 36.228 43.6162 36.22 43.7042 36.26C43.7922 36.308 43.9242 36.368 44.1002 36.44C44.1802 36.464 44.2882 36.5 44.4242 36.548C44.5602 36.596 44.7202 36.636 44.9042 36.668C45.0962 36.708 45.2962 36.728 45.5042 36.728C46.2242 36.728 46.7802 36.52 47.1722 36.104C47.5722 35.696 47.7722 35.156 47.7722 34.484V33.332L47.9042 33.368C47.8322 33.656 47.7122 33.908 47.5442 34.124C47.3842 34.34 47.1922 34.524 46.9682 34.676C46.7442 34.82 46.5002 34.928 46.2362 35C45.9802 35.08 45.7242 35.12 45.4682 35.12C44.9162 35.12 44.4202 34.98 43.9802 34.7C43.5402 34.42 43.1882 34.04 42.9242 33.56C42.6682 33.08 42.5402 32.532 42.5402 31.916C42.5402 31.308 42.6682 30.764 42.9242 30.284C43.1882 29.796 43.5362 29.416 43.9682 29.144C44.4082 28.864 44.9042 28.724 45.4562 28.724ZM45.5402 29.396C45.1002 29.396 44.7042 29.508 44.3522 29.732C44.0082 29.948 43.7362 30.248 43.5362 30.632C43.3442 31.008 43.2482 31.436 43.2482 31.916C43.2482 32.396 43.3442 32.828 43.5362 33.212C43.7362 33.596 44.0082 33.9 44.3522 34.124C44.7042 34.34 45.1002 34.448 45.5402 34.448C45.9802 34.448 46.3722 34.34 46.7162 34.124C47.0602 33.908 47.3322 33.612 47.5322 33.236C47.7322 32.852 47.8322 32.412 47.8322 31.916C47.8322 31.42 47.7322 30.984 47.5322 30.608C47.3322 30.224 47.0602 29.928 46.7162 29.72C46.3722 29.504 45.9802 29.396 45.5402 29.396ZM50.9885 35C50.8765 35 50.7885 34.964 50.7245 34.892C50.6605 34.82 50.6285 34.736 50.6285 34.64V29.264C50.6285 29.168 50.6605 29.084 50.7245 29.012C50.7965 28.94 50.8845 28.904 50.9885 28.904C51.0925 28.904 51.1765 28.94 51.2405 29.012C51.3125 29.084 51.3485 29.168 51.3485 29.264V31.064L51.1685 31.1C51.1925 30.82 51.2605 30.544 51.3725 30.272C51.4925 29.992 51.6525 29.736 51.8525 29.504C52.0525 29.272 52.2885 29.084 52.5605 28.94C52.8405 28.796 53.1525 28.724 53.4965 28.724C53.6405 28.724 53.7805 28.756 53.9165 28.82C54.0525 28.876 54.1205 28.972 54.1205 29.108C54.1205 29.228 54.0885 29.32 54.0245 29.384C53.9605 29.448 53.8845 29.48 53.7965 29.48C53.7245 29.48 53.6445 29.46 53.5565 29.42C53.4765 29.38 53.3685 29.36 53.2325 29.36C53.0085 29.36 52.7845 29.428 52.5605 29.564C52.3365 29.692 52.1325 29.868 51.9485 30.092C51.7645 30.316 51.6165 30.568 51.5045 30.848C51.4005 31.12 51.3485 31.396 51.3485 31.676V34.64C51.3485 34.736 51.3125 34.82 51.2405 34.892C51.1685 34.964 51.0845 35 50.9885 35ZM60.3731 28.868C60.4771 28.868 60.5611 28.904 60.6251 28.976C60.6971 29.048 60.7331 29.136 60.7331 29.24V34.64C60.7331 34.736 60.6971 34.82 60.6251 34.892C60.5531 34.964 60.4691 35 60.3731 35C60.2691 35 60.1811 34.964 60.1091 34.892C60.0451 34.82 60.0131 34.736 60.0131 34.64V33.212L60.2171 33.116C60.2171 33.34 60.1531 33.568 60.0251 33.8C59.9051 34.032 59.7371 34.248 59.5211 34.448C59.3051 34.648 59.0491 34.812 58.7531 34.94C58.4651 35.06 58.1531 35.12 57.8171 35.12C57.2731 35.12 56.7851 34.98 56.3531 34.7C55.9291 34.42 55.5931 34.036 55.3451 33.548C55.1051 33.06 54.9851 32.512 54.9851 31.904C54.9851 31.28 55.1091 30.732 55.3571 30.26C55.6051 29.78 55.9411 29.404 56.3651 29.132C56.7891 28.86 57.2691 28.724 57.8051 28.724C58.1491 28.724 58.4691 28.784 58.7651 28.904C59.0691 29.024 59.3331 29.188 59.5571 29.396C59.7811 29.604 59.9531 29.844 60.0731 30.116C60.2011 30.38 60.2651 30.656 60.2651 30.944L60.0131 30.764V29.24C60.0131 29.136 60.0451 29.048 60.1091 28.976C60.1811 28.904 60.2691 28.868 60.3731 28.868ZM57.8771 34.448C58.3011 34.448 58.6771 34.34 59.0051 34.124C59.3331 33.9 59.5891 33.596 59.7731 33.212C59.9651 32.82 60.0611 32.384 60.0611 31.904C60.0611 31.432 59.9651 31.008 59.7731 30.632C59.5891 30.256 59.3331 29.956 59.0051 29.732C58.6771 29.508 58.3011 29.396 57.8771 29.396C57.4611 29.396 57.0851 29.504 56.7491 29.72C56.4211 29.936 56.1611 30.232 55.9691 30.608C55.7851 30.984 55.6931 31.416 55.6931 31.904C55.6931 32.384 55.7851 32.82 55.9691 33.212C56.1611 33.596 56.4211 33.9 56.7491 34.124C57.0771 34.34 57.4531 34.448 57.8771 34.448ZM65.6224 28.82C66.1184 28.82 66.5424 28.952 66.8944 29.216C67.2464 29.472 67.4864 29.856 67.6144 30.368L67.4464 30.416L67.5184 30.2C67.6224 29.96 67.7944 29.736 68.0344 29.528C68.2824 29.312 68.5624 29.14 68.8744 29.012C69.1864 28.884 69.5024 28.82 69.8224 28.82C70.3264 28.82 70.7304 28.928 71.0344 29.144C71.3464 29.36 71.5704 29.652 71.7064 30.02C71.8504 30.38 71.9224 30.788 71.9224 31.244V34.64C71.9224 34.736 71.8864 34.82 71.8144 34.892C71.7504 34.964 71.6664 35 71.5624 35C71.4584 35 71.3704 34.964 71.2984 34.892C71.2344 34.82 71.2024 34.736 71.2024 34.64V31.28C71.2024 30.952 71.1504 30.652 71.0464 30.38C70.9424 30.108 70.7784 29.892 70.5544 29.732C70.3304 29.572 70.0304 29.492 69.6544 29.492C69.3264 29.492 69.0104 29.572 68.7064 29.732C68.4104 29.892 68.1664 30.108 67.9744 30.38C67.7904 30.652 67.6984 30.952 67.6984 31.28V34.64C67.6984 34.736 67.6624 34.82 67.5904 34.892C67.5264 34.964 67.4424 35 67.3384 35C67.2344 35 67.1464 34.964 67.0744 34.892C67.0104 34.82 66.9784 34.736 66.9784 34.64V31.244C66.9784 30.916 66.9304 30.62 66.8344 30.356C66.7384 30.092 66.5824 29.884 66.3664 29.732C66.1504 29.572 65.8584 29.492 65.4904 29.492C65.1624 29.492 64.8504 29.572 64.5544 29.732C64.2664 29.884 64.0304 30.092 63.8464 30.356C63.6704 30.62 63.5824 30.916 63.5824 31.244V34.64C63.5824 34.736 63.5464 34.82 63.4744 34.892C63.4024 34.964 63.3184 35 63.2224 35C63.1104 35 63.0224 34.964 62.9584 34.892C62.8944 34.82 62.8624 34.736 62.8624 34.64V29.264C62.8624 29.168 62.8944 29.084 62.9584 29.012C63.0304 28.94 63.1184 28.904 63.2224 28.904C63.3264 28.904 63.4104 28.94 63.4744 29.012C63.5464 29.084 63.5824 29.168 63.5824 29.264V30.38L63.2584 30.824C63.2824 30.584 63.3584 30.344 63.4864 30.104C63.6224 29.864 63.7984 29.648 64.0144 29.456C64.2304 29.264 64.4744 29.112 64.7464 29C65.0264 28.88 65.3184 28.82 65.6224 28.82ZM76.8077 28.82C77.3037 28.82 77.7277 28.952 78.0797 29.216C78.4317 29.472 78.6717 29.856 78.7997 30.368L78.6317 30.416L78.7037 30.2C78.8077 29.96 78.9797 29.736 79.2197 29.528C79.4677 29.312 79.7477 29.14 80.0597 29.012C80.3717 28.884 80.6877 28.82 81.0077 28.82C81.5117 28.82 81.9157 28.928 82.2197 29.144C82.5317 29.36 82.7557 29.652 82.8917 30.02C83.0357 30.38 83.1077 30.788 83.1077 31.244V34.64C83.1077 34.736 83.0717 34.82 82.9997 34.892C82.9357 34.964 82.8517 35 82.7477 35C82.6437 35 82.5557 34.964 82.4837 34.892C82.4197 34.82 82.3877 34.736 82.3877 34.64V31.28C82.3877 30.952 82.3357 30.652 82.2317 30.38C82.1277 30.108 81.9637 29.892 81.7397 29.732C81.5157 29.572 81.2157 29.492 80.8397 29.492C80.5117 29.492 80.1957 29.572 79.8917 29.732C79.5957 29.892 79.3517 30.108 79.1597 30.38C78.9757 30.652 78.8837 30.952 78.8837 31.28V34.64C78.8837 34.736 78.8477 34.82 78.7757 34.892C78.7117 34.964 78.6277 35 78.5237 35C78.4197 35 78.3317 34.964 78.2597 34.892C78.1957 34.82 78.1637 34.736 78.1637 34.64V31.244C78.1637 30.916 78.1157 30.62 78.0197 30.356C77.9237 30.092 77.7677 29.884 77.5517 29.732C77.3357 29.572 77.0437 29.492 76.6757 29.492C76.3477 29.492 76.0357 29.572 75.7397 29.732C75.4517 29.884 75.2157 30.092 75.0317 30.356C74.8557 30.62 74.7677 30.916 74.7677 31.244V34.64C74.7677 34.736 74.7317 34.82 74.6597 34.892C74.5877 34.964 74.5037 35 74.4077 35C74.2957 35 74.2077 34.964 74.1437 34.892C74.0797 34.82 74.0477 34.736 74.0477 34.64V29.264C74.0477 29.168 74.0797 29.084 74.1437 29.012C74.2157 28.94 74.3037 28.904 74.4077 28.904C74.5117 28.904 74.5957 28.94 74.6597 29.012C74.7317 29.084 74.7677 29.168 74.7677 29.264V30.38L74.4437 30.824C74.4677 30.584 74.5437 30.344 74.6717 30.104C74.8077 29.864 74.9837 29.648 75.1997 29.456C75.4157 29.264 75.6597 29.112 75.9317 29C76.2117 28.88 76.5037 28.82 76.8077 28.82ZM88.005 35.12C87.389 35.12 86.845 34.988 86.373 34.724C85.901 34.46 85.533 34.092 85.269 33.62C85.005 33.148 84.873 32.596 84.873 31.964C84.873 31.284 85.005 30.704 85.269 30.224C85.541 29.744 85.889 29.376 86.313 29.12C86.745 28.856 87.201 28.724 87.681 28.724C88.033 28.724 88.373 28.788 88.701 28.916C89.037 29.036 89.333 29.22 89.589 29.468C89.853 29.708 90.061 30.004 90.213 30.356C90.373 30.708 90.461 31.116 90.477 31.58C90.469 31.676 90.429 31.76 90.357 31.832C90.285 31.896 90.201 31.928 90.105 31.928H85.293L85.149 31.28H89.877L89.721 31.424V31.184C89.689 30.808 89.569 30.488 89.361 30.224C89.153 29.96 88.901 29.76 88.605 29.624C88.309 29.488 88.001 29.42 87.681 29.42C87.441 29.42 87.193 29.468 86.937 29.564C86.689 29.66 86.461 29.812 86.253 30.02C86.053 30.22 85.889 30.48 85.761 30.8C85.633 31.112 85.569 31.484 85.569 31.916C85.569 32.388 85.665 32.816 85.857 33.2C86.049 33.584 86.325 33.888 86.685 34.112C87.053 34.336 87.489 34.448 87.993 34.448C88.273 34.448 88.525 34.408 88.749 34.328C88.973 34.248 89.169 34.144 89.337 34.016C89.505 33.88 89.645 33.74 89.757 33.596C89.845 33.524 89.933 33.488 90.021 33.488C90.101 33.488 90.169 33.52 90.225 33.584C90.289 33.648 90.321 33.72 90.321 33.8C90.321 33.896 90.281 33.98 90.201 34.052C89.961 34.34 89.649 34.592 89.265 34.808C88.881 35.016 88.461 35.12 88.005 35.12Z" fill="#040305"/>
<path d="M104.07 4V42" stroke="black" stroke-width="0.23" stroke-linecap="round"/>
<mask id="mask0_9043_2466" style="mask-type:luminance" maskUnits="userSpaceOnUse" x="117" y="0" width="135" height="46">
<path d="M252 0.873611H117.07V45.1264H252V0.873611Z" fill="white"/>
</mask>
<g mask="url(#mask0_9043_2466)">
<path d="M183.094 23.1076C183.252 22.975 183.377 22.8086 183.462 22.6208C183.547 22.433 183.589 22.2284 183.585 22.0222C183.583 20.5866 183.291 19.1661 182.728 17.8463C182.21 16.6563 181.476 15.5733 180.563 14.6524C179.681 13.7627 178.625 13.0655 177.461 12.6048C176.303 12.144 175.069 11.9084 173.823 11.9105C172.133 11.9113 170.474 12.3716 169.025 13.2422C167.475 14.1685 166.204 15.4984 165.348 17.0904C164.362 18.9616 163.877 21.0566 163.939 23.1716C163.898 25.1333 164.362 27.0725 165.287 28.8019C166.17 30.4093 167.486 31.7354 169.085 32.6291C170.85 33.5899 172.836 34.0697 174.845 34.0207C176.281 34.0292 177.699 33.7074 178.992 33.08C180.16 32.5412 181.22 31.7911 182.117 30.8674C182.313 30.7177 182.474 30.5262 182.587 30.3068C182.701 30.0874 182.764 29.8454 182.773 29.5984C182.771 29.2296 182.624 28.8764 182.364 28.6157C182.104 28.355 181.751 28.2078 181.383 28.2063C181 28.2158 180.629 28.3445 180.322 28.5746C179.93 28.9906 179.499 29.3679 179.035 29.7013C178.478 30.0969 177.866 30.4074 177.218 30.6228C176.414 30.8829 175.572 31.0074 174.726 30.9912C173.321 31.0233 171.935 30.6615 170.724 29.9465C169.587 29.2617 168.66 28.277 168.044 27.0999C167.472 25.9967 167.15 24.7802 167.102 23.5376H181.951C182.372 23.5429 182.78 23.3891 183.094 23.1076ZM169.228 16.8219C169.844 16.21 170.581 15.7355 171.393 15.4298C172.169 15.1347 172.992 14.9822 173.823 14.9795C174.824 14.9784 175.812 15.2043 176.714 15.6403C177.616 16.0763 178.408 16.711 179.03 17.4971C179.679 18.3249 180.057 19.3331 180.113 20.3843V20.712H167.282C167.368 20.2224 167.5 19.7419 167.676 19.2768C168.013 18.357 168.542 17.5197 169.227 16.8207" fill="#040305"/>
<path d="M208.542 22.9642C208.577 24.9524 208.091 26.9152 207.133 28.656C206.234 30.2793 204.923 31.6355 203.334 32.5874C201.71 33.552 199.852 34.0487 197.965 34.0226C196.09 34.0472 194.243 33.5613 192.621 32.6167C190.999 31.6721 189.663 30.3041 188.755 28.6584C187.796 26.9176 187.31 24.9549 187.346 22.9666C187.311 20.9783 187.797 19.0156 188.755 17.2747C189.663 15.6296 190.998 14.262 192.62 13.3174C194.241 12.3728 196.087 11.8866 197.962 11.9105C199.849 11.8848 201.707 12.3814 203.331 13.3458C204.92 14.2974 206.231 15.6532 207.13 17.2759C208.088 19.0168 208.574 20.9795 208.539 22.9678M205.23 22.9678C205.263 21.5236 204.933 20.0944 204.271 18.8116C203.661 17.6571 202.76 16.6831 201.657 15.9872C200.55 15.2898 199.266 14.927 197.959 14.9425C196.641 14.9229 195.345 15.2841 194.226 15.983C193.12 16.6817 192.213 17.6545 191.591 18.8074C190.916 20.0861 190.579 21.517 190.612 22.9636C190.583 24.4032 190.919 25.8266 191.59 27.1C192.207 28.2621 193.115 29.2431 194.225 29.9465C195.344 30.6477 196.642 31.0104 197.962 30.9913C199.269 31.0067 200.553 30.644 201.66 29.9465C202.767 29.2458 203.669 28.2637 204.274 27.1C204.932 25.8231 205.262 24.4018 205.233 22.9648" fill="#040305"/>
<path d="M212.216 30.2527C212.003 29.9167 211.896 29.524 211.909 29.126C211.929 28.9103 212 28.7025 212.118 28.5207C212.236 28.3389 212.395 28.1885 212.584 28.0825C212.881 27.8924 213.233 27.806 213.584 27.8367C213.975 27.8763 214.334 28.0675 214.586 28.3695C215.315 29.2437 216.201 29.9728 217.198 30.5188C218.311 31.0822 219.547 31.3568 220.793 31.3177C221.45 31.2855 222.102 31.1755 222.733 30.99C223.373 30.8164 223.952 30.4694 224.408 29.9872C224.874 29.4661 225.116 28.782 225.083 28.0831C225.099 27.7476 225.046 27.4124 224.926 27.0987C224.807 26.7849 224.624 26.4995 224.389 26.2604C223.863 25.7724 223.245 25.3966 222.57 25.1558C221.789 24.8585 220.991 24.6055 220.18 24.3982C219.282 24.1522 218.397 23.8793 217.526 23.5795C216.694 23.2989 215.904 22.9062 215.178 22.4122C214.493 21.9443 213.92 21.3287 213.503 20.6104C213.056 19.7893 212.838 18.863 212.87 17.9283C212.844 16.7821 213.196 15.6594 213.871 14.7343C214.563 13.8133 215.486 13.0928 216.546 12.6467C217.72 12.1439 218.985 11.8932 220.261 11.9105C221.065 11.9156 221.866 12.0048 222.651 12.1766C223.499 12.3617 224.317 12.6651 225.081 13.0778C225.884 13.5129 226.592 14.1046 227.163 14.818C227.413 15.1021 227.557 15.4636 227.573 15.8418C227.58 16.0556 227.536 16.268 227.443 16.4606C227.351 16.6533 227.213 16.8204 227.041 16.9475C226.753 17.1625 226.4 17.2709 226.041 17.2543C225.695 17.2511 225.365 17.1114 225.122 16.8656C224.529 16.163 223.781 15.6099 222.936 15.251C222.038 14.8745 221.072 14.6864 220.098 14.6984C219.459 14.7005 218.825 14.8041 218.218 15.0052C217.623 15.1908 217.083 15.5217 216.647 15.968C216.425 16.2179 216.255 16.5093 216.146 16.8254C216.037 17.1416 215.992 17.4761 216.013 17.8099C216.014 18.4838 216.278 19.1306 216.748 19.6123C217.285 20.1212 217.926 20.5058 218.628 20.7389C219.417 21.0248 220.288 21.3039 221.241 21.5761C222.113 21.7942 222.95 22.0468 223.753 22.3338C224.529 22.6063 225.265 22.985 225.938 23.4593C226.589 23.9213 227.12 24.5317 227.489 25.2402C227.898 26.088 228.094 27.023 228.061 27.9641C228.088 29.1387 227.713 30.2871 226.999 31.2191C226.268 32.1513 225.302 32.872 224.201 33.3073C223.015 33.7907 221.745 34.0346 220.465 34.0249C218.942 34.0206 217.433 33.7369 216.013 33.1877C214.495 32.5914 213.178 31.5752 212.215 30.2575" fill="#040305"/>
<path d="M242.154 11.9105C243.434 11.894 244.712 12.0456 245.953 12.3614C246.911 12.587 247.814 13.0049 248.607 13.5897C248.897 13.7855 249.137 14.0468 249.307 14.3527C249.478 14.6585 249.574 15.0003 249.588 15.3503C249.586 15.7361 249.457 16.1105 249.22 16.4148C249.103 16.5742 248.949 16.7023 248.77 16.7879C248.592 16.8735 248.396 16.914 248.198 16.9057C247.89 16.918 247.585 16.8399 247.321 16.6809C247.083 16.5275 246.863 16.3488 246.664 16.148C246.416 15.9111 246.135 15.7112 245.829 15.5542C245.372 15.3504 244.891 15.2059 244.398 15.1242C243.779 15.0025 243.15 14.941 242.519 14.9407C241.131 14.9107 239.764 15.2799 238.578 16.0045C237.452 16.7099 236.53 17.6985 235.903 18.872C235.235 20.131 234.898 21.5396 234.923 22.9654C234.897 24.3868 235.22 25.7927 235.861 27.0605C236.462 28.2329 237.365 29.2226 238.476 29.9268C239.639 30.6495 240.985 31.0192 242.353 30.9913C243.116 31.0137 243.879 30.931 244.62 30.7455C245.121 30.6045 245.607 30.4124 246.07 30.172C246.466 29.9502 246.831 29.6747 247.152 29.3533C247.294 29.2128 247.464 29.1038 247.65 29.0332C247.836 28.9627 248.036 28.9321 248.234 28.9437C248.437 28.9328 248.639 28.9677 248.826 29.0456C249.014 29.1235 249.181 29.2426 249.316 29.394C249.579 29.7016 249.717 30.0959 249.706 30.5003C249.665 30.826 249.552 31.1384 249.375 31.4147C249.198 31.6909 248.962 31.9241 248.684 32.097C247.85 32.7207 246.908 33.1855 245.907 33.4682C244.635 33.8511 243.313 34.0374 241.986 34.0208C240.074 34.0639 238.189 33.5596 236.553 32.567C235.005 31.6034 233.754 30.229 232.939 28.5962C232.065 26.8499 231.624 24.9186 231.652 22.9654C231.623 21.0125 232.08 19.0833 232.983 17.3524C233.851 15.6762 235.17 14.2777 236.791 13.3157C238.413 12.3537 240.27 11.8669 242.154 11.9105Z" fill="#040305"/>
<path d="M134.065 13.6806C132.281 12.5234 130.201 11.9077 128.076 11.9077C125.951 11.9077 123.871 12.5234 122.087 13.6806C121.907 13.7975 121.755 13.9534 121.643 14.137C121.531 14.3205 121.462 14.5269 121.44 14.7409C121.417 14.9598 121.442 15.1813 121.515 15.3889C121.589 15.5965 121.707 15.785 121.863 15.9405L122.459 16.5385C122.595 16.6752 122.756 16.7836 122.933 16.8577C123.11 16.9318 123.3 16.9701 123.492 16.9703C123.76 16.9701 124.022 16.8952 124.249 16.7538C125.399 16.0425 126.723 15.6657 128.074 15.6657C129.425 15.6657 130.749 16.0425 131.898 16.7538C132.177 16.9264 132.506 16.9992 132.831 16.96C133.156 16.9209 133.458 16.7723 133.688 16.5385L134.284 15.9405C134.44 15.785 134.559 15.5964 134.632 15.3886C134.705 15.1809 134.731 14.9593 134.707 14.7403C134.686 14.5264 134.616 14.3201 134.504 14.1367C134.392 13.9533 134.241 13.7974 134.061 13.6806" fill="#008691"/>
<path d="M126.381 30.1863C125.247 29.9186 124.192 29.3847 123.304 28.6285C122.416 27.8724 121.72 26.9156 121.273 25.837C120.826 24.7584 120.641 23.5887 120.732 22.4243C120.824 21.2599 121.191 20.134 121.802 19.1393C121.967 18.8707 122.036 18.5539 121.998 18.2408C121.96 17.9276 121.818 17.6366 121.593 17.4152L120.997 16.8136C120.848 16.6637 120.667 16.5493 120.467 16.4787C120.268 16.4081 120.056 16.3832 119.846 16.4057C119.641 16.4267 119.443 16.4935 119.268 16.6014C119.092 16.7093 118.943 16.8554 118.832 17.0289C117.682 18.8066 117.07 20.8801 117.07 22.9988C117.081 25.5178 117.947 27.958 119.525 29.9181C121.103 31.8783 123.3 33.2416 125.753 33.7839C125.848 33.804 125.945 33.8142 126.042 33.8144C126.357 33.814 126.663 33.7049 126.907 33.5053C127.072 33.3725 127.205 33.2041 127.297 33.0127C127.388 32.8213 127.435 32.6117 127.435 32.3995V31.5623C127.437 31.2481 127.335 30.9421 127.144 30.6929C126.953 30.4438 126.684 30.2651 126.381 30.1863Z" fill="#EB5D81"/>
<path d="M146.452 11.9644C143.533 11.9677 140.736 13.1314 138.672 15.2001C136.609 17.2689 135.448 20.0738 135.444 22.9994L135.45 23.0479L135.443 23.1029C135.413 24.7915 134.81 26.4193 133.732 27.7174C132.654 29.0154 131.167 29.906 129.516 30.2419C129.292 30.287 129.09 30.4084 128.944 30.5856C128.799 30.7628 128.719 30.9849 128.718 31.2143V32.8989C128.718 33.0446 128.75 33.1885 128.811 33.3207C128.872 33.4529 128.961 33.5702 129.072 33.6644C129.18 33.7564 129.306 33.824 129.442 33.8623C129.578 33.9006 129.721 33.9088 129.86 33.8862C132.439 33.471 134.786 32.1459 136.477 30.1498C138.168 28.1537 139.092 25.6177 139.084 22.9988C139.084 21.5379 139.516 20.1099 140.326 18.8952C141.135 17.6806 142.286 16.7339 143.632 16.1749C144.979 15.6159 146.46 15.4697 147.889 15.7548C149.318 16.0399 150.631 16.7435 151.662 17.7765C152.692 18.8096 153.394 20.1258 153.678 21.5586C153.962 22.9914 153.816 24.4766 153.259 25.8263C152.701 27.176 151.756 28.3296 150.545 29.1412C149.333 29.9529 147.909 30.3861 146.452 30.3861C145.969 30.3861 145.506 30.5782 145.165 30.9203C144.824 31.2623 144.632 31.7263 144.632 32.21C144.632 32.6937 144.824 33.1577 145.165 33.4997C145.506 33.8418 145.969 34.0339 146.452 34.0339C147.904 34.0446 149.344 33.7671 150.689 33.2174C152.033 32.6677 153.256 31.8565 154.287 30.8308C155.318 29.8051 156.136 28.585 156.694 27.2408C157.252 25.8967 157.54 24.4551 157.54 22.9991C157.54 21.5432 157.252 20.1016 156.694 18.7574C156.136 17.4133 155.318 16.1932 154.287 15.1675C153.256 14.1417 152.033 13.3306 150.689 12.7809C149.344 12.2311 147.904 11.9536 146.452 11.9644Z" fill="#008691"/>
</g>
</g>
<defs>
<clipPath id="clip0_9043_2466">
<rect width="251.93" height="44.2528" fill="white" transform="translate(0.0701752 0.873611)"/>
</clipPath>
</defs>
</svg>
