<svg width="252" height="45" viewBox="0 0 252 45" fill="none" xmlns="http://www.w3.org/2000/svg">
<g clip-path="url(#clip0_9136_4576)">
<path d="M12.4767 11.7265C12.5807 11.7265 12.6607 11.7585 12.7167 11.8225C12.7807 11.8865 12.8127 11.9665 12.8127 12.0625V19.7425C12.8127 19.8625 12.7727 19.9585 12.6927 20.0305C12.6207 20.0945 12.5367 20.1265 12.4407 20.1265C12.3927 20.1265 12.3407 20.1185 12.2847 20.1025C12.2287 20.0785 12.1847 20.0465 12.1527 20.0065L6.80069 12.7945L7.00469 12.6865V19.8025C7.00469 19.8905 6.97269 19.9665 6.90869 20.0305C6.84469 20.0945 6.76469 20.1265 6.66869 20.1265C6.56469 20.1265 6.48069 20.0945 6.41669 20.0305C6.36069 19.9665 6.33269 19.8905 6.33269 19.8025V12.0865C6.33269 11.9665 6.36869 11.8785 6.44069 11.8225C6.51269 11.7585 6.59269 11.7265 6.68069 11.7265C6.72869 11.7265 6.78069 11.7385 6.83669 11.7625C6.89269 11.7785 6.93669 11.8105 6.96869 11.8585L12.2607 18.9865L12.1407 19.2025V12.0625C12.1407 11.9665 12.1727 11.8865 12.2367 11.8225C12.3087 11.7585 12.3887 11.7265 12.4767 11.7265ZM20.1512 13.9945C20.2552 13.9945 20.3392 14.0305 20.4032 14.1025C20.4752 14.1745 20.5112 14.2625 20.5112 14.3665V19.7665C20.5112 19.8625 20.4752 19.9465 20.4032 20.0185C20.3312 20.0905 20.2472 20.1265 20.1512 20.1265C20.0472 20.1265 19.9592 20.0905 19.8872 20.0185C19.8232 19.9465 19.7912 19.8625 19.7912 19.7665V18.3385L19.9952 18.2425C19.9952 18.4665 19.9312 18.6945 19.8032 18.9265C19.6832 19.1585 19.5152 19.3745 19.2992 19.5745C19.0832 19.7745 18.8272 19.9385 18.5312 20.0665C18.2432 20.1865 17.9312 20.2465 17.5952 20.2465C17.0512 20.2465 16.5632 20.1065 16.1312 19.8265C15.7072 19.5465 15.3712 19.1625 15.1232 18.6745C14.8832 18.1865 14.7632 17.6385 14.7632 17.0305C14.7632 16.4065 14.8872 15.8585 15.1352 15.3865C15.3832 14.9065 15.7192 14.5305 16.1432 14.2585C16.5672 13.9865 17.0472 13.8505 17.5832 13.8505C17.9272 13.8505 18.2472 13.9105 18.5432 14.0305C18.8472 14.1505 19.1112 14.3145 19.3352 14.5225C19.5592 14.7305 19.7312 14.9705 19.8512 15.2425C19.9792 15.5065 20.0432 15.7825 20.0432 16.0705L19.7912 15.8905V14.3665C19.7912 14.2625 19.8232 14.1745 19.8872 14.1025C19.9592 14.0305 20.0472 13.9945 20.1512 13.9945ZM17.6552 19.5745C18.0792 19.5745 18.4552 19.4665 18.7832 19.2505C19.1112 19.0265 19.3672 18.7225 19.5512 18.3385C19.7432 17.9465 19.8392 17.5105 19.8392 17.0305C19.8392 16.5585 19.7432 16.1345 19.5512 15.7585C19.3672 15.3825 19.1112 15.0825 18.7832 14.8585C18.4552 14.6345 18.0792 14.5225 17.6552 14.5225C17.2392 14.5225 16.8632 14.6305 16.5272 14.8465C16.1992 15.0625 15.9392 15.3585 15.7472 15.7345C15.5632 16.1105 15.4712 16.5425 15.4712 17.0305C15.4712 17.5105 15.5632 17.9465 15.7472 18.3385C15.9392 18.7225 16.1992 19.0265 16.5272 19.2505C16.8552 19.4665 17.2312 19.5745 17.6552 19.5745ZM22.2445 14.0185H25.0405C25.1365 14.0185 25.2165 14.0545 25.2805 14.1265C25.3445 14.1905 25.3765 14.2705 25.3765 14.3665C25.3765 14.4545 25.3445 14.5305 25.2805 14.5945C25.2165 14.6585 25.1365 14.6905 25.0405 14.6905H22.2445C22.1485 14.6905 22.0645 14.6585 21.9925 14.5945C21.9285 14.5225 21.8965 14.4425 21.8965 14.3545C21.8965 14.2585 21.9285 14.1785 21.9925 14.1145C22.0645 14.0505 22.1485 14.0185 22.2445 14.0185ZM23.4805 12.3265C23.5845 12.3265 23.6685 12.3625 23.7325 12.4345C23.8045 12.5065 23.8405 12.5905 23.8405 12.6865V18.7105C23.8405 18.9345 23.8685 19.1025 23.9245 19.2145C23.9885 19.3265 24.0685 19.4025 24.1645 19.4425C24.2605 19.4745 24.3565 19.4905 24.4525 19.4905C24.5165 19.4905 24.5725 19.4825 24.6205 19.4665C24.6765 19.4425 24.7365 19.4305 24.8005 19.4305C24.8725 19.4305 24.9325 19.4585 24.9805 19.5145C25.0365 19.5705 25.0645 19.6425 25.0645 19.7305C25.0645 19.8425 25.0005 19.9385 24.8725 20.0185C24.7445 20.0905 24.5925 20.1265 24.4165 20.1265C24.3445 20.1265 24.2365 20.1225 24.0925 20.1145C23.9485 20.0985 23.8005 20.0545 23.6485 19.9825C23.4965 19.9025 23.3685 19.7665 23.2645 19.5745C23.1685 19.3825 23.1205 19.1065 23.1205 18.7465V12.6865C23.1205 12.5905 23.1525 12.5065 23.2165 12.4345C23.2885 12.3625 23.3765 12.3265 23.4805 12.3265ZM27.6429 19.7665C27.6429 19.8625 27.6069 19.9465 27.5349 20.0185C27.4629 20.0905 27.3789 20.1265 27.2829 20.1265C27.1789 20.1265 27.0909 20.0905 27.0189 20.0185C26.9549 19.9465 26.9229 19.8625 26.9229 19.7665V14.2465C26.9229 14.1505 26.9549 14.0665 27.0189 13.9945C27.0909 13.9225 27.1789 13.8865 27.2829 13.8865C27.3869 13.8865 27.4709 13.9225 27.5349 13.9945C27.6069 14.0665 27.6429 14.1505 27.6429 14.2465V19.7665ZM27.2829 13.0825C27.1149 13.0825 26.9869 13.0465 26.8989 12.9745C26.8189 12.8945 26.7789 12.7825 26.7789 12.6385V12.5185C26.7789 12.3745 26.8229 12.2665 26.9109 12.1945C27.0069 12.1145 27.1349 12.0745 27.2949 12.0745C27.4469 12.0745 27.5629 12.1145 27.6429 12.1945C27.7309 12.2665 27.7749 12.3745 27.7749 12.5185V12.6385C27.7749 12.7825 27.7309 12.8945 27.6429 12.9745C27.5629 13.0465 27.4429 13.0825 27.2829 13.0825ZM35.4653 17.0545C35.4653 17.6625 35.3333 18.2105 35.0693 18.6985C34.8053 19.1785 34.4453 19.5585 33.9893 19.8385C33.5333 20.1105 33.0133 20.2465 32.4293 20.2465C31.8613 20.2465 31.3453 20.1105 30.8813 19.8385C30.4253 19.5585 30.0613 19.1785 29.7893 18.6985C29.5253 18.2105 29.3933 17.6625 29.3933 17.0545C29.3933 16.4385 29.5253 15.8905 29.7893 15.4105C30.0613 14.9305 30.4253 14.5505 30.8813 14.2705C31.3453 13.9905 31.8613 13.8505 32.4293 13.8505C33.0133 13.8505 33.5333 13.9905 33.9893 14.2705C34.4453 14.5505 34.8053 14.9305 35.0693 15.4105C35.3333 15.8905 35.4653 16.4385 35.4653 17.0545ZM34.7453 17.0545C34.7453 16.5665 34.6453 16.1345 34.4453 15.7585C34.2453 15.3745 33.9693 15.0745 33.6173 14.8585C33.2733 14.6345 32.8773 14.5225 32.4293 14.5225C31.9973 14.5225 31.6053 14.6345 31.2533 14.8585C30.9013 15.0745 30.6213 15.3745 30.4133 15.7585C30.2133 16.1345 30.1133 16.5665 30.1133 17.0545C30.1133 17.5425 30.2133 17.9745 30.4133 18.3505C30.6213 18.7265 30.9013 19.0265 31.2533 19.2505C31.6053 19.4665 31.9973 19.5745 32.4293 19.5745C32.8773 19.5745 33.2733 19.4665 33.6173 19.2505C33.9693 19.0265 34.2453 18.7265 34.4453 18.3505C34.6453 17.9745 34.7453 17.5425 34.7453 17.0545ZM40.1275 13.8505C40.6555 13.8505 41.0755 13.9585 41.3875 14.1745C41.7075 14.3825 41.9355 14.6705 42.0715 15.0385C42.2155 15.3985 42.2875 15.7985 42.2875 16.2385V19.7665C42.2875 19.8625 42.2515 19.9465 42.1795 20.0185C42.1075 20.0905 42.0235 20.1265 41.9275 20.1265C41.8155 20.1265 41.7275 20.0905 41.6635 20.0185C41.5995 19.9465 41.5675 19.8625 41.5675 19.7665V16.2745C41.5675 15.9545 41.5155 15.6625 41.4115 15.3985C41.3075 15.1345 41.1355 14.9225 40.8955 14.7625C40.6635 14.6025 40.3555 14.5225 39.9715 14.5225C39.6275 14.5225 39.2995 14.6025 38.9875 14.7625C38.6835 14.9225 38.4355 15.1345 38.2435 15.3985C38.0515 15.6625 37.9555 15.9545 37.9555 16.2745V19.7665C37.9555 19.8625 37.9195 19.9465 37.8475 20.0185C37.7755 20.0905 37.6915 20.1265 37.5955 20.1265C37.4835 20.1265 37.3955 20.0905 37.3315 20.0185C37.2675 19.9465 37.2355 19.8625 37.2355 19.7665V14.3905C37.2355 14.2945 37.2675 14.2105 37.3315 14.1385C37.4035 14.0665 37.4915 14.0305 37.5955 14.0305C37.6995 14.0305 37.7835 14.0665 37.8475 14.1385C37.9195 14.2105 37.9555 14.2945 37.9555 14.3905V15.3985L37.6795 15.8305C37.6955 15.5745 37.7755 15.3305 37.9195 15.0985C38.0715 14.8585 38.2635 14.6465 38.4955 14.4625C38.7275 14.2705 38.9835 14.1225 39.2635 14.0185C39.5515 13.9065 39.8395 13.8505 40.1275 13.8505ZM49.441 13.9945C49.545 13.9945 49.629 14.0305 49.693 14.1025C49.765 14.1745 49.801 14.2625 49.801 14.3665V19.7665C49.801 19.8625 49.765 19.9465 49.693 20.0185C49.621 20.0905 49.537 20.1265 49.441 20.1265C49.337 20.1265 49.249 20.0905 49.177 20.0185C49.113 19.9465 49.081 19.8625 49.081 19.7665V18.3385L49.285 18.2425C49.285 18.4665 49.221 18.6945 49.093 18.9265C48.973 19.1585 48.805 19.3745 48.589 19.5745C48.373 19.7745 48.117 19.9385 47.821 20.0665C47.533 20.1865 47.221 20.2465 46.885 20.2465C46.341 20.2465 45.853 20.1065 45.421 19.8265C44.997 19.5465 44.661 19.1625 44.413 18.6745C44.173 18.1865 44.053 17.6385 44.053 17.0305C44.053 16.4065 44.177 15.8585 44.425 15.3865C44.673 14.9065 45.009 14.5305 45.433 14.2585C45.857 13.9865 46.337 13.8505 46.873 13.8505C47.217 13.8505 47.537 13.9105 47.833 14.0305C48.137 14.1505 48.401 14.3145 48.625 14.5225C48.849 14.7305 49.021 14.9705 49.141 15.2425C49.269 15.5065 49.333 15.7825 49.333 16.0705L49.081 15.8905V14.3665C49.081 14.2625 49.113 14.1745 49.177 14.1025C49.249 14.0305 49.337 13.9945 49.441 13.9945ZM46.945 19.5745C47.369 19.5745 47.745 19.4665 48.073 19.2505C48.401 19.0265 48.657 18.7225 48.841 18.3385C49.033 17.9465 49.129 17.5105 49.129 17.0305C49.129 16.5585 49.033 16.1345 48.841 15.7585C48.657 15.3825 48.401 15.0825 48.073 14.8585C47.745 14.6345 47.369 14.5225 46.945 14.5225C46.529 14.5225 46.153 14.6305 45.817 14.8465C45.489 15.0625 45.229 15.3585 45.037 15.7345C44.853 16.1105 44.761 16.5425 44.761 17.0305C44.761 17.5105 44.853 17.9465 45.037 18.3385C45.229 18.7225 45.489 19.0265 45.817 19.2505C46.145 19.4665 46.521 19.5745 46.945 19.5745ZM52.7223 19.7665C52.7223 19.8625 52.6863 19.9465 52.6143 20.0185C52.5423 20.0905 52.4583 20.1265 52.3623 20.1265C52.2583 20.1265 52.1703 20.0905 52.0983 20.0185C52.0343 19.9465 52.0023 19.8625 52.0023 19.7665V11.6065C52.0023 11.5105 52.0383 11.4265 52.1103 11.3545C52.1823 11.2825 52.2663 11.2465 52.3623 11.2465C52.4663 11.2465 52.5503 11.2825 52.6143 11.3545C52.6863 11.4265 52.7223 11.5105 52.7223 11.6065V19.7665ZM61.8412 11.7265C62.2892 11.7265 62.6852 11.8305 63.0292 12.0385C63.3732 12.2385 63.6452 12.5185 63.8452 12.8785C64.0452 13.2385 64.1452 13.6505 64.1452 14.1145C64.1452 14.5785 64.0452 14.9985 63.8452 15.3745C63.6452 15.7425 63.3732 16.0345 63.0292 16.2505C62.6852 16.4665 62.2892 16.5745 61.8412 16.5745H59.2972L59.3572 16.4545V19.7665C59.3572 19.8625 59.3212 19.9465 59.2492 20.0185C59.1772 20.0905 59.0932 20.1265 58.9972 20.1265C58.8852 20.1265 58.7972 20.0905 58.7332 20.0185C58.6692 19.9465 58.6372 19.8625 58.6372 19.7665V12.0865C58.6372 11.9905 58.6732 11.9065 58.7452 11.8345C58.8172 11.7625 58.9012 11.7265 58.9972 11.7265H61.8412ZM61.8412 15.8785C62.1532 15.8785 62.4252 15.8025 62.6572 15.6505C62.8892 15.4905 63.0692 15.2785 63.1972 15.0145C63.3332 14.7425 63.4012 14.4425 63.4012 14.1145C63.4012 13.7865 63.3332 13.4985 63.1972 13.2505C63.0692 12.9945 62.8892 12.7945 62.6572 12.6505C62.4252 12.5065 62.1532 12.4345 61.8412 12.4345H59.2972L59.3572 12.3265V15.9505L59.2852 15.8785H61.8412ZM71.4405 17.0545C71.4405 17.6625 71.3085 18.2105 71.0445 18.6985C70.7805 19.1785 70.4205 19.5585 69.9645 19.8385C69.5085 20.1105 68.9885 20.2465 68.4045 20.2465C67.8365 20.2465 67.3205 20.1105 66.8565 19.8385C66.4005 19.5585 66.0365 19.1785 65.7645 18.6985C65.5005 18.2105 65.3685 17.6625 65.3685 17.0545C65.3685 16.4385 65.5005 15.8905 65.7645 15.4105C66.0365 14.9305 66.4005 14.5505 66.8565 14.2705C67.3205 13.9905 67.8365 13.8505 68.4045 13.8505C68.9885 13.8505 69.5085 13.9905 69.9645 14.2705C70.4205 14.5505 70.7805 14.9305 71.0445 15.4105C71.3085 15.8905 71.4405 16.4385 71.4405 17.0545ZM70.7205 17.0545C70.7205 16.5665 70.6205 16.1345 70.4205 15.7585C70.2205 15.3745 69.9445 15.0745 69.5925 14.8585C69.2485 14.6345 68.8525 14.5225 68.4045 14.5225C67.9725 14.5225 67.5805 14.6345 67.2285 14.8585C66.8765 15.0745 66.5965 15.3745 66.3885 15.7585C66.1885 16.1345 66.0885 16.5665 66.0885 17.0545C66.0885 17.5425 66.1885 17.9745 66.3885 18.3505C66.5965 18.7265 66.8765 19.0265 67.2285 19.2505C67.5805 19.4665 67.9725 19.5745 68.4045 19.5745C68.8525 19.5745 69.2485 19.4665 69.5925 19.2505C69.9445 19.0265 70.2205 18.7265 70.4205 18.3505C70.6205 17.9745 70.7205 17.5425 70.7205 17.0545ZM74.0027 19.7665C74.0027 19.8625 73.9667 19.9465 73.8947 20.0185C73.8227 20.0905 73.7387 20.1265 73.6427 20.1265C73.5387 20.1265 73.4507 20.0905 73.3787 20.0185C73.3147 19.9465 73.2827 19.8625 73.2827 19.7665V11.6065C73.2827 11.5105 73.3187 11.4265 73.3907 11.3545C73.4627 11.2825 73.5467 11.2465 73.6427 11.2465C73.7467 11.2465 73.8307 11.2825 73.8947 11.3545C73.9667 11.4265 74.0027 11.5105 74.0027 11.6065V19.7665ZM76.9123 19.7665C76.9123 19.8625 76.8763 19.9465 76.8043 20.0185C76.7323 20.0905 76.6483 20.1265 76.5523 20.1265C76.4483 20.1265 76.3603 20.0905 76.2883 20.0185C76.2243 19.9465 76.1923 19.8625 76.1923 19.7665V14.2465C76.1923 14.1505 76.2243 14.0665 76.2883 13.9945C76.3603 13.9225 76.4483 13.8865 76.5523 13.8865C76.6563 13.8865 76.7403 13.9225 76.8043 13.9945C76.8763 14.0665 76.9123 14.1505 76.9123 14.2465V19.7665ZM76.5523 13.0825C76.3843 13.0825 76.2563 13.0465 76.1683 12.9745C76.0883 12.8945 76.0483 12.7825 76.0483 12.6385V12.5185C76.0483 12.3745 76.0923 12.2665 76.1803 12.1945C76.2763 12.1145 76.4043 12.0745 76.5643 12.0745C76.7163 12.0745 76.8323 12.1145 76.9123 12.1945C77.0003 12.2665 77.0443 12.3745 77.0443 12.5185V12.6385C77.0443 12.7825 77.0003 12.8945 76.9123 12.9745C76.8323 13.0465 76.7123 13.0825 76.5523 13.0825ZM78.6747 19.1545C78.6107 19.0585 78.5787 18.9665 78.5787 18.8785C78.5867 18.7825 78.6387 18.7065 78.7347 18.6505C78.7987 18.5945 78.8707 18.5705 78.9507 18.5785C79.0387 18.5865 79.1187 18.6265 79.1907 18.6985C79.4067 18.9785 79.6667 19.2065 79.9707 19.3825C80.2827 19.5505 80.6507 19.6345 81.0747 19.6345C81.2987 19.6345 81.5187 19.5985 81.7347 19.5265C81.9587 19.4465 82.1427 19.3305 82.2867 19.1785C82.4307 19.0185 82.5027 18.8185 82.5027 18.5785C82.5027 18.3305 82.4307 18.1305 82.2867 17.9785C82.1427 17.8265 81.9547 17.7065 81.7227 17.6185C81.4987 17.5305 81.2587 17.4545 81.0027 17.3905C80.7307 17.3185 80.4667 17.2385 80.2107 17.1505C79.9547 17.0545 79.7267 16.9385 79.5267 16.8025C79.3347 16.6585 79.1787 16.4865 79.0587 16.2865C78.9387 16.0865 78.8787 15.8425 78.8787 15.5545C78.8787 15.2185 78.9707 14.9225 79.1547 14.6665C79.3387 14.4105 79.5867 14.2105 79.8987 14.0665C80.2187 13.9225 80.5787 13.8505 80.9787 13.8505C81.1787 13.8505 81.3947 13.8785 81.6267 13.9345C81.8587 13.9825 82.0867 14.0665 82.3107 14.1865C82.5347 14.3065 82.7347 14.4705 82.9107 14.6785C82.9827 14.7505 83.0187 14.8345 83.0187 14.9305C83.0187 15.0185 82.9787 15.0985 82.8987 15.1705C82.8347 15.2185 82.7587 15.2425 82.6707 15.2425C82.5907 15.2425 82.5227 15.2105 82.4667 15.1465C82.2747 14.9305 82.0467 14.7665 81.7827 14.6545C81.5187 14.5425 81.2347 14.4865 80.9307 14.4865C80.6987 14.4865 80.4787 14.5265 80.2707 14.6065C80.0707 14.6785 79.9027 14.7905 79.7667 14.9425C79.6307 15.0945 79.5627 15.2945 79.5627 15.5425C79.5787 15.7745 79.6587 15.9625 79.8027 16.1065C79.9547 16.2505 80.1507 16.3705 80.3907 16.4665C80.6387 16.5625 80.9147 16.6505 81.2187 16.7305C81.4747 16.7945 81.7187 16.8705 81.9507 16.9585C82.1907 17.0465 82.3987 17.1585 82.5747 17.2945C82.7587 17.4225 82.9027 17.5865 83.0067 17.7865C83.1187 17.9865 83.1747 18.2385 83.1747 18.5425C83.1747 18.8945 83.0747 19.1985 82.8747 19.4545C82.6827 19.7105 82.4227 19.9065 82.0947 20.0425C81.7667 20.1785 81.4027 20.2465 81.0027 20.2465C80.5707 20.2465 80.1507 20.1625 79.7427 19.9945C79.3427 19.8265 78.9867 19.5465 78.6747 19.1545ZM87.6837 13.9465C88.1877 13.9465 88.5957 14.0545 88.9077 14.2705C89.2197 14.4865 89.4477 14.7785 89.5917 15.1465C89.7437 15.5145 89.8197 15.9225 89.8197 16.3705V19.7665C89.8197 19.8625 89.7837 19.9465 89.7117 20.0185C89.6397 20.0905 89.5557 20.1265 89.4597 20.1265C89.3477 20.1265 89.2597 20.0905 89.1957 20.0185C89.1317 19.9465 89.0997 19.8625 89.0997 19.7665V16.3705C89.0997 16.0425 89.0477 15.7465 88.9437 15.4825C88.8477 15.2185 88.6877 15.0105 88.4637 14.8585C88.2397 14.6985 87.9397 14.6185 87.5637 14.6185C87.2277 14.6185 86.9077 14.6985 86.6037 14.8585C86.3077 15.0105 86.0677 15.2185 85.8837 15.4825C85.6997 15.7465 85.6077 16.0425 85.6077 16.3705V19.7665C85.6077 19.8625 85.5717 19.9465 85.4997 20.0185C85.4277 20.0905 85.3437 20.1265 85.2477 20.1265C85.1357 20.1265 85.0477 20.0905 84.9837 20.0185C84.9197 19.9465 84.8877 19.8625 84.8877 19.7665V11.6065C84.8877 11.5105 84.9197 11.4265 84.9837 11.3545C85.0557 11.2825 85.1437 11.2465 85.2477 11.2465C85.3517 11.2465 85.4357 11.2825 85.4997 11.3545C85.5717 11.4265 85.6077 11.5105 85.6077 11.6065V15.4945L85.3317 15.9145C85.3477 15.6665 85.4237 15.4265 85.5597 15.1945C85.7037 14.9545 85.8877 14.7425 86.1117 14.5585C86.3357 14.3665 86.5837 14.2185 86.8557 14.1145C87.1277 14.0025 87.4037 13.9465 87.6837 13.9465ZM26.7558 25.7265C27.2038 25.7265 27.5998 25.8305 27.9438 26.0385C28.2878 26.2385 28.5598 26.5185 28.7598 26.8785C28.9598 27.2385 29.0598 27.6505 29.0598 28.1145C29.0598 28.5785 28.9598 28.9985 28.7598 29.3745C28.5598 29.7425 28.2878 30.0345 27.9438 30.2505C27.5998 30.4665 27.2038 30.5745 26.7558 30.5745H24.2118L24.2718 30.4545V33.7665C24.2718 33.8625 24.2358 33.9465 24.1638 34.0185C24.0918 34.0905 24.0078 34.1265 23.9118 34.1265C23.7998 34.1265 23.7118 34.0905 23.6478 34.0185C23.5838 33.9465 23.5518 33.8625 23.5518 33.7665V26.0865C23.5518 25.9905 23.5878 25.9065 23.6598 25.8345C23.7318 25.7625 23.8158 25.7265 23.9118 25.7265H26.7558ZM26.7558 29.8785C27.0678 29.8785 27.3398 29.8025 27.5718 29.6505C27.8038 29.4905 27.9838 29.2785 28.1118 29.0145C28.2478 28.7425 28.3158 28.4425 28.3158 28.1145C28.3158 27.7865 28.2478 27.4985 28.1118 27.2505C27.9838 26.9945 27.8038 26.7945 27.5718 26.6505C27.3398 26.5065 27.0678 26.4345 26.7558 26.4345H24.2118L24.2718 26.3265V29.9505L24.1998 29.8785H26.7558ZM31.1202 34.1265C31.0082 34.1265 30.9202 34.0905 30.8562 34.0185C30.7922 33.9465 30.7602 33.8625 30.7602 33.7665V28.3905C30.7602 28.2945 30.7922 28.2105 30.8562 28.1385C30.9282 28.0665 31.0162 28.0305 31.1202 28.0305C31.2242 28.0305 31.3082 28.0665 31.3722 28.1385C31.4442 28.2105 31.4802 28.2945 31.4802 28.3905V30.1905L31.3002 30.2265C31.3242 29.9465 31.3922 29.6705 31.5042 29.3985C31.6242 29.1185 31.7842 28.8625 31.9842 28.6305C32.1842 28.3985 32.4202 28.2105 32.6922 28.0665C32.9722 27.9225 33.2842 27.8505 33.6282 27.8505C33.7722 27.8505 33.9122 27.8825 34.0482 27.9465C34.1842 28.0025 34.2522 28.0985 34.2522 28.2345C34.2522 28.3545 34.2202 28.4465 34.1562 28.5105C34.0922 28.5745 34.0162 28.6065 33.9282 28.6065C33.8562 28.6065 33.7762 28.5865 33.6882 28.5465C33.6082 28.5065 33.5002 28.4865 33.3642 28.4865C33.1402 28.4865 32.9162 28.5545 32.6922 28.6905C32.4682 28.8185 32.2642 28.9945 32.0802 29.2185C31.8962 29.4425 31.7482 29.6945 31.6362 29.9745C31.5322 30.2465 31.4802 30.5225 31.4802 30.8025V33.7665C31.4802 33.8625 31.4442 33.9465 31.3722 34.0185C31.3002 34.0905 31.2162 34.1265 31.1202 34.1265ZM41.0598 31.0545C41.0598 31.6625 40.9278 32.2105 40.6638 32.6985C40.3998 33.1785 40.0398 33.5585 39.5838 33.8385C39.1278 34.1105 38.6078 34.2465 38.0238 34.2465C37.4558 34.2465 36.9398 34.1105 36.4758 33.8385C36.0198 33.5585 35.6558 33.1785 35.3838 32.6985C35.1198 32.2105 34.9878 31.6625 34.9878 31.0545C34.9878 30.4385 35.1198 29.8905 35.3838 29.4105C35.6558 28.9305 36.0198 28.5505 36.4758 28.2705C36.9398 27.9905 37.4558 27.8505 38.0238 27.8505C38.6078 27.8505 39.1278 27.9905 39.5838 28.2705C40.0398 28.5505 40.3998 28.9305 40.6638 29.4105C40.9278 29.8905 41.0598 30.4385 41.0598 31.0545ZM40.3398 31.0545C40.3398 30.5665 40.2398 30.1345 40.0398 29.7585C39.8398 29.3745 39.5638 29.0745 39.2118 28.8585C38.8678 28.6345 38.4718 28.5225 38.0238 28.5225C37.5918 28.5225 37.1998 28.6345 36.8478 28.8585C36.4958 29.0745 36.2158 29.3745 36.0078 29.7585C35.8078 30.1345 35.7078 30.5665 35.7078 31.0545C35.7078 31.5425 35.8078 31.9745 36.0078 32.3505C36.2158 32.7265 36.4958 33.0265 36.8478 33.2505C37.1998 33.4665 37.5918 33.5745 38.0238 33.5745C38.4718 33.5745 38.8678 33.4665 39.2118 33.2505C39.5638 33.0265 39.8398 32.7265 40.0398 32.3505C40.2398 31.9745 40.3398 31.5425 40.3398 31.0545ZM45.386 27.8505C45.746 27.8505 46.078 27.9145 46.382 28.0425C46.686 28.1625 46.95 28.3225 47.174 28.5225C47.406 28.7145 47.586 28.9225 47.714 29.1465C47.842 29.3625 47.906 29.5705 47.906 29.7705L47.702 29.4825V28.3665C47.702 28.2625 47.734 28.1745 47.798 28.1025C47.87 28.0305 47.958 27.9945 48.062 27.9945C48.174 27.9945 48.262 28.0305 48.326 28.1025C48.39 28.1745 48.422 28.2625 48.422 28.3665V33.5625C48.422 34.2025 48.29 34.7425 48.026 35.1825C47.762 35.6225 47.402 35.9545 46.946 36.1785C46.498 36.4105 45.986 36.5265 45.41 36.5265C45.13 36.5265 44.834 36.4905 44.522 36.4185C44.218 36.3465 43.954 36.2545 43.73 36.1425C43.514 36.0305 43.394 35.9145 43.37 35.7945C43.306 35.7225 43.274 35.6505 43.274 35.5785C43.282 35.5145 43.318 35.4585 43.382 35.4105C43.462 35.3545 43.546 35.3465 43.634 35.3865C43.722 35.4345 43.854 35.4945 44.03 35.5665C44.11 35.5905 44.218 35.6265 44.354 35.6745C44.49 35.7225 44.65 35.7625 44.834 35.7945C45.026 35.8345 45.226 35.8545 45.434 35.8545C46.154 35.8545 46.71 35.6465 47.102 35.2305C47.502 34.8225 47.702 34.2825 47.702 33.6105V32.4585L47.834 32.4945C47.762 32.7825 47.642 33.0345 47.474 33.2505C47.314 33.4665 47.122 33.6505 46.898 33.8025C46.674 33.9465 46.43 34.0545 46.166 34.1265C45.91 34.2065 45.654 34.2465 45.398 34.2465C44.846 34.2465 44.35 34.1065 43.91 33.8265C43.47 33.5465 43.118 33.1665 42.854 32.6865C42.598 32.2065 42.47 31.6585 42.47 31.0425C42.47 30.4345 42.598 29.8905 42.854 29.4105C43.118 28.9225 43.466 28.5425 43.898 28.2705C44.338 27.9905 44.834 27.8505 45.386 27.8505ZM45.47 28.5225C45.03 28.5225 44.634 28.6345 44.282 28.8585C43.938 29.0745 43.666 29.3745 43.466 29.7585C43.274 30.1345 43.178 30.5625 43.178 31.0425C43.178 31.5225 43.274 31.9545 43.466 32.3385C43.666 32.7225 43.938 33.0265 44.282 33.2505C44.634 33.4665 45.03 33.5745 45.47 33.5745C45.91 33.5745 46.302 33.4665 46.646 33.2505C46.99 33.0345 47.262 32.7385 47.462 32.3625C47.662 31.9785 47.762 31.5385 47.762 31.0425C47.762 30.5465 47.662 30.1105 47.462 29.7345C47.262 29.3505 46.99 29.0545 46.646 28.8465C46.302 28.6305 45.91 28.5225 45.47 28.5225ZM50.9183 34.1265C50.8063 34.1265 50.7183 34.0905 50.6543 34.0185C50.5903 33.9465 50.5583 33.8625 50.5583 33.7665V28.3905C50.5583 28.2945 50.5903 28.2105 50.6543 28.1385C50.7263 28.0665 50.8143 28.0305 50.9183 28.0305C51.0223 28.0305 51.1063 28.0665 51.1703 28.1385C51.2423 28.2105 51.2783 28.2945 51.2783 28.3905V30.1905L51.0983 30.2265C51.1223 29.9465 51.1903 29.6705 51.3023 29.3985C51.4223 29.1185 51.5823 28.8625 51.7823 28.6305C51.9823 28.3985 52.2183 28.2105 52.4903 28.0665C52.7703 27.9225 53.0823 27.8505 53.4263 27.8505C53.5703 27.8505 53.7103 27.8825 53.8463 27.9465C53.9823 28.0025 54.0503 28.0985 54.0503 28.2345C54.0503 28.3545 54.0183 28.4465 53.9543 28.5105C53.8903 28.5745 53.8143 28.6065 53.7263 28.6065C53.6543 28.6065 53.5743 28.5865 53.4863 28.5465C53.4063 28.5065 53.2983 28.4865 53.1623 28.4865C52.9383 28.4865 52.7143 28.5545 52.4903 28.6905C52.2663 28.8185 52.0623 28.9945 51.8783 29.2185C51.6943 29.4425 51.5463 29.6945 51.4343 29.9745C51.3303 30.2465 51.2783 30.5225 51.2783 30.8025V33.7665C51.2783 33.8625 51.2423 33.9465 51.1703 34.0185C51.0983 34.0905 51.0143 34.1265 50.9183 34.1265ZM60.3029 27.9945C60.4069 27.9945 60.4909 28.0305 60.5549 28.1025C60.6269 28.1745 60.6629 28.2625 60.6629 28.3665V33.7665C60.6629 33.8625 60.6269 33.9465 60.5549 34.0185C60.4829 34.0905 60.3989 34.1265 60.3029 34.1265C60.1989 34.1265 60.1109 34.0905 60.0389 34.0185C59.9749 33.9465 59.9429 33.8625 59.9429 33.7665V32.3385L60.1469 32.2425C60.1469 32.4665 60.0829 32.6945 59.9549 32.9265C59.8349 33.1585 59.6669 33.3745 59.4509 33.5745C59.2349 33.7745 58.9789 33.9385 58.6829 34.0665C58.3949 34.1865 58.0829 34.2465 57.7469 34.2465C57.2029 34.2465 56.7149 34.1065 56.2829 33.8265C55.8589 33.5465 55.5229 33.1625 55.2749 32.6745C55.0349 32.1865 54.9149 31.6385 54.9149 31.0305C54.9149 30.4065 55.0389 29.8585 55.2869 29.3865C55.5349 28.9065 55.8709 28.5305 56.2949 28.2585C56.7189 27.9865 57.1989 27.8505 57.7349 27.8505C58.0789 27.8505 58.3989 27.9105 58.6949 28.0305C58.9989 28.1505 59.2629 28.3145 59.4869 28.5225C59.7109 28.7305 59.8829 28.9705 60.0029 29.2425C60.1309 29.5065 60.1949 29.7825 60.1949 30.0705L59.9429 29.8905V28.3665C59.9429 28.2625 59.9749 28.1745 60.0389 28.1025C60.1109 28.0305 60.1989 27.9945 60.3029 27.9945ZM57.8069 33.5745C58.2309 33.5745 58.6069 33.4665 58.9349 33.2505C59.2629 33.0265 59.5189 32.7225 59.7029 32.3385C59.8949 31.9465 59.9909 31.5105 59.9909 31.0305C59.9909 30.5585 59.8949 30.1345 59.7029 29.7585C59.5189 29.3825 59.2629 29.0825 58.9349 28.8585C58.6069 28.6345 58.2309 28.5225 57.8069 28.5225C57.3909 28.5225 57.0149 28.6305 56.6789 28.8465C56.3509 29.0625 56.0909 29.3585 55.8989 29.7345C55.7149 30.1105 55.6229 30.5425 55.6229 31.0305C55.6229 31.5105 55.7149 31.9465 55.8989 32.3385C56.0909 32.7225 56.3509 33.0265 56.6789 33.2505C57.0069 33.4665 57.3829 33.5745 57.8069 33.5745ZM65.5522 27.9465C66.0482 27.9465 66.4722 28.0785 66.8242 28.3425C67.1762 28.5985 67.4162 28.9825 67.5442 29.4945L67.3762 29.5425L67.4482 29.3265C67.5522 29.0865 67.7242 28.8625 67.9642 28.6545C68.2122 28.4385 68.4922 28.2665 68.8042 28.1385C69.1162 28.0105 69.4322 27.9465 69.7522 27.9465C70.2562 27.9465 70.6602 28.0545 70.9642 28.2705C71.2762 28.4865 71.5002 28.7785 71.6362 29.1465C71.7802 29.5065 71.8522 29.9145 71.8522 30.3705V33.7665C71.8522 33.8625 71.8162 33.9465 71.7442 34.0185C71.6802 34.0905 71.5962 34.1265 71.4922 34.1265C71.3882 34.1265 71.3002 34.0905 71.2282 34.0185C71.1642 33.9465 71.1322 33.8625 71.1322 33.7665V30.4065C71.1322 30.0785 71.0802 29.7785 70.9762 29.5065C70.8722 29.2345 70.7082 29.0185 70.4842 28.8585C70.2602 28.6985 69.9602 28.6185 69.5842 28.6185C69.2562 28.6185 68.9402 28.6985 68.6362 28.8585C68.3402 29.0185 68.0962 29.2345 67.9042 29.5065C67.7202 29.7785 67.6282 30.0785 67.6282 30.4065V33.7665C67.6282 33.8625 67.5922 33.9465 67.5202 34.0185C67.4562 34.0905 67.3722 34.1265 67.2682 34.1265C67.1642 34.1265 67.0762 34.0905 67.0042 34.0185C66.9402 33.9465 66.9082 33.8625 66.9082 33.7665V30.3705C66.9082 30.0425 66.8602 29.7465 66.7642 29.4825C66.6682 29.2185 66.5122 29.0105 66.2962 28.8585C66.0802 28.6985 65.7882 28.6185 65.4202 28.6185C65.0922 28.6185 64.7802 28.6985 64.4842 28.8585C64.1962 29.0105 63.9602 29.2185 63.7762 29.4825C63.6002 29.7465 63.5122 30.0425 63.5122 30.3705V33.7665C63.5122 33.8625 63.4762 33.9465 63.4042 34.0185C63.3322 34.0905 63.2482 34.1265 63.1522 34.1265C63.0402 34.1265 62.9522 34.0905 62.8882 34.0185C62.8242 33.9465 62.7922 33.8625 62.7922 33.7665V28.3905C62.7922 28.2945 62.8242 28.2105 62.8882 28.1385C62.9602 28.0665 63.0482 28.0305 63.1522 28.0305C63.2562 28.0305 63.3402 28.0665 63.4042 28.1385C63.4762 28.2105 63.5122 28.2945 63.5122 28.3905V29.5065L63.1882 29.9505C63.2122 29.7105 63.2882 29.4705 63.4162 29.2305C63.5522 28.9905 63.7282 28.7745 63.9442 28.5825C64.1602 28.3905 64.4042 28.2385 64.6762 28.1265C64.9562 28.0065 65.2482 27.9465 65.5522 27.9465ZM76.7375 27.9465C77.2335 27.9465 77.6575 28.0785 78.0095 28.3425C78.3615 28.5985 78.6015 28.9825 78.7295 29.4945L78.5615 29.5425L78.6335 29.3265C78.7375 29.0865 78.9095 28.8625 79.1495 28.6545C79.3975 28.4385 79.6775 28.2665 79.9895 28.1385C80.3015 28.0105 80.6175 27.9465 80.9375 27.9465C81.4415 27.9465 81.8455 28.0545 82.1495 28.2705C82.4615 28.4865 82.6855 28.7785 82.8215 29.1465C82.9655 29.5065 83.0375 29.9145 83.0375 30.3705V33.7665C83.0375 33.8625 83.0015 33.9465 82.9295 34.0185C82.8655 34.0905 82.7815 34.1265 82.6775 34.1265C82.5735 34.1265 82.4855 34.0905 82.4135 34.0185C82.3495 33.9465 82.3175 33.8625 82.3175 33.7665V30.4065C82.3175 30.0785 82.2655 29.7785 82.1615 29.5065C82.0575 29.2345 81.8935 29.0185 81.6695 28.8585C81.4455 28.6985 81.1455 28.6185 80.7695 28.6185C80.4415 28.6185 80.1255 28.6985 79.8215 28.8585C79.5255 29.0185 79.2815 29.2345 79.0895 29.5065C78.9055 29.7785 78.8135 30.0785 78.8135 30.4065V33.7665C78.8135 33.8625 78.7775 33.9465 78.7055 34.0185C78.6415 34.0905 78.5575 34.1265 78.4535 34.1265C78.3495 34.1265 78.2615 34.0905 78.1895 34.0185C78.1255 33.9465 78.0935 33.8625 78.0935 33.7665V30.3705C78.0935 30.0425 78.0455 29.7465 77.9495 29.4825C77.8535 29.2185 77.6975 29.0105 77.4815 28.8585C77.2655 28.6985 76.9735 28.6185 76.6055 28.6185C76.2775 28.6185 75.9655 28.6985 75.6695 28.8585C75.3815 29.0105 75.1455 29.2185 74.9615 29.4825C74.7855 29.7465 74.6975 30.0425 74.6975 30.3705V33.7665C74.6975 33.8625 74.6615 33.9465 74.5895 34.0185C74.5175 34.0905 74.4335 34.1265 74.3375 34.1265C74.2255 34.1265 74.1375 34.0905 74.0735 34.0185C74.0095 33.9465 73.9775 33.8625 73.9775 33.7665V28.3905C73.9775 28.2945 74.0095 28.2105 74.0735 28.1385C74.1455 28.0665 74.2335 28.0305 74.3375 28.0305C74.4415 28.0305 74.5255 28.0665 74.5895 28.1385C74.6615 28.2105 74.6975 28.2945 74.6975 28.3905V29.5065L74.3735 29.9505C74.3975 29.7105 74.4735 29.4705 74.6015 29.2305C74.7375 28.9905 74.9135 28.7745 75.1295 28.5825C75.3455 28.3905 75.5895 28.2385 75.8615 28.1265C76.1415 28.0065 76.4335 27.9465 76.7375 27.9465ZM87.9348 34.2465C87.3188 34.2465 86.7748 34.1145 86.3028 33.8505C85.8308 33.5865 85.4628 33.2185 85.1988 32.7465C84.9348 32.2745 84.8028 31.7225 84.8028 31.0905C84.8028 30.4105 84.9348 29.8305 85.1988 29.3505C85.4708 28.8705 85.8188 28.5025 86.2428 28.2465C86.6748 27.9825 87.1308 27.8505 87.6108 27.8505C87.9628 27.8505 88.3028 27.9145 88.6308 28.0425C88.9668 28.1625 89.2628 28.3465 89.5188 28.5945C89.7828 28.8345 89.9908 29.1305 90.1428 29.4825C90.3028 29.8345 90.3908 30.2425 90.4068 30.7065C90.3988 30.8025 90.3588 30.8865 90.2868 30.9585C90.2148 31.0225 90.1308 31.0545 90.0348 31.0545H85.2228L85.0788 30.4065H89.8068L89.6508 30.5505V30.3105C89.6188 29.9345 89.4988 29.6145 89.2908 29.3505C89.0828 29.0865 88.8308 28.8865 88.5348 28.7505C88.2388 28.6145 87.9308 28.5465 87.6108 28.5465C87.3708 28.5465 87.1228 28.5945 86.8668 28.6905C86.6188 28.7865 86.3908 28.9385 86.1828 29.1465C85.9828 29.3465 85.8188 29.6065 85.6908 29.9265C85.5628 30.2385 85.4988 30.6105 85.4988 31.0425C85.4988 31.5145 85.5948 31.9425 85.7868 32.3265C85.9788 32.7105 86.2548 33.0145 86.6148 33.2385C86.9828 33.4625 87.4188 33.5745 87.9228 33.5745C88.2028 33.5745 88.4548 33.5345 88.6788 33.4545C88.9028 33.3745 89.0988 33.2705 89.2668 33.1425C89.4348 33.0065 89.5748 32.8665 89.6868 32.7225C89.7748 32.6505 89.8628 32.6145 89.9508 32.6145C90.0308 32.6145 90.0988 32.6465 90.1548 32.7105C90.2188 32.7745 90.2508 32.8465 90.2508 32.9265C90.2508 33.0225 90.2108 33.1065 90.1308 33.1785C89.8908 33.4665 89.5788 33.7185 89.1948 33.9345C88.8108 34.1425 88.3908 34.2465 87.9348 34.2465Z" fill="#040305"/>
<path d="M104 3.12646V41.1265" stroke="black" stroke-width="0.23" stroke-linecap="round"/>
<mask id="mask0_9136_4576" style="mask-type:luminance" maskUnits="userSpaceOnUse" x="117" y="0" width="135" height="45">
<path d="M251.93 0H117V44.2528H251.93V0Z" fill="white"/>
</mask>
<g mask="url(#mask0_9136_4576)">
<path d="M183.024 22.234C183.181 22.1014 183.307 21.935 183.392 21.7472C183.477 21.5594 183.519 21.3548 183.515 21.1486C183.513 19.713 183.221 18.2925 182.658 16.9727C182.14 15.7827 181.406 14.6997 180.493 13.7788C179.611 12.8891 178.555 12.1919 177.391 11.7312C176.233 11.2704 174.998 11.0348 173.753 11.0369C172.063 11.0377 170.404 11.498 168.954 12.3686C167.405 13.295 166.134 14.6248 165.278 16.2168C164.292 18.088 163.807 20.183 163.869 22.298C163.828 24.2597 164.292 26.1989 165.217 27.9283C166.1 29.5357 167.416 30.8618 169.015 31.7556C170.78 32.7163 172.766 33.1961 174.774 33.1471C176.21 33.1556 177.629 32.8338 178.922 32.2065C180.09 31.6676 181.15 30.9175 182.047 29.9938C182.243 29.8441 182.404 29.6527 182.517 29.4332C182.631 29.2138 182.694 28.9718 182.703 28.7248C182.701 28.356 182.554 28.0028 182.294 27.7421C182.033 27.4814 181.681 27.3342 181.313 27.3327C180.93 27.3422 180.559 27.4709 180.252 27.701C179.86 28.117 179.429 28.4943 178.965 28.8277C178.408 29.2233 177.796 29.5339 177.148 29.7492C176.343 30.0093 175.501 30.1338 174.656 30.1176C173.251 30.1497 171.865 29.7879 170.654 29.0729C169.517 28.3881 168.59 27.4034 167.974 26.2263C167.402 25.1231 167.08 23.9066 167.031 22.664H181.88C182.302 22.6693 182.71 22.5155 183.024 22.234ZM169.158 15.9483C169.773 15.3364 170.511 14.8619 171.323 14.5562C172.099 14.2611 172.922 14.1086 173.753 14.1059C174.754 14.1048 175.742 14.3307 176.644 14.7667C177.546 15.2027 178.337 15.8374 178.96 16.6235C179.609 17.4513 179.987 18.4595 180.043 19.5107V19.8384H167.212C167.298 19.3488 167.43 18.8683 167.606 18.4032C167.943 17.4834 168.472 16.6461 169.157 15.9471" fill="white"/>
<path d="M208.471 22.0905C208.507 24.0787 208.021 26.0415 207.063 27.7823C206.164 29.4056 204.853 30.7618 203.263 31.7137C201.64 32.6783 199.782 33.175 197.895 33.1489C196.02 33.1735 194.172 32.6876 192.551 31.743C190.929 30.7984 189.593 29.4304 188.685 27.7847C187.726 26.0439 187.24 24.0812 187.276 22.0929C187.24 20.1046 187.727 18.1419 188.685 16.401C189.593 14.7559 190.928 13.3883 192.549 12.4437C194.171 11.4991 196.017 11.0129 197.892 11.0368C199.779 11.0111 201.637 11.5077 203.261 12.4721C204.85 13.4237 206.161 14.7795 207.06 16.4022C208.018 18.1431 208.504 20.1058 208.468 22.0941M205.16 22.0941C205.193 20.6499 204.863 19.2207 204.201 17.9379C203.591 16.7834 202.69 15.8095 201.587 15.1135C200.48 14.4161 199.196 14.0533 197.889 14.0688C196.57 14.0492 195.275 14.4104 194.156 15.1093C193.05 15.808 192.142 16.7808 191.521 17.9337C190.846 19.2124 190.508 20.6433 190.542 22.0899C190.513 23.5295 190.849 24.9529 191.52 26.2263C192.137 27.3884 193.045 28.3694 194.154 29.0728C195.274 29.774 196.572 30.1367 197.891 30.1176C199.199 30.133 200.483 29.7703 201.59 29.0728C202.697 28.3721 203.598 27.39 204.204 26.2263C204.862 24.9494 205.192 23.5281 205.163 22.0911" fill="white"/>
<path d="M212.146 29.3792C211.932 29.0432 211.826 28.6505 211.839 28.2525C211.859 28.0367 211.93 27.829 212.048 27.6472C212.165 27.4654 212.325 27.315 212.514 27.209C212.811 27.0189 213.163 26.9325 213.514 26.9632C213.904 27.0027 214.264 27.194 214.515 27.496C215.244 28.3702 216.131 29.0993 217.128 29.6453C218.241 30.2086 219.477 30.4833 220.723 30.4442C221.38 30.412 222.031 30.302 222.663 30.1165C223.303 29.9428 223.882 29.5958 224.338 29.1136C224.804 28.5926 225.046 27.9085 225.013 27.2096C225.029 26.8741 224.976 26.5389 224.856 26.2251C224.737 25.9114 224.553 25.6259 224.318 25.3868C223.793 24.8988 223.175 24.523 222.5 24.2823C221.718 23.985 220.92 23.732 220.11 23.5246C219.212 23.2786 218.327 23.0058 217.456 22.706C216.624 22.4253 215.834 22.0326 215.108 21.5386C214.422 21.0708 213.85 20.4552 213.433 19.7368C212.986 18.9158 212.767 17.9895 212.799 17.0548C212.773 15.9086 213.125 14.7859 213.801 13.8608C214.493 12.9397 215.416 12.2193 216.476 11.7731C217.649 11.2704 218.915 11.0196 220.191 11.037C220.994 11.042 221.795 11.1312 222.581 11.3031C223.429 11.4882 224.247 11.7916 225.011 12.2043C225.814 12.6394 226.522 13.2311 227.093 13.9445C227.343 14.2286 227.487 14.5901 227.502 14.9683C227.51 15.182 227.466 15.3944 227.373 15.5871C227.28 15.7798 227.142 15.9469 226.971 16.074C226.683 16.289 226.329 16.3974 225.971 16.3808C225.625 16.3776 225.295 16.2379 225.051 15.9921C224.459 15.2895 223.71 14.7364 222.866 14.3775C221.967 14.0009 221.001 13.8129 220.028 13.8249C219.389 13.827 218.755 13.9306 218.148 14.1317C217.553 14.3173 217.013 14.6481 216.576 15.0945C216.355 15.3444 216.185 15.6358 216.076 15.9519C215.967 16.268 215.922 16.6026 215.943 16.9363C215.944 17.6102 216.208 18.257 216.678 18.7388C217.214 19.2477 217.856 19.6323 218.557 19.8654C219.346 20.1513 220.218 20.4303 221.171 20.7026C222.042 20.9207 222.879 21.1733 223.682 21.4603C224.459 21.7328 225.195 22.1115 225.868 22.5858C226.518 23.0478 227.05 23.6582 227.419 24.3666C227.827 25.2145 228.024 26.1495 227.991 27.0906C228.017 28.2652 227.643 29.4136 226.929 30.3455C226.197 31.2778 225.232 31.9984 224.131 32.4338C222.945 32.9172 221.675 33.161 220.395 33.1514C218.872 33.1471 217.363 32.8633 215.942 32.3142C214.425 31.7178 213.108 30.7016 212.144 29.3839" fill="white"/>
<path d="M242.084 11.0369C243.364 11.0203 244.641 11.1719 245.883 11.4878C246.841 11.7134 247.744 12.1312 248.537 12.7161C248.827 12.9118 249.067 13.1731 249.237 13.479C249.407 13.7848 249.504 14.1266 249.518 14.4766C249.516 14.8625 249.387 15.2369 249.15 15.5411C249.033 15.7005 248.878 15.8287 248.7 15.9143C248.522 15.9999 248.325 16.0403 248.128 16.0321C247.82 16.0444 247.515 15.9662 247.25 15.8072C247.013 15.6538 246.793 15.4752 246.594 15.2744C246.346 15.0375 246.064 14.8375 245.759 14.6806C245.302 14.4767 244.821 14.3323 244.328 14.2506C243.709 14.1288 243.08 14.0674 242.449 14.067C241.061 14.0371 239.694 14.4062 238.508 15.1309C237.382 15.8362 236.46 16.8248 235.833 17.9983C235.165 19.2573 234.828 20.6659 234.852 22.0917C234.827 23.5131 235.15 24.9191 235.791 26.1869C236.392 27.3592 237.295 28.3489 238.406 29.0531C239.568 29.7758 240.915 30.1455 242.283 30.1176C243.046 30.14 243.809 30.0573 244.55 29.8718C245.051 29.7309 245.537 29.5387 246 29.2983C246.396 29.0765 246.761 28.801 247.082 28.4796C247.224 28.3392 247.393 28.2301 247.58 28.1596C247.766 28.089 247.965 28.0585 248.164 28.07C248.367 28.0592 248.569 28.094 248.756 28.1719C248.944 28.2499 249.111 28.3689 249.246 28.5203C249.508 28.828 249.647 29.2222 249.636 29.6266C249.595 29.9523 249.482 30.2647 249.305 30.541C249.128 30.8173 248.892 31.0504 248.613 31.2233C247.779 31.847 246.838 32.3118 245.837 32.5946C244.565 32.9774 243.243 33.1638 241.915 33.1471C240.003 33.1903 238.119 32.686 236.483 31.6934C234.935 30.7298 233.684 29.3554 232.868 27.7226C231.995 25.9763 231.554 24.045 231.582 22.0917C231.553 20.1389 232.01 18.2096 232.913 16.4788C233.781 14.8025 235.1 13.404 236.721 12.442C238.343 11.4801 240.2 10.9932 242.084 11.0369Z" fill="white"/>
<path d="M133.995 12.8071C132.211 11.6499 130.131 11.0342 128.006 11.0342C125.881 11.0342 123.801 11.6499 122.016 12.8071C121.836 12.924 121.685 13.0799 121.573 13.2634C121.461 13.447 121.391 13.6534 121.37 13.8674C121.346 14.0863 121.372 14.3078 121.445 14.5154C121.518 14.723 121.637 14.9115 121.793 15.067L122.389 15.665C122.524 15.8016 122.685 15.9101 122.862 15.9842C123.04 16.0583 123.23 16.0966 123.422 16.0968C123.689 16.0966 123.951 16.0216 124.179 15.8803C125.328 15.1689 126.652 14.7922 128.003 14.7922C129.354 14.7922 130.679 15.1689 131.828 15.8803C132.107 16.0529 132.435 16.1256 132.76 16.0865C133.085 16.0474 133.388 15.8988 133.618 15.665L134.214 15.067C134.37 14.9114 134.488 14.7229 134.562 14.5151C134.635 14.3074 134.661 14.0858 134.637 13.8668C134.615 13.6529 134.546 13.4466 134.434 13.2632C134.322 13.0798 134.17 12.9239 133.99 12.8071" fill="#FAFAFA"/>
<path d="M126.311 29.3128C125.177 29.0451 124.122 28.5112 123.234 27.755C122.346 26.9989 121.65 26.0421 121.203 24.9635C120.756 23.8849 120.57 22.7152 120.662 21.5508C120.754 20.3863 121.121 19.2604 121.731 18.2657C121.896 17.9971 121.966 17.6804 121.928 17.3672C121.89 17.0541 121.747 16.763 121.523 16.5417L120.927 15.9401C120.777 15.7902 120.596 15.6758 120.397 15.6052C120.198 15.5346 119.986 15.5097 119.775 15.5322C119.571 15.5532 119.373 15.62 119.198 15.7279C119.022 15.8358 118.873 15.9819 118.761 16.1554C117.612 17.9331 117 20.0065 117 22.1253C117.011 24.6443 117.877 27.0845 119.455 29.0446C121.033 31.0048 123.229 32.3681 125.683 32.9104C125.778 32.9304 125.875 32.9407 125.972 32.9409C126.287 32.9405 126.592 32.8313 126.837 32.6317C127.002 32.4989 127.135 32.3306 127.226 32.1392C127.318 31.9478 127.365 31.7382 127.365 31.526V30.6888C127.367 30.3746 127.264 30.0686 127.074 29.8194C126.883 29.5702 126.614 29.3915 126.311 29.3128Z" fill="#FAFAFA"/>
<path d="M146.381 11.0906C143.463 11.094 140.665 12.2576 138.602 14.3264C136.538 16.3952 135.378 19.2001 135.374 22.1257L135.38 22.1742L135.373 22.2292C135.343 23.9178 134.739 25.5456 133.662 26.8436C132.584 28.1417 131.097 29.0323 129.446 29.3682C129.221 29.4133 129.019 29.5347 128.874 29.7119C128.729 29.8891 128.649 30.1112 128.648 30.3406V32.0252C128.648 32.1709 128.68 32.3148 128.741 32.447C128.802 32.5792 128.891 32.6965 129.002 32.7906C129.109 32.8827 129.235 32.9503 129.372 32.9886C129.508 33.0269 129.65 33.035 129.79 33.0125C132.369 32.5972 134.716 31.2722 136.407 29.2761C138.098 27.28 139.022 24.744 139.013 22.1251C139.014 20.6642 139.446 19.2361 140.255 18.0215C141.065 16.8068 142.216 15.8602 143.562 15.3012C144.908 14.7422 146.39 14.596 147.819 14.8811C149.248 15.1662 150.561 15.8697 151.591 16.9028C152.622 17.9359 153.323 19.252 153.608 20.6849C153.892 22.1177 153.746 23.6029 153.188 24.9526C152.631 26.3023 151.686 27.4559 150.475 28.2675C149.263 29.0791 147.838 29.5123 146.381 29.5123C145.899 29.5123 145.436 29.7045 145.095 30.0466C144.754 30.3886 144.562 30.8525 144.562 31.3363C144.562 31.82 144.754 32.2839 145.095 32.626C145.436 32.968 145.899 33.1602 146.381 33.1602C147.834 33.1709 149.274 32.8934 150.618 32.3437C151.963 31.7939 153.186 30.9828 154.217 29.9571C155.247 28.9313 156.065 27.7112 156.624 26.3671C157.182 25.023 157.469 23.5814 157.469 22.1254C157.469 20.6694 157.182 19.2278 156.624 17.8837C156.065 16.5396 155.247 15.3195 154.217 14.2938C153.186 13.268 151.963 12.4569 150.618 11.9072C149.274 11.3574 147.834 11.0799 146.381 11.0906Z" fill="#FAFAFA"/>
</g>
</g>
<defs>
<clipPath id="clip0_9136_4576">
<rect width="251.93" height="44.2528" fill="white"/>
</clipPath>
</defs>
</svg>
