<svg width="405" height="311" viewBox="0 0 405 311" fill="none" xmlns="http://www.w3.org/2000/svg">
<path d="M623.4 225C623.4 132.1 547.8 56.5 454.9 56.5C362 56.5 286.4 132.1 286.4 225L286.5 225.6L286.4 226.5C285.7 279 247.8 324.5 196.3 334.8C189 336.2 183.8 342.7 183.8 350.1V375.7C183.8 380.3 185.8 384.7 189.4 387.7C192.9 390.6 197.4 391.9 201.8 391.2C283.6 377.9 342.9 308 342.9 225C342.9 163.2 393.1 113 454.9 113C516.7 113 566.9 163.2 566.9 225C566.9 286.8 516.7 337 454.9 337C439.3 337 426.7 349.7 426.7 365.2C426.7 380.8 439.4 393.4 454.9 393.4C547.8 393.5 623.4 317.9 623.4 225ZM622.5 225C622.5 317.4 547.3 392.6 454.9 392.6C439.8 392.6 427.6 380.3 427.6 365.3C427.6 350.2 439.8 338 454.9 338C517.2 338 567.8 287.3 567.8 225.1C567.8 162.8 517.1 112.2 454.9 112.2C392.7 112.1 342 162.8 342 225C342 307.5 283 377 201.6 390.3C197.4 391 193.2 389.8 189.9 387C186.6 384.2 184.7 380.1 184.7 375.7V350.1C184.7 343.1 189.7 337.1 196.5 335.7C248.4 325.4 286.6 279.5 287.3 226.6L287.4 225.7L287.3 225C287.3 132.6 362.5 57.4 454.9 57.4C547.3 57.5 622.5 132.7 622.5 225ZM269.6 117.9C274.5 113 276.9 106.2 276.2 99.3C275.5 92.5 271.8 86.5 266.1 82.8C238.7 65.1 207 55.7 174.4 55.7C141.8 55.7 110.1 65.1 82.7 82.8C77 86.5 73.3 92.5 72.6 99.3C71.9 106.2 74.3 113 79.2 117.9L88.3 127C92.6 131.3 98.3 133.7 104.4 133.7C108.6 133.7 112.6 132.5 116.2 130.3C133.7 119.5 153.8 113.8 174.4 113.8C194.9 113.8 215 119.5 232.5 130.3C241.4 135.8 252.9 134.4 260.4 126.9L269.6 117.9ZM269 117.2L259.9 126.3C252.7 133.5 241.7 134.8 233.1 129.5C215.5 118.6 195.2 112.9 174.5 112.9C153.8 112.9 133.5 118.7 115.9 129.6C112.5 131.7 108.6 132.8 104.6 132.8C98.8 132.8 93.3 130.5 89.2 126.4L80.1 117.3C75.4 112.6 73.1 106.1 73.8 99.4C74.5 92.9 78 87.0999 83.5 83.5999C110.7 65.9999 142.3 56.7 174.7 56.7C207.1 56.7 238.6 65.9999 265.9 83.5999C271.3 87.0999 274.9 92.9 275.6 99.4C276 106 273.7 112.5 269 117.2ZM75.8 139.7L66.7 130.5C62 125.8 55.4 123.4 48.8 124.2C42.3 124.9 36.5 128.4 33 133.9C15.3 161.1 6 192.6 6 225C6 303.8 61.9 373 138.9 389.6C140.4 389.9 141.9 390.1 143.4 390.1C148.3 390.1 153 388.4 156.9 385.3C162.1 381.1 165.1 374.8 165.1 368.1V355.3C165.1 345.2 158.2 336.2 148.7 333.9C97.9 321.9 62.5 277.1 62.5 224.9C62.5 204.2 68.2 184 79.1 166.4C84.4 157.9 83 146.9 75.8 139.7ZM75.2 140.3C82.1 147.2 83.4 157.8 78.3 166C67.3 183.7 61.5 204.1 61.5 225C61.5 277.6 97.2 322.8 148.4 334.9C157.5 337.1 164.1 345.7 164.1 355.4V368.2C164.1 374.6 161.2 380.6 156.2 384.7C151.4 388.6 145 390.2 139 388.8C62.5 372.3 6.9 303.4 6.9 225C6.9 192.7 16.1 161.4 33.6 134.3C37 129.1 42.5 125.7 48.8 125C49.6 124.9 50.3 124.9 51.1 124.9C56.7 124.9 62.1 127.1 66.1 131.1L75.2 140.3Z" fill="white"/>
<path d="M624.8 243.2C624.8 150.3 549.2 74.7 456.3 74.7C363.4 74.7 287.8 150.3 287.8 243.2L287.9 243.8L287.8 244.7C287.1 297.2 249.2 342.7 197.7 353C190.4 354.4 185.2 360.9 185.2 368.3V393.9C185.2 398.5 187.2 402.9 190.8 405.9C194.3 408.8 198.8 410.1 203.2 409.4C285 396 344.4 326.1 344.4 243.2C344.4 181.4 394.6 131.2 456.4 131.2C518.2 131.2 568.4 181.4 568.4 243.2C568.4 305 518.2 355.2 456.4 355.2C440.8 355.2 428.2 367.9 428.2 383.4C428.2 399 440.9 411.6 456.4 411.6C549.3 411.7 624.8 336.1 624.8 243.2ZM623.9 243.2C623.9 335.6 548.7 410.8 456.3 410.8C441.2 410.8 429 398.5 429 383.5C429 368.4 441.3 356.2 456.3 356.2C518.6 356.2 569.2 305.5 569.2 243.3C569.2 181 518.5 130.4 456.3 130.4C394 130.4 343.4 181 343.4 243.3C343.4 325.8 284.3 395.3 203 408.6C198.8 409.3 194.6 408.1 191.3 405.3C188 402.5 186.1 398.4 186.1 394V368.4C186.1 361.4 191.1 355.4 197.9 354C249.8 343.7 288 297.8 288.7 244.9L288.8 244L288.7 243.3C288.7 150.9 363.9 75.7 456.3 75.7C548.8 75.6 623.9 150.8 623.9 243.2ZM271 136C275.9 131.1 278.3 124.3 277.6 117.4C276.9 110.6 273.2 104.6 267.5 100.9C240.1 83.2 208.4 73.8 175.8 73.8C143.2 73.8 111.5 83.2 84.0999 100.9C78.3999 104.6 74.6999 110.6 73.9999 117.4C73.2999 124.3 75.6999 131.1 80.5999 136L89.6999 145.1C93.9999 149.4 99.6999 151.8 105.8 151.8C110 151.8 114 150.6 117.6 148.4C135.1 137.6 155.2 131.9 175.8 131.9C196.3 131.9 216.4 137.6 233.9 148.4C242.8 153.9 254.3 152.5 261.8 145L271 136ZM270.4 135.4L261.3 144.5C254.1 151.7 243.1 153 234.5 147.7C216.9 136.8 196.6 131.1 175.9 131.1C155.2 131.1 134.9 136.9 117.3 147.8C113.9 149.9 110 151 106 151C100.2 151 94.6999 148.7 90.5999 144.6L81.4999 135.5C76.7999 130.8 74.4999 124.3 75.1999 117.6C75.8999 111.1 79.3999 105.3 84.8999 101.8C112.1 84.2 143.7 74.9 176.1 74.9C208.5 74.9 240 84.2 267.3 101.8C272.7 105.3 276.3 111.1 277 117.6C277.4 124.1 275.1 130.7 270.4 135.4ZM77.1999 157.8L68.0999 148.7C63.3999 144 56.7999 141.6 50.0999 142.4C43.5999 143.1 37.7999 146.6 34.2999 152.1C16.6999 179.2 7.3999 210.8 7.3999 243.2C7.3999 322 63.2999 391.2 140.3 407.8C141.8 408.1 143.3 408.3 144.8 408.3C149.7 408.3 154.4 406.6 158.3 403.5C163.5 399.3 166.5 393 166.5 386.3V373.5C166.5 363.4 159.6 354.4 150.1 352.1C99.2999 340.1 63.8999 295.3 63.8999 243.1C63.8999 222.4 69.5999 202.2 80.4999 184.6C85.7999 176.1 84.4999 165 77.1999 157.8ZM76.5999 158.5C83.4999 165.4 84.7999 176 79.6999 184.2C68.6999 201.9 62.8999 222.3 62.8999 243.2C62.8999 295.8 98.5999 341 149.8 353.1C158.9 355.2 165.5 363.9 165.5 373.6V386.4C165.5 392.8 162.6 398.8 157.6 402.9C152.8 406.8 146.5 408.4 140.4 407C63.8999 390.4 8.2999 321.5 8.2999 243.2C8.2999 210.9 17.4999 179.6 34.9999 152.5C38.3999 147.3 43.8999 143.9 50.1999 143.2C50.9999 143.1 51.6999 143.1 52.4999 143.1C58.0999 143.1 63.4999 145.3 67.4999 149.3L76.5999 158.5Z" fill="white"/>
</svg>
