<svg width="65" height="65" viewBox="0 0 65 65" fill="none" xmlns="http://www.w3.org/2000/svg">
<rect width="65" height="65" rx="32.5" fill="#EDF4FF"/>
<g clip-path="url(#clip0_271_4859)">
<path fill-rule="evenodd" clip-rule="evenodd" d="M22.1716 17.5049C22.9217 16.7547 23.9391 16.3333 25 16.3333H36.3333C36.6869 16.3333 37.0261 16.4738 37.2761 16.7238L44.6095 24.0572C44.8595 24.3072 45 24.6464 45 25V41.6666C45 42.7276 44.5785 43.7449 43.8284 44.495C43.0783 45.2452 42.0609 45.6666 41 45.6666H22.3333C21.597 45.6666 21 45.0697 21 44.3333C21 43.5969 21.597 43 22.3333 43H41C41.3536 43 41.6928 42.8594 41.9428 42.6094C42.1928 42.3594 42.3333 42.0203 42.3333 41.6666V25.5523L35.7811 19H25C24.6464 19 24.3072 19.1405 24.0572 19.3905C23.8071 19.6406 23.6667 19.9797 23.6667 20.3333V25.6666C23.6667 26.403 23.0697 27 22.3333 27C21.597 27 21 26.403 21 25.6666V20.3333C21 19.2724 21.4214 18.255 22.1716 17.5049Z" fill="#040F81"/>
<path fill-rule="evenodd" clip-rule="evenodd" d="M35.6668 16.3333C36.4032 16.3333 37.0002 16.9303 37.0002 17.6666V24.3333H43.6668C44.4032 24.3333 45.0002 24.9303 45.0002 25.6666C45.0002 26.403 44.4032 27 43.6668 27H35.6668C34.9304 27 34.3335 26.403 34.3335 25.6666V17.6666C34.3335 16.9303 34.9304 16.3333 35.6668 16.3333Z" fill="#040F81"/>
<path fill-rule="evenodd" clip-rule="evenodd" d="M18.3335 35C18.3335 34.2636 18.9305 33.6666 19.6668 33.6666H33.0002C33.7366 33.6666 34.3335 34.2636 34.3335 35C34.3335 35.7364 33.7366 36.3333 33.0002 36.3333H19.6668C18.9305 36.3333 18.3335 35.7364 18.3335 35Z" fill="#040F81"/>
<path fill-rule="evenodd" clip-rule="evenodd" d="M28.0575 30.0572C28.5782 29.5365 29.4224 29.5365 29.9431 30.0572L33.9431 34.0572C34.4638 34.5779 34.4638 35.4221 33.9431 35.9428L29.9431 39.9428C29.4224 40.4635 28.5782 40.4635 28.0575 39.9428C27.5368 39.4221 27.5368 38.5779 28.0575 38.0572L31.1147 35L28.0575 31.9428C27.5368 31.4221 27.5368 30.5779 28.0575 30.0572Z" fill="#040F81"/>
</g>
<defs>
<clipPath id="clip0_271_4859">
<rect width="32" height="32" fill="white" transform="translate(17 17)"/>
</clipPath>
</defs>
</svg>
