<svg width="12" height="12" viewBox="0 0 12 12" fill="none" xmlns="http://www.w3.org/2000/svg">
  <path d="M6 0C4.39734 0 2.89062 0.624117 1.75734 1.75734C0.624117 2.89059 0 4.39734 0 6C0 7.60266 0.624117 9.10941 1.75734 10.2427C2.89062 11.3759 4.39734 12 6 12C7.60266 12 9.10938 11.3759 10.2427 10.2427C11.3759 9.10941 12 7.60266 12 6C12 4.39734 11.3759 2.89059 10.2427 1.75734C9.10938 0.624117 7.60266 0 6 0ZM6 1.5C7.38071 1.5 8.5 2.61929 8.5 4C8.5 5.38071 7.38071 6.5 6 6.5C4.61929 6.5 3.5 5.38071 3.5 4C3.5 2.61929 4.61929 1.5 6 1.5ZM4 7.75H8C8.9665 7.75 9.75 8.5335 9.75 9.5V10H2.25V9.5C2.25 8.5335 3.0335 7.75 4 7.75Z" fill="#4F4F4F"/>
</svg>
