<svg width="24" height="24" viewBox="0 0 24 24" fill="none" xmlns="http://www.w3.org/2000/svg">
<path d="M14.75 11.5C15.1642 11.5 15.5 11.1642 15.5 10.75C15.5 10.3358 15.1642 10 14.75 10C14.3358 10 14 10.3358 14 10.75C14 11.1642 14.3358 11.5 14.75 11.5Z" fill="#595B5D"/>
<path d="M17.75 11.5C18.1642 11.5 18.5 11.1642 18.5 10.75C18.5 10.3358 18.1642 10 17.75 10C17.3358 10 17 10.3358 17 10.75C17 11.1642 17.3358 11.5 17.75 11.5Z" fill="#595B5D"/>
<path d="M14.75 14.5C15.1642 14.5 15.5 14.1642 15.5 13.75C15.5 13.3358 15.1642 13 14.75 13C14.3358 13 14 13.3358 14 13.75C14 14.1642 14.3358 14.5 14.75 14.5Z" fill="#595B5D"/>
<path d="M14.75 17.5C15.1642 17.5 15.5 17.1642 15.5 16.75C15.5 16.3358 15.1642 16 14.75 16C14.3358 16 14 16.3358 14 16.75C14 17.1642 14.3358 17.5 14.75 17.5Z" fill="#595B5D"/>
<path d="M17.75 17.5C18.1642 17.5 18.5 17.1642 18.5 16.75C18.5 16.3358 18.1642 16 17.75 16C17.3358 16 17 16.3358 17 16.75C17 17.1642 17.3358 17.5 17.75 17.5Z" fill="#595B5D"/>
<path d="M17.75 14.5C18.1642 14.5 18.5 14.1642 18.5 13.75C18.5 13.3358 18.1642 13 17.75 13C17.3358 13 17 13.3358 17 13.75C17 14.1642 17.3358 14.5 17.75 14.5Z" fill="#595B5D"/>
<path d="M12 7V5C12 3.9 11.1 3 10 3H4C2.9 3 2 3.9 2 5V19C2 20.1 2.9 21 4 21H20C21.1 21 22 20.1 22 19V9C22 7.9 21.1 7 20 7H12ZM10.5 19.5H3.5V4.5H10.5V19.5ZM19 19.5H12V17V15V13V11V8.5H19C20 8.5 20.5 9.5 20.5 10V18C20.5 19 20 19.5 19 19.5Z" fill="#595B5D"/>
</svg>
