<svg width="171" height="33" viewBox="0 0 171 33" fill="none" xmlns="http://www.w3.org/2000/svg">
<rect x="0.625" y="0.324219" width="170" height="32" fill="#F7EDFF"/>
<path d="M35.3686 21.6484V11.4666H36.9048V15.8913H41.9808V11.4666H43.522V21.6484H41.9808V17.2088H36.9048V21.6484H35.3686ZM48.8565 21.8026C48.1406 21.8026 47.5159 21.6385 46.9822 21.3104C46.4486 20.9822 46.0343 20.5232 45.7393 19.9332C45.4444 19.3433 45.2969 18.6539 45.2969 17.8651C45.2969 17.0729 45.4444 16.3802 45.7393 15.7869C46.0343 15.1937 46.4486 14.733 46.9822 14.4048C47.5159 14.0767 48.1406 13.9126 48.8565 13.9126C49.5724 13.9126 50.1972 14.0767 50.7308 14.4048C51.2644 14.733 51.6787 15.1937 51.9737 15.7869C52.2687 16.3802 52.4162 17.0729 52.4162 17.8651C52.4162 18.6539 52.2687 19.3433 51.9737 19.9332C51.6787 20.5232 51.2644 20.9822 50.7308 21.3104C50.1972 21.6385 49.5724 21.8026 48.8565 21.8026ZM48.8615 20.5547C49.3255 20.5547 49.71 20.4321 50.0149 20.1868C50.3198 19.9415 50.5452 19.6151 50.6911 19.2074C50.8402 18.7997 50.9148 18.3506 50.9148 17.8601C50.9148 17.3729 50.8402 16.9254 50.6911 16.5178C50.5452 16.1068 50.3198 15.777 50.0149 15.5284C49.71 15.2798 49.3255 15.1555 48.8615 15.1555C48.3942 15.1555 48.0064 15.2798 47.6982 15.5284C47.3932 15.777 47.1662 16.1068 47.017 16.5178C46.8712 16.9254 46.7983 17.3729 46.7983 17.8601C46.7983 18.3506 46.8712 18.7997 47.017 19.2074C47.1662 19.6151 47.3932 19.9415 47.6982 20.1868C48.0064 20.4321 48.3942 20.5547 48.8615 20.5547ZM54.0755 21.6484V14.0121H55.5123V15.2251H55.5918C55.731 14.8142 55.9763 14.491 56.3276 14.2557C56.6822 14.017 57.0833 13.8977 57.5307 13.8977C57.6235 13.8977 57.7329 13.901 57.8588 13.9077C57.9881 13.9143 58.0892 13.9226 58.1621 13.9325V15.3544C58.1025 15.3378 57.9964 15.3196 57.8439 15.2997C57.6915 15.2765 57.539 15.2649 57.3865 15.2649C57.0352 15.2649 56.722 15.3395 56.4469 15.4886C56.1751 15.6345 55.9597 15.8383 55.8006 16.1001C55.6415 16.3587 55.562 16.6536 55.562 16.9851V21.6484H54.0755ZM59.4485 21.6484V14.0121H60.935V21.6484H59.4485ZM60.1992 12.8338C59.9407 12.8338 59.7186 12.7476 59.533 12.5753C59.3507 12.3996 59.2596 12.1908 59.2596 11.9489C59.2596 11.7036 59.3507 11.4948 59.533 11.3224C59.7186 11.1468 59.9407 11.0589 60.1992 11.0589C60.4577 11.0589 60.6781 11.1468 60.8604 11.3224C61.046 11.4948 61.1388 11.7036 61.1388 11.9489C61.1388 12.1908 61.046 12.3996 60.8604 12.5753C60.6781 12.7476 60.4577 12.8338 60.1992 12.8338ZM62.7757 21.6484V20.6293L66.9121 15.3743V15.3047H62.91V14.0121H68.7665V15.0959L64.7892 20.2862V20.3558H68.9057V21.6484H62.7757ZM73.6573 21.8026C72.9414 21.8026 72.3166 21.6385 71.783 21.3104C71.2494 20.9822 70.8351 20.5232 70.5401 19.9332C70.2451 19.3433 70.0977 18.6539 70.0977 17.8651C70.0977 17.0729 70.2451 16.3802 70.5401 15.7869C70.8351 15.1937 71.2494 14.733 71.783 14.4048C72.3166 14.0767 72.9414 13.9126 73.6573 13.9126C74.3732 13.9126 74.998 14.0767 75.5316 14.4048C76.0652 14.733 76.4795 15.1937 76.7745 15.7869C77.0695 16.3802 77.217 17.0729 77.217 17.8651C77.217 18.6539 77.0695 19.3433 76.7745 19.9332C76.4795 20.5232 76.0652 20.9822 75.5316 21.3104C74.998 21.6385 74.3732 21.8026 73.6573 21.8026ZM73.6623 20.5547C74.1263 20.5547 74.5108 20.4321 74.8157 20.1868C75.1206 19.9415 75.346 19.6151 75.4918 19.2074C75.641 18.7997 75.7156 18.3506 75.7156 17.8601C75.7156 17.3729 75.641 16.9254 75.4918 16.5178C75.346 16.1068 75.1206 15.777 74.8157 15.5284C74.5108 15.2798 74.1263 15.1555 73.6623 15.1555C73.195 15.1555 72.8072 15.2798 72.4989 15.5284C72.194 15.777 71.967 16.1068 71.8178 16.5178C71.672 16.9254 71.5991 17.3729 71.5991 17.8601C71.5991 18.3506 71.672 18.7997 71.8178 19.2074C71.967 19.6151 72.194 19.9415 72.4989 20.1868C72.8072 20.4321 73.195 20.5547 73.6623 20.5547ZM80.3627 17.1143V21.6484H78.8762V14.0121H80.3031V15.255H80.3975C80.5732 14.8506 80.8483 14.5258 81.2228 14.2805C81.6007 14.0353 82.0763 13.9126 82.6497 13.9126C83.17 13.9126 83.6258 14.022 84.0169 14.2408C84.408 14.4562 84.7112 14.7777 84.9267 15.2053C85.1421 15.6328 85.2498 16.1615 85.2498 16.7912V21.6484H83.7633V16.9702C83.7633 16.4167 83.6191 15.9841 83.3308 15.6726C83.0424 15.3577 82.6464 15.2003 82.1426 15.2003C81.7979 15.2003 81.4913 15.2749 81.2228 15.424C80.9577 15.5732 80.7472 15.7919 80.5914 16.0803C80.439 16.3653 80.3627 16.71 80.3627 17.1143ZM90.8081 14.0121V15.2053H86.6369V14.0121H90.8081ZM87.7555 12.1825H89.242V19.4062C89.242 19.6946 89.2851 19.9117 89.3713 20.0575C89.4574 20.2 89.5685 20.2978 89.7044 20.3509C89.8436 20.4006 89.9944 20.4254 90.1568 20.4254C90.2761 20.4254 90.3805 20.4171 90.47 20.4006C90.5595 20.384 90.6291 20.3707 90.6788 20.3608L90.9473 21.5888C90.8611 21.6219 90.7385 21.6551 90.5794 21.6882C90.4203 21.7247 90.2214 21.7446 89.9828 21.7479C89.5917 21.7545 89.2271 21.6849 88.889 21.5391C88.551 21.3932 88.2775 21.1679 88.0687 20.8629C87.8599 20.558 87.7555 20.1752 87.7555 19.7145V12.1825ZM94.6747 21.8175C94.1908 21.8175 93.7533 21.728 93.3622 21.549C92.9711 21.3667 92.6612 21.1032 92.4325 20.7585C92.2071 20.4138 92.0945 19.9912 92.0945 19.4908C92.0945 19.0599 92.1773 18.7053 92.343 18.4268C92.5088 18.1484 92.7325 17.928 93.0142 17.7656C93.2959 17.6032 93.6108 17.4806 93.9588 17.3977C94.3068 17.3149 94.6615 17.2519 95.0227 17.2088C95.4801 17.1558 95.8513 17.1127 96.1364 17.0795C96.4214 17.0431 96.6286 16.9851 96.7578 16.9055C96.8871 16.826 96.9517 16.6967 96.9517 16.5178V16.483C96.9517 16.0488 96.8291 15.7124 96.5838 15.4737C96.3419 15.2351 95.9806 15.1158 95.5 15.1158C94.9995 15.1158 94.6051 15.2268 94.3168 15.4489C94.0317 15.6676 93.8345 15.9112 93.7251 16.1797L92.3281 15.8615C92.4938 15.3975 92.7358 15.023 93.054 14.7379C93.3755 14.4496 93.745 14.2408 94.1626 14.1115C94.5803 13.9789 95.0194 13.9126 95.4801 13.9126C95.785 13.9126 96.1082 13.9491 96.4496 14.022C96.7943 14.0916 97.1158 14.2209 97.4141 14.4098C97.7157 14.5987 97.9626 14.8688 98.1548 15.2202C98.3471 15.5682 98.4432 16.0206 98.4432 16.5774V21.6484H96.9915V20.6044H96.9318C96.8357 20.7966 96.6915 20.9856 96.4993 21.1712C96.3071 21.3568 96.0601 21.5109 95.7585 21.6335C95.4569 21.7562 95.0956 21.8175 94.6747 21.8175ZM94.9979 20.6243C95.4089 20.6243 95.7602 20.5431 96.0518 20.3807C96.3468 20.2183 96.5705 20.0062 96.723 19.7443C96.8788 19.4792 96.9567 19.1958 96.9567 18.8942V17.9098C96.9036 17.9628 96.8009 18.0125 96.6484 18.0589C96.4993 18.102 96.3286 18.1402 96.1364 18.1733C95.9441 18.2031 95.7569 18.2313 95.5746 18.2578C95.3923 18.281 95.2398 18.3009 95.1172 18.3175C94.8288 18.3539 94.5653 18.4152 94.3267 18.5014C94.0914 18.5876 93.9025 18.7119 93.7599 18.8743C93.6207 19.0334 93.5511 19.2455 93.5511 19.5107C93.5511 19.8786 93.687 20.157 93.9588 20.3459C94.2306 20.5315 94.5769 20.6243 94.9979 20.6243ZM101.91 11.4666V21.6484H100.423V11.4666H101.91ZM113.287 14.1413C113.234 13.6707 113.015 13.3061 112.631 13.0476C112.246 12.7857 111.762 12.6548 111.179 12.6548C110.762 12.6548 110.4 12.7211 110.095 12.8537C109.79 12.983 109.553 13.1619 109.384 13.3906C109.219 13.616 109.136 13.8729 109.136 14.1612C109.136 14.4032 109.192 14.612 109.305 14.7876C109.421 14.9633 109.572 15.1108 109.757 15.2301C109.946 15.3461 110.148 15.4439 110.364 15.5234C110.579 15.5997 110.786 15.6626 110.985 15.7124L111.98 15.9709C112.304 16.0504 112.637 16.1581 112.979 16.294C113.32 16.4299 113.637 16.6089 113.928 16.831C114.22 17.053 114.455 17.3281 114.634 17.6562C114.817 17.9844 114.908 18.3771 114.908 18.8345C114.908 19.4112 114.759 19.9233 114.46 20.3707C114.165 20.8182 113.736 21.1712 113.173 21.4297C112.613 21.6882 111.935 21.8175 111.139 21.8175C110.377 21.8175 109.718 21.6965 109.161 21.4545C108.604 21.2126 108.168 20.8696 107.853 20.4254C107.538 19.978 107.364 19.4477 107.331 18.8345H108.872C108.902 19.2024 109.021 19.509 109.23 19.7543C109.442 19.9962 109.713 20.1768 110.041 20.2962C110.372 20.4122 110.735 20.4702 111.129 20.4702C111.564 20.4702 111.95 20.4022 112.288 20.2663C112.629 20.1271 112.898 19.9349 113.093 19.6896C113.289 19.4411 113.387 19.151 113.387 18.8196C113.387 18.518 113.3 18.2711 113.128 18.0788C112.959 17.8866 112.729 17.7275 112.437 17.6016C112.149 17.4756 111.822 17.3646 111.458 17.2685L110.254 16.9403C109.439 16.7183 108.793 16.3918 108.316 15.9609C107.842 15.5301 107.605 14.96 107.605 14.2507C107.605 13.6641 107.764 13.152 108.082 12.7145C108.4 12.277 108.831 11.9373 109.374 11.6953C109.918 11.45 110.531 11.3274 111.214 11.3274C111.903 11.3274 112.512 11.4484 113.039 11.6903C113.569 11.9323 113.986 12.2654 114.291 12.6896C114.596 13.1106 114.755 13.5945 114.769 14.1413H113.287ZM119.915 21.8026C119.163 21.8026 118.515 21.6418 117.972 21.3203C117.431 20.9955 117.014 20.5398 116.719 19.9531C116.427 19.3632 116.281 18.6721 116.281 17.88C116.281 17.0978 116.427 16.4084 116.719 15.8118C117.014 15.2152 117.425 14.7495 117.952 14.4148C118.482 14.08 119.102 13.9126 119.811 13.9126C120.242 13.9126 120.66 13.9839 121.064 14.1264C121.468 14.2689 121.831 14.4927 122.153 14.7976C122.474 15.1025 122.728 15.4986 122.913 15.9858C123.099 16.4697 123.192 17.058 123.192 17.7507V18.2777H117.121V17.1641H121.735C121.735 16.773 121.656 16.4266 121.496 16.125C121.337 15.8201 121.114 15.5798 120.825 15.4041C120.54 15.2285 120.205 15.1406 119.821 15.1406C119.403 15.1406 119.039 15.2434 118.727 15.4489C118.419 15.651 118.18 15.9162 118.011 16.2443C117.846 16.5691 117.763 16.9221 117.763 17.3033V18.1733C117.763 18.6837 117.852 19.1179 118.031 19.4759C118.214 19.8338 118.467 20.1072 118.792 20.2962C119.117 20.4818 119.496 20.5746 119.93 20.5746C120.212 20.5746 120.469 20.5348 120.701 20.4553C120.933 20.3724 121.134 20.2498 121.303 20.0874C121.472 19.925 121.601 19.7244 121.69 19.4858L123.097 19.7393C122.985 20.1536 122.782 20.5166 122.491 20.8281C122.202 21.1364 121.839 21.3767 121.402 21.549C120.968 21.718 120.472 21.8026 119.915 21.8026ZM124.841 21.6484V14.0121H126.278V15.2251H126.357C126.497 14.8142 126.742 14.491 127.093 14.2557C127.448 14.017 127.849 13.8977 128.296 13.8977C128.389 13.8977 128.499 13.901 128.624 13.9077C128.754 13.9143 128.855 13.9226 128.928 13.9325V15.3544C128.868 15.3378 128.762 15.3196 128.61 15.2997C128.457 15.2765 128.305 15.2649 128.152 15.2649C127.801 15.2649 127.488 15.3395 127.213 15.4886C126.941 15.6345 126.725 15.8383 126.566 16.1001C126.407 16.3587 126.328 16.6536 126.328 16.9851V21.6484H124.841ZM136.979 14.0121L134.21 21.6484H132.619L129.845 14.0121H131.441L133.375 19.8885H133.454L135.383 14.0121H136.979ZM138.376 21.6484V14.0121H139.863V21.6484H138.376ZM139.127 12.8338C138.868 12.8338 138.646 12.7476 138.461 12.5753C138.278 12.3996 138.187 12.1908 138.187 11.9489C138.187 11.7036 138.278 11.4948 138.461 11.3224C138.646 11.1468 138.868 11.0589 139.127 11.0589C139.385 11.0589 139.606 11.1468 139.788 11.3224C139.974 11.4948 140.067 11.7036 140.067 11.9489C140.067 12.1908 139.974 12.3996 139.788 12.5753C139.606 12.7476 139.385 12.8338 139.127 12.8338ZM145.079 21.8026C144.34 21.8026 143.704 21.6352 143.17 21.3004C142.64 20.9624 142.232 20.4967 141.947 19.9034C141.662 19.3101 141.52 18.6307 141.52 17.8651C141.52 17.0895 141.665 16.4051 141.957 15.8118C142.249 15.2152 142.66 14.7495 143.19 14.4148C143.72 14.08 144.345 13.9126 145.064 13.9126C145.644 13.9126 146.161 14.0204 146.615 14.2358C147.069 14.4479 147.436 14.7462 147.714 15.1307C147.996 15.5152 148.163 15.9643 148.216 16.478H146.77C146.69 16.12 146.508 15.8118 146.223 15.5533C145.941 15.2947 145.563 15.1655 145.089 15.1655C144.675 15.1655 144.312 15.2749 144 15.4936C143.692 15.709 143.452 16.0173 143.279 16.4183C143.107 16.8161 143.021 17.2867 143.021 17.8303C143.021 18.3871 143.105 18.8677 143.275 19.272C143.444 19.6764 143.682 19.9896 143.99 20.2116C144.302 20.4337 144.668 20.5447 145.089 20.5447C145.371 20.5447 145.626 20.4934 145.855 20.3906C146.087 20.2846 146.281 20.1338 146.436 19.9382C146.596 19.7427 146.707 19.5073 146.77 19.2322H148.216C148.163 19.7261 148.002 20.1669 147.734 20.5547C147.466 20.9425 147.106 21.2474 146.655 21.4695C146.208 21.6915 145.682 21.8026 145.079 21.8026ZM153.097 21.8026C152.345 21.8026 151.697 21.6418 151.153 21.3203C150.613 20.9955 150.195 20.5398 149.9 19.9531C149.609 19.3632 149.463 18.6721 149.463 17.88C149.463 17.0978 149.609 16.4084 149.9 15.8118C150.195 15.2152 150.606 14.7495 151.133 14.4148C151.664 14.08 152.283 13.9126 152.993 13.9126C153.424 13.9126 153.841 13.9839 154.246 14.1264C154.65 14.2689 155.013 14.4927 155.334 14.7976C155.656 15.1025 155.909 15.4986 156.095 15.9858C156.281 16.4697 156.373 17.058 156.373 17.7507V18.2777H150.303V17.1641H154.917C154.917 16.773 154.837 16.4266 154.678 16.125C154.519 15.8201 154.295 15.5798 154.007 15.4041C153.722 15.2285 153.387 15.1406 153.003 15.1406C152.585 15.1406 152.22 15.2434 151.909 15.4489C151.601 15.651 151.362 15.9162 151.193 16.2443C151.027 16.5691 150.944 16.9221 150.944 17.3033V18.1733C150.944 18.6837 151.034 19.1179 151.213 19.4759C151.395 19.8338 151.649 20.1072 151.974 20.2962C152.298 20.4818 152.678 20.5746 153.112 20.5746C153.394 20.5746 153.651 20.5348 153.883 20.4553C154.115 20.3724 154.315 20.2498 154.484 20.0874C154.653 19.925 154.782 19.7244 154.872 19.4858L156.279 19.7393C156.166 20.1536 155.964 20.5166 155.672 20.8281C155.384 21.1364 155.021 21.3767 154.584 21.549C154.149 21.718 153.654 21.8026 153.097 21.8026Z" fill="#A959EA"/>
<path d="M20.332 24.9727H18.1689C18.0474 24.9727 17.931 24.9244 17.8451 24.8385C17.7592 24.7526 17.7109 24.6362 17.7109 24.5147V23.0318C16.8713 22.8482 16.071 22.5165 15.3475 22.0525L14.2992 23.1007C14.2567 23.1433 14.2062 23.177 14.1506 23.2C14.095 23.223 14.0355 23.2349 13.9753 23.2349C13.9152 23.2349 13.8557 23.223 13.8001 23.2C13.7445 23.177 13.694 23.1433 13.6515 23.1007L12.1219 21.5712C12.0794 21.5287 12.0457 21.4782 12.0227 21.4226C11.9996 21.3671 11.9878 21.3075 11.9878 21.2474C11.9878 21.1872 11.9996 21.1277 12.0227 21.0721C12.0457 21.0165 12.0794 20.966 12.1219 20.9235L13.1702 19.8753C12.7062 19.152 12.3746 18.3519 12.1909 17.5125H10.708C10.5865 17.5125 10.47 17.4642 10.3841 17.3783C10.2982 17.2924 10.25 17.176 10.25 17.0545V14.8915C10.25 14.77 10.2982 14.6535 10.3841 14.5676C10.47 14.4818 10.5865 14.4335 10.708 14.4335H12.1909C12.3745 13.5938 12.7062 12.7936 13.1702 12.0701L12.1219 11.0218C12.0794 10.9793 12.0457 10.9288 12.0227 10.8732C11.9996 10.8177 11.9878 10.7581 11.9878 10.698C11.9878 10.6378 11.9996 10.5783 12.0227 10.5227C12.0457 10.4671 12.0794 10.4167 12.1219 10.3741L13.6515 8.84458C13.694 8.80205 13.7445 8.76831 13.8001 8.74529C13.8557 8.72228 13.9152 8.71043 13.9753 8.71043C14.0355 8.71043 14.095 8.72228 14.1506 8.74529C14.2062 8.76831 14.2567 8.80205 14.2992 8.84458L15.3475 9.89284C16.071 9.42878 16.8713 9.09716 17.7109 8.91349V7.4306C17.7109 7.30915 17.7592 7.19267 17.8451 7.10679C17.931 7.0209 18.0474 6.97266 18.1689 6.97266H20.332C20.4534 6.97266 20.5699 7.0209 20.6558 7.10679C20.7417 7.19267 20.7899 7.30915 20.7899 7.4306V8.91349C21.6296 9.09716 22.4299 9.42878 23.1534 9.89284L24.2017 8.84458C24.2442 8.80205 24.2947 8.76831 24.3503 8.74529C24.4058 8.72228 24.4654 8.71043 24.5255 8.71043C24.5857 8.71043 24.6452 8.72228 24.7008 8.74529C24.7563 8.76831 24.8068 8.80205 24.8494 8.84458L26.3789 10.3741C26.4215 10.4167 26.4552 10.4671 26.4782 10.5227C26.5012 10.5783 26.5131 10.6378 26.5131 10.698C26.5131 10.7581 26.5012 10.8177 26.4782 10.8732C26.4552 10.9288 26.4215 10.9793 26.3789 11.0218L25.3307 12.0701C25.7944 12.7937 26.1258 13.594 26.3091 14.4337H27.792C27.9135 14.4337 28.03 14.482 28.1159 14.5679C28.2018 14.6537 28.25 14.7702 28.25 14.8917V17.0545C28.25 17.176 28.2018 17.2924 28.1159 17.3783C28.03 17.4642 27.9135 17.5125 27.792 17.5125H26.3091C26.1255 18.3521 25.7938 19.1524 25.3298 19.8759L26.3781 20.9242C26.4206 20.9667 26.4543 21.0172 26.4773 21.0727C26.5004 21.1283 26.5122 21.1879 26.5122 21.248C26.5122 21.3082 26.5004 21.3677 26.4773 21.4233C26.4543 21.4788 26.4206 21.5293 26.3781 21.5718L24.8485 23.1014C24.806 23.1439 24.7555 23.1777 24.6999 23.2007C24.6443 23.2237 24.5848 23.2355 24.5247 23.2355C24.4645 23.2355 24.405 23.2237 24.3494 23.2007C24.2938 23.1777 24.2433 23.1439 24.2008 23.1014L23.1525 22.0531C22.429 22.5172 21.6287 22.8488 20.7891 23.0325V24.5154C20.7889 24.6366 20.7407 24.7527 20.655 24.8384C20.5693 24.9242 20.4532 24.9724 20.332 24.9727ZM18.6269 24.0568H19.874V22.6535C19.874 22.5446 19.9128 22.4393 19.9834 22.3565C20.0541 22.2737 20.1519 22.2187 20.2594 22.2014C21.2277 22.0442 22.1462 21.6634 22.9417 21.0893C23.0299 21.0255 23.1379 20.9953 23.2464 21.004C23.3549 21.0127 23.4568 21.0598 23.5337 21.1368L24.5264 22.1292L25.4083 21.2474L24.4156 20.2547C24.3387 20.1777 24.2917 20.0759 24.283 19.9675C24.2744 19.859 24.3046 19.751 24.3683 19.6629C24.9424 18.8673 25.3232 17.949 25.4805 16.9806C25.4977 16.8731 25.5527 16.7753 25.6356 16.7047C25.7184 16.6341 25.8237 16.5953 25.9325 16.5952H27.3341V15.3481H25.9308C25.8219 15.3481 25.7166 15.3093 25.6338 15.2387C25.551 15.1681 25.496 15.0702 25.4787 14.9628C25.3216 13.9944 24.9408 13.076 24.3665 12.2805C24.3028 12.1923 24.2725 12.0843 24.2812 11.9758C24.2899 11.8673 24.3369 11.7654 24.4139 11.6884L25.4065 10.6958L24.5247 9.8139L23.532 10.8066C23.455 10.8835 23.3532 10.9305 23.2447 10.9392C23.1362 10.9479 23.0281 10.9176 22.9399 10.8539C22.1444 10.2797 21.226 9.89892 20.2576 9.74172C20.1501 9.72446 20.0523 9.66948 19.9817 9.58664C19.9111 9.5038 19.8723 9.39851 19.8723 9.28966V7.88964H18.6251V9.29293C18.6251 9.40178 18.5863 9.50707 18.5157 9.58991C18.4451 9.67275 18.3472 9.72773 18.2398 9.74499C17.2714 9.90222 16.353 10.283 15.5575 10.8572C15.4693 10.9209 15.3613 10.9511 15.2528 10.9424C15.1444 10.9337 15.0426 10.8867 14.9656 10.8098L13.973 9.81717L13.0939 10.6982L14.0861 11.69C14.1631 11.7669 14.2101 11.8688 14.2188 11.9773C14.2275 12.0858 14.1972 12.1938 14.1335 12.282C13.5592 13.0775 13.1784 13.9959 13.0213 14.9643C13.004 15.0718 12.949 15.1696 12.8662 15.2402C12.7834 15.3108 12.6781 15.3496 12.5692 15.3496H11.1668V16.5966H12.5705C12.6794 16.5966 12.7847 16.6354 12.8675 16.706C12.9503 16.7766 13.0053 16.8744 13.0226 16.9819C13.1798 17.9503 13.5606 18.8687 14.1348 19.6642C14.1985 19.7524 14.2287 19.8603 14.22 19.9688C14.2113 20.0772 14.1643 20.1791 14.0874 20.256L13.0939 21.2482L13.9758 22.1301L14.9685 21.1377C15.0454 21.0607 15.1472 21.0137 15.2556 21.005C15.3641 20.9963 15.4721 21.0265 15.5603 21.0901C16.3558 21.6643 17.2742 22.0451 18.2426 22.2023C18.3501 22.2195 18.4479 22.2745 18.5185 22.3574C18.5891 22.4402 18.6279 22.5455 18.6279 22.6543L18.6269 24.0568Z" fill="#A959EA"/>
<path d="M19.2516 20.2718C16.8813 20.2718 14.9531 18.3436 14.9531 15.9734C14.9531 13.6032 16.8813 11.6748 19.2516 11.6748C21.6218 11.6748 23.5502 13.6032 23.5502 15.9734C23.5502 18.3436 21.6218 20.2718 19.2516 20.2718ZM19.2516 12.5907C17.3864 12.5907 15.869 14.1083 15.869 15.9734C15.869 17.8386 17.3864 19.3559 19.2516 19.3559C21.1168 19.3559 22.6343 17.8386 22.6343 15.9734C22.6343 14.1083 21.117 12.5907 19.2516 12.5907Z" fill="#A959EA"/>
</svg>
