<svg width="13" height="12" viewBox="0 0 13 12" fill="none" xmlns="http://www.w3.org/2000/svg">
<path d="M7.45553 12H5.98462C5.90203 12 5.82282 11.9678 5.76442 11.9106C5.70602 11.8533 5.67321 11.7757 5.67321 11.6947V10.7061C5.10222 10.5837 4.558 10.3626 4.06602 10.0532L3.35318 10.7521C3.32427 10.7804 3.28993 10.8029 3.25215 10.8182C3.21436 10.8336 3.17387 10.8415 3.13297 10.8415C3.09207 10.8415 3.05157 10.8336 3.01379 10.8182C2.97601 10.8029 2.94167 10.7804 2.91276 10.7521L1.87264 9.73235C1.84372 9.704 1.82077 9.67035 1.80512 9.63331C1.78947 9.59626 1.78142 9.55656 1.78142 9.51647C1.78142 9.47637 1.78947 9.43667 1.80512 9.39962C1.82077 9.36258 1.84372 9.32893 1.87264 9.30058L2.58548 8.60173C2.26996 8.11954 2.04445 7.58616 1.9195 7.02653H0.911114C0.828522 7.02653 0.749313 6.99437 0.690912 6.93711C0.63251 6.87986 0.599701 6.8022 0.599701 6.72123V5.2792C0.599701 5.19823 0.63251 5.12058 0.690912 5.06333C0.749313 5.00607 0.828522 4.97391 0.911114 4.97391H1.9195C2.0444 4.41412 2.26991 3.8806 2.58548 3.39827L1.87264 2.69943C1.84372 2.67108 1.82077 2.63742 1.80512 2.60038C1.78947 2.56333 1.78142 2.52363 1.78142 2.48354C1.78142 2.44344 1.78947 2.40374 1.80512 2.3667C1.82077 2.32965 1.84372 2.296 1.87264 2.26765L2.91276 1.24795C2.94167 1.21959 2.97601 1.1971 3.01379 1.18176C3.05157 1.16641 3.09207 1.15852 3.13297 1.15852C3.17387 1.15852 3.21436 1.16641 3.25215 1.18176C3.28993 1.1971 3.32427 1.21959 3.35318 1.24795L4.06602 1.94679C4.558 1.63742 5.10222 1.41634 5.67321 1.29389V0.305299C5.67321 0.224329 5.70602 0.146675 5.76442 0.08942C5.82282 0.0321653 5.90203 0 5.98462 0H7.45553C7.53812 0 7.61733 0.0321653 7.67573 0.08942C7.73413 0.146675 7.76694 0.224329 7.76694 0.305299V1.29389C8.33793 1.41634 8.88214 1.63742 9.37413 1.94679L10.087 1.24795C10.1159 1.21959 10.1502 1.1971 10.188 1.18176C10.2258 1.16641 10.2663 1.15852 10.3072 1.15852C10.3481 1.15852 10.3886 1.16641 10.4264 1.18176C10.4641 1.1971 10.4985 1.21959 10.5274 1.24795L11.5675 2.26765C11.5964 2.296 11.6194 2.32965 11.635 2.3667C11.6507 2.40374 11.6587 2.44344 11.6587 2.48354C11.6587 2.52363 11.6507 2.56333 11.635 2.60038C11.6194 2.63742 11.5964 2.67108 11.5675 2.69943L10.8547 3.39827C11.17 3.88068 11.3954 4.41426 11.5201 4.97405H12.5284C12.611 4.97405 12.6902 5.00621 12.7486 5.06347C12.807 5.12072 12.8399 5.19838 12.8399 5.27935V6.72123C12.8399 6.8022 12.807 6.87986 12.7486 6.93711C12.6902 6.99437 12.611 7.02653 12.5284 7.02653H11.5201C11.3952 7.58631 11.1696 8.11984 10.8541 8.60217L11.5669 9.30101C11.5958 9.32936 11.6188 9.36302 11.6344 9.40006C11.6501 9.4371 11.6581 9.47681 11.6581 9.5169C11.6581 9.557 11.6501 9.5967 11.6344 9.63374C11.6188 9.67078 11.5958 9.70444 11.5669 9.73279L10.5268 10.7525C10.4979 10.7808 10.4635 10.8033 10.4258 10.8187C10.388 10.834 10.3475 10.8419 10.3066 10.8419C10.2657 10.8419 10.2252 10.834 10.1874 10.8187C10.1496 10.8033 10.1153 10.7808 10.0864 10.7525L9.37353 10.0536C8.88155 10.363 8.33734 10.5841 7.76635 10.7065V11.6951C7.76623 11.7759 7.73345 11.8534 7.67519 11.9105C7.61693 11.9677 7.53794 11.9998 7.45553 12ZM6.29603 11.3894H7.14411V10.4539C7.14413 10.3813 7.17051 10.3111 7.21853 10.2559C7.26655 10.2007 7.33306 10.164 7.40614 10.1525C8.06466 10.0477 8.68919 9.79384 9.23013 9.41106C9.29014 9.36858 9.36361 9.34843 9.43739 9.35424C9.51117 9.36005 9.58043 9.39143 9.63275 9.44276L10.3078 10.1044L10.9075 9.51647L10.2324 8.85469C10.1801 8.80339 10.1482 8.73551 10.1423 8.66322C10.1364 8.59092 10.1569 8.51893 10.2003 8.46013C10.5907 7.92979 10.8496 7.31753 10.9565 6.67195C10.9683 6.6003 11.0057 6.53509 11.062 6.48802C11.1183 6.44094 11.1899 6.41508 11.264 6.41506H12.217V5.58363H11.2628C11.1887 5.58362 11.1172 5.55775 11.0608 5.51068C11.0045 5.4636 10.9671 5.39839 10.9554 5.32674C10.8485 4.68115 10.5895 4.06888 10.1991 3.53856C10.1557 3.47975 10.1351 3.40773 10.141 3.3354C10.1469 3.26307 10.1789 3.19517 10.2313 3.14385L10.9063 2.48208L10.3066 1.89416L9.63156 2.55594C9.57922 2.60724 9.50996 2.63859 9.43618 2.64438C9.3624 2.65016 9.28893 2.62999 9.22895 2.58748C8.688 2.20471 8.06347 1.95084 7.40496 1.84604C7.33187 1.83454 7.26536 1.79788 7.21734 1.74265C7.16932 1.68743 7.14294 1.61724 7.14293 1.54467V0.611325H6.29485V1.54685C6.29483 1.61942 6.26845 1.68961 6.22043 1.74484C6.17241 1.80006 6.1059 1.83672 6.03281 1.84822C5.37431 1.95304 4.74978 2.20691 4.20883 2.58966C4.14885 2.63213 4.07542 2.65228 4.00167 2.64649C3.92793 2.64071 3.85869 2.60938 3.80636 2.55812L3.13134 1.89634L2.53357 2.48368L3.2083 3.14487C3.26063 3.19618 3.29262 3.26409 3.29851 3.33642C3.30441 3.40875 3.28384 3.48077 3.24048 3.53958C2.85002 4.0699 2.59106 4.68217 2.48419 5.32776C2.47246 5.39941 2.43507 5.46462 2.37873 5.51169C2.3224 5.55877 2.2508 5.58463 2.17678 5.58465H1.22312V6.41593H2.17767C2.25169 6.41595 2.32329 6.44181 2.37962 6.48889C2.43596 6.53596 2.47334 6.60117 2.48508 6.67282C2.592 7.3184 2.85095 7.93066 3.24137 8.461C3.28469 8.5198 3.30524 8.59179 3.29934 8.66409C3.29344 8.73639 3.26149 8.80426 3.20919 8.85557L2.53357 9.51705L3.13326 10.105L3.80829 9.44334C3.8606 9.39205 3.92983 9.36069 4.00357 9.35488C4.07732 9.34908 4.15076 9.3692 4.21075 9.41165C4.75171 9.7944 5.37623 10.0483 6.03474 10.1531C6.10783 10.1646 6.17434 10.2012 6.22236 10.2565C6.27038 10.3117 6.29676 10.3819 6.29677 10.4545L6.29603 11.3894Z" fill="#A959EA"/>
<path d="M6.72015 8.8661C5.10836 8.8661 3.79716 7.58065 3.79716 6.00051C3.79716 4.42037 5.10836 3.13477 6.72015 3.13477C8.33193 3.13477 9.64327 4.42037 9.64327 6.00051C9.64327 7.58065 8.33193 8.8661 6.72015 8.8661ZM6.72015 3.74536C5.45181 3.74536 4.41999 4.75707 4.41999 6.00051C4.41999 7.24395 5.45181 8.2555 6.72015 8.2555C7.98849 8.2555 9.02045 7.24395 9.02045 6.00051C9.02045 4.75707 7.98864 3.74536 6.72015 3.74536Z" fill="#A959EA"/>
</svg>
