<?xml version="1.0" encoding="utf-8"?>
<!-- Generator: Adobe Illustrator 16.0.3, SVG Export Plug-In . SVG Version: 6.00 Build 0)  -->
<!DOCTYPE svg PUBLIC "-//W3C//DTD SVG 1.1//EN" "http://www.w3.org/Graphics/SVG/1.1/DTD/svg11.dtd">
<svg version="1.1" id="Warstwa_1" xmlns="http://www.w3.org/2000/svg" xmlns:xlink="http://www.w3.org/1999/xlink" x="0px" y="0px"
	 width="51.424px" height="49.875px" viewBox="7.125 7.875 51.424 49.875" enable-background="new 7.125 7.875 51.424 49.875"
	 xml:space="preserve">
<path fill="#040F81" stroke="#040F81" stroke-width="0.3" d="M12.885,29.326c-0.049,0-0.098-0.005-0.146-0.015
	c-0.089-0.018-0.174-0.053-0.25-0.103c-0.076-0.05-0.14-0.113-0.189-0.187s-0.084-0.156-0.101-0.242s-0.016-0.175,0.003-0.261
	c0.868-3.879,2.885-7.435,5.809-10.24s6.629-4.74,10.671-5.573c0.09-0.02,0.184-0.023,0.275-0.008
	c0.091,0.015,0.179,0.047,0.257,0.095s0.146,0.11,0.199,0.183c0.053,0.073,0.09,0.156,0.109,0.243
	c0.019,0.087,0.02,0.176,0.003,0.264c-0.017,0.087-0.053,0.17-0.104,0.244c-0.051,0.074-0.118,0.138-0.194,0.187
	c-0.077,0.049-0.164,0.083-0.255,0.1c-7.716,1.578-13.764,7.381-15.407,14.784c-0.033,0.149-0.119,0.284-0.243,0.38
	C13.199,29.273,13.044,29.326,12.885,29.326z"/>
<path fill="#040F81" stroke="#040F81" stroke-width="0.3" d="M37.514,52.961c-0.172,0-0.338-0.062-0.465-0.172
	c-0.128-0.111-0.209-0.263-0.227-0.428c-0.018-0.164,0.027-0.328,0.129-0.462s0.25-0.227,0.419-0.261
	c7.716-1.578,13.763-7.381,15.407-14.784c0.018-0.087,0.053-0.171,0.104-0.245c0.052-0.073,0.118-0.137,0.194-0.186
	c0.078-0.049,0.164-0.083,0.256-0.1c0.09-0.017,0.184-0.016,0.275,0.003c0.09,0.019,0.176,0.054,0.252,0.104s0.141,0.115,0.19,0.191
	c0.05,0.074,0.083,0.158,0.099,0.246s0.013,0.178-0.009,0.264c-0.868,3.879-2.885,7.435-5.808,10.24
	c-2.924,2.805-6.629,4.74-10.672,5.572C37.612,52.955,37.563,52.961,37.514,52.961z"/>
<path fill="#040F81" stroke="#040F81" stroke-width="0.3" d="M28.829,52.961c-0.049,0-0.098-0.006-0.146-0.016
	c-4.042-0.832-7.748-2.768-10.671-5.572c-2.923-2.806-4.94-6.361-5.808-10.24c-0.021-0.086-0.024-0.176-0.009-0.264
	s0.049-0.172,0.099-0.246c0.05-0.076,0.114-0.141,0.19-0.191s0.162-0.086,0.252-0.104c0.091-0.019,0.185-0.02,0.275-0.003
	s0.178,0.051,0.255,0.1s0.144,0.112,0.195,0.186c0.051,0.074,0.087,0.158,0.104,0.245c1.644,7.403,7.691,13.206,15.407,14.784
	c0.168,0.034,0.317,0.127,0.418,0.261s0.147,0.298,0.129,0.462c-0.018,0.165-0.099,0.316-0.226,0.428
	C29.167,52.899,29,52.961,28.829,52.961z"/>
<path fill="#040F81" stroke="#040F81" stroke-width="0.3" d="M53.459,29.326c-0.16,0-0.314-0.053-0.438-0.149
	c-0.125-0.096-0.21-0.23-0.243-0.38c-1.644-7.403-7.692-13.207-15.407-14.784c-0.092-0.017-0.178-0.051-0.255-0.1
	s-0.144-0.113-0.194-0.187s-0.087-0.157-0.104-0.244c-0.018-0.088-0.017-0.177,0.002-0.264c0.02-0.087,0.057-0.169,0.109-0.243
	c0.054-0.073,0.121-0.135,0.199-0.183s0.166-0.08,0.257-0.095c0.091-0.015,0.185-0.012,0.275,0.008
	c4.042,0.833,7.747,2.768,10.671,5.573s4.94,6.361,5.809,10.24c0.039,0.173,0.004,0.354-0.097,0.503
	c-0.101,0.148-0.258,0.253-0.438,0.29C53.557,29.321,53.508,29.326,53.459,29.326z"/>
<path fill="#040F81" stroke="#040F81" stroke-width="0.3" d="M33.172,18.143c-2.777,0-5.037-2.168-5.037-4.833
	c0-2.666,2.26-4.833,5.037-4.833s5.037,2.168,5.037,4.833S35.949,18.143,33.172,18.143z M33.172,9.813
	c-0.721,0-1.425,0.205-2.025,0.589c-0.599,0.384-1.066,0.93-1.342,1.569c-0.276,0.639-0.348,1.342-0.208,2.021
	s0.488,1.301,0.998,1.791s1.159,0.822,1.866,0.957c0.707,0.135,1.439,0.065,2.105-0.199s1.234-0.713,1.635-1.288
	c0.4-0.575,0.615-1.251,0.615-1.942c-0.002-0.927-0.387-1.816-1.069-2.471S34.138,9.814,33.172,9.813z"/>
<path fill="#040F81" stroke="#040F81" stroke-width="0.3" d="M12.832,37.659c-2.777,0-5.037-2.169-5.037-4.833
	c0-2.665,2.26-4.833,5.037-4.833s5.038,2.168,5.038,4.833C17.87,35.49,15.61,37.659,12.832,37.659z M12.832,29.329
	c-0.721,0-1.425,0.205-2.024,0.59c-0.599,0.384-1.066,0.93-1.342,1.569c-0.276,0.639-0.348,1.342-0.208,2.02
	c0.141,0.679,0.488,1.302,0.998,1.791c0.51,0.488,1.159,0.821,1.866,0.956c0.707,0.135,1.439,0.065,2.105-0.198
	c0.666-0.266,1.235-0.713,1.635-1.289c0.4-0.574,0.614-1.25,0.614-1.942c-0.001-0.927-0.385-1.815-1.069-2.471
	C14.724,29.699,13.798,29.331,12.832,29.329z"/>
<path fill="#040F81" stroke="#040F81" stroke-width="0.3" d="M53.512,37.659c-2.778,0-5.038-2.169-5.038-4.833
	c0-2.665,2.26-4.833,5.038-4.833c2.777,0,5.037,2.168,5.037,4.833C58.549,35.49,56.289,37.659,53.512,37.659z M53.512,29.329
	c-0.721,0-1.426,0.205-2.025,0.589s-1.066,0.93-1.342,1.569c-0.275,0.639-0.348,1.342-0.207,2.02
	c0.141,0.678,0.487,1.301,0.997,1.79s1.159,0.822,1.866,0.957c0.706,0.135,1.439,0.065,2.104-0.198
	c0.666-0.266,1.235-0.713,1.636-1.288s0.613-1.251,0.613-1.943c0-0.927-0.385-1.815-1.068-2.471
	C55.403,29.699,54.477,29.331,53.512,29.329z"/>
<path fill="#040F81" stroke="#040F81" stroke-width="0.3" d="M33.172,57.175c-2.777,0-5.037-2.169-5.037-4.833
	c0-2.666,2.26-4.834,5.037-4.834s5.037,2.168,5.037,4.834C38.209,55.007,35.949,57.175,33.172,57.175z M33.172,48.845
	c-0.721,0-1.425,0.205-2.025,0.589c-0.599,0.385-1.066,0.931-1.342,1.569c-0.276,0.64-0.348,1.343-0.208,2.021
	s0.488,1.301,0.998,1.791c0.509,0.488,1.159,0.822,1.866,0.957s1.439,0.065,2.106-0.199c0.666-0.265,1.234-0.713,1.635-1.288
	s0.615-1.251,0.615-1.942c-0.002-0.928-0.387-1.816-1.069-2.472S34.138,48.846,33.172,48.845z"/>
<path fill="#040F81" stroke="#040F81" stroke-width="0.3" d="M33.171,26.841c-0.185,0-0.362-0.07-0.493-0.196
	c-0.131-0.125-0.204-0.295-0.204-0.473v-8.699c0-0.177,0.073-0.347,0.204-0.472c0.13-0.125,0.308-0.196,0.493-0.196
	c0.185,0,0.362,0.071,0.492,0.196c0.131,0.125,0.204,0.295,0.204,0.472v8.699c0,0.177-0.073,0.348-0.204,0.473
	C33.533,26.771,33.356,26.841,33.171,26.841z"/>
<path fill="#040F81" stroke="#040F81" stroke-width="0.3" d="M33.171,48.846c-0.185,0-0.362-0.07-0.493-0.196
	c-0.131-0.126-0.204-0.296-0.204-0.473v-8.698c0-0.178,0.073-0.348,0.204-0.473c0.13-0.126,0.308-0.196,0.493-0.196
	c0.185,0,0.362,0.07,0.492,0.196c0.131,0.125,0.204,0.295,0.204,0.473v8.698c0,0.177-0.073,0.347-0.204,0.473
	C33.533,48.775,33.356,48.846,33.171,48.846z"/>
<path fill="#040F81" stroke="#040F81" stroke-width="0.3" d="M24.796,33.494h-7.623c-0.185,0-0.362-0.07-0.493-0.195
	c-0.131-0.126-0.204-0.296-0.204-0.473s0.073-0.347,0.204-0.473c0.13-0.125,0.308-0.196,0.493-0.196h7.623
	c0.185,0,0.362,0.07,0.492,0.196c0.131,0.125,0.204,0.295,0.204,0.473s-0.073,0.347-0.204,0.473
	C25.158,33.424,24.98,33.494,24.796,33.494z"/>
<path fill="#040F81" stroke="#040F81" stroke-width="0.3" d="M49.17,33.494h-7.623c-0.185,0-0.361-0.07-0.492-0.195
	c-0.131-0.126-0.204-0.296-0.204-0.473s0.073-0.347,0.204-0.473s0.308-0.196,0.492-0.196h7.623c0.185,0,0.361,0.07,0.492,0.196
	s0.204,0.295,0.204,0.473s-0.073,0.347-0.204,0.473C49.531,33.424,49.354,33.494,49.17,33.494z"/>
<path fill="#040F81" stroke="#040F81" stroke-width="0.3" d="M38.498,40.146H27.844c-2.665,0-4.833-2.08-4.833-4.638
	c0-0.609,0.125-1.212,0.368-1.774c0.243-0.563,0.599-1.075,1.048-1.505s0.981-0.772,1.568-1.005c0.586-0.233,1.215-0.353,1.85-0.353
	h0.552c-0.039-0.241-0.059-0.484-0.059-0.728c0-2.558,2.168-4.639,4.834-4.639c2.666,0,4.834,2.081,4.834,4.639
	c0,0.244-0.02,0.487-0.06,0.728h0.552c2.666,0,4.834,2.08,4.834,4.638c0,0.608-0.125,1.212-0.368,1.774s-0.599,1.074-1.048,1.505
	s-0.981,0.772-1.568,1.005C39.762,40.026,39.133,40.146,38.498,40.146z M27.844,32.208c-0.906,0.008-1.773,0.36-2.411,0.978
	c-0.638,0.619-0.996,1.453-0.996,2.323s0.358,1.704,0.996,2.323c0.638,0.617,1.504,0.969,2.411,0.978h10.654
	c0.907-0.009,1.773-0.36,2.411-0.978c0.638-0.619,0.995-1.453,0.995-2.323s-0.357-1.704-0.995-2.323
	c-0.638-0.618-1.504-0.969-2.411-0.978h-1.453c-0.112,0-0.223-0.026-0.322-0.077s-0.186-0.123-0.25-0.211s-0.104-0.191-0.119-0.298
	c-0.014-0.107,0-0.216,0.04-0.317c0.194-0.5,0.261-1.037,0.192-1.566c-0.068-0.529-0.27-1.035-0.587-1.473
	c-0.317-0.438-0.739-0.796-1.231-1.044s-1.041-0.376-1.596-0.376c-0.556,0-1.104,0.129-1.596,0.376
	c-0.492,0.248-0.915,0.605-1.232,1.044c-0.316,0.438-0.518,0.944-0.586,1.473c-0.069,0.529-0.003,1.066,0.192,1.566
	c0.04,0.101,0.053,0.21,0.04,0.317c-0.014,0.107-0.055,0.209-0.119,0.298s-0.149,0.161-0.25,0.211c-0.1,0.05-0.21,0.077-0.323,0.077
	H27.844z"/>
</svg>
