<svg width="12" height="14" viewBox="0 0 12 14" fill="none" xmlns="http://www.w3.org/2000/svg">
<path d="M5.6 14C3.97833 13.5917 2.63958 12.6613 1.58375 11.2088C0.527917 9.75625 0 8.14333 0 6.37V2.1L5.6 0L11.2 2.1V6.37C11.2 8.14333 10.6721 9.75625 9.61625 11.2088C8.56042 12.6613 7.22167 13.5917 5.6 14ZM5.6 12.53C6.81333 12.145 7.81667 11.375 8.61 10.22C9.40333 9.065 9.8 7.78167 9.8 6.37V3.0625L5.6 1.4875L1.4 3.0625V6.37C1.4 7.78167 1.79667 9.065 2.59 10.22C3.38333 11.375 4.38667 12.145 5.6 12.53Z" fill="#1C1B1F"/>
</svg>
