<?xml version="1.0" encoding="UTF-8"?>
<svg id="Layer_1" data-name="Layer 1" xmlns="http://www.w3.org/2000/svg" viewBox="0 0 22.298 17.482">
  <path d="M17.856,13.424v0Zm.917-.522v-.1s0,0,0,0v.1Zm2.903-2.903h-.1s.1,0,.1,0Zm-2.545-2.881l-.012,.099h0s.012-.099,.012-.099Zm-.229-.276l-.1-.007h0s.1,.007,.1,.007Zm-11.42-1.951l.096,.027h0s-.096-.027-.096-.027Zm-.313,.184l-.024,.097h0s.023-.097,.023-.097Zm-.74-.088v.1h0v-.1Zm-3.118,3.116h.1s0,0,0,0h-.1Zm.137,.917l-.096,.029h0s.096-.029,.096-.029Zm-.249,.338v.1h0v-.1Zm-2.578,1.772H.622Zm1.772,2.294v-.1h0v.1ZM.1,11.13h-.1s.1,0,.1,0Zm2.765-2.294v.1h.123l-.025-.12-.098,.02Zm-.074-.733h.1s0,0,0,0h-.1Zm3.639-3.638v-.1s0,0,0,0v.1Zm.619,.053l-.017,.099,.086,.015,.026-.083-.095-.03Zm12.388,1.931h-.1s0,0,0,0h.1Zm-.003,.188l-.1-.003-.003,.085,.083,.016,.019-.098Zm2.763,3.362h-.1s.1,0,.1,0Zm-3.425,3.325h-.917v.2h.917v-.2Zm-.917,0c-.043,0-.084-.017-.114-.047l-.141,.141c.068,.068,.16,.106,.255,.106v-.2Zm-.114-.047c-.03-.03-.047-.071-.047-.114h-.2c0,.096,.038,.188,.106,.255l.141-.141Zm-.047-.114c0-.043,.017-.084,.047-.114l-.141-.141c-.068,.068-.106,.16-.106,.255h.2Zm.047-.114c.03-.03,.071-.047,.114-.047v-.2c-.096,0-.188,.038-.255,.106l.141,.141Zm.114-.047h.917v-.2h-.917v.2Zm.917,0c.394,0,.785-.078,1.149-.229l-.077-.185c-.34,.141-.705,.213-1.073,.213v.2Zm1.149-.229c.364-.151,.696-.372,.974-.651l-.141-.141c-.26,.26-.569,.467-.91,.608l.077,.185Zm.974-.651c.279-.279,.5-.61,.651-.974l-.185-.077c-.141,.34-.347,.649-.608,.91l.141,.141Zm.651-.974c.151-.364,.229-.755,.229-1.149h-.2c0,.368-.072,.733-.213,1.073l.185,.077Zm.229-1.149c0-1.515-1.132-2.796-2.633-2.98l-.024,.199c1.401,.172,2.457,1.368,2.457,2.782h.2Zm-2.633-2.98c-.041-.005-.078-.025-.104-.057l-.154,.127c.059,.071,.143,.117,.234,.128l.024-.199Zm-.104-.057c-.026-.032-.039-.072-.037-.113l-.2-.013c-.006,.092,.023,.183,.082,.254l.154-.127Zm-.037-.113c.009-.133,.013-.267,.013-.4h-.2c0,.128-.004,.258-.013,.386l.2,.013Zm.013-.4c0-3.266-2.656-5.922-5.922-5.922v.2c3.155,0,5.722,2.567,5.722,5.722h.2ZM13.094,.526c-2.654,0-5,1.784-5.708,4.338l.193,.053c.684-2.467,2.951-4.191,5.515-4.191v-.2ZM7.386,4.864c-.011,.04-.038,.075-.074,.096l.101,.172c.081-.047,.14-.124,.165-.215l-.193-.054Zm-.074,.096c-.036,.021-.079,.028-.119,.018l-.047,.194c.091,.022,.187,.008,.268-.04l-.101-.172Zm-.119,.018c-.25-.06-.506-.091-.763-.091v.2c.241,0,.482,.029,.716,.085l.047-.194Zm-.763-.091c-1.774,0-3.218,1.443-3.218,3.216h.2c0-1.663,1.354-3.016,3.018-3.016v-.2Zm-3.217,3.216c0,.321,.047,.64,.142,.947l.191-.059c-.088-.288-.133-.587-.133-.888h-.2Zm.142,.947c.007,.024,.009,.05,.005,.074l.197,.034c.009-.056,.006-.113-.011-.167l-.191,.059Zm.005,.074c-.004,.025-.014,.048-.029,.069l.161,.119c.034-.045,.056-.098,.065-.154l-.197-.034Zm-.029,.069c-.015,.02-.034,.037-.057,.048l.09,.179c.05-.025,.094-.062,.128-.108l-.161-.119Zm-.057,.048c-.022,.011-.047,.017-.073,.017v.2c.057,0,.112-.013,.163-.039l-.09-.179Zm-.073,.017h-.806v.2h.806v-.2Zm-.806,0c-.496,0-.973,.197-1.324,.548l.141,.141c.314-.314,.739-.49,1.182-.49v-.2Zm-1.324,.548c-.351,.351-.548,.827-.548,1.324h.2c0-.443,.176-.869,.49-1.182l-.141-.141Zm-.548,1.324c0,.496,.197,.973,.548,1.324l.141-.141c-.314-.314-.49-.739-.49-1.182h-.2Zm.548,1.324c.351,.351,.827,.548,1.324,.548v-.2c-.443,0-.869-.176-1.182-.49l-.141,.141Zm1.324,.548h3.364v-.2H2.394v.2Zm3.364,0c.043,0,.084,.017,.114,.047l.141-.141c-.068-.068-.16-.106-.255-.106v.2Zm.114,.047c.03,.03,.047,.071,.047,.114h.2c0-.096-.038-.188-.106-.255l-.141,.141Zm.047,.114c0,.043-.017,.084-.047,.114l.141,.141c.068-.068,.106-.16,.106-.255h-.2Zm-.047,.114c-.03,.03-.071,.047-.114,.047v.2c.096,0,.188-.038,.255-.106l-.141-.141Zm-.114,.047H2.394v.2h3.364v-.2Zm-3.364,0c-.582,0-1.14-.231-1.551-.642l-.141,.141c.449,.449,1.058,.701,1.693,.701v-.2Zm-1.551-.642c-.411-.411-.643-.969-.643-1.551h-.2c0,.635,.252,1.244,.701,1.693l.141-.141Zm-.643-1.551c0-1.21,.985-2.194,2.194-2.194v-.2c-1.32,0-2.394,1.074-2.394,2.394H.2Zm2.194-2.194h.471v-.2h-.471v.2Zm.569-.12c-.048-.235-.072-.474-.072-.713h-.2c0,.253,.025,.505,.076,.753l.196-.04Zm-.072-.713c0-.939,.373-1.839,1.037-2.502l-.141-.141c-.701,.701-1.095,1.652-1.096,2.643h.2Zm1.037-2.502c.664-.664,1.564-1.036,2.502-1.036v-.2c-.992,0-1.943,.394-2.644,1.095l.141,.141Zm2.502-1.036c.202,0,.403,.017,.602,.051l.034-.197c-.21-.036-.423-.054-.636-.054v.2Zm.714-.017c.453-1.42,1.398-2.631,2.665-3.414l-.105-.17c-1.308,.809-2.284,2.059-2.751,3.524l.191,.061Zm2.665-3.414C11.078,.35,12.583,.045,14.056,.275l.031-.198c-1.519-.237-3.073,.077-4.381,.886l.105,.17ZM14.056,.275c1.472,.23,2.814,.978,3.783,2.11l.152-.13c-1-1.168-2.384-1.941-3.904-2.178l-.031,.198Zm3.783,2.11c.969,1.132,1.501,2.573,1.5,4.064h.2c.001-1.538-.548-3.025-1.548-4.194l-.152,.13Zm1.5,4.064c0,.062,0,.124-.003,.185l.2,.006c.002-.064,.003-.128,.003-.192h-.2Zm.078,.287c1.544,.302,2.682,1.666,2.682,3.264h.2c0-1.694-1.206-3.139-2.843-3.46l-.038,.196Zm2.682,3.264c0,.437-.086,.869-.253,1.273l.185,.077c.177-.428,.268-.886,.268-1.349h-.2Zm-.253,1.273c-.167,.403-.412,.77-.721,1.079l.141,.141c.327-.327,.587-.716,.764-1.144l-.185-.077Zm-.721,1.079c-.309,.309-.675,.554-1.079,.721l.077,.185c.428-.177,.816-.437,1.144-.764l-.141-.141Zm-1.079,.721c-.403,.167-.836,.253-1.273,.253v.2c.463,0,.921-.091,1.349-.268l-.077-.185Z"/>
  <path d="M18.773,13.424h-.917c-.069,0-.136-.027-.185-.076-.049-.049-.076-.115-.076-.185s.027-.136,.076-.185c.049-.049,.115-.076,.185-.076h.917c.381,0,.759-.075,1.111-.221,.352-.146,.672-.36,.942-.629,.27-.27,.483-.59,.629-.942,.146-.352,.221-.73,.221-1.111,0-1.464-1.094-2.703-2.545-2.881-.066-.008-.127-.041-.169-.093-.043-.051-.064-.117-.059-.184,.009-.13,.013-.263,.013-.393,0-3.21-2.612-5.822-5.822-5.822-2.609,0-4.915,1.754-5.611,4.264-.018,.065-.061,.121-.119,.155-.058,.034-.128,.045-.193,.029-.242-.059-.49-.088-.74-.088-1.719,0-3.117,1.398-3.117,3.116,0,.311,.046,.62,.137,.917,.012,.039,.015,.08,.008,.121-.007,.04-.023,.078-.047,.111-.024,.033-.056,.06-.092,.078-.036,.018-.077,.028-.118,.028h-.806c-.47,0-.921,.187-1.253,.519-.332,.332-.519,.783-.519,1.253s.187,.921,.519,1.253c.332,.332,.783,.519,1.253,.519h3.364c.069,0,.136,.027,.185,.076,.049,.049,.076,.115,.076,.185s-.027,.136-.076,.185c-.049,.049-.115,.076-.185,.076H2.394c-.608,0-1.192-.242-1.622-.672-.43-.43-.672-1.013-.672-1.622,0-1.265,1.03-2.294,2.294-2.294h.471c-.049-.241-.074-.487-.074-.733,0-.965,.384-1.89,1.066-2.573,.683-.682,1.608-1.066,2.573-1.066,.207,0,.414,.018,.619,.053,.46-1.442,1.42-2.673,2.708-3.469C11.045,.252,12.575-.057,14.071,.176c1.496,.233,2.859,.994,3.843,2.144s1.525,2.615,1.524,4.129c0,.063,0,.126-.003,.188,1.591,.311,2.763,1.716,2.763,3.362,0,.45-.089,.895-.261,1.311s-.424,.793-.743,1.111-.696,.57-1.111,.743-.861,.261-1.311,.261Z"/>
  <path d="M11.806,16.407c-.069,0-.136-.027-.185-.076-.049-.049-.076-.115-.076-.185v-.182c0-.069,.027-.136,.076-.185,.049-.049,.115-.076,.185-.076s.136,.027,.185,.076c.049,.049,.076,.115,.076,.185v.182c0,.069-.027,.136-.076,.185-.049,.049-.115,.076-.185,.076Z"/>
  <path d="M11.806,17.38c-.039,0-.078-.009-.114-.026-.035-.017-.066-.042-.091-.073l-.437-.551c-.081-.102-.183-.184-.3-.241-.117-.057-.245-.086-.376-.085H5.757c-.069,0-.136-.027-.185-.076-.049-.049-.076-.115-.076-.185v-7.643c0-.069,.027-.136,.076-.185,.049-.049,.115-.076,.185-.076h4.719c.264,0,.523,.066,.755,.191,.232,.125,.429,.306,.574,.527,.145-.22,.342-.401,.574-.527,.232-.125,.492-.191,.755-.191h4.719c.069,0,.136,.027,.185,.076,.049,.049,.076,.115,.076,.185v7.644c0,.069-.027,.136-.076,.185-.049,.049-.115,.076-.185,.076h-4.732c-.13,0-.258,.029-.376,.085-.117,.057-.22,.139-.3,.241l-.437,.55c-.024,.031-.056,.056-.091,.073-.035,.017-.074,.026-.113,.026Zm-5.788-1.497h4.471c.209,0,.415,.046,.603,.137,.188,.091,.353,.223,.482,.387l.232,.292,.232-.292c.129-.164,.294-.296,.482-.387,.188-.091,.394-.138,.603-.137h4.471v-7.122h-4.458c-.255-.001-.502,.089-.696,.255-.194,.166-.322,.395-.36,.647-.008,.055-.013,.111-.013,.166v6.134c0,.069-.027,.136-.076,.185-.049,.049-.115,.076-.185,.076s-.136-.027-.185-.076c-.049-.049-.076-.115-.076-.185v-6.134c0-.056-.004-.111-.013-.166-.038-.252-.166-.482-.36-.647-.194-.166-.441-.256-.696-.255H6.018v7.122Z"/>
  <path d="M11.806,17.382c-.069,0-.136-.027-.185-.076-.049-.049-.076-.115-.076-.185v-1.157c0-.069,.027-.136,.076-.185,.049-.049,.115-.076,.185-.076s.136,.027,.185,.076,.076,.115,.076,.185v1.157c0,.069-.027,.136-.076,.185s-.115,.076-.185,.076Z"/>
  <path d="M11.825,9.886h-.032c-.069,0-.136-.027-.185-.076-.049-.049-.076-.115-.076-.185s.027-.136,.076-.185c.049-.049,.115-.076,.185-.076h.032c.069,0,.136,.027,.185,.076,.049,.049,.076,.115,.076,.185s-.027,.136-.076,.185c-.049,.049-.115,.076-.185,.076Z"/>
  <path d="M11.806,16.407c-.069,0-.136-.027-.185-.076-.049-.049-.076-.115-.076-.185v-.182c0-.069,.027-.136,.076-.185,.049-.049,.115-.076,.185-.076s.136,.027,.185,.076c.049,.049,.076,.115,.076,.185v.182c0,.069-.027,.136-.076,.185-.049,.049-.115,.076-.185,.076Z"/>
  <path d="M11.806,17.38v-.1s0,0,0,0v.1Zm-.204-.099l-.078,.062h0s.078-.062,.078-.062Zm-.437-.551l-.078,.062h0s.078-.062,.078-.062Zm-.676-.327v.1h0v-.1Zm-.013-8.165v-.1s0,0,0,0v.1Zm1.329,.717l-.084,.055,.084,.127,.084-.127-.084-.055Zm1.329-.717v-.1h0v.1Zm4.98,7.905h0Zm-4.993,.261v.1s0,0,0,0v-.1Zm-.676,.327l.078,.062h0s-.079-.062-.079-.062Zm-.437,.55l.078,.062h0s-.078-.062-.078-.062Zm-5.992-1.399h-.1v.1h.1v-.1Zm4.471,0v.1h0v-.1Zm1.084,.524l-.078,.062h0s.078-.062,.078-.062Zm.232,.292l-.078,.062,.078,.099,.078-.099-.078-.062Zm.232-.292l.078,.062h0s-.078-.062-.078-.062Zm1.085-.524v.1s0,0,0,0v-.1Zm4.471,0v.1h.1v-.1h-.1Zm0-7.122h.1v-.1h-.1v.1Zm-4.458,0v.1s0,0,0,0v-.1Zm-1.056,.902l.099,.015h0s-.099-.015-.099-.015Zm-.013,.166h-.1s0,0,0,0h.1Zm-.522,0h.1s-.1,0-.1,0Zm-.013-.166l-.099,.015h0s.099-.015,.099-.015Zm-1.055-.902v.1h0s0-.1,0-.1Zm-4.458,0v-.1h-.1v.1h.1Zm5.788,8.52c-.024,0-.048-.005-.07-.016l-.087,.18c.049,.024,.103,.036,.157,.036v-.2Zm-.07-.016c-.022-.011-.041-.026-.056-.045l-.157,.124c.034,.043,.077,.077,.126,.101l.087-.18Zm-.056-.045l-.437-.551-.157,.124,.437,.551,.157-.124Zm-.436-.55c-.09-.114-.205-.206-.335-.269l-.087,.18c.103,.05,.194,.123,.265,.213l.157-.124Zm-.335-.269c-.131-.063-.274-.096-.419-.095v.2c.115,0,.229,.026,.332,.076l.087-.18Zm-.419-.095H5.757v.2h4.732v-.2Zm-4.732,0c-.043,0-.084-.017-.114-.047l-.141,.141c.068,.068,.16,.106,.255,.106v-.2Zm-.114-.047c-.03-.03-.047-.071-.047-.114h-.2c0,.096,.038,.188,.106,.255l.141-.141Zm-.047-.114v-7.643h-.2v7.643h.2Zm0-7.643c0-.043,.017-.084,.047-.114l-.141-.141c-.068,.068-.106,.16-.106,.255h.2Zm.047-.114c.03-.03,.071-.047,.114-.047v-.2c-.096,0-.188,.038-.255,.106l.141,.141Zm.114-.047h4.719v-.2H5.757v.2Zm4.719,0c.247,0,.49,.061,.708,.179l.095-.176c-.247-.133-.523-.203-.803-.203v.2Zm.708,.179c.217,.117,.402,.287,.538,.494l.167-.11c-.154-.234-.364-.427-.61-.56l-.095,.176Zm.705,.494c.136-.207,.321-.376,.538-.494l-.095-.176c-.247,.133-.456,.325-.61,.56l.167,.11Zm.538-.494c.217-.117,.461-.179,.708-.179v-.2c-.28,0-.556,.07-.803,.203l.095,.176Zm.708-.179h4.719v-.2h-4.719v.2Zm4.719,0c.043,0,.084,.017,.114,.047l.141-.141c-.068-.068-.16-.106-.255-.106v.2Zm.114,.047c.03,.03,.047,.071,.047,.114h.2c0-.096-.038-.188-.106-.255l-.141,.141Zm.047,.114v7.644h.2v-7.644h-.2Zm0,7.644c0,.043-.017,.084-.047,.114l.141,.141c.068-.068,.106-.16,.106-.255h-.2Zm-.047,.114c-.03,.03-.071,.047-.114,.047v.2c.096,0,.188-.038,.255-.106l-.141-.141Zm-.114,.047h-4.732v.2h4.732v-.2Zm-4.732,0c-.145,0-.289,.032-.419,.095l.087,.18c.103-.05,.217-.076,.332-.075v-.2Zm-.419,.095c-.131,.063-.245,.155-.335,.269l.157,.124c.071-.09,.162-.163,.265-.213l-.087-.18Zm-.335,.269l-.437,.55,.157,.124,.437-.55-.157-.124Zm-.436,.55c-.015,.019-.034,.034-.056,.045l.087,.18c.049-.024,.092-.058,.126-.1l-.156-.125Zm-.056,.045c-.022,.011-.046,.016-.07,.016v.2c.054,0,.108-.012,.157-.036l-.087-.18Zm-5.858-1.281h4.471v-.2H6.018v.2Zm4.471,0c.194,0,.385,.043,.559,.127l.087-.18c-.202-.097-.423-.148-.646-.147v.2Zm.559,.127c.174,.084,.327,.207,.447,.359l.157-.124c-.139-.176-.315-.318-.517-.415l-.087,.18Zm.447,.359l.232,.292,.157-.124-.232-.292-.157,.124Zm.389,.292l.232-.292-.157-.124-.232,.292,.157,.124Zm.232-.293c.12-.152,.273-.275,.447-.359l-.087-.18c-.202,.097-.378,.239-.517,.415l.157,.124Zm.447-.359c.174-.084,.365-.128,.559-.127v-.2c-.223,0-.444,.05-.646,.147l.087,.18Zm.559-.127h4.471v-.2h-4.471v.2Zm4.571-.1v-7.122h-.2v7.122h.2Zm-.1-7.222h-4.458v.2h4.458v-.2Zm-4.458,0c-.279-.001-.549,.098-.761,.279l.13,.152c.176-.15,.399-.232,.63-.231v-.2Zm-.76,.279c-.212,.181-.352,.433-.394,.708l.198,.03c.035-.228,.151-.436,.326-.586l-.13-.152Zm-.394,.708c-.009,.06-.014,.121-.014,.181h.2c0-.05,.004-.101,.012-.151l-.198-.03Zm-.014,.181v6.133h.2v-6.133h-.2Zm0,6.133c0,.043-.017,.084-.047,.114l.141,.141c.068-.068,.106-.16,.106-.255h-.2Zm-.047,.114c-.03,.03-.071,.047-.114,.047v.2c.096,0,.188-.038,.255-.106l-.141-.141Zm-.114,.047c-.043,0-.084-.017-.114-.047l-.141,.141c.068,.068,.16,.106,.255,.106v-.2Zm-.114-.047c-.03-.03-.047-.071-.047-.114h-.2c0,.096,.038,.188,.106,.255l.141-.141Zm-.047-.114v-6.134h-.2v6.134h.2Zm0-6.134c0-.061-.005-.122-.014-.182l-.198,.031c.008,.05,.012,.1,.012,.151h.2Zm-.014-.181c-.042-.276-.182-.527-.394-.708l-.13,.152c.176,.15,.291,.358,.326,.586l.198-.03Zm-.394-.708c-.212-.181-.482-.28-.761-.279v.2c.232-.001,.456,.081,.631,.231l.13-.152Zm-.76-.279H6.018v.2h4.458v-.2Zm-4.558,.1v7.122h.2v-7.122h-.2Z"/>
  <path d="M11.806,17.38c-.039,0-.078-.009-.114-.026-.035-.017-.066-.042-.091-.073l-.437-.551c-.081-.102-.183-.184-.3-.241-.117-.057-.245-.086-.376-.085H5.757c-.069,0-.136-.027-.185-.076-.049-.049-.076-.115-.076-.185v-7.643c0-.069,.027-.136,.076-.185,.049-.049,.115-.076,.185-.076h4.719c.264,0,.523,.066,.755,.191,.232,.125,.429,.306,.574,.527,.145-.22,.342-.401,.574-.527,.232-.125,.492-.191,.755-.191h4.719c.069,0,.136,.027,.185,.076,.049,.049,.076,.115,.076,.185v7.644c0,.069-.027,.136-.076,.185-.049,.049-.115,.076-.185,.076h-4.732c-.13,0-.258,.029-.376,.085-.117,.057-.22,.139-.3,.241l-.437,.55c-.024,.031-.056,.056-.091,.073-.035,.017-.074,.026-.113,.026Zm-5.788-1.497h4.471c.209,0,.415,.046,.603,.137,.188,.091,.353,.223,.482,.387l.232,.292,.232-.292c.129-.164,.294-.296,.482-.387,.188-.091,.394-.138,.603-.137h4.471v-7.122h-4.458c-.255-.001-.502,.089-.696,.255-.194,.166-.322,.395-.36,.647-.008,.055-.013,.111-.013,.166v6.133c0,.069-.027,.136-.076,.185-.049,.049-.115,.076-.185,.076s-.136-.027-.185-.076c-.049-.049-.076-.115-.076-.185v-6.134c0-.056-.004-.111-.013-.166-.038-.252-.166-.482-.36-.647-.194-.166-.441-.256-.696-.255H6.018v7.122Z"/>
  <path d="M11.806,17.282c-.043,0-.084-.017-.114-.047l-.141,.141c.068,.068,.16,.106,.255,.106v-.2Zm-.114-.047c-.03-.03-.047-.071-.047-.114h-.2c0,.096,.038,.188,.106,.255l.141-.141Zm-.047-.114v-1.157h-.2v1.157h.2Zm0-1.157c0-.043,.017-.084,.047-.114l-.141-.141c-.068,.068-.106,.16-.106,.255h.2Zm.047-.114c.03-.03,.071-.047,.114-.047v-.2c-.096,0-.188,.038-.255,.106l.141,.141Zm.114-.047c.043,0,.084,.017,.114,.047l.141-.141c-.068-.068-.16-.106-.255-.106v.2Zm.114,.047c.03,.03,.047,.071,.047,.114h.2c0-.096-.038-.188-.106-.255l-.141,.141Zm.047,.114v1.157h.2v-1.157h-.2Zm0,1.157c0,.043-.017,.084-.047,.114l.141,.141c.068-.068,.106-.16,.106-.255h-.2Zm-.047,.114c-.03,.03-.071,.047-.114,.047v.2c.096,0,.188-.038,.255-.106l-.141-.141Z"/>
  <path d="M11.806,17.382c-.069,0-.136-.027-.185-.076-.049-.049-.076-.115-.076-.185v-1.157c0-.069,.027-.136,.076-.185,.049-.049,.115-.076,.185-.076s.136,.027,.185,.076c.049,.049,.076,.115,.076,.185v1.157c0,.069-.027,.136-.076,.185-.049,.049-.115,.076-.185,.076Z"/>
  <path d="M10.561,10.093h-3.538c-.069,0-.136-.027-.185-.076-.049-.049-.076-.115-.076-.185s.027-.136,.076-.185c.049-.049,.115-.076,.185-.076h3.538c.069,0,.136,.027,.185,.076,.049,.049,.076,.115,.076,.185s-.027,.136-.076,.185c-.049,.049-.115,.076-.185,.076Z"/>
  <path d="M10.561,11.339h-3.538c-.069,0-.136-.027-.185-.076-.049-.049-.076-.115-.076-.185s.027-.136,.076-.185c.049-.049,.115-.076,.185-.076h3.538c.069,0,.136,.027,.185,.076,.049,.049,.076,.115,.076,.185s-.027,.136-.076,.185c-.049,.049-.115,.076-.185,.076Z"/>
  <path d="M10.561,12.585h-3.538c-.069,0-.136-.027-.185-.076-.049-.049-.076-.115-.076-.185s.027-.136,.076-.185c.049-.049,.115-.076,.185-.076h3.538c.069,0,.136,.027,.185,.076,.049,.049,.076,.115,.076,.185s-.027,.136-.076,.185c-.049,.049-.115,.076-.185,.076Z"/>
  <path d="M10.561,13.831h-3.538c-.069,0-.136-.027-.185-.076-.049-.049-.076-.115-.076-.185s.027-.136,.076-.185c.049-.049,.115-.076,.185-.076h3.538c.069,0,.136,.027,.185,.076,.049,.049,.076,.115,.076,.185s-.027,.136-.076,.185c-.049,.049-.115,.076-.185,.076Z"/>
  <path d="M10.561,15.077h-3.538c-.069,0-.136-.027-.185-.076-.049-.049-.076-.115-.076-.185s.027-.136,.076-.185c.049-.049,.115-.076,.185-.076h3.538c.069,0,.136,.027,.185,.076,.049,.049,.076,.115,.076,.185s-.027,.136-.076,.185c-.049,.049-.115,.076-.185,.076Z"/>
  <path d="M16.586,10.093h-3.538c-.069,0-.136-.027-.185-.076-.049-.049-.076-.115-.076-.185s.027-.136,.076-.185c.049-.049,.115-.076,.185-.076h3.538c.069,0,.136,.027,.185,.076,.049,.049,.076,.115,.076,.185s-.027,.136-.076,.185c-.049,.049-.115,.076-.185,.076Z"/>
  <path d="M16.586,11.339h-3.538c-.069,0-.136-.027-.185-.076-.049-.049-.076-.115-.076-.185s.027-.136,.076-.185c.049-.049,.115-.076,.185-.076h3.538c.069,0,.136,.027,.185,.076,.049,.049,.076,.115,.076,.185s-.027,.136-.076,.185c-.049,.049-.115,.076-.185,.076Z"/>
  <path d="M16.586,12.585h-3.538c-.069,0-.136-.027-.185-.076-.049-.049-.076-.115-.076-.185s.027-.136,.076-.185c.049-.049,.115-.076,.185-.076h3.538c.069,0,.136,.027,.185,.076,.049,.049,.076,.115,.076,.185s-.027,.136-.076,.185c-.049,.049-.115,.076-.185,.076Z"/>
  <path d="M16.586,13.831h-3.538c-.069,0-.136-.027-.185-.076-.049-.049-.076-.115-.076-.185s.027-.136,.076-.185c.049-.049,.115-.076,.185-.076h3.538c.069,0,.136,.027,.185,.076,.049,.049,.076,.115,.076,.185s-.027,.136-.076,.185c-.049,.049-.115,.076-.185,.076Z"/>
  <path d="M16.586,15.077h-3.538c-.069,0-.136-.027-.185-.076-.049-.049-.076-.115-.076-.185s.027-.136,.076-.185c.049-.049,.115-.076,.185-.076h3.538c.069,0,.136,.027,.185,.076,.049,.049,.076,.115,.076,.185s-.027,.136-.076,.185c-.049,.049-.115,.076-.185,.076Z"/>
  <path d="M11.806,6.837c-.034,0-.068-.007-.1-.02-.032-.013-.06-.032-.085-.057l-.638-.638c-.048-.049-.075-.115-.075-.184,0-.069,.028-.135,.076-.183,.049-.049,.115-.076,.184-.076,.069,0,.135,.027,.184,.075l.638,.638c.036,.037,.061,.083,.071,.134,.01,.051,.005,.103-.015,.151-.02,.048-.053,.088-.096,.117-.043,.029-.093,.044-.145,.044Z"/>
  <path d="M11.806,6.837c-.052,0-.102-.015-.145-.044-.043-.029-.076-.069-.096-.117-.02-.048-.025-.1-.015-.151,.01-.051,.035-.097,.071-.134l.638-.638c.049-.048,.115-.075,.184-.075,.069,0,.135,.028,.184,.076,.049,.049,.076,.115,.076,.183,0,.069-.027,.135-.075,.184l-.638,.638c-.024,.024-.053,.044-.085,.057-.032,.013-.066,.02-.1,.02Z"/>
  <path d="M11.806,6.837c-.069,0-.136-.027-.185-.076-.049-.049-.076-.115-.076-.185v-2.32c0-.069,.027-.136,.076-.185,.049-.049,.115-.076,.185-.076s.136,.027,.185,.076c.049,.049,.076,.115,.076,.185v2.32c0,.069-.027,.136-.076,.185-.049,.049-.115,.076-.185,.076Z"/>
  <path d="M11.807,7.837c-1.336,0-2.423-1.087-2.423-2.423h-.2c0,1.446,1.177,2.623,2.623,2.623v-.2Zm-2.423-2.423c0-1.336,1.087-2.423,2.423-2.423v-.2c-1.446,0-2.623,1.177-2.623,2.623h.2Zm2.423-2.423c1.336,0,2.423,1.087,2.423,2.423h.2c0-1.446-1.177-2.623-2.623-2.623v.2Zm2.423,2.423c0,1.336-1.087,2.423-2.423,2.423v.2c1.446,0,2.623-1.177,2.623-2.623h-.2Zm-2.423-2.101c-1.159,0-2.101,.942-2.101,2.101h.2c0-1.048,.853-1.901,1.901-1.901v-.2Zm-2.101,2.101c0,1.159,.942,2.101,2.101,2.101v-.2c-1.048,0-1.901-.853-1.901-1.901h-.2Zm2.101,2.101c1.159,0,2.101-.942,2.101-2.101h-.2c0,1.048-.853,1.901-1.901,1.901v.2Zm2.101-2.101c0-1.159-.942-2.101-2.101-2.101v.2c1.048,0,1.901,.853,1.901,1.901h.2Z"/>
  <path d="M11.807,7.937c-1.391,0-2.523-1.132-2.523-2.523s1.132-2.523,2.523-2.523,2.523,1.132,2.523,2.523-1.132,2.523-2.523,2.523Zm0-4.524c-1.103,0-2.001,.898-2.001,2.001s.898,2.001,2.001,2.001,2.001-.898,2.001-2.001-.898-2.001-2.001-2.001Z"/>
</svg>