<svg width="14" height="13" viewBox="0 0 14 13" fill="none" xmlns="http://www.w3.org/2000/svg">
<path d="M0 12.6667V11.3333H6V3.88333C5.71111 3.78333 5.46111 3.62778 5.25 3.41667C5.03889 3.20556 4.88333 2.95556 4.78333 2.66667H2.66667L4.66667 7.33333C4.66667 7.88889 4.43889 8.36111 3.98333 8.75C3.52778 9.13889 2.97778 9.33333 2.33333 9.33333C1.68889 9.33333 1.13889 9.13889 0.683333 8.75C0.227778 8.36111 0 7.88889 0 7.33333L2 2.66667H0.666667V1.33333H4.78333C4.91667 0.944444 5.15556 0.625 5.5 0.375C5.84444 0.125 6.23333 0 6.66667 0C7.1 0 7.48889 0.125 7.83333 0.375C8.17778 0.625 8.41667 0.944444 8.55 1.33333H12.6667V2.66667H11.3333L13.3333 7.33333C13.3333 7.88889 13.1056 8.36111 12.65 8.75C12.1944 9.13889 11.6444 9.33333 11 9.33333C10.3556 9.33333 9.80556 9.13889 9.35 8.75C8.89444 8.36111 8.66667 7.88889 8.66667 7.33333L10.6667 2.66667H8.55C8.45 2.95556 8.29444 3.20556 8.08333 3.41667C7.87222 3.62778 7.62222 3.78333 7.33333 3.88333V11.3333H13.3333V12.6667H0ZM9.75 7.33333H12.25L11 4.43333L9.75 7.33333ZM1.08333 7.33333H3.58333L2.33333 4.43333L1.08333 7.33333ZM6.66667 2.66667C6.85556 2.66667 7.01389 2.60278 7.14167 2.475C7.26944 2.34722 7.33333 2.18889 7.33333 2C7.33333 1.81111 7.26944 1.65278 7.14167 1.525C7.01389 1.39722 6.85556 1.33333 6.66667 1.33333C6.47778 1.33333 6.31944 1.39722 6.19167 1.525C6.06389 1.65278 6 1.81111 6 2C6 2.18889 6.06389 2.34722 6.19167 2.475C6.31944 2.60278 6.47778 2.66667 6.66667 2.66667Z" fill="#1C1B1F"/>
</svg>
