<svg width="12" height="12" viewBox="0 0 12 12" fill="none" xmlns="http://www.w3.org/2000/svg">
<g clip-path="url(#clip0_5584_31757)">
<path d="M4.99912 6.50001C5.21385 6.78708 5.4878 7.0246 5.8024 7.19648C6.11699 7.36836 6.46488 7.47057 6.82245 7.49618C7.18002 7.52179 7.53892 7.4702 7.8748 7.3449C8.21068 7.21961 8.51568 7.02355 8.76912 6.77001L10.2691 5.27001C10.7245 4.79851 10.9765 4.167 10.9708 3.51151C10.9651 2.85602 10.7022 2.22899 10.2387 1.76547C9.77515 1.30195 9.14812 1.03902 8.49263 1.03333C7.83713 1.02763 7.20563 1.27962 6.73412 1.73501L5.87412 2.59001M6.99912 5.50001C6.7844 5.21295 6.51044 4.97542 6.19585 4.80354C5.88125 4.63166 5.53337 4.52945 5.1758 4.50385C4.81823 4.47824 4.45933 4.52983 4.12345 4.65512C3.78757 4.78042 3.48257 4.97648 3.22912 5.23001L1.72912 6.73001C1.27373 7.20152 1.02174 7.83302 1.02744 8.48852C1.03313 9.14401 1.29606 9.77104 1.75958 10.2346C2.2231 10.6981 2.85013 10.961 3.50562 10.9667C4.16111 10.9724 4.79262 10.7204 5.26412 10.265L6.11912 9.41001" stroke="#054F31" stroke-linecap="round" stroke-linejoin="round"/>
</g>
<defs>
<clipPath id="clip0_5584_31757">
<rect width="12" height="12" fill="white"/>
</clipPath>
</defs>
</svg>
