<svg width="41" height="38" viewBox="0 0 41 38" fill="none" xmlns="http://www.w3.org/2000/svg">
<path d="M10.6975 19.923C10.158 19.7022 9.58715 19.5567 9.00002 19.4956C8.85565 19.4806 8.74899 19.3496 8.75647 19.2L8.79449 18.4403C8.80244 18.2811 8.68137 18.1451 8.52687 18.1429C7.82825 18.1325 7.13072 18.2219 6.4494 18.4093C5.98435 18.5373 5.53193 18.71 5.10085 18.9239C4.96171 18.993 4.9074 19.1687 4.97947 19.3096L5.31043 19.9566C5.37884 20.0903 5.33388 20.2572 5.20673 20.3324C4.68879 20.6391 4.22257 21.0161 3.8169 21.4481C3.71553 21.556 3.5492 21.561 3.44012 21.4614L2.91633 20.9831C2.80064 20.8775 2.62222 20.8905 2.52421 21.0136C1.77168 21.9589 1.24205 23.072 0.978398 24.2624C0.943962 24.4178 1.0433 24.5713 1.19507 24.6009L1.87265 24.7336C2.01616 24.7618 2.11425 24.9012 2.0929 25.0503C2.00798 25.6437 2.00198 26.2561 2.08293 26.8722C2.10256 27.0216 2.00221 27.1599 1.85824 27.1858L1.17676 27.3088C1.02304 27.3365 0.923627 27.4908 0.956194 27.6482C0.983228 27.7788 1.01346 27.9088 1.04673 28.0373C1.32159 29.1006 1.79419 30.0684 2.45308 30.9182C2.54953 31.0425 2.72764 31.0578 2.84458 30.9539L3.38169 30.4766C3.49186 30.3787 3.65788 30.3856 3.75776 30.4945C4.16383 30.9371 4.62662 31.3173 5.13054 31.6258C5.25683 31.7031 5.29968 31.8708 5.22902 32.0036L4.88255 32.6553C4.8083 32.795 4.85996 32.9717 4.99801 33.0431C6.06039 33.5928 7.23092 33.879 8.41453 33.8785C8.56902 33.8784 8.69189 33.7443 8.68604 33.585L8.65768 32.8109C8.65215 32.6592 8.7638 32.5316 8.91042 32.5184C9.272 32.4859 9.63584 32.421 9.99859 32.3211C10.2059 32.2641 10.4079 32.1969 10.6045 32.1204M10.5864 28.7586C10.2264 29.0608 9.80226 29.2925 9.32888 29.4272C7.45818 29.9595 5.52897 28.8073 5.04484 26.8687C4.57481 24.9863 5.66578 23.0422 7.4821 22.5253C8.6354 22.1971 9.81099 22.5092 10.6565 23.2512" stroke="#040F81" stroke-width="1.2" stroke-miterlimit="10" stroke-linecap="round" stroke-linejoin="round"/>
<path d="M27.2379 37.0258H12.2898C11.4979 37.0258 10.8559 36.3635 10.8559 35.5465V2.45385C10.8559 1.63691 11.4979 0.974609 12.2898 0.974609H16.7933" stroke="#040F81" stroke-width="1.2" stroke-miterlimit="10" stroke-linecap="round" stroke-linejoin="round"/>
<path d="M36.5489 20.8125V35.5462C36.5489 36.3631 35.9069 37.0254 35.115 37.0254H29.9649" stroke="#040F81" stroke-width="1.2" stroke-miterlimit="10" stroke-linecap="round" stroke-linejoin="round"/>
<path d="M19.52 0.974121H35.1147C35.9066 0.974121 36.5486 1.63642 36.5486 2.45336V5.81685" stroke="#040F81" stroke-width="1.2" stroke-miterlimit="10" stroke-linecap="round" stroke-linejoin="round"/>
<path d="M39.278 10.7091L37.6329 11.1691C37.6323 11.1668 37.6318 11.1645 37.6312 11.1622C37.4054 10.2887 37.0533 9.48467 36.601 8.76507C36.4996 8.60383 36.5408 8.38866 36.6921 8.27678L37.4999 7.67943C37.6605 7.56063 37.6956 7.32746 37.5746 7.16631C36.6482 5.93246 35.4524 4.93588 34.0842 4.25718C33.9062 4.16885 33.6924 4.25308 33.6134 4.43988L33.2293 5.34845C33.1542 5.52616 32.956 5.6124 32.7814 5.54095C32.0913 5.25851 31.3611 5.07244 30.6102 4.99431C30.4256 4.9751 30.2892 4.80752 30.2988 4.61622L30.3474 3.64456C30.3576 3.44096 30.2027 3.26711 30.005 3.26422C29.1115 3.25096 28.2194 3.36525 27.348 3.60501C26.7532 3.76866 26.1745 3.98953 25.6231 4.26313C25.4452 4.35146 25.3757 4.57627 25.4679 4.75648L25.8913 5.58387C25.9788 5.75491 25.9213 5.96831 25.7586 6.06452C25.0962 6.45667 24.4999 6.93892 23.981 7.49143C23.8513 7.62943 23.6386 7.63578 23.4991 7.50847L22.8291 6.89681C22.6812 6.76178 22.453 6.77833 22.3276 6.93579C21.3651 8.1448 20.6878 9.56834 20.3505 11.091C20.3065 11.2897 20.4335 11.486 20.6276 11.524L21.4943 11.6938C21.6779 11.7297 21.8033 11.9082 21.776 12.0989C21.6674 12.8579 21.6597 13.6411 21.7632 14.4291C21.7883 14.6202 21.66 14.797 21.4758 14.8302L20.6042 14.9875C20.4075 15.023 20.2804 15.2202 20.3221 15.4216C20.3567 15.5886 20.3953 15.755 20.4378 15.9193C20.7894 17.2793 21.3939 18.517 22.2365 19.6039C22.3599 19.763 22.5877 19.7825 22.7373 19.6496L23.4242 19.0391C23.5651 18.914 23.7775 18.9227 23.9052 19.062C24.4247 19.6281 25.0165 20.1144 25.661 20.509C25.8225 20.6078 25.8773 20.8223 25.787 20.9922L25.3438 21.8257C25.2488 22.0043 25.3149 22.2303 25.4915 22.3217C26.8503 23.0247 28.3473 23.3907 29.8612 23.39C30.0588 23.3899 30.2159 23.2183 30.2085 23.0146L30.1723 22.0245C30.1652 21.8305 30.308 21.6672 30.4955 21.6504C30.958 21.6088 31.4232 21.5258 31.8873 21.3981C32.1524 21.3251 32.4107 21.2392 32.6622 21.1413C32.8379 21.073 33.0343 21.1629 33.1066 21.3417L33.4819 22.2718C33.5579 22.46 33.7703 22.5479 33.9497 22.4626C35.3262 21.8083 36.5372 20.8287 37.4842 19.6032C37.6073 19.4438 37.5754 19.2101 37.4165 19.089L36.6092 18.4741C36.4593 18.3599 36.421 18.1436 36.5249 17.9841C36.9379 17.35 37.2664 16.6591 37.4994 15.9311C37.558 15.7479 37.7479 15.6465 37.9276 15.6996L38.8974 15.9859C39.0873 16.042 39.2864 15.9254 39.3336 15.7275C39.724 14.0912 39.7081 12.3727 39.2844 10.734L39.278 10.7091ZM31.1417 18.1113C28.5244 18.8561 25.8252 17.2441 25.1478 14.5316C24.4902 11.898 26.0166 9.17788 28.5579 8.45473C31.1752 7.70997 33.8744 9.32199 34.5518 12.0344C35.2094 14.668 33.683 17.3881 31.1417 18.1113Z" stroke="#040F81" stroke-width="1.2" stroke-miterlimit="10" stroke-linecap="round" stroke-linejoin="round"/>
<path d="M14.0886 5.06689H19.671" stroke="#040F81" stroke-width="1.2" stroke-miterlimit="10" stroke-linecap="round" stroke-linejoin="round"/>
<path d="M14.2723 7.44531H17.8078" stroke="#040F81" stroke-width="1.2" stroke-miterlimit="10" stroke-linecap="round" stroke-linejoin="round"/>
<path d="M14.2723 13.2832H17.8078" stroke="#040F81" stroke-width="1.2" stroke-miterlimit="10" stroke-linecap="round" stroke-linejoin="round"/>
<path d="M14.2723 16.0962H17.8078" stroke="#040F81" stroke-width="1.2" stroke-miterlimit="10" stroke-linecap="round" stroke-linejoin="round"/>
<path d="M14.1781 22.3955H22.3361" stroke="#040F81" stroke-width="1.2" stroke-miterlimit="10" stroke-linecap="round" stroke-linejoin="round"/>
<path d="M14.4462 24.7734H19.613" stroke="#040F81" stroke-width="1.2" stroke-miterlimit="10" stroke-linecap="round" stroke-linejoin="round"/>
<path d="M18.7911 33.6665H14.7942C14.5059 33.6665 14.2723 33.4255 14.2723 33.1281V29.0047C14.2723 28.7074 14.5059 28.4663 14.7942 28.4663H18.7911C19.0793 28.4663 19.313 28.7074 19.313 29.0047V33.1281C19.3131 33.4255 19.0793 33.6665 18.7911 33.6665Z" stroke="#040F81" stroke-width="1.2" stroke-miterlimit="10" stroke-linecap="round" stroke-linejoin="round"/>
<path d="M16.3694 30.785L17.0294 31.5154L20.2278 28.2158" stroke="#040F81" stroke-width="1.2" stroke-miterlimit="10" stroke-linecap="round" stroke-linejoin="round"/>
<path d="M22.3352 28.9868H32.4353" stroke="#040F81" stroke-width="1.2" stroke-miterlimit="10" stroke-linecap="round" stroke-linejoin="round"/>
<path d="M26.2485 31.5151H22.3352" stroke="#040F81" stroke-width="1.2" stroke-miterlimit="10" stroke-linecap="round" stroke-linejoin="round"/>
</svg>
