<svg width="20" height="20" viewBox="0 0 20 20" fill="none" xmlns="http://www.w3.org/2000/svg">
<path d="M14.1618 14.0141L14.1618 14.0141L14.0141 14.1618L14.0091 14.1667L14.0091 14.1667C12.6306 15.5071 10.7828 16.2557 8.8601 16.2527M14.1618 14.0141L16.2527 8.8601C16.2523 4.77606 12.9439 1.46909 8.86088 1.46909C4.77653 1.46909 1.46909 4.77653 1.46909 8.86088C1.46909 12.9439 4.77606 16.2523 8.8601 16.2527M14.1618 14.0141L14.1667 14.0091M14.1618 14.0141L14.1667 14.0091M8.8601 16.2527L8.86088 15.7527V16.2527C8.86062 16.2527 8.86036 16.2527 8.8601 16.2527ZM14.1667 14.0091C15.5069 12.6308 16.2555 10.7834 16.2527 8.86088L14.1667 14.0091ZM15.3931 14.0783L15.1129 14.4279L15.4297 14.7447L19.2929 18.6069L18.6069 19.2929L14.7447 15.4297L14.4279 15.1129L14.0783 15.3931C12.5986 16.5793 10.7581 17.2245 8.8616 17.2218H8.86088C4.24582 17.2218 0.5 13.476 0.5 8.86088C0.5 4.24582 4.24582 0.5 8.86088 0.5C13.476 0.5 17.2218 4.24582 17.2218 8.86088V8.8616C17.2245 10.7581 16.5793 12.5986 15.3931 14.0783Z" fill="#858990" stroke="#3D4DB6"/>
</svg>
