<svg width="32" height="36" viewBox="0 0 32 36" fill="none" xmlns="http://www.w3.org/2000/svg">
<g clip-path="url(#clip0_575_26743)">
<path d="M16.0179 27.5252C15.797 27.5252 15.5787 27.4707 15.3779 27.3653C15.177 27.2599 14.9983 27.1061 14.854 26.9144L13.9453 25.7084C13.9427 25.705 13.9402 25.7014 13.9376 25.6978C13.9198 25.6714 13.8968 25.6501 13.8706 25.6356C13.8443 25.621 13.8155 25.6136 13.7863 25.6139H4.3399C4.26497 25.6139 4.19311 25.5798 4.14012 25.519C4.08714 25.4583 4.05737 25.3759 4.05737 25.2899V10.9798C4.05737 10.8938 4.08714 10.8114 4.14012 10.7507C4.19311 10.6899 4.26497 10.6558 4.3399 10.6558H5.76826C5.84319 10.6558 5.91505 10.6899 5.96804 10.7507C6.02102 10.8114 6.05079 10.8938 6.05079 10.9798C6.05079 11.0657 6.02102 11.1481 5.96804 11.2089C5.91505 11.2696 5.84319 11.3038 5.76826 11.3038H4.62244V24.9658H13.7863C13.8996 24.9654 14.0115 24.9944 14.1137 25.0505C14.2159 25.1065 14.3057 25.1883 14.3765 25.2898L15.2816 26.4909C15.3729 26.6121 15.486 26.7094 15.613 26.776C15.7401 26.8427 15.8781 26.8772 16.0179 26.8772C16.1576 26.8772 16.2957 26.8427 16.4227 26.776C16.5498 26.7094 16.6628 26.6121 16.7542 26.4909L17.6594 25.2896C17.7301 25.1882 17.82 25.1064 17.9221 25.0503C18.0243 24.9942 18.1361 24.9653 18.2494 24.9656H27.4133V11.3038H26.2675C26.1925 11.3038 26.1207 11.2696 26.0677 11.2089C26.0147 11.1481 25.9849 11.0657 25.9849 10.9798C25.9849 10.8938 26.0147 10.8114 26.0677 10.7507C26.1207 10.6899 26.1925 10.6558 26.2675 10.6558H27.6958C27.7707 10.6558 27.8426 10.6899 27.8956 10.7507C27.9486 10.8114 27.9783 10.8938 27.9783 10.9798V25.2898C27.9783 25.3757 27.9486 25.4581 27.8956 25.5189C27.8426 25.5796 27.7707 25.6138 27.6958 25.6138H18.2494C18.2202 25.6134 18.1914 25.6208 18.1652 25.6354C18.1389 25.6499 18.116 25.6712 18.0981 25.6976C18.0956 25.7012 18.093 25.7048 18.0904 25.7083L17.1817 26.9143C17.0374 27.106 16.8587 27.2598 16.6579 27.3652C16.457 27.4707 16.2387 27.5252 16.0179 27.5252Z" fill="#2255A4"/>
<path d="M16.018 25.8713C15.9754 25.8713 15.9334 25.8602 15.8951 25.839C15.8568 25.8178 15.8231 25.7869 15.7967 25.7487L15.0569 24.68C14.9055 24.46 14.7124 24.2823 14.4923 24.1604C14.2722 24.0385 14.0309 23.9755 13.7864 23.9762H5.76837C5.69344 23.9762 5.62158 23.9421 5.56859 23.8813C5.51561 23.8205 5.48584 23.7381 5.48584 23.6522V8.79861C5.48584 8.71268 5.51561 8.63027 5.56859 8.56951C5.62158 8.50875 5.69344 8.47461 5.76837 8.47461H13.7654C14.2306 8.47499 14.6868 8.62203 15.0841 8.89964C15.4813 9.17725 15.8044 9.57476 16.018 10.0487C16.2315 9.57476 16.5546 9.17725 16.9519 8.89964C17.3491 8.62203 17.8053 8.47499 18.2705 8.47461H26.2676C26.3425 8.47461 26.4144 8.50875 26.4674 8.56951C26.5203 8.63027 26.5501 8.71268 26.5501 8.79861V23.652C26.5501 23.738 26.5203 23.8204 26.4674 23.8811C26.4144 23.9419 26.3425 23.976 26.2676 23.976H18.2495C18.0049 23.9752 17.7634 24.0381 17.5431 24.16C17.3229 24.282 17.1297 24.4597 16.9781 24.6798L16.2385 25.7485C16.2121 25.7866 16.1786 25.8175 16.1405 25.8387C16.1023 25.86 16.0604 25.8711 16.018 25.8713ZM6.0509 23.328H13.7864C14.1161 23.327 14.4417 23.4119 14.7385 23.5763C15.0354 23.7407 15.2958 23.9804 15.5 24.2772L16.018 25.0261L16.5359 24.2772C16.7402 23.9804 17.0005 23.7407 17.2974 23.5763C17.5943 23.4119 17.9198 23.327 18.2495 23.328H25.985V9.12261H18.2705C17.7482 9.12328 17.2475 9.36151 16.8782 9.78504C16.5088 10.2086 16.3011 10.7828 16.3005 11.3818V23.652C16.3005 23.738 16.2707 23.8204 16.2178 23.8811C16.1648 23.9419 16.0929 23.976 16.018 23.976C15.943 23.976 15.8712 23.9419 15.8182 23.8811C15.7652 23.8204 15.7354 23.738 15.7354 23.652V11.3818C15.7349 10.7828 15.5271 10.2086 15.1578 9.78504C14.7885 9.36151 14.2877 9.12328 13.7654 9.12261H6.0509V23.328Z" fill="#2255A4"/>
<path d="M16.0179 25.8714C15.943 25.8714 15.8711 25.8373 15.8181 25.7765C15.7651 25.7158 15.7354 25.6334 15.7354 25.5474V23.2996C15.7354 23.2137 15.7651 23.1312 15.8181 23.0705C15.8711 23.0097 15.943 22.9756 16.0179 22.9756C16.0928 22.9756 16.1647 23.0097 16.2177 23.0705C16.2706 23.1312 16.3004 23.2137 16.3004 23.2996V25.5474C16.3004 25.6334 16.2706 25.7158 16.2177 25.7765C16.1647 25.8373 16.0928 25.8714 16.0179 25.8714Z" fill="#2255A4"/>
<path d="M16.0451 11.3038H15.9908C15.9159 11.3038 15.844 11.2696 15.791 11.2089C15.738 11.1481 15.7083 11.0657 15.7083 10.9798C15.7083 10.8938 15.738 10.8114 15.791 10.7507C15.844 10.6899 15.9159 10.6558 15.9908 10.6558H16.0451C16.12 10.6558 16.1919 10.6899 16.2449 10.7507C16.2979 10.8114 16.3276 10.8938 16.3276 10.9798C16.3276 11.0657 16.2979 11.1481 16.2449 11.2089C16.1919 11.2696 16.12 11.3038 16.0451 11.3038Z" fill="#2255A4"/>
<path d="M16.018 25.8713C15.9754 25.8713 15.9334 25.8602 15.8951 25.839C15.8568 25.8178 15.8231 25.7869 15.7967 25.7487L15.0569 24.68C14.9055 24.46 14.7124 24.2823 14.4923 24.1604C14.2722 24.0385 14.0309 23.9755 13.7864 23.9762H5.76837C5.69344 23.9762 5.62158 23.9421 5.56859 23.8813C5.51561 23.8205 5.48584 23.7381 5.48584 23.6522V8.79861C5.48584 8.71268 5.51561 8.63027 5.56859 8.56951C5.62158 8.50875 5.69344 8.47461 5.76837 8.47461H13.7654C14.2306 8.47499 14.6868 8.62203 15.0841 8.89964C15.4813 9.17725 15.8044 9.57476 16.018 10.0487C16.2315 9.57476 16.5546 9.17725 16.9519 8.89964C17.3491 8.62203 17.8053 8.47499 18.2705 8.47461H26.2676C26.3425 8.47461 26.4144 8.50875 26.4674 8.56951C26.5203 8.63027 26.5501 8.71268 26.5501 8.79861V23.652C26.5501 23.738 26.5203 23.8204 26.4674 23.8811C26.4144 23.9419 26.3425 23.976 26.2676 23.976H18.2495C18.0049 23.9752 17.7634 24.0381 17.5431 24.16C17.3229 24.282 17.1297 24.4597 16.9781 24.6798L16.2385 25.7485C16.2121 25.7866 16.1786 25.8175 16.1405 25.8387C16.1023 25.86 16.0604 25.8711 16.018 25.8713ZM6.0509 23.328H13.7864C14.1161 23.327 14.4417 23.4119 14.7385 23.5763C15.0354 23.7407 15.2958 23.9804 15.5 24.2772L16.018 25.0261L16.5359 24.2772C16.7402 23.9804 17.0005 23.7407 17.2974 23.5763C17.5943 23.4119 17.9198 23.327 18.2495 23.328H25.985V9.12261H18.2705C17.7482 9.12328 17.2475 9.36151 16.8782 9.78504C16.5088 10.2086 16.3011 10.7828 16.3005 11.3818V23.652C16.3005 23.738 16.2707 23.8204 16.2178 23.8811C16.1648 23.9419 16.0929 23.976 16.018 23.976C15.943 23.976 15.8712 23.9419 15.8182 23.8811C15.7652 23.8204 15.7354 23.738 15.7354 23.652V11.3818C15.7349 10.7828 15.5271 10.2086 15.1578 9.78504C14.7885 9.36151 14.2877 9.12328 13.7654 9.12261H6.0509V23.328Z" fill="#2255A4"/>
<path d="M16.0179 25.8714C15.943 25.8714 15.8711 25.8373 15.8181 25.7765C15.7651 25.7158 15.7354 25.6334 15.7354 25.5474V23.2996C15.7354 23.2137 15.7651 23.1312 15.8181 23.0705C15.8711 23.0097 15.943 22.9756 16.0179 22.9756C16.0928 22.9756 16.1647 23.0097 16.2177 23.0705C16.2706 23.1312 16.3004 23.2137 16.3004 23.2996V25.5474C16.3004 25.6334 16.2706 25.7158 16.2177 25.7765C16.1647 25.8373 16.0928 25.8714 16.0179 25.8714Z" fill="#2255A4"/>
<path d="M13.9047 11.5738H7.90875C7.83382 11.5738 7.76196 11.5396 7.70897 11.4789C7.65599 11.4181 7.62622 11.3357 7.62622 11.2498C7.62622 11.1639 7.65599 11.0814 7.70897 11.0207C7.76196 10.9599 7.83382 10.9258 7.90875 10.9258H13.9047C13.9796 10.9258 14.0515 10.9599 14.1045 11.0207C14.1575 11.0814 14.1872 11.1639 14.1872 11.2498C14.1872 11.3357 14.1575 11.4181 14.1045 11.4789C14.0515 11.5396 13.9796 11.5738 13.9047 11.5738Z" fill="#2255A4"/>
<path d="M13.9047 13.5635H7.90875C7.83382 13.5635 7.76196 13.5294 7.70897 13.4686C7.65599 13.4079 7.62622 13.3255 7.62622 13.2395C7.62622 13.1536 7.65599 13.0712 7.70897 13.0104C7.76196 12.9497 7.83382 12.9155 7.90875 12.9155H13.9047C13.9796 12.9155 14.0515 12.9497 14.1045 13.0104C14.1575 13.0712 14.1872 13.1536 14.1872 13.2395C14.1872 13.3255 14.1575 13.4079 14.1045 13.4686C14.0515 13.5294 13.9796 13.5635 13.9047 13.5635Z" fill="#2255A4"/>
<path d="M13.9047 15.5543H7.90875C7.83382 15.5543 7.76196 15.5201 7.70897 15.4594C7.65599 15.3986 7.62622 15.3162 7.62622 15.2303C7.62622 15.1443 7.65599 15.0619 7.70897 15.0011C7.76196 14.9404 7.83382 14.9062 7.90875 14.9062H13.9047C13.9796 14.9062 14.0515 14.9404 14.1045 15.0011C14.1575 15.0619 14.1872 15.1443 14.1872 15.2303C14.1872 15.3162 14.1575 15.3986 14.1045 15.4594C14.0515 15.5201 13.9796 15.5543 13.9047 15.5543Z" fill="#2255A4"/>
<path d="M13.9047 17.5445H7.90875C7.83382 17.5445 7.76196 17.5103 7.70897 17.4496C7.65599 17.3888 7.62622 17.3064 7.62622 17.2205C7.62622 17.1346 7.65599 17.0521 7.70897 16.9914C7.76196 16.9306 7.83382 16.8965 7.90875 16.8965H13.9047C13.9796 16.8965 14.0515 16.9306 14.1045 16.9914C14.1575 17.0521 14.1872 17.1346 14.1872 17.2205C14.1872 17.3064 14.1575 17.3888 14.1045 17.4496C14.0515 17.5103 13.9796 17.5445 13.9047 17.5445Z" fill="#2255A4"/>
<path d="M13.9047 19.5352H7.90875C7.83382 19.5352 7.76196 19.5011 7.70897 19.4403C7.65599 19.3795 7.62622 19.2971 7.62622 19.2112C7.62622 19.1253 7.65599 19.0429 7.70897 18.9821C7.76196 18.9213 7.83382 18.8872 7.90875 18.8872H13.9047C13.9796 18.8872 14.0515 18.9213 14.1045 18.9821C14.1575 19.0429 14.1872 19.1253 14.1872 19.2112C14.1872 19.2971 14.1575 19.3795 14.1045 19.4403C14.0515 19.5011 13.9796 19.5352 13.9047 19.5352Z" fill="#2255A4"/>
<path d="M13.9047 21.5254H7.90875C7.83382 21.5254 7.76196 21.4913 7.70897 21.4305C7.65599 21.3698 7.62622 21.2874 7.62622 21.2014C7.62622 21.1155 7.65599 21.0331 7.70897 20.9723C7.76196 20.9116 7.83382 20.8774 7.90875 20.8774H13.9047C13.9796 20.8774 14.0515 20.9116 14.1045 20.9723C14.1575 21.0331 14.1872 21.1155 14.1872 21.2014C14.1872 21.2874 14.1575 21.3698 14.1045 21.4305C14.0515 21.4913 13.9796 21.5254 13.9047 21.5254Z" fill="#2255A4"/>
<path d="M24.1137 11.5738H18.1177C18.0428 11.5738 17.9709 11.5396 17.918 11.4789C17.865 11.4181 17.8352 11.3357 17.8352 11.2498C17.8352 11.1639 17.865 11.0814 17.918 11.0207C17.9709 10.9599 18.0428 10.9258 18.1177 10.9258H24.1137C24.1886 10.9258 24.2605 10.9599 24.3135 11.0207C24.3664 11.0814 24.3962 11.1639 24.3962 11.2498C24.3962 11.3357 24.3664 11.4181 24.3135 11.4789C24.2605 11.5396 24.1886 11.5738 24.1137 11.5738Z" fill="#2255A4"/>
<path d="M24.1137 13.5635H18.1177C18.0428 13.5635 17.9709 13.5294 17.918 13.4686C17.865 13.4079 17.8352 13.3255 17.8352 13.2395C17.8352 13.1536 17.865 13.0712 17.918 13.0104C17.9709 12.9497 18.0428 12.9155 18.1177 12.9155H24.1137C24.1886 12.9155 24.2605 12.9497 24.3135 13.0104C24.3664 13.0712 24.3962 13.1536 24.3962 13.2395C24.3962 13.3255 24.3664 13.4079 24.3135 13.4686C24.2605 13.5294 24.1886 13.5635 24.1137 13.5635Z" fill="#2255A4"/>
<path d="M24.1137 15.5543H18.1177C18.0428 15.5543 17.9709 15.5201 17.918 15.4594C17.865 15.3986 17.8352 15.3162 17.8352 15.2303C17.8352 15.1443 17.865 15.0619 17.918 15.0011C17.9709 14.9404 18.0428 14.9062 18.1177 14.9062H24.1137C24.1886 14.9062 24.2605 14.9404 24.3135 15.0011C24.3664 15.0619 24.3962 15.1443 24.3962 15.2303C24.3962 15.3162 24.3664 15.3986 24.3135 15.4594C24.2605 15.5201 24.1886 15.5543 24.1137 15.5543Z" fill="#2255A4"/>
<path d="M24.1137 17.5445H18.1177C18.0428 17.5445 17.9709 17.5103 17.918 17.4496C17.865 17.3888 17.8352 17.3064 17.8352 17.2205C17.8352 17.1346 17.865 17.0521 17.918 16.9914C17.9709 16.9306 18.0428 16.8965 18.1177 16.8965H24.1137C24.1886 16.8965 24.2605 16.9306 24.3135 16.9914C24.3664 17.0521 24.3962 17.1346 24.3962 17.2205C24.3962 17.3064 24.3664 17.3888 24.3135 17.4496C24.2605 17.5103 24.1886 17.5445 24.1137 17.5445Z" fill="#2255A4"/>
<path d="M24.1137 19.5352H18.1177C18.0428 19.5352 17.9709 19.5011 17.918 19.4403C17.865 19.3795 17.8352 19.2971 17.8352 19.2112C17.8352 19.1253 17.865 19.0429 17.918 18.9821C17.9709 18.9213 18.0428 18.8872 18.1177 18.8872H24.1137C24.1886 18.8872 24.2605 18.9213 24.3135 18.9821C24.3664 19.0429 24.3962 19.1253 24.3962 19.2112C24.3962 19.2971 24.3664 19.3795 24.3135 19.4403C24.2605 19.5011 24.1886 19.5352 24.1137 19.5352Z" fill="#2255A4"/>
<path d="M24.1137 21.5254H18.1177C18.0428 21.5254 17.9709 21.4913 17.918 21.4305C17.865 21.3698 17.8352 21.2874 17.8352 21.2014C17.8352 21.1155 17.865 21.0331 17.918 20.9723C17.9709 20.9116 18.0428 20.8774 18.1177 20.8774H24.1137C24.1886 20.8774 24.2605 20.9116 24.3135 20.9723C24.3664 21.0331 24.3962 21.1155 24.3962 21.2014C24.3962 21.2874 24.3664 21.3698 24.3135 21.4305C24.2605 21.4913 24.1886 21.5254 24.1137 21.5254Z" fill="#2255A4"/>
</g>
<defs>
<clipPath id="clip0_575_26743">
<rect width="31.3923" height="36" fill="white" transform="translate(0.321777)"/>
</clipPath>
</defs>
</svg>
