<?xml version="1.0" encoding="utf-8"?>
<!-- Generator: Adobe Illustrator 16.0.3, SVG Export Plug-In . SVG Version: 6.00 Build 0)  -->
<!DOCTYPE svg PUBLIC "-//W3C//DTD SVG 1.1//EN" "http://www.w3.org/Graphics/SVG/1.1/DTD/svg11.dtd">
<svg version="1.1" id="Warstwa_1" xmlns="http://www.w3.org/2000/svg" xmlns:xlink="http://www.w3.org/1999/xlink" x="0px" y="0px"
	 width="45.75px" height="45.583px" viewBox="11.083 11.167 45.75 45.583" enable-background="new 11.083 11.167 45.75 45.583"
	 xml:space="preserve">
<path fill="none" stroke="#040F81" stroke-width="1.3" d="M44.895,35.984l0.563-0.323c-0.625-1.093-0.941-1.838-0.487-2.678
	c0.625-1.131,2.172-1.559,3.277-0.907l0.002,0.001c0.691,0.406,0.957,0.938,0.99,1.509c0.037,0.611-0.191,1.328-0.621,2.017
	l-0.001,0.002c-0.591,0.949-0.136,2.111,0.769,2.52l0.127,0.059h0.141h6.334v1.928v4.316v0.105l0.026,0.08v5.027
	c-0.019,0.064-0.026,0.131-0.026,0.194v6.163h-3.25h-0.65v0.018h-9.1v-0.018h-0.649h-4.19v-5.971
	c0.041-0.143,0.119-0.205,0.187-0.232c0.085-0.035,0.243-0.05,0.46,0.066l0,0c0.028,0.016,0.057,0.029,0.084,0.045
	c1.021,0.55,2.271,1.221,3.77,0.41l0,0c1.744-0.945,2.535-3.266,1.488-5.037c-0.625-1.063-1.549-1.568-2.557-1.629
	c-0.967-0.057-1.952,0.297-2.785,0.816l0,0c-0.24,0.15-0.549,0.035-0.646-0.207v-3.942v-2.134h6.244h0.139l0.128-0.058
	c0.878-0.396,1.347-1.516,0.798-2.466L44.895,35.984z M44.895,35.984c0.34,0.591,0.053,1.298-0.502,1.549l4.186-6.017
	c-1.426-0.842-3.379-0.295-4.178,1.155C43.756,33.862,44.284,34.919,44.895,35.984z"/>
<path fill="none" stroke="#040F81" stroke-width="1.3" d="M29.207,38.883l0.002-0.001c0.218-0.12,0.372-0.103,0.451-0.07
	c0.064,0.026,0.146,0.089,0.191,0.242v3.878v2.152h-6.172h-0.114l-0.107,0.039c-0.977,0.354-1.485,1.521-0.927,2.508l0.001,0.002
	c0.625,1.094,0.942,1.839,0.486,2.68c-0.612,1.125-2.158,1.553-3.269,0.904c-0.692-0.406-0.957-0.938-0.991-1.509
	c-0.037-0.611,0.191-1.327,0.622-2.019l0,0c0.617-0.988,0.107-2.214-0.9-2.568l-0.105-0.037h-0.111h-4.321h-1.833v-0.053h-0.099
	v-6.164v-0.105l-0.027-0.08v-5.045l0.027-0.081v-0.105v-4.315v-1.929h0.175h16.136h1.529v2.135v3.941
	c-0.097,0.242-0.398,0.359-0.649,0.206c-0.833-0.518-1.817-0.872-2.784-0.815c-1.007,0.061-1.931,0.565-2.556,1.629l0,0
	c-1.035,1.767-0.259,4.087,1.487,5.036c0.747,0.408,1.449,0.455,2.117,0.301c0.614-0.143,1.193-0.459,1.709-0.74L29.207,38.883z"/>
<path fill="none" stroke="#040F81" stroke-width="1.3" d="M31.916,19.713l0.001-0.002c0.406-0.691,0.939-0.956,1.512-0.99
	c0.612-0.037,1.33,0.191,2.02,0.621c1.163,0.729,2.672-0.116,2.672-1.482v-5.876h17.84v17.421h-0.01v0.394h-2.138h-3.947
	c-0.243-0.097-0.359-0.398-0.207-0.646c0.519-0.832,0.874-1.815,0.815-2.782c-0.06-1.006-0.566-1.929-1.63-2.553
	c-1.743-1.028-4.104-0.368-5.068,1.403c-0.847,1.542-0.092,2.914,0.499,3.947c0.138,0.242,0.027,0.529-0.203,0.63h-5.951v-5.787
	c0-1.34-1.444-2.182-2.613-1.514c-1.099,0.627-1.842,0.947-2.682,0.487l-0.001,0C31.685,22.362,31.262,20.818,31.916,19.713z"/>
</svg>
