<svg width="16" height="16" viewBox="0 0 16 16" fill="none" xmlns="http://www.w3.org/2000/svg">
<path d="M14.6666 7.99999H10.6666L9.33325 9.99999H6.66659L5.33325 7.99999H1.33325M14.6666 7.99999V12C14.6666 12.3536 14.5261 12.6928 14.2761 12.9428C14.026 13.1928 13.6869 13.3333 13.3333 13.3333H2.66659C2.31296 13.3333 1.97382 13.1928 1.72378 12.9428C1.47373 12.6928 1.33325 12.3536 1.33325 12V7.99999M14.6666 7.99999L12.3666 3.40666C12.2562 3.18451 12.086 2.99757 11.8752 2.86684C11.6644 2.73612 11.4213 2.66679 11.1733 2.66666H4.82659C4.57853 2.66679 4.33543 2.73612 4.12462 2.86684C3.9138 2.99757 3.74364 3.18451 3.63325 3.40666L1.33325 7.99999" stroke="#101828" stroke-width="1.33333" stroke-linecap="round" stroke-linejoin="round"/>
</svg>
