<svg width="12" height="14" viewBox="0 0 12 14" fill="none" xmlns="http://www.w3.org/2000/svg">
<path d="M5.33333 11.6167V7.05L1.33333 4.73333V9.3L5.33333 11.6167ZM6.66667 11.6167L10.6667 9.3V4.73333L6.66667 7.05V11.6167ZM5.33333 13.15L0.666667 10.4667C0.455556 10.3444 0.291667 10.1833 0.175 9.98333C0.0583333 9.78333 0 9.56111 0 9.31667V4.01667C0 3.77222 0.0583333 3.55 0.175 3.35C0.291667 3.15 0.455556 2.98889 0.666667 2.86667L5.33333 0.183333C5.54444 0.0611111 5.76667 0 6 0C6.23333 0 6.45556 0.0611111 6.66667 0.183333L11.3333 2.86667C11.5444 2.98889 11.7083 3.15 11.825 3.35C11.9417 3.55 12 3.77222 12 4.01667V9.31667C12 9.56111 11.9417 9.78333 11.825 9.98333C11.7083 10.1833 11.5444 10.3444 11.3333 10.4667L6.66667 13.15C6.45556 13.2722 6.23333 13.3333 6 13.3333C5.76667 13.3333 5.54444 13.2722 5.33333 13.15ZM8.66667 4.35L9.95 3.61667L6 1.33333L4.7 2.08333L8.66667 4.35ZM6 5.9L7.3 5.15L3.35 2.86667L2.05 3.61667L6 5.9Z" fill="#1C1B1F"/>
</svg>
