<?xml version="1.0" encoding="UTF-8"?>
<svg id="Layer_1" data-name="Layer 1" xmlns="http://www.w3.org/2000/svg" viewBox="0 0 46 46">
  <defs>
    <style>
      .cls-1 {
        fill: none;
        stroke: #040f81;
        stroke-width: 1.3px;
      }
    </style>
  </defs>
  <path class="cls-1" d="M33.97,21.98c.62-1.13,2.17-1.56,3.28-.91h0c.69,.41,.96,.94,.99,1.51,.04,.61-.19,1.33-.62,2.02h0c-.59,.95-.14,2.11,.77,2.52l.13,.06h6.47v6.35l.03,.08v5.03c-.02,.07-.03,.13-.03,.19v6.16h-3.9v.02h-9.1v-.02h-4.84v-5.97c.04-.14,.12-.2,.19-.23,.08-.03,.24-.05,.46,.07h0s.06,.03,.08,.04c1.02,.55,2.27,1.22,3.77,.41h0c1.74-.95,2.53-3.27,1.49-5.04-.62-1.06-1.55-1.57-2.56-1.63-.97-.06-1.95,.3-2.79,.82h0c-.24,.15-.55,.04-.65-.21v-6.08h6.38l.13-.06c.88-.4,1.51-1.63,.8-2.47-1.19-1.38-.49-2.68-.49-2.68Zm3.61-1.47"/>
  <path class="cls-1" d="M18.66,27.81c.06,.03,.15,.09,.19,.24v6.03h-6.29l-.11,.04c-.98,.35-1.49,1.52-.93,2.51h0c.63,1.1,.94,1.84,.49,2.68-.61,1.12-2.16,1.55-3.27,.9-.69-.41-.96-.94-.99-1.51-.04-.61,.19-1.33,.62-2.02h0c.62-.99,.11-2.21-.9-2.57l-.1-.04H1.11v-.05h-.1v-6.27l-.03-.08v-5.04l.03-.08v-6.35H18.85v6.08c-.1,.24-.4,.36-.65,.21-.83-.52-1.82-.87-2.78-.81-1.01,.06-1.93,.57-2.56,1.63h0c-1.03,1.77-.26,4.09,1.49,5.04,.75,.41,1.45,.46,2.12,.3,.61-.14,1.19-.46,1.71-.74l.03-.02c.17-.19,.45-.07,.45-.07Z"/>
  <path class="cls-1" d="M20.92,8.71h0c.41-.69,.94-.96,1.51-.99,.61-.04,1.33,.19,2.02,.62,1.16,.73,2.67-.12,2.67-1.48V.98h17.84V18.4h0v.39h-6.09c-.24-.1-.36-.4-.21-.65,.52-.83,.87-1.82,.82-2.78-.06-1.01-.57-1.93-1.63-2.55-1.74-1.03-4.1-.37-5.07,1.4-.85,1.54-.09,2.91,.5,3.95,.14,.24,.03,.53-.2,.63h-5.95v-5.79c0-1.34-1.44-2.18-2.61-1.51-1.1,.63-1.84,.95-2.68,.49h0c-1.14-.62-1.56-2.17-.91-3.27Z"/>
</svg>