<svg width="32" height="32" viewBox="0 0 32 32" fill="none" xmlns="http://www.w3.org/2000/svg">
<g clip-path="url(#clip0_575_26839)">
<path d="M6.21477 14.2407C6.19111 14.2407 6.16752 14.2382 6.14437 14.2333C6.10121 14.2241 6.06029 14.2065 6.02394 14.1815C5.98758 14.1565 5.95651 14.1245 5.9325 14.0875C5.90849 14.0505 5.89201 14.0091 5.884 13.9657C5.87599 13.9223 5.87661 13.8777 5.88581 13.8346C6.30446 11.8848 7.27731 10.0975 8.68741 8.68738C10.0975 7.27728 11.8849 6.30443 13.8346 5.88578C13.8781 5.87561 13.9232 5.87421 13.9673 5.88168C14.0113 5.88915 14.0535 5.90533 14.0912 5.92928C14.1289 5.95322 14.1615 5.98445 14.187 6.02114C14.2125 6.05783 14.2304 6.09924 14.2397 6.14294C14.2491 6.18664 14.2496 6.23176 14.2412 6.27566C14.2329 6.31956 14.2159 6.36136 14.1912 6.3986C14.1665 6.43585 14.1346 6.46779 14.0974 6.49257C14.0602 6.51735 14.0185 6.53446 13.9746 6.5429C10.253 7.33586 7.33589 10.253 6.54293 13.9746C6.52693 14.0498 6.48562 14.1172 6.4259 14.1656C6.36618 14.2141 6.29166 14.2406 6.21477 14.2407Z" fill="#2255A4"/>
<path d="M18.0949 26.1218C18.0119 26.1217 17.9319 26.0909 17.8703 26.0353C17.8086 25.9797 17.7697 25.9033 17.7611 25.8208C17.7525 25.7382 17.7747 25.6554 17.8235 25.5882C17.8723 25.5211 17.9442 25.4744 18.0253 25.4571C21.7469 24.6642 24.6641 21.747 25.457 18.0254C25.4655 17.9816 25.4826 17.9398 25.5073 17.9026C25.5321 17.8654 25.5641 17.8336 25.6013 17.8089C25.6386 17.7842 25.6804 17.7672 25.7243 17.7588C25.7682 17.7505 25.8133 17.751 25.857 17.7603C25.9007 17.7696 25.9421 17.7876 25.9788 17.8131C26.0155 17.8386 26.0467 17.8711 26.0706 17.9089C26.0946 17.9466 26.1108 17.9887 26.1182 18.0328C26.1257 18.0768 26.1243 18.1219 26.1141 18.1654C25.6955 20.1152 24.7226 21.9025 23.3125 23.3126C21.9024 24.7227 20.1151 25.6956 18.1653 26.1142C18.1422 26.1192 18.1186 26.1218 18.0949 26.1218Z" fill="#2255A4"/>
<path d="M13.9052 26.1218C13.8816 26.1218 13.858 26.1192 13.8348 26.1142C11.8851 25.6956 10.0977 24.7227 8.68762 23.3126C7.27752 21.9025 6.30467 20.1152 5.88602 18.1654C5.87585 18.1219 5.87446 18.0768 5.88192 18.0328C5.88939 17.9887 5.90557 17.9466 5.92952 17.9089C5.95347 17.8711 5.9847 17.8386 6.02138 17.8131C6.05807 17.7876 6.09948 17.7696 6.14318 17.7603C6.18689 17.751 6.23201 17.7505 6.27591 17.7588C6.31981 17.7672 6.3616 17.7842 6.39885 17.8089C6.43609 17.8336 6.46804 17.8654 6.49281 17.9026C6.51759 17.9398 6.5347 17.9816 6.54314 18.0254C7.3361 21.747 10.2532 24.6642 13.9748 25.4571C14.056 25.4744 14.1279 25.5211 14.1767 25.5882C14.2255 25.6554 14.2477 25.7382 14.2391 25.8208C14.2304 25.9033 14.1915 25.9797 14.1299 26.0353C14.0682 26.0909 13.9882 26.1217 13.9052 26.1218Z" fill="#2255A4"/>
<path d="M25.785 14.2407C25.7081 14.2406 25.6336 14.2141 25.5739 14.1656C25.5142 14.1172 25.4729 14.0498 25.4569 13.9746C24.6639 10.253 21.7468 7.33586 18.0252 6.5429C17.9813 6.53446 17.9396 6.51735 17.9024 6.49257C17.8652 6.46779 17.8333 6.43585 17.8086 6.3986C17.7839 6.36136 17.7669 6.31956 17.7586 6.27566C17.7502 6.23176 17.7508 6.18664 17.7601 6.14294C17.7694 6.09924 17.7873 6.05783 17.8128 6.02114C17.8383 5.98445 17.8709 5.95322 17.9086 5.92928C17.9463 5.90533 17.9885 5.88915 18.0325 5.88168C18.0766 5.87421 18.1217 5.87561 18.1652 5.88578C20.1149 6.30443 21.9023 7.27728 23.3124 8.68738C24.7225 10.0975 25.6953 11.8848 26.114 13.8346C26.1326 13.9217 26.1159 14.0126 26.0675 14.0874C26.0191 14.1621 25.943 14.2146 25.8559 14.2333C25.8326 14.2382 25.8089 14.2407 25.785 14.2407Z" fill="#2255A4"/>
<path d="M15.9999 8.61913C14.6602 8.61913 13.5703 7.52921 13.5703 6.18937C13.5703 4.84953 14.6602 3.75977 15.9999 3.75977C17.3396 3.75977 18.4295 4.84969 18.4295 6.18937C18.4295 7.52905 17.3396 8.61913 15.9999 8.61913ZM15.9999 4.43177C15.6522 4.43173 15.3124 4.5348 15.0233 4.72794C14.7342 4.92107 14.5089 5.19559 14.3758 5.51679C14.2428 5.83798 14.2079 6.19142 14.2758 6.53241C14.3436 6.87339 14.511 7.18661 14.7568 7.43245C15.0027 7.67829 15.3159 7.8457 15.6569 7.91352C15.9979 7.98134 16.3513 7.94651 16.6725 7.81345C16.9937 7.68039 17.2682 7.45507 17.4613 7.16598C17.6545 6.8769 17.7575 6.53703 17.7575 6.18937C17.7569 5.72342 17.5715 5.27673 17.242 4.94726C16.9125 4.61778 16.4659 4.4324 15.9999 4.43177Z" fill="#2255A4"/>
<path d="M6.18961 18.4295C4.84993 18.4295 3.76001 17.3396 3.76001 15.9999C3.76001 14.6602 4.84993 13.5703 6.18961 13.5703C7.52929 13.5703 8.61937 14.6602 8.61937 15.9999C8.61937 17.3396 7.52945 18.4295 6.18961 18.4295ZM6.18961 14.2423C5.842 14.2423 5.5022 14.3455 5.21318 14.5386C4.92417 14.7317 4.69892 15.0063 4.56591 15.3274C4.43291 15.6486 4.39813 16.002 4.46596 16.3429C4.5338 16.6838 4.7012 16.997 4.94702 17.2428C5.19283 17.4886 5.506 17.6559 5.84694 17.7238C6.18787 17.7916 6.54126 17.7567 6.86241 17.6237C7.18356 17.4907 7.45805 17.2654 7.65117 16.9764C7.84429 16.6873 7.94737 16.3475 7.94737 15.9999C7.94673 15.5339 7.76133 15.0872 7.43182 14.7577C7.10231 14.4283 6.65559 14.2429 6.18961 14.2423Z" fill="#2255A4"/>
<path d="M25.8104 18.4295C24.4705 18.4295 23.3806 17.3396 23.3806 15.9999C23.3806 14.6602 24.4705 13.5703 25.8104 13.5703C27.1502 13.5703 28.24 14.6602 28.24 15.9999C28.24 17.3396 27.1501 18.4295 25.8104 18.4295ZM25.8104 14.2423C25.4628 14.2423 25.1229 14.3454 24.8339 14.5385C24.5449 14.7316 24.3196 15.0061 24.1866 15.3273C24.0535 15.6485 24.0187 16.0019 24.0865 16.3428C24.1544 16.6837 24.3218 16.9969 24.5676 17.2427C24.8134 17.4885 25.1265 17.6559 25.4675 17.7237C25.8084 17.7916 26.1618 17.7568 26.483 17.6237C26.8041 17.4907 27.0786 17.2654 27.2718 16.9764C27.4649 16.6873 27.568 16.3475 27.568 15.9999C27.5673 15.534 27.382 15.0873 27.0525 14.7578C26.723 14.4283 26.2763 14.2429 25.8104 14.2423Z" fill="#2255A4"/>
<path d="M15.9999 28.2402C14.6602 28.2402 13.5703 27.1503 13.5703 25.8106C13.5703 24.4709 14.6602 23.3809 15.9999 23.3809C17.3396 23.3809 18.4295 24.4708 18.4295 25.8106C18.4295 27.1505 17.3396 28.2402 15.9999 28.2402ZM15.9999 24.0529C15.6523 24.0528 15.3124 24.1559 15.0233 24.349C14.7342 24.5421 14.5089 24.8167 14.3758 25.1378C14.2428 25.459 14.2079 25.8125 14.2757 26.1534C14.3436 26.4944 14.511 26.8076 14.7568 27.0535C15.0026 27.2993 15.3158 27.4668 15.6568 27.5346C15.9977 27.6024 16.3512 27.5676 16.6724 27.4346C16.9936 27.3016 17.2681 27.0763 17.4613 26.7872C17.6544 26.4981 17.7575 26.1583 17.7575 25.8106C17.7569 25.3446 17.5716 24.8979 17.2421 24.5684C16.9126 24.2389 16.4659 24.0535 15.9999 24.0529Z" fill="#2255A4"/>
<path d="M16.0001 12.9919C15.9109 12.9919 15.8255 12.9565 15.7625 12.8935C15.6995 12.8305 15.6641 12.745 15.6641 12.6559V8.28327C15.6641 8.19415 15.6995 8.10869 15.7625 8.04568C15.8255 7.98267 15.9109 7.94727 16.0001 7.94727C16.0892 7.94727 16.1746 7.98267 16.2377 8.04568C16.3007 8.10869 16.3361 8.19415 16.3361 8.28327V12.6559C16.3361 12.745 16.3007 12.8305 16.2377 12.8935C16.1746 12.9565 16.0892 12.9919 16.0001 12.9919Z" fill="#2255A4"/>
<path d="M16.0001 24.0525C15.9109 24.0525 15.8255 24.0171 15.7625 23.954C15.6995 23.891 15.6641 23.8056 15.6641 23.7165V19.3438C15.6641 19.2547 15.6995 19.1692 15.7625 19.1062C15.8255 19.0432 15.9109 19.0078 16.0001 19.0078C16.0892 19.0078 16.1746 19.0432 16.2377 19.1062C16.3007 19.1692 16.3361 19.2547 16.3361 19.3438V23.7165C16.3361 23.8056 16.3007 23.891 16.2377 23.954C16.1746 24.0171 16.0892 24.0525 16.0001 24.0525Z" fill="#2255A4"/>
<path d="M11.9599 16.3361H8.28327C8.19415 16.3361 8.10869 16.3007 8.04568 16.2377C7.98267 16.1746 7.94727 16.0892 7.94727 16.0001C7.94727 15.9109 7.98267 15.8255 8.04568 15.7625C8.10869 15.6995 8.19415 15.6641 8.28327 15.6641H11.9599C12.049 15.6641 12.1345 15.6995 12.1975 15.7625C12.2605 15.8255 12.2959 15.9109 12.2959 16.0001C12.2959 16.0892 12.2605 16.1746 12.1975 16.2377C12.1345 16.3007 12.049 16.3361 11.9599 16.3361Z" fill="#2255A4"/>
<path d="M23.7167 16.3361H20.0401C19.951 16.3361 19.8655 16.3007 19.8025 16.2377C19.7395 16.1746 19.7041 16.0892 19.7041 16.0001C19.7041 15.9109 19.7395 15.8255 19.8025 15.7625C19.8655 15.6995 19.951 15.6641 20.0401 15.6641H23.7167C23.8059 15.6641 23.8913 15.6995 23.9543 15.7625C24.0173 15.8255 24.0527 15.9109 24.0527 16.0001C24.0527 16.0892 24.0173 16.1746 23.9543 16.2377C23.8913 16.3007 23.8059 16.3361 23.7167 16.3361Z" fill="#2255A4"/>
<path d="M18.5695 19.6798H13.4303C12.1449 19.6798 11.0991 18.6341 11.0991 17.3485C11.0991 17.0423 11.1593 16.7392 11.2765 16.4563C11.3936 16.1734 11.5653 15.9164 11.7818 15.7C11.9983 15.4835 12.2553 15.3118 12.5382 15.1946C12.821 15.0775 13.1242 15.0172 13.4303 15.0173H13.6967C13.6777 14.8963 13.6682 14.774 13.6682 14.6515C13.6682 13.3657 14.7142 12.3198 15.9999 12.3198C17.2857 12.3198 18.3316 13.3657 18.3316 14.6515C18.3316 14.774 18.3221 14.8963 18.3031 15.0173H18.5695C19.855 15.0173 20.9007 16.063 20.9007 17.3485C20.9007 17.6546 20.8405 17.9578 20.7233 18.2406C20.6062 18.5235 20.4345 18.7805 20.218 18.997C20.0015 19.2135 19.7445 19.3852 19.4617 19.5024C19.1788 19.6195 18.8757 19.6798 18.5695 19.6798ZM13.4303 15.6893C12.9931 15.6936 12.5752 15.8703 12.2675 16.181C11.9599 16.4917 11.7873 16.9113 11.7873 17.3485C11.7873 17.7858 11.9599 18.2054 12.2675 18.5161C12.5752 18.8268 12.9931 19.0035 13.4303 19.0078H18.5695C19.0068 19.0035 19.4246 18.8268 19.7323 18.5161C20.04 18.2054 20.2126 17.7858 20.2126 17.3485C20.2126 16.9113 20.04 16.4917 19.7323 16.181C19.4246 15.8703 19.0068 15.6936 18.5695 15.6893H17.8686C17.8143 15.6892 17.7608 15.6761 17.7127 15.6509C17.6646 15.6256 17.6233 15.5891 17.5924 15.5445C17.5615 15.4998 17.5419 15.4484 17.5352 15.3945C17.5285 15.3406 17.5351 15.2859 17.5542 15.235C17.6482 14.9839 17.68 14.7138 17.6469 14.4478C17.6137 14.1817 17.5166 13.9276 17.3639 13.7073C17.2111 13.4869 17.0072 13.3069 16.7697 13.1825C16.5322 13.0582 16.268 12.9932 15.9999 12.9932C15.7318 12.9932 15.4677 13.0582 15.2301 13.1825C14.9926 13.3069 14.7887 13.4869 14.636 13.7073C14.4832 13.9276 14.3861 14.1817 14.353 14.4478C14.3198 14.7138 14.3516 14.9839 14.4457 15.235C14.4648 15.2859 14.4713 15.3406 14.4646 15.3945C14.458 15.4484 14.4384 15.4998 14.4075 15.5445C14.3765 15.5891 14.3353 15.6256 14.2872 15.6509C14.2391 15.6761 14.1856 15.6892 14.1313 15.6893H13.4303Z" fill="#2255A4"/>
</g>
<defs>
<clipPath id="clip0_575_26839">
<rect width="32" height="32" fill="white"/>
</clipPath>
</defs>
</svg>
