<svg width="11" height="14" viewBox="0 0 11 14" fill="none" xmlns="http://www.w3.org/2000/svg">
<path d="M2.33333 13.3333C1.68889 13.3333 1.13889 13.1056 0.683333 12.65C0.227778 12.1944 0 11.6444 0 11V2.33333C0 1.68889 0.227778 1.13889 0.683333 0.683333C1.13889 0.227778 1.68889 0 2.33333 0H10.6667V10C10.3889 10 10.1528 10.0972 9.95833 10.2917C9.76389 10.4861 9.66667 10.7222 9.66667 11C9.66667 11.2778 9.76389 11.5139 9.95833 11.7083C10.1528 11.9028 10.3889 12 10.6667 12V13.3333H2.33333ZM1.33333 8.88333C1.48889 8.80555 1.65 8.75 1.81667 8.71667C1.98333 8.68333 2.15556 8.66667 2.33333 8.66667H2.66667V1.33333H2.33333C2.05556 1.33333 1.81944 1.43056 1.625 1.625C1.43056 1.81944 1.33333 2.05556 1.33333 2.33333V8.88333ZM4 8.66667H9.33333V1.33333H4V8.66667ZM2.33333 12H8.55C8.48333 11.8444 8.43056 11.6861 8.39167 11.525C8.35278 11.3639 8.33333 11.1889 8.33333 11C8.33333 10.8222 8.35 10.65 8.38333 10.4833C8.41667 10.3167 8.47222 10.1556 8.55 10H2.33333C2.04444 10 1.80556 10.0972 1.61667 10.2917C1.42778 10.4861 1.33333 10.7222 1.33333 11C1.33333 11.2889 1.42778 11.5278 1.61667 11.7167C1.80556 11.9056 2.04444 12 2.33333 12Z" fill="#1C1B1F"/>
</svg>
