<svg width="11" height="11" viewBox="0 0 11 11" fill="none" xmlns="http://www.w3.org/2000/svg">
<path d="M3.45 4.55C2.92778 4.02778 2.66667 3.4 2.66667 2.66667C2.66667 1.93333 2.92778 1.30556 3.45 0.783333C3.97222 0.261111 4.6 0 5.33333 0C6.06667 0 6.69444 0.261111 7.21667 0.783333C7.73889 1.30556 8 1.93333 8 2.66667C8 3.4 7.73889 4.02778 7.21667 4.55C6.69444 5.07222 6.06667 5.33333 5.33333 5.33333C4.6 5.33333 3.97222 5.07222 3.45 4.55ZM0 10.6667V8.8C0 8.42222 0.0972222 8.075 0.291667 7.75833C0.486111 7.44167 0.744444 7.2 1.06667 7.03333C1.75556 6.68889 2.45556 6.43056 3.16667 6.25833C3.87778 6.08611 4.6 6 5.33333 6C6.06667 6 6.78889 6.08611 7.5 6.25833C8.21111 6.43056 8.91111 6.68889 9.6 7.03333C9.92222 7.2 10.1806 7.44167 10.375 7.75833C10.5694 8.075 10.6667 8.42222 10.6667 8.8V10.6667H0ZM1.33333 9.33333H9.33333V8.8C9.33333 8.67778 9.30278 8.56667 9.24167 8.46667C9.18056 8.36667 9.1 8.28889 9 8.23333C8.4 7.93333 7.79445 7.70833 7.18333 7.55833C6.57222 7.40833 5.95556 7.33333 5.33333 7.33333C4.71111 7.33333 4.09444 7.40833 3.48333 7.55833C2.87222 7.70833 2.26667 7.93333 1.66667 8.23333C1.56667 8.28889 1.48611 8.36667 1.425 8.46667C1.36389 8.56667 1.33333 8.67778 1.33333 8.8V9.33333ZM6.275 3.60833C6.53611 3.34722 6.66667 3.03333 6.66667 2.66667C6.66667 2.3 6.53611 1.98611 6.275 1.725C6.01389 1.46389 5.7 1.33333 5.33333 1.33333C4.96667 1.33333 4.65278 1.46389 4.39167 1.725C4.13056 1.98611 4 2.3 4 2.66667C4 3.03333 4.13056 3.34722 4.39167 3.60833C4.65278 3.86944 4.96667 4 5.33333 4C5.7 4 6.01389 3.86944 6.275 3.60833Z" fill="#17181A"/>
</svg>
