<svg width="32" height="32" viewBox="0 0 32 32" fill="none" xmlns="http://www.w3.org/2000/svg">
<g clip-path="url(#clip0_4218_8430)">
<path d="M28.4419 5.65967L22.9653 0.183105C22.8481 0.065918 22.6892 0 22.5234 0H5.25C4.21606 0 3.375 0.841064 3.375 1.875V30.125C3.375 31.1589 4.21606 32 5.25 32H13.1875C13.5327 32 13.8125 31.7202 13.8125 31.375C13.8125 31.0298 13.5327 30.75 13.1875 30.75H5.25C4.90527 30.75 4.625 30.4697 4.625 30.125V1.875C4.625 1.53027 4.90527 1.25 5.25 1.25H21.8958V4.85425C21.8958 5.88818 22.7368 6.72925 23.7708 6.72925H27.375V30.125C27.375 30.4697 27.0947 30.75 26.75 30.75H18.8125C18.4673 30.75 18.1875 31.0298 18.1875 31.375C18.1875 31.7202 18.4673 32 18.8125 32H26.75C27.7839 32 28.625 31.1589 28.625 30.125V6.10156C28.625 5.93579 28.5591 5.77686 28.4419 5.65967ZM23.1458 4.85425V2.13135L26.4937 5.47925H23.7708C23.4263 5.47925 23.1458 5.19873 23.1458 4.85425Z" fill="#3D4DB6"/>
<path d="M12 5.5H9.5C9.15479 5.5 8.875 5.77979 8.875 6.125C8.875 6.47021 9.15479 6.75 9.5 6.75H12C12.3452 6.75 12.625 6.47021 12.625 6.125C12.625 5.77979 12.3452 5.5 12 5.5Z" fill="#3D4DB6"/>
<path d="M12 8H9.5C9.15479 8 8.875 8.27979 8.875 8.625C8.875 8.97021 9.15479 9.25 9.5 9.25H12C12.3452 9.25 12.625 8.97021 12.625 8.625C12.625 8.27979 12.3452 8 12 8Z" fill="#3D4DB6"/>
<path d="M12 10.5H9.5C9.15479 10.5 8.875 10.7798 8.875 11.125C8.875 11.4702 9.15479 11.75 9.5 11.75H12C12.3452 11.75 12.625 11.4702 12.625 11.125C12.625 10.7798 12.3452 10.5 12 10.5Z" fill="#3D4DB6"/>
<path d="M23.5 28.625C24.6716 28.625 25.625 27.6716 25.625 26.5C25.625 25.3284 24.6716 24.375 23.5 24.375C22.5457 24.375 21.7363 25.0073 21.469 25.875H18.5417V20.1248H21.469C21.7366 20.9927 22.5457 21.6248 23.5 21.6248C24.6716 21.6248 25.625 20.6716 25.625 19.4998C25.625 18.3281 24.6716 17.3748 23.5 17.3748C22.5457 17.3748 21.7363 18.0071 21.469 18.8748H18.5417V13.1248H21.469C21.7366 13.9924 22.5457 14.6248 23.5 14.6248C24.6716 14.6248 25.625 13.6714 25.625 12.4998C25.625 11.3279 24.6716 10.3748 23.5 10.3748C22.5457 10.3748 21.7363 11.0071 21.469 11.8748H18.5417V8.625C18.5417 8.27979 18.262 8 17.9167 8H15.125V3.625C15.125 3.27979 14.8452 3 14.5 3H7C6.65479 3 6.375 3.27979 6.375 3.625V13.625C6.375 13.9702 6.65479 14.25 7 14.25H14.5C14.8452 14.25 15.125 13.9702 15.125 13.625V9.25H17.2917V26.5C17.2917 26.8452 17.5715 27.125 17.9167 27.125H21.469C21.7363 27.9927 22.5457 28.625 23.5 28.625ZM23.5 18.6248C23.9824 18.6248 24.375 19.0173 24.375 19.4998C24.375 19.9824 23.9824 20.3748 23.5 20.3748C23.0176 20.3748 22.625 19.9824 22.625 19.4998C22.625 19.0173 23.0176 18.6248 23.5 18.6248ZM23.5 11.6248C23.9824 11.6248 24.375 12.0173 24.375 12.4998C24.375 12.9822 23.9824 13.3748 23.5 13.3748C23.0176 13.3748 22.625 12.9822 22.625 12.4998C22.625 12.0173 23.0176 11.6248 23.5 11.6248ZM13.875 13H7.625V4.25H13.875V13ZM23.5 25.625C23.9824 25.625 24.375 26.0176 24.375 26.5C24.375 26.9824 23.9824 27.375 23.5 27.375C23.0176 27.375 22.625 26.9824 22.625 26.5C22.625 26.0176 23.0176 25.625 23.5 25.625Z" fill="#3D4DB6"/>
<path d="M16 30.75C15.8357 30.75 15.6743 30.8169 15.5581 30.9331C15.4419 31.0493 15.375 31.2107 15.375 31.375C15.375 31.5393 15.4419 31.7007 15.5581 31.8169C15.6743 31.9331 15.8357 32 16 32C16.1643 32 16.3257 31.9331 16.4419 31.8169C16.5581 31.7007 16.625 31.5393 16.625 31.375C16.625 31.2107 16.5581 31.0493 16.4419 30.9331C16.3257 30.8169 16.1643 30.75 16 30.75Z" fill="#3D4DB6"/>
</g>
<defs>
<clipPath id="clip0_4218_8430">
<rect width="32" height="32" fill="white"/>
</clipPath>
</defs>
</svg>
