<svg width="32" height="31" viewBox="0 0 32 31" fill="none" xmlns="http://www.w3.org/2000/svg">
<g clip-path="url(#clip0_52_549)">
<path d="M16.572 0.110978C24.8656 0.0172159 31.6468 6.64686 31.7406 14.9404C31.8343 23.234 25.2047 30.0153 16.9111 30.1091C8.61753 30.2028 1.83627 23.5732 1.7425 15.2796C1.64874 6.986 8.27839 0.20474 16.572 0.110978ZM16.8912 28.3445C24.2142 28.2617 30.0588 22.2835 29.976 14.9604C29.8932 7.63734 23.915 1.79278 16.5919 1.87557C9.26886 1.95836 3.42431 7.93658 3.5071 15.2596C3.58989 22.5827 9.5681 28.4273 16.8912 28.3445Z" fill="white"/>
<path d="M16.4387 6.58971L25.0616 15.0387L16.632 23.6804L15.3874 22.461L22.6004 15.0665L15.2221 7.83698L16.4387 6.58971Z" fill="white"/>
<path d="M23.8418 15.9317L8.8989 16.1006L8.87898 14.3387L23.8219 14.1698L23.8418 15.9317Z" fill="white"/>
</g>
<defs>
<clipPath id="clip0_52_549">
<rect width="30" height="30" fill="white" transform="translate(32 29.9981) rotate(179.352)"/>
</clipPath>
</defs>
</svg>
