<svg width="20" height="21" viewBox="0 0 20 21" fill="none" xmlns="http://www.w3.org/2000/svg">
<path d="M10.1005 12.4109C10.0528 12.4108 10.006 12.3975 9.96418 12.372L1.14811 6.98496C1.10329 6.95756 1.06588 6.91715 1.03981 6.86796C1.01375 6.81878 1 6.76265 1 6.70546C1 6.64828 1.01375 6.59214 1.03981 6.54296C1.06588 6.49378 1.10329 6.45337 1.14811 6.42596L9.96418 1.03894C10.006 1.01339 10.0528 1 10.1005 1C10.1481 1 10.1949 1.01339 10.2367 1.03894L19.0528 6.42596C19.0976 6.45337 19.135 6.49378 19.1611 6.54296C19.1872 6.59214 19.2009 6.64828 19.2009 6.70546C19.2009 6.76265 19.1872 6.81878 19.1611 6.86796C19.135 6.91715 19.0976 6.95756 19.0528 6.98496L10.2367 12.372C10.1949 12.3975 10.1481 12.4108 10.1005 12.4109ZM1.87804 6.7054L10.1005 11.7297L18.3229 6.705L10.1005 1.68034L1.87804 6.7054Z" fill="#2255A4" stroke="#2255A4" stroke-width="0.3"/>
<path d="M10.1006 16.5027C10.0529 16.5027 10.0061 16.4894 9.96429 16.4638L4.49655 13.123L1.14822 11.0768C1.10336 11.0494 1.06593 11.009 1.03985 10.9598C1.01376 10.9106 1 10.8545 1 10.7973C1 10.74 1.01376 10.6839 1.03985 10.6347C1.06593 10.5855 1.10336 10.5451 1.14822 10.5177L4.49655 8.47155C4.52934 8.45151 4.56533 8.4389 4.60247 8.43444C4.63961 8.42997 4.67717 8.43374 4.71301 8.44554C4.74884 8.45733 4.78226 8.47691 4.81134 8.50316C4.84042 8.52941 4.86459 8.56181 4.88249 8.59853C4.90039 8.63524 4.91165 8.67554 4.91563 8.71713C4.91962 8.75872 4.91625 8.80078 4.90572 8.8409C4.89519 8.88103 4.8777 8.91845 4.85426 8.95101C4.83082 8.98357 4.80188 9.01065 4.76909 9.03068L1.87815 10.7973L4.76944 12.5638L10.1006 15.8219L15.432 12.5638L18.3233 10.7973L15.432 9.03068C15.3658 8.99022 15.3167 8.92195 15.2954 8.8409C15.2741 8.75986 15.2825 8.67267 15.3186 8.59853C15.3548 8.52438 15.4157 8.46935 15.4881 8.44554C15.5605 8.42172 15.6384 8.43108 15.7046 8.47155L19.0529 10.5177C19.0978 10.5451 19.1352 10.5855 19.1613 10.6347C19.1874 10.6839 19.2011 10.74 19.2011 10.7973C19.2011 10.8545 19.1874 10.9106 19.1613 10.9598C19.1352 11.009 19.0978 11.0494 19.0529 11.0768L15.7046 13.123L10.2368 16.4642C10.195 16.4896 10.1481 16.5029 10.1006 16.5027Z" fill="#2255A4" stroke="#2255A4" stroke-width="0.3"/>
<path d="M10.1006 20.5955C10.0529 20.5955 10.0061 20.5821 9.96429 20.5565L1.14822 15.1695C1.10336 15.1421 1.06593 15.1017 1.03985 15.0525C1.01376 15.0033 1 14.9471 1 14.8899C1 14.8327 1.01376 14.7766 1.03985 14.7274C1.06593 14.6782 1.10336 14.6378 1.14822 14.6104L4.49655 12.5642C4.52934 12.5442 4.56533 12.5316 4.60247 12.5271C4.63961 12.5227 4.67717 12.5264 4.71301 12.5382C4.74884 12.55 4.78226 12.5696 4.81134 12.5958C4.84042 12.6221 4.8646 12.6545 4.88249 12.6912C4.90039 12.7279 4.91165 12.7682 4.91563 12.8098C4.91962 12.8514 4.91625 12.8935 4.90572 12.9336C4.89519 12.9737 4.87771 13.0111 4.85426 13.0437C4.83082 13.0763 4.80188 13.1033 4.76909 13.1234L1.8778 14.8899L10.1006 19.9142L18.323 14.8895L15.4317 13.123C15.3655 13.0825 15.3163 13.0142 15.295 12.9332C15.2738 12.8521 15.2821 12.765 15.3183 12.6908C15.3544 12.6167 15.4154 12.5616 15.4878 12.5378C15.5601 12.514 15.638 12.5234 15.7042 12.5638L19.0526 14.61C19.0974 14.6374 19.1348 14.6778 19.1609 14.727C19.187 14.7762 19.2008 14.8323 19.2008 14.8895C19.2008 14.9468 19.187 15.0029 19.1609 15.0521C19.1348 15.1013 19.0974 15.1417 19.0526 15.1691L10.2365 20.5561C10.1948 20.5818 10.1481 20.5953 10.1006 20.5955Z" fill="#2255A4" stroke="#2255A4" stroke-width="0.3"/>
</svg>
