<svg width="32" height="32" viewBox="0 0 32 32" fill="none" xmlns="http://www.w3.org/2000/svg">
<g clip-path="url(#clip0_4212_8290)">
<path d="M10.2998 11.4302C11.4714 11.4302 12.4248 10.4768 12.4248 9.30516C12.4248 8.39793 11.8533 7.6223 11.0515 7.31786C11.3249 5.83959 12.0283 4.50073 13.102 3.427C15.5615 0.96753 19.4641 0.548586 22.382 2.43091C22.6721 2.61792 23.059 2.53442 23.2461 2.24438C23.4333 1.95434 23.3498 1.56763 23.0598 1.38037C21.4177 0.321292 19.4367 -0.153561 17.4822 0.0437045C15.4993 0.243655 13.6299 1.13135 12.218 2.54297C10.9272 3.83373 10.0942 5.45312 9.79589 7.24095C8.8667 7.46776 8.1748 8.30687 8.1748 9.30516C8.1748 10.4768 9.12793 11.4302 10.2998 11.4302ZM10.2998 8.43016C10.7822 8.43016 11.1748 8.82249 11.1748 9.30516C11.1748 9.78758 10.7822 10.1802 10.2998 10.1802C9.81713 10.1802 9.4248 9.78758 9.4248 9.30516C9.4248 8.82249 9.81713 8.43016 10.2998 8.43016Z" fill="#3D4DB6"/>
<path d="M14.1819 14.8349C13.8965 14.6406 13.5076 14.7146 13.3135 15C13.1192 15.2854 13.1932 15.674 13.4786 15.8684C14.9578 16.875 16.6577 17.3674 18.3496 17.3674C20.5916 17.3674 22.8191 16.5024 24.4981 14.8237C25.7881 13.5337 26.6213 11.9136 26.9199 10.126C27.8494 9.89916 28.5415 9.05981 28.5415 8.06152C28.5415 6.88989 27.5881 5.93652 26.4165 5.93652C25.2446 5.93652 24.2915 6.88989 24.2915 8.06152C24.2915 8.96874 24.863 9.74462 25.665 10.0488C25.3914 11.5273 24.6873 12.8667 23.6143 13.9397C21.0923 16.4616 17.1253 16.8381 14.1819 14.8349ZM26.4165 7.18652C26.8989 7.18652 27.2915 7.5791 27.2915 8.06152C27.2915 8.54394 26.8989 8.93652 26.4165 8.93652C25.9341 8.93652 25.5415 8.54394 25.5415 8.06152C25.5415 7.5791 25.9341 7.18652 26.4165 7.18652Z" fill="#3D4DB6"/>
<path d="M18.0461 13.6269C18.1428 13.6828 18.2507 13.7107 18.3586 13.7107C18.4665 13.7107 18.5745 13.6828 18.6711 13.6269L22.4836 11.4258C22.677 11.3142 22.7961 11.1076 22.7961 10.8845V6.48217C22.7961 6.25878 22.677 6.05248 22.4836 5.94091L18.6711 3.73975C18.4778 3.62793 18.2395 3.62793 18.0461 3.73975L14.2334 5.94091C14.04 6.05248 13.9209 6.25878 13.9209 6.48217V10.8845C13.9209 11.1076 14.04 11.3142 14.2334 11.4258L18.0461 13.6269ZM15.1711 7.56469L17.7336 9.04418V12.0032L15.1711 10.5237V7.56469ZM18.9836 12.0032V9.04418L21.5461 7.56469V10.5237L18.9836 12.0032ZM18.3586 5.00268L20.9211 6.48217L18.3586 7.96166L15.7961 6.48217L18.3586 5.00268Z" fill="#3D4DB6"/>
<path d="M31.3136 19.3691C31.2756 18.6882 30.9399 18.0649 30.3923 17.6587C29.5063 17.0012 28.277 17.0698 27.4694 17.8217L22.718 22.2468C22.7092 21.2873 22.0705 20.4384 21.1269 20.1767L15.5029 18.6162C13.5317 18.0693 11.4524 18.2988 9.64817 19.2622L5.59667 21.4257L5.04101 20.8701C4.65917 20.4882 4.03808 20.4882 3.65624 20.8701L0.808105 23.7182C0.563965 23.9624 0.563965 24.3581 0.808105 24.6022C1.05225 24.8464 1.448 24.8464 1.69189 24.6022L4.34862 21.9455L11.103 28.7001L8.8701 30.933C8.6262 31.1772 8.6262 31.5729 8.8701 31.8168C8.99217 31.9389 9.15208 31.9999 9.31199 31.9999C9.4719 31.9999 9.63206 31.9389 9.75413 31.8168L12.1784 29.3923C12.3884 29.1823 12.4822 28.9001 12.4612 28.6249H19.427C21.4609 28.6249 23.4011 27.8618 24.8898 26.4758L30.5881 21.1711C31.0871 20.7067 31.3515 20.0498 31.3136 19.3691ZM29.7363 20.2563L24.038 25.5607C22.7814 26.7307 21.1438 27.3749 19.427 27.3749H11.583C11.571 27.3749 11.5593 27.3759 11.5476 27.3766L6.52049 22.3496L10.2368 20.3652C11.7568 19.5534 13.5083 19.3603 15.1687 19.8208L20.7927 21.3813C21.2265 21.5017 21.5087 21.914 21.4638 22.3618C21.4167 22.8354 21.0222 23.1923 20.5461 23.1923H13.3965C13.0515 23.1923 12.7717 23.4721 12.7715 23.8171C12.7715 24.1621 13.051 24.4421 13.396 24.4423L17.778 24.4465H20.5209C21.5976 24.4465 22.6245 24.0424 23.4123 23.3085L28.3215 18.7368C28.6877 18.3955 29.2455 18.3645 29.6474 18.6628C29.8959 18.8469 30.0483 19.1298 30.0654 19.4387C30.0827 19.7475 29.9628 20.0454 29.7363 20.2563Z" fill="#3D4DB6"/>
<path d="M24.7832 4.44287C24.9478 4.44287 25.1089 4.37597 25.2251 4.25976C25.3416 4.14282 25.4082 3.98218 25.4082 3.81714C25.4082 3.65283 25.3416 3.49219 25.2251 3.37524C25.1089 3.25903 24.9478 3.19287 24.7832 3.19287C24.6189 3.19287 24.4578 3.25903 24.3416 3.37524C24.2251 3.4917 24.1582 3.65283 24.1582 3.81714C24.1582 3.98218 24.2251 4.14355 24.3416 4.25976C24.4578 4.37597 24.6189 4.44287 24.7832 4.44287Z" fill="#3D4DB6"/>
<path d="M11.8154 12.7649C11.6504 12.7649 11.4897 12.8315 11.3735 12.948C11.2566 13.0642 11.1904 13.2253 11.1904 13.3899C11.1904 13.5542 11.2566 13.7155 11.3735 13.8315C11.4897 13.948 11.6504 14.0149 11.8154 14.0149C11.9797 14.0149 12.1404 13.948 12.2573 13.8315C12.3735 13.7155 12.4404 13.5542 12.4404 13.3899C12.4404 13.2253 12.3735 13.0642 12.2573 12.948C12.1411 12.8318 11.9797 12.7649 11.8154 12.7649Z" fill="#3D4DB6"/>
</g>
<defs>
<clipPath id="clip0_4212_8290">
<rect width="32" height="32" fill="white"/>
</clipPath>
</defs>
</svg>
