<svg width="25" height="24" viewBox="0 0 25 24" fill="none" xmlns="http://www.w3.org/2000/svg">
<g clip-path="url(#clip0_575_27105)">
<path d="M5.29671 7.15087C4.18734 7.15087 3.28467 6.26995 3.28467 5.18719C3.28467 4.10443 4.18734 3.22363 5.29671 3.22363C6.40608 3.22363 7.30888 4.10455 7.30888 5.18719C7.30888 6.26983 6.40621 7.15087 5.29671 7.15087ZM5.29671 3.72763C5.00088 3.72763 4.71169 3.81324 4.46572 3.97364C4.21975 4.13404 4.02804 4.36202 3.91483 4.62874C3.80163 4.89547 3.77202 5.18897 3.82974 5.47213C3.88746 5.75528 4.02993 6.01537 4.23912 6.2195C4.44831 6.42364 4.71484 6.56265 5.00499 6.61896C5.29513 6.67527 5.59588 6.64634 5.86918 6.53585C6.14249 6.42535 6.37608 6.23824 6.54042 5.99818C6.70475 5.75812 6.79246 5.47589 6.79243 5.18719C6.79201 4.8002 6.63428 4.42918 6.35387 4.15554C6.07346 3.88191 5.69326 3.72801 5.29671 3.72763Z" fill="#2255A4" stroke="#2255A4" stroke-width="0.3"/>
<path d="M12.6912 7.15087C11.5817 7.15087 10.6792 6.26995 10.6792 5.18719C10.6792 4.10443 11.5817 3.22363 12.6912 3.22363C13.8007 3.22363 14.7033 4.10455 14.7033 5.18719C14.7033 6.26983 13.8007 7.15087 12.6912 7.15087ZM12.6912 3.72763C12.3954 3.72761 12.1062 3.8132 11.8602 3.97358C11.6142 4.13397 11.4225 4.36194 11.3093 4.62866C11.1961 4.89539 11.1664 5.18889 11.2241 5.47205C11.2818 5.75521 11.4243 6.01532 11.6335 6.21946C11.8427 6.42361 12.1092 6.56263 12.3993 6.61895C12.6895 6.67527 12.9903 6.64635 13.2636 6.53586C13.5369 6.42536 13.7705 6.23825 13.9348 5.99819C14.0992 5.75813 14.1869 5.4759 14.1868 5.18719C14.1864 4.80022 14.0287 4.42922 13.7483 4.15558C13.4679 3.88195 13.0878 3.72805 12.6912 3.72763Z" fill="#2255A4" stroke="#2255A4" stroke-width="0.3"/>
<path d="M20.0859 7.15087C18.9764 7.15087 18.0737 6.26995 18.0737 5.18719C18.0737 4.10443 18.9764 3.22363 20.0859 3.22363C21.1954 3.22363 22.0979 4.10455 22.0979 5.18719C22.0979 6.26983 21.1953 7.15087 20.0859 7.15087ZM20.0859 3.72763C19.7901 3.72761 19.5009 3.8132 19.2549 3.97358C19.0089 4.13397 18.8172 4.36194 18.7039 4.62866C18.5907 4.89539 18.5611 5.18889 18.6188 5.47205C18.6765 5.75521 18.819 6.01532 19.0281 6.21946C19.2373 6.42361 19.5039 6.56263 19.794 6.61895C20.0842 6.67527 20.3849 6.64635 20.6582 6.53586C20.9315 6.42536 21.1651 6.23825 21.3295 5.99819C21.4938 5.75813 21.5815 5.4759 21.5815 5.18719C21.581 4.80023 21.4233 4.42924 21.1429 4.15562C20.8626 3.88199 20.4824 3.72808 20.0859 3.72763Z" fill="#2255A4" stroke="#2255A4" stroke-width="0.3"/>
<path d="M5.29671 13.9633C4.18734 13.9633 3.28467 13.0825 3.28467 11.9997C3.28467 10.9169 4.18734 10.0361 5.29671 10.0361C6.40608 10.0361 7.30888 10.9169 7.30888 11.9997C7.30888 13.0825 6.40621 13.9633 5.29671 13.9633ZM5.29671 10.5401C5.00091 10.5402 4.71177 10.6258 4.46583 10.7862C4.2199 10.9466 4.02823 11.1745 3.91505 11.4412C3.80187 11.7079 3.77227 12.0014 3.82999 12.2845C3.88771 12.5676 4.03016 12.8277 4.23933 13.0318C4.4485 13.2359 4.71499 13.3749 5.0051 13.4312C5.29522 13.4875 5.59593 13.4586 5.8692 13.3481C6.14248 13.2377 6.37605 13.0506 6.54039 12.8106C6.70472 12.5705 6.79243 12.2884 6.79243 11.9997C6.79201 11.6127 6.63428 11.2417 6.35387 10.968C6.07346 10.6944 5.69326 10.5405 5.29671 10.5401Z" fill="#2255A4" stroke="#2255A4" stroke-width="0.3"/>
<path d="M12.6912 13.9633C11.5817 13.9633 10.6792 13.0825 10.6792 11.9997C10.6792 10.9169 11.5817 10.0361 12.6912 10.0361C13.8007 10.0361 14.7033 10.9169 14.7033 11.9997C14.7033 13.0825 13.8007 13.9633 12.6912 13.9633ZM12.6912 10.5401C12.3954 10.5401 12.1063 10.6257 11.8603 10.7861C11.6144 10.9465 11.4227 11.1744 11.3095 11.4411C11.1963 11.7078 11.1667 12.0013 11.2244 12.2844C11.2821 12.5676 11.4245 12.8276 11.6337 13.0318C11.8429 13.2359 12.1093 13.3749 12.3995 13.4312C12.6896 13.4875 12.9903 13.4586 13.2636 13.3482C13.5369 13.2377 13.7704 13.0506 13.9348 12.8106C14.0991 12.5706 14.1868 12.2884 14.1868 11.9997C14.1864 11.6127 14.0287 11.2417 13.7483 10.9681C13.4679 10.6945 13.0878 10.5405 12.6912 10.5401Z" fill="#2255A4" stroke="#2255A4" stroke-width="0.3"/>
<path d="M20.0859 13.9633C18.9764 13.9633 18.0737 13.0825 18.0737 11.9997C18.0737 10.9169 18.9764 10.0361 20.0859 10.0361C21.1954 10.0361 22.0979 10.9169 22.0979 11.9997C22.0979 13.0825 21.1953 13.9633 20.0859 13.9633ZM20.0859 10.5401C19.7901 10.5401 19.5009 10.6257 19.255 10.7861C19.009 10.9465 18.8173 11.1744 18.7041 11.4411C18.5909 11.7078 18.5613 12.0013 18.619 12.2844C18.6767 12.5676 18.8192 12.8276 19.0283 13.0318C19.2375 13.2359 19.504 13.3749 19.7941 13.4312C20.0842 13.4875 20.385 13.4586 20.6582 13.3482C20.9315 13.2377 21.1651 13.0506 21.3294 12.8106C21.4938 12.5706 21.5815 12.2884 21.5815 11.9997C21.581 11.6127 21.4233 11.2417 21.1429 10.9681C20.8626 10.6945 20.4824 10.5406 20.0859 10.5401Z" fill="#2255A4" stroke="#2255A4" stroke-width="0.3"/>
<path d="M5.29671 20.7759C4.18734 20.7759 3.28467 19.8956 3.28467 18.8123C3.28467 17.7291 4.18734 16.8486 5.29671 16.8486C6.40608 16.8486 7.30888 17.7296 7.30888 18.8123C7.30888 19.8951 6.40621 20.7759 5.29671 20.7759ZM5.29671 17.3526C5.00089 17.3526 4.7117 17.4382 4.46573 17.5986C4.21976 17.759 4.02805 17.987 3.91484 18.2537C3.80164 18.5204 3.77202 18.8139 3.82973 19.0971C3.88744 19.3802 4.0299 19.6403 4.23908 19.8445C4.44826 20.0486 4.71477 20.1876 5.00491 20.2439C5.29505 20.3003 5.59579 20.2714 5.8691 20.1609C6.14241 20.0504 6.37601 19.8633 6.54036 19.6233C6.70471 19.3832 6.79243 19.101 6.79243 18.8123C6.79201 18.4253 6.63429 18.0543 6.35388 17.7806C6.07347 17.507 5.69327 17.353 5.29671 17.3526Z" fill="#2255A4" stroke="#2255A4" stroke-width="0.3"/>
<path d="M12.6912 20.7759C11.5817 20.7759 10.6792 19.895 10.6792 18.8123C10.6792 17.7297 11.5817 16.8486 12.6912 16.8486C13.8007 16.8486 14.7033 17.7296 14.7033 18.8123C14.7033 19.8951 13.8007 20.7759 12.6912 20.7759ZM12.6912 17.3526C12.3954 17.3526 12.1062 17.4382 11.8602 17.5986C11.6142 17.759 11.4225 17.9869 11.3093 18.2536C11.1961 18.5204 11.1664 18.8139 11.2241 19.097C11.2818 19.3802 11.4243 19.6403 11.6334 19.8444C11.8426 20.0486 12.1091 20.1876 12.3993 20.2439C12.6894 20.3003 12.9902 20.2714 13.2635 20.1609C13.5368 20.0504 13.7704 19.8633 13.9348 19.6233C14.0991 19.3832 14.1868 19.101 14.1868 18.8123C14.1864 18.4253 14.0287 18.0543 13.7483 17.7807C13.4679 17.507 13.0878 17.3531 12.6912 17.3526Z" fill="#2255A4" stroke="#2255A4" stroke-width="0.3"/>
<path d="M20.0859 20.7759C18.9764 20.7759 18.0737 19.895 18.0737 18.8123C18.0737 17.7297 18.9764 16.8486 20.0859 16.8486C21.1954 16.8486 22.0979 17.7296 22.0979 18.8123C22.0979 19.8951 21.1953 20.7759 20.0859 20.7759ZM20.0859 17.3526C19.7901 17.3526 19.5009 17.4382 19.2549 17.5986C19.0089 17.759 18.8172 17.9869 18.7039 18.2536C18.5907 18.5204 18.5611 18.8139 18.6188 19.097C18.6765 19.3802 18.8189 19.6403 19.0281 19.8444C19.2373 20.0486 19.5038 20.1876 19.7939 20.2439C20.0841 20.3003 20.3848 20.2714 20.6581 20.1609C20.9314 20.0504 21.1651 19.8633 21.3294 19.6233C21.4938 19.3832 21.5815 19.101 21.5815 18.8123C21.581 18.4253 21.4233 18.0543 21.1429 17.7807C20.8626 17.5071 20.4824 17.3531 20.0859 17.3526Z" fill="#2255A4" stroke="#2255A4" stroke-width="0.3"/>
<path d="M10.9374 12.252H7.0507C6.98222 12.252 6.91654 12.2255 6.86811 12.1782C6.81969 12.131 6.79248 12.0669 6.79248 12C6.79248 11.9332 6.81969 11.8691 6.86811 11.8219C6.91654 11.7746 6.98222 11.748 7.0507 11.748H10.9374C11.0059 11.748 11.0716 11.7746 11.12 11.8219C11.1685 11.8691 11.1957 11.9332 11.1957 12C11.1957 12.0669 11.1685 12.131 11.12 12.1782C11.0716 12.2255 11.0059 12.252 10.9374 12.252Z" fill="#2255A4" stroke="#2255A4" stroke-width="0.3"/>
<path d="M10.9374 19.0665H7.0507C6.98222 19.0665 6.91654 19.04 6.86811 18.9927C6.81969 18.9454 6.79248 18.8813 6.79248 18.8145C6.79248 18.7477 6.81969 18.6836 6.86811 18.6363C6.91654 18.589 6.98222 18.5625 7.0507 18.5625H10.9374C11.0059 18.5625 11.0716 18.589 11.12 18.6363C11.1685 18.6836 11.1957 18.7477 11.1957 18.8145C11.1957 18.8813 11.1685 18.9454 11.12 18.9927C11.0716 19.04 11.0059 19.0665 10.9374 19.0665Z" fill="#2255A4" stroke="#2255A4" stroke-width="0.3"/>
<path d="M18.332 19.0665H14.4452C14.3767 19.0665 14.3111 19.04 14.2626 18.9927C14.2142 18.9454 14.187 18.8813 14.187 18.8145C14.187 18.7477 14.2142 18.6836 14.2626 18.6363C14.3111 18.589 14.3767 18.5625 14.4452 18.5625H18.332C18.4005 18.5625 18.4661 18.589 18.5146 18.6363C18.563 18.6836 18.5902 18.7477 18.5902 18.8145C18.5902 18.8813 18.563 18.9454 18.5146 18.9927C18.4661 19.04 18.4005 19.0665 18.332 19.0665Z" fill="#2255A4" stroke="#2255A4" stroke-width="0.3"/>
<path d="M5.2968 17.3536C5.22831 17.3536 5.16263 17.3271 5.11421 17.2798C5.06578 17.2325 5.03857 17.1684 5.03857 17.1016V13.712C5.03857 13.6451 5.06578 13.581 5.11421 13.5338C5.16263 13.4865 5.22831 13.46 5.2968 13.46C5.36528 13.46 5.43096 13.4865 5.47939 13.5338C5.52781 13.581 5.55502 13.6451 5.55502 13.712V17.1016C5.55502 17.1684 5.52781 17.2325 5.47939 17.2798C5.43096 17.3271 5.36528 17.3536 5.2968 17.3536Z" fill="#2255A4" stroke="#2255A4" stroke-width="0.3"/>
<path d="M18.332 5.43955H14.4452C14.3767 5.43955 14.3111 5.413 14.2626 5.36574C14.2142 5.31848 14.187 5.25438 14.187 5.18755C14.187 5.12071 14.2142 5.05662 14.2626 5.00936C14.3111 4.9621 14.3767 4.93555 14.4452 4.93555H18.332C18.4005 4.93555 18.4661 4.9621 18.5146 5.00936C18.563 5.05662 18.5902 5.12071 18.5902 5.18755C18.5902 5.25438 18.563 5.31848 18.5146 5.36574C18.4661 5.413 18.4005 5.43955 18.332 5.43955Z" fill="#2255A4" stroke="#2255A4" stroke-width="0.3"/>
<path d="M10.9374 5.43955H7.0507C6.98222 5.43955 6.91654 5.413 6.86811 5.36574C6.81969 5.31848 6.79248 5.25438 6.79248 5.18755C6.79248 5.12071 6.81969 5.05662 6.86811 5.00936C6.91654 4.9621 6.98222 4.93555 7.0507 4.93555H10.9374C11.0059 4.93555 11.0716 4.9621 11.12 5.00936C11.1685 5.05662 11.1957 5.12071 11.1957 5.18755C11.1957 5.25438 11.1685 5.31848 11.12 5.36574C11.0716 5.413 11.0059 5.43955 10.9374 5.43955Z" fill="#2255A4" stroke="#2255A4" stroke-width="0.3"/>
<path d="M13.9665 11.0777C13.9148 11.0777 13.8643 11.0626 13.8215 11.0342C13.7787 11.0059 13.7456 10.9657 13.7265 10.9188C13.7074 10.8719 13.7032 10.8205 13.7144 10.7712C13.7255 10.7219 13.7516 10.6771 13.7892 10.6424L18.6332 6.17953C18.6831 6.13435 18.7493 6.11024 18.8174 6.11244C18.8854 6.11465 18.9498 6.143 18.9966 6.19132C19.0433 6.23964 19.0686 6.30401 19.0669 6.37044C19.0653 6.43687 19.0368 6.49997 18.9877 6.54601L14.1438 11.0089C14.0959 11.0532 14.0325 11.0778 13.9665 11.0777Z" fill="#2255A4" stroke="#2255A4" stroke-width="0.3"/>
</g>
<defs>
<clipPath id="clip0_575_27105">
<rect width="24.5926" height="24" fill="white" transform="translate(0.39502)"/>
</clipPath>
</defs>
</svg>
