<?xml version="1.0" encoding="utf-8"?>
<svg width="67" height="65" viewBox="7.468 7.961 51.243 49.488" fill="none" xmlns="http://www.w3.org/2000/svg">
  <path d="M12.8848 29.3263C12.8358 29.3262 12.7869 29.3213 12.7389 29.3116C12.6494 29.2933 12.5646 29.2583 12.4892 29.2085C12.4138 29.1588 12.3494 29.0952 12.2996 29.0216C12.2499 28.9479 12.2157 28.8656 12.1991 28.7792C12.1825 28.6929 12.1837 28.6043 12.2028 28.5184C13.0708 24.6397 15.0877 21.0841 18.0112 18.2789C20.9346 15.4737 24.6402 13.5384 28.6825 12.7055C28.7727 12.6853 28.8662 12.6825 28.9575 12.6974C29.0489 12.7122 29.1362 12.7444 29.2144 12.7921C29.2926 12.8397 29.3601 12.9018 29.413 12.9748C29.4659 13.0478 29.5031 13.1302 29.5224 13.2171C29.5417 13.3041 29.5427 13.3938 29.5255 13.4812C29.5082 13.5685 29.4729 13.6516 29.4217 13.7257C29.3705 13.7998 29.3044 13.8634 29.2274 13.9127C29.1503 13.962 29.0637 13.996 28.9727 14.0128C21.257 15.5903 15.2092 21.3934 13.5652 28.7969C13.532 28.9465 13.4464 29.0807 13.3226 29.177C13.1987 29.2734 13.0442 29.326 12.8848 29.3263Z" fill="#040F81" stroke="#040F81" stroke-width="0.3"/>
  <path d="M37.5143 52.9607C37.3422 52.9606 37.1763 52.8993 37.0485 52.7887C36.9207 52.6782 36.8401 52.5261 36.8221 52.3619C36.8042 52.1977 36.8503 52.033 36.9514 51.8994C37.0526 51.7658 37.2017 51.6729 37.37 51.6385C45.0857 50.0611 51.1335 44.2579 52.7775 36.8544C52.795 36.7671 52.8305 36.684 52.8818 36.61C52.9332 36.5361 52.9994 36.4727 53.0767 36.4236C53.1539 36.3744 53.2405 36.3406 53.3315 36.324C53.4225 36.3074 53.5161 36.3084 53.6067 36.3269C53.6973 36.3455 53.7832 36.3811 53.8592 36.4319C53.9353 36.4826 54 36.5474 54.0497 36.6225C54.0993 36.6975 54.1329 36.7813 54.1484 36.869C54.1638 36.9566 54.1609 37.0463 54.1398 37.1329C53.2719 41.0116 51.255 44.5672 48.3315 47.3724C45.408 50.1776 41.7025 52.1129 37.6602 52.9458C37.6123 52.9557 37.5633 52.9607 37.5143 52.9607Z" fill="#040F81" stroke="#040F81" stroke-width="0.3"/>
  <path d="M28.8285 52.9607C28.7794 52.9607 28.7305 52.9557 28.6825 52.9458C24.6402 52.1129 20.9347 50.1776 18.0112 47.3724C15.0878 44.5672 13.0708 41.0116 12.2029 37.1329C12.1818 37.0463 12.1789 36.9566 12.1944 36.869C12.2099 36.7813 12.2434 36.6975 12.293 36.6225C12.3427 36.5474 12.4074 36.4826 12.4835 36.4319C12.5596 36.3811 12.6454 36.3455 12.736 36.3269C12.8266 36.3084 12.9202 36.3074 13.0112 36.324C13.1022 36.3406 13.1889 36.3744 13.2661 36.4236C13.3433 36.4727 13.4095 36.5361 13.4609 36.61C13.5122 36.684 13.5477 36.7671 13.5652 36.8544C15.2092 44.2579 21.257 50.0611 28.9728 51.6385C29.1411 51.6729 29.2901 51.7658 29.3913 51.8994C29.4924 52.033 29.5385 52.1977 29.5206 52.3619C29.5026 52.5261 29.422 52.6782 29.2942 52.7887C29.1664 52.8993 29.0005 52.9606 28.8285 52.9607Z" fill="#040F81" stroke="#040F81" stroke-width="0.3"/>
  <path d="M53.4585 29.3263C53.2991 29.326 53.1446 29.2734 53.0208 29.177C52.897 29.0807 52.8113 28.9465 52.7782 28.7969C51.1342 21.3934 45.0863 15.5903 37.3706 14.0128C37.2797 13.996 37.1931 13.962 37.116 13.9127C37.0389 13.8634 36.9728 13.7998 36.9217 13.7257C36.8705 13.6516 36.8352 13.5685 36.8179 13.4812C36.8006 13.3938 36.8017 13.3041 36.821 13.2171C36.8403 13.1302 36.8774 13.0478 36.9303 12.9748C36.9832 12.9018 37.0507 12.8397 37.129 12.7921C37.2072 12.7444 37.2945 12.7122 37.3858 12.6974C37.4772 12.6825 37.5707 12.6853 37.6609 12.7055C41.7032 13.5384 45.4087 15.4737 48.3322 18.2789C51.2556 21.0841 53.2726 24.6397 54.1405 28.5184C54.1791 28.6917 54.1444 28.8726 54.0441 29.0213C53.9438 29.17 53.786 29.2745 53.6055 29.3116C53.5571 29.3214 53.5079 29.3263 53.4585 29.3263Z" fill="#040F81" stroke="#040F81" stroke-width="0.3"/>
  <path d="M33.1719 18.143C30.3944 18.143 28.1348 15.9748 28.1348 13.3094C28.1348 10.644 30.3944 8.47607 33.1719 8.47607C35.9493 8.47607 38.209 10.6443 38.209 13.3094C38.209 15.9745 35.9493 18.143 33.1719 18.143ZM33.1719 9.81291C32.4511 9.81285 31.7465 10.0179 31.1471 10.4021C30.5478 10.7863 30.0806 11.3324 29.8048 11.9714C29.5289 12.6104 29.4567 13.3135 29.5973 13.9918C29.7379 14.6701 30.085 15.2932 30.5947 15.7823C31.1044 16.2714 31.7537 16.6044 32.4607 16.7393C33.1676 16.8742 33.9004 16.8049 34.5663 16.5402C35.2322 16.2755 35.8013 15.8273 36.2017 15.2522C36.6022 14.6771 36.8158 14.001 36.8158 13.3094C36.8144 12.3824 36.4301 11.4938 35.747 10.8384C35.064 10.183 34.1379 9.81418 33.1719 9.81291Z" fill="#040F81" stroke="#040F81" stroke-width="0.3"/>
  <path d="M12.832 37.659C10.0546 37.659 7.79492 35.4908 7.79492 32.8257C7.79492 30.1607 10.0546 27.9924 12.832 27.9924C15.6095 27.9924 17.8695 30.1607 17.8695 32.8257C17.8695 35.4908 15.6098 37.659 12.832 37.659ZM12.832 29.3293C12.1113 29.3293 11.4069 29.5344 10.8077 29.9187C10.2085 30.3029 9.74149 30.849 9.46574 31.4879C9.18999 32.1268 9.11788 32.8298 9.25852 33.5081C9.39915 34.1863 9.74623 34.8093 10.2558 35.2982C10.7655 35.7872 11.4148 36.1202 12.1216 36.255C12.8284 36.3899 13.5611 36.3207 14.2269 36.056C14.8927 35.7914 15.4618 35.3432 15.8622 34.7682C16.2626 34.1933 16.4763 33.5173 16.4763 32.8257C16.4749 31.8987 16.0906 31.0101 15.4074 30.3546C14.7243 29.6992 13.7981 29.3304 12.832 29.3293Z" fill="#040F81" stroke="#040F81" stroke-width="0.3"/>
  <path d="M53.5111 37.659C50.7333 37.659 48.4736 35.4908 48.4736 32.8257C48.4736 30.1607 50.7333 27.9924 53.5111 27.9924C56.2889 27.9924 58.5482 30.1607 58.5482 32.8257C58.5482 35.4908 56.2885 37.659 53.5111 37.659ZM53.5111 29.3293C52.7904 29.3293 52.0859 29.5343 51.4866 29.9185C50.8874 30.3027 50.4203 30.8488 50.1445 31.4877C49.8687 32.1266 49.7966 32.8296 49.9372 33.5079C50.0778 34.1861 50.4248 34.8091 50.9344 35.2981C51.4441 35.7871 52.0933 36.1201 52.8002 36.255C53.507 36.3899 54.2397 36.3207 54.9055 36.0561C55.5714 35.7914 56.1405 35.3433 56.5409 34.7683C56.9413 34.1933 57.155 33.5173 57.155 32.8257C57.1536 31.8988 56.7693 31.0102 56.0862 30.3548C55.4032 29.6993 54.4771 29.3305 53.5111 29.3293Z" fill="#040F81" stroke="#040F81" stroke-width="0.3"/>
  <path d="M33.1719 57.1747C30.3944 57.1747 28.1348 55.0065 28.1348 52.3414C28.1348 49.6764 30.3944 47.5078 33.1719 47.5078C35.9493 47.5078 38.209 49.676 38.209 52.3414C38.209 55.0068 35.9493 57.1747 33.1719 57.1747ZM33.1719 48.8447C32.4511 48.8446 31.7465 49.0496 31.1472 49.4338C30.5478 49.818 30.0807 50.3641 29.8048 51.0031C29.5289 51.642 29.4567 52.3451 29.5973 53.0234C29.7379 53.7018 30.0849 54.3249 30.5946 54.8139C31.1042 55.303 31.7535 55.6361 32.4605 55.771C33.1674 55.906 33.9001 55.8367 34.566 55.5721C35.232 55.3074 35.8011 54.8592 36.2016 54.2842C36.602 53.7091 36.8158 53.033 36.8158 52.3414C36.8145 51.4144 36.4302 50.5258 35.7472 49.8702C35.0641 49.2147 34.1379 48.8459 33.1719 48.8447Z" fill="#040F81" stroke="#040F81" stroke-width="0.3"/>
  <path d="M33.1712 26.8414C32.9865 26.8414 32.8093 26.771 32.6786 26.6456C32.548 26.5203 32.4746 26.3503 32.4746 26.173V17.4743C32.4746 17.2971 32.548 17.127 32.6786 17.0017C32.8093 16.8763 32.9865 16.8059 33.1712 16.8059C33.356 16.8059 33.5331 16.8763 33.6638 17.0017C33.7944 17.127 33.8678 17.2971 33.8678 17.4743V26.173C33.8678 26.3503 33.7944 26.5203 33.6638 26.6456C33.5331 26.771 33.356 26.8414 33.1712 26.8414Z" fill="#040F81" stroke="#040F81" stroke-width="0.3"/>
  <path d="M33.1712 48.8451C32.9865 48.8451 32.8093 48.7747 32.6786 48.6493C32.548 48.524 32.4746 48.3539 32.4746 48.1767V39.478C32.4746 39.3007 32.548 39.1307 32.6786 39.0053C32.8093 38.88 32.9865 38.8096 33.1712 38.8096C33.356 38.8096 33.5331 38.88 33.6638 39.0053C33.7944 39.1307 33.8678 39.3007 33.8678 39.478V48.1767C33.8678 48.3539 33.7944 48.524 33.6638 48.6493C33.5331 48.7747 33.356 48.8451 33.1712 48.8451Z" fill="#040F81" stroke="#040F81" stroke-width="0.3"/>
  <path d="M24.7957 33.4941H17.1732C16.9884 33.4941 16.8112 33.4236 16.6806 33.2983C16.55 33.1729 16.4766 33.0029 16.4766 32.8256C16.4766 32.6484 16.55 32.4784 16.6806 32.353C16.8112 32.2276 16.9884 32.1572 17.1732 32.1572H24.7957C24.9804 32.1572 25.1576 32.2276 25.2882 32.353C25.4189 32.4784 25.4923 32.6484 25.4923 32.8256C25.4923 33.0029 25.4189 33.1729 25.2882 33.2983C25.1576 33.4236 24.9804 33.4941 24.7957 33.4941Z" fill="#040F81" stroke="#040F81" stroke-width="0.3"/>
  <path d="M49.1697 33.4941H41.5472C41.3624 33.4941 41.1853 33.4236 41.0546 33.2983C40.924 33.1729 40.8506 33.0029 40.8506 32.8256C40.8506 32.6484 40.924 32.4784 41.0546 32.353C41.1853 32.2276 41.3624 32.1572 41.5472 32.1572H49.1697C49.3544 32.1572 49.5316 32.2276 49.6623 32.353C49.7929 32.4784 49.8663 32.6484 49.8663 32.8256C49.8663 33.0029 49.7929 33.1729 49.6623 33.2983C49.5316 33.4236 49.3544 33.4941 49.1697 33.4941Z" fill="#040F81" stroke="#040F81" stroke-width="0.3"/>
  <path d="M38.4985 40.1464H27.8438C25.1788 40.1464 23.0107 38.0661 23.0107 35.5086C23.0107 34.8995 23.1356 34.2964 23.3785 33.7338C23.6213 33.1711 23.9773 32.6598 24.4261 32.2291C24.8749 31.7985 25.4078 31.4569 25.9942 31.2239C26.5806 30.9908 27.2091 30.8709 27.8438 30.871H28.3961C28.3568 30.6303 28.3371 30.387 28.3371 30.1434C28.3371 27.5856 30.5055 25.5049 33.1712 25.5049C35.8369 25.5049 38.0053 27.5856 38.0053 30.1434C38.0053 30.387 37.9856 30.6303 37.9462 30.871H38.4985C41.1636 30.871 43.3316 32.9514 43.3316 35.5086C43.3317 36.1176 43.2067 36.7207 42.9638 37.2834C42.721 37.8461 42.365 38.3574 41.9162 38.788C41.4674 39.2187 40.9346 39.5603 40.3482 39.7934C39.7618 40.0265 39.1333 40.1464 38.4985 40.1464ZM27.8438 32.2079C26.9373 32.2164 26.071 32.5679 25.4331 33.186C24.7952 33.8041 24.4374 34.6389 24.4374 35.5087C24.4374 36.3786 24.7952 37.2133 25.4331 37.8314C26.071 38.4495 26.9373 38.8011 27.8438 38.8096H38.4985C39.4051 38.8011 40.2714 38.4495 40.9093 37.8314C41.5472 37.2133 41.905 36.3786 41.905 35.5087C41.905 34.6389 41.5472 33.8041 40.9093 33.186C40.2714 32.5679 39.4051 32.2164 38.4985 32.2079H37.0453C36.9327 32.2078 36.8218 32.1816 36.7221 32.1314C36.6224 32.0813 36.5368 32.0087 36.4727 31.9198C36.4087 31.831 36.368 31.7286 36.3542 31.6214C36.3404 31.5142 36.3539 31.4053 36.3935 31.3042C36.5885 30.8047 36.6544 30.2673 36.5857 29.7381C36.517 29.2088 36.3157 28.7033 35.999 28.265C35.6822 27.8267 35.2596 27.4685 34.7671 27.2211C34.2747 26.9737 33.7271 26.8445 33.1712 26.8445C32.6153 26.8445 32.0677 26.9737 31.5753 27.2211C31.0828 27.4685 30.6601 27.8267 30.3434 28.265C30.0267 28.7033 29.8254 29.2088 29.7567 29.7381C29.688 30.2673 29.7539 30.8047 29.9489 31.3042C29.9885 31.4053 30.002 31.5142 29.9882 31.6214C29.9744 31.7286 29.9337 31.831 29.8696 31.9198C29.8056 32.0087 29.72 32.0813 29.6203 32.1314C29.5206 32.1816 29.4097 32.2078 29.2971 32.2079H27.8438Z" fill="#040F81" stroke="#040F81" stroke-width="0.3"/>
</svg>