<?xml version="1.0" encoding="utf-8"?>
<!-- Generator: Adobe Illustrator 16.0.3, SVG Export Plug-In . SVG Version: 6.00 Build 0)  -->
<!DOCTYPE svg PUBLIC "-//W3C//DTD SVG 1.1//EN" "http://www.w3.org/Graphics/SVG/1.1/DTD/svg11.dtd">
<svg version="1.1" id="Warstwa_1" xmlns="http://www.w3.org/2000/svg" xmlns:xlink="http://www.w3.org/1999/xlink" x="0px" y="0px"
	 width="33.832px" height="42.969px" viewBox="13.063 6.938 33.832 42.969" enable-background="new 13.063 6.938 33.832 42.969"
	 xml:space="preserve">
<path fill="#040F81" stroke="#040F81" stroke-width="0.2" d="M38.57,48.748h-7.354c-0.143,0-0.277-0.053-0.376-0.146
	c-0.099-0.093-0.153-0.216-0.153-0.344s0.054-0.251,0.153-0.344c0.099-0.093,0.234-0.146,0.376-0.146h7.354
	c0.143,0,0.278,0.053,0.377,0.146s0.153,0.216,0.153,0.344s-0.055,0.251-0.153,0.344S38.713,48.748,38.57,48.748z"/>
<path fill="#040F81" stroke="#040F81" stroke-width="0.2" d="M28.742,48.748h-7.354c-0.143,0-0.278-0.053-0.377-0.146
	c-0.099-0.093-0.153-0.216-0.153-0.344s0.054-0.251,0.153-0.344c0.099-0.093,0.234-0.146,0.377-0.146h7.354
	c0.143,0,0.278,0.053,0.377,0.146c0.099,0.093,0.153,0.216,0.153,0.344s-0.054,0.251-0.153,0.344
	C29.021,48.695,28.885,48.748,28.742,48.748z"/>
<path fill="#040F81" stroke="#040F81" stroke-width="0.2" d="M17.979,33.844c-0.143,0-0.278-0.053-0.377-0.146
	c-0.099-0.093-0.153-0.216-0.153-0.344V30.26c0-0.127,0.054-0.252,0.153-0.344c0.099-0.093,0.234-0.146,0.377-0.146
	s0.278,0.053,0.377,0.146c0.099,0.092,0.153,0.217,0.153,0.344v3.095c0,0.128-0.054,0.251-0.153,0.344
	C18.258,33.791,18.122,33.844,17.979,33.844z"/>
<path fill="#040F81" stroke="#040F81" stroke-width="0.2" d="M20.495,33.844c-0.143,0-0.278-0.053-0.377-0.146
	c-0.099-0.093-0.153-0.216-0.153-0.344V30.26c0-0.127,0.054-0.252,0.153-0.344c0.099-0.093,0.234-0.146,0.377-0.146
	s0.278,0.053,0.377,0.146c0.099,0.092,0.153,0.217,0.153,0.344v3.095c0,0.128-0.054,0.251-0.153,0.344
	C20.773,33.791,20.637,33.844,20.495,33.844z"/>
<path fill="#040F81" stroke="#040F81" stroke-width="0.2" d="M39.465,33.844c-0.143,0-0.278-0.053-0.377-0.146
	s-0.153-0.216-0.153-0.344V30.26c0-0.127,0.055-0.252,0.153-0.344c0.099-0.093,0.234-0.146,0.377-0.146s0.278,0.053,0.378,0.146
	c0.098,0.092,0.152,0.217,0.152,0.344v3.095c0,0.128-0.055,0.251-0.152,0.344C39.743,33.791,39.607,33.844,39.465,33.844z"/>
<path fill="#040F81" stroke="#040F81" stroke-width="0.2" d="M41.979,33.844c-0.143,0-0.277-0.053-0.377-0.146
	c-0.098-0.093-0.152-0.216-0.152-0.344V30.26c0-0.127,0.055-0.252,0.152-0.344c0.1-0.093,0.234-0.146,0.377-0.146
	c0.144,0,0.279,0.053,0.378,0.146c0.099,0.092,0.153,0.217,0.153,0.344v3.095c0,0.128-0.055,0.251-0.153,0.344
	S42.123,33.844,41.979,33.844z"/>
<path fill="#040F81" stroke="#040F81" stroke-width="0.2" d="M17.979,20.989c-0.143,0-0.278-0.053-0.377-0.146
	c-0.099-0.092-0.153-0.216-0.153-0.344v-3.095c0-0.127,0.054-0.251,0.153-0.344c0.099-0.093,0.234-0.146,0.377-0.146
	s0.278,0.053,0.377,0.146c0.099,0.092,0.153,0.216,0.153,0.344V20.5c0,0.127-0.054,0.251-0.153,0.344
	C18.258,20.937,18.122,20.989,17.979,20.989z"/>
<path fill="#040F81" stroke="#040F81" stroke-width="0.2" d="M20.495,20.989c-0.143,0-0.278-0.053-0.377-0.146
	c-0.099-0.092-0.153-0.216-0.153-0.344v-3.095c0-0.127,0.054-0.251,0.153-0.344c0.099-0.093,0.234-0.146,0.377-0.146
	s0.278,0.053,0.377,0.146c0.099,0.092,0.153,0.216,0.153,0.344V20.5c0,0.127-0.054,0.251-0.153,0.344
	C20.773,20.937,20.637,20.989,20.495,20.989z"/>
<path fill="#040F81" stroke="#040F81" stroke-width="0.2" d="M39.465,20.989c-0.143,0-0.278-0.053-0.377-0.146
	c-0.099-0.092-0.153-0.216-0.153-0.344v-3.095c0-0.127,0.055-0.251,0.153-0.344c0.099-0.093,0.234-0.146,0.377-0.146
	s0.278,0.053,0.378,0.146c0.098,0.092,0.152,0.216,0.152,0.344V20.5c0,0.127-0.055,0.251-0.152,0.344
	C39.743,20.937,39.607,20.989,39.465,20.989z"/>
<path fill="#040F81" stroke="#040F81" stroke-width="0.2" d="M41.979,20.989c-0.143,0-0.277-0.053-0.377-0.146
	c-0.098-0.092-0.152-0.216-0.152-0.344v-3.095c0-0.127,0.055-0.251,0.152-0.344c0.1-0.093,0.234-0.146,0.377-0.146
	c0.144,0,0.279,0.053,0.378,0.146c0.099,0.092,0.153,0.216,0.153,0.344V20.5c0,0.127-0.055,0.251-0.153,0.344
	C42.259,20.937,42.123,20.989,41.979,20.989z"/>
<path fill="#040F81" stroke="#040F81" stroke-width="0.2" d="M14.256,16.816v0.1h0.1h31.245h0.1v-0.1V8.235v-0.1h-0.1H14.356h-0.1
	v0.1V16.816z M46.231,17.896H13.726c-0.143,0-0.278-0.053-0.377-0.146c-0.099-0.092-0.153-0.216-0.153-0.344V7.645
	c0-0.127,0.054-0.251,0.153-0.344c0.099-0.092,0.234-0.146,0.377-0.146h32.506c0.143,0,0.277,0.053,0.377,0.146
	c0.098,0.092,0.152,0.216,0.152,0.344v9.761c0,0.127-0.055,0.251-0.152,0.344C46.509,17.842,46.374,17.896,46.231,17.896z"/>
<path fill="#040F81" stroke="#040F81" stroke-width="0.2" d="M36.464,11.855L36.464,11.855c-0.139,0-0.275,0.038-0.392,0.111
	s-0.208,0.177-0.263,0.3s-0.068,0.259-0.041,0.39c0.028,0.131,0.098,0.25,0.196,0.344c0.1,0.093,0.226,0.156,0.361,0.181
	c0.136,0.025,0.277,0.013,0.405-0.037c0.129-0.05,0.24-0.135,0.318-0.245c0.078-0.11,0.121-0.24,0.121-0.374v0
	c0-0.179-0.076-0.35-0.21-0.475C36.828,11.925,36.649,11.855,36.464,11.855z M36.463,14.172c-0.351,0-0.693-0.097-0.984-0.279
	c-0.291-0.182-0.517-0.439-0.649-0.74c-0.133-0.3-0.168-0.63-0.1-0.948c0.066-0.318,0.234-0.612,0.481-0.843
	s0.562-0.389,0.906-0.453s0.7-0.031,1.024,0.095c0.324,0.125,0.6,0.337,0.793,0.608c0.193,0.271,0.297,0.588,0.297,0.913
	c-0.001,0.435-0.186,0.853-0.517,1.163S36.934,14.171,36.463,14.172z"/>
<path fill="#040F81" stroke="#040F81" stroke-width="0.2" d="M41.49,11.855L41.49,11.855c-0.14,0-0.274,0.038-0.392,0.111
	c-0.115,0.073-0.207,0.177-0.262,0.3s-0.068,0.259-0.041,0.39c0.027,0.131,0.096,0.25,0.195,0.344
	c0.1,0.093,0.226,0.156,0.361,0.181c0.137,0.025,0.277,0.013,0.406-0.037c0.129-0.05,0.239-0.135,0.318-0.245
	c0.078-0.11,0.121-0.24,0.121-0.374v0c-0.001-0.179-0.077-0.35-0.211-0.475C41.854,11.925,41.675,11.855,41.49,11.855z
	 M41.489,14.172c-0.351,0-0.693-0.097-0.984-0.279c-0.291-0.182-0.516-0.439-0.649-0.74c-0.133-0.3-0.167-0.63-0.1-0.948
	s0.235-0.612,0.481-0.843c0.247-0.231,0.563-0.389,0.906-0.453s0.701-0.031,1.025,0.095c0.323,0.125,0.6,0.337,0.793,0.608
	c0.193,0.271,0.296,0.588,0.296,0.913c-0.001,0.435-0.186,0.853-0.517,1.163C42.411,13.996,41.96,14.171,41.489,14.172z"/>
<path fill="#040F81" stroke="#040F81" stroke-width="0.2" d="M17.763,13.207v0.1h0.1h1.457h0.1v-0.1v-1.363v-0.1h-0.1h-1.457h-0.1
	v0.1V13.207z M19.949,14.286h-2.717c-0.143,0-0.278-0.053-0.377-0.146c-0.099-0.093-0.153-0.217-0.153-0.344v-2.542
	c0-0.127,0.054-0.251,0.153-0.344c0.099-0.092,0.234-0.146,0.377-0.146h2.717c0.071,0,0.14,0.013,0.205,0.038
	c0.065,0.025,0.124,0.062,0.172,0.107s0.087,0.1,0.113,0.159c0.026,0.059,0.04,0.122,0.04,0.185v2.542
	c0,0.063-0.013,0.126-0.04,0.185c-0.026,0.059-0.064,0.113-0.113,0.159c-0.049,0.045-0.107,0.082-0.172,0.107
	C20.089,14.273,20.02,14.286,19.949,14.286z"/>
<path fill="#040F81" stroke="#040F81" stroke-width="0.2" d="M22.979,13.207v0.1h0.1h1.457h0.1v-0.1v-1.363v-0.1h-0.1h-1.457h-0.1
	v0.1V13.207z M25.165,14.286h-2.717c-0.143,0-0.278-0.053-0.377-0.146c-0.099-0.093-0.153-0.217-0.153-0.344v-2.542
	c0-0.127,0.054-0.251,0.153-0.344c0.099-0.092,0.234-0.146,0.377-0.146h2.717c0.143,0,0.278,0.053,0.377,0.146
	c0.099,0.092,0.153,0.216,0.153,0.344v2.542c0,0.127-0.054,0.251-0.153,0.344C25.443,14.233,25.308,14.286,25.165,14.286z"/>
<path fill="#040F81" stroke="#040F81" stroke-width="0.2" d="M28.189,13.207v0.1h0.1h1.457h0.1v-0.1v-1.363v-0.1h-0.1h-1.457h-0.1
	v0.1V13.207z M30.375,14.286h-2.717c-0.143,0-0.278-0.053-0.377-0.146c-0.099-0.093-0.153-0.217-0.153-0.344v-2.542
	c0-0.127,0.054-0.251,0.153-0.344s0.234-0.146,0.377-0.146h2.717c0.143,0,0.278,0.053,0.377,0.146
	c0.099,0.092,0.153,0.216,0.153,0.344v2.542c0,0.127-0.054,0.251-0.153,0.344C30.653,14.233,30.518,14.286,30.375,14.286z"/>
<path fill="#040F81" stroke="#040F81" stroke-width="0.2" d="M14.256,29.671v0.1h0.1h31.245h0.1v-0.1v-8.582v-0.1h-0.1H14.356h-0.1
	v0.1V29.671z M46.231,30.75H13.726c-0.143,0-0.278-0.053-0.377-0.146c-0.099-0.092-0.153-0.216-0.153-0.344V20.5
	c0-0.127,0.054-0.251,0.153-0.344c0.099-0.093,0.234-0.146,0.377-0.146h32.506c0.143,0,0.277,0.053,0.377,0.146
	c0.098,0.092,0.152,0.216,0.152,0.344v9.76c0,0.128-0.055,0.252-0.152,0.344C46.509,30.697,46.374,30.75,46.231,30.75z"/>
<path fill="#040F81" stroke="#040F81" stroke-width="0.2" d="M36.563,24.719v-0.007h-0.101c-0.138,0-0.274,0.038-0.391,0.111
	S35.864,25,35.81,25.122c-0.055,0.123-0.068,0.259-0.041,0.39c0.028,0.131,0.098,0.25,0.196,0.343
	c0.1,0.093,0.226,0.156,0.361,0.181s0.277,0.012,0.405-0.038c0.129-0.05,0.24-0.135,0.318-0.245s0.121-0.24,0.121-0.374l0,0
	c0-0.18-0.076-0.35-0.21-0.475C36.853,24.804,36.712,24.739,36.563,24.719z M36.463,27.028c-0.351,0-0.693-0.097-0.984-0.279
	c-0.291-0.182-0.517-0.44-0.649-0.74s-0.168-0.63-0.1-0.949c0.067-0.318,0.234-0.611,0.481-0.842s0.562-0.389,0.906-0.453
	s0.7-0.031,1.024,0.095c0.324,0.125,0.6,0.337,0.793,0.608s0.297,0.588,0.297,0.913c-0.001,0.435-0.186,0.853-0.517,1.162
	C37.384,26.853,36.934,27.027,36.463,27.028z"/>
<path fill="#040F81" stroke="#040F81" stroke-width="0.2" d="M41.59,24.719v-0.007h-0.101c-0.139,0-0.273,0.038-0.391,0.111
	c-0.115,0.073-0.207,0.177-0.262,0.299c-0.055,0.123-0.068,0.259-0.041,0.39c0.027,0.131,0.096,0.25,0.195,0.343
	c0.1,0.093,0.226,0.156,0.361,0.181c0.137,0.025,0.277,0.012,0.406-0.038s0.239-0.135,0.318-0.245
	c0.078-0.11,0.121-0.24,0.121-0.374l0,0c-0.001-0.18-0.077-0.35-0.211-0.475C41.879,24.804,41.739,24.739,41.59,24.719z
	 M41.489,27.028c-0.351,0-0.693-0.097-0.984-0.279c-0.291-0.182-0.516-0.44-0.649-0.74c-0.133-0.3-0.167-0.63-0.1-0.949
	c0.067-0.318,0.235-0.611,0.481-0.842c0.247-0.231,0.563-0.389,0.906-0.453c0.345-0.064,0.701-0.031,1.025,0.095
	c0.324,0.125,0.6,0.337,0.793,0.608s0.296,0.588,0.296,0.913c-0.001,0.435-0.186,0.853-0.517,1.162
	C42.411,26.853,41.96,27.027,41.489,27.028z"/>
<path fill="#040F81" stroke="#040F81" stroke-width="0.2" d="M17.763,26.06v0.1h0.1h1.457h0.1v-0.1v-1.362v-0.1h-0.1h-1.457h-0.1
	v0.1V26.06z M19.949,27.139h-2.717c-0.143,0-0.278-0.053-0.377-0.146c-0.099-0.092-0.153-0.216-0.153-0.344v-2.542
	c0-0.127,0.054-0.251,0.153-0.344c0.099-0.093,0.234-0.146,0.377-0.146h2.717c0.071,0,0.14,0.013,0.205,0.038
	c0.065,0.025,0.124,0.062,0.172,0.107s0.087,0.1,0.113,0.159c0.026,0.059,0.04,0.122,0.04,0.185v2.542
	c0,0.063-0.013,0.126-0.04,0.185c-0.026,0.059-0.064,0.113-0.113,0.159c-0.049,0.045-0.107,0.083-0.172,0.107
	S20.02,27.139,19.949,27.139z"/>
<path fill="#040F81" stroke="#040F81" stroke-width="0.2" d="M22.979,26.06v0.1h0.1h1.457h0.1v-0.1v-1.362v-0.1h-0.1h-1.457h-0.1
	v0.1V26.06z M25.165,27.139h-2.717c-0.143,0-0.278-0.053-0.377-0.146c-0.099-0.092-0.153-0.216-0.153-0.344v-2.542
	c0-0.127,0.054-0.251,0.153-0.344c0.099-0.093,0.234-0.146,0.377-0.146h2.717c0.143,0,0.278,0.053,0.377,0.146
	c0.099,0.092,0.153,0.216,0.153,0.344v2.542c0,0.127-0.054,0.251-0.153,0.344C25.443,27.086,25.308,27.139,25.165,27.139z"/>
<path fill="#040F81" stroke="#040F81" stroke-width="0.2" d="M28.189,26.06v0.1h0.1h1.457h0.1v-0.1v-1.362v-0.1h-0.1h-1.457h-0.1
	v0.1V26.06z M30.375,27.139h-2.717c-0.143,0-0.278-0.053-0.377-0.146s-0.153-0.216-0.153-0.344v-2.542
	c0-0.127,0.054-0.251,0.153-0.344c0.099-0.093,0.234-0.146,0.377-0.146h2.717c0.143,0,0.278,0.053,0.377,0.146
	c0.099,0.092,0.153,0.216,0.153,0.344v2.542c0,0.127-0.054,0.251-0.153,0.344C30.653,27.086,30.518,27.139,30.375,27.139z"/>
<path fill="#040F81" stroke="#040F81" stroke-width="0.2" d="M14.256,42.525v0.101h0.1h31.245h0.1v-0.101v-8.58v-0.101h-0.1H14.356
	h-0.1v0.101V42.525z M46.231,43.605H13.726c-0.143,0-0.278-0.054-0.377-0.146c-0.099-0.092-0.153-0.216-0.153-0.344v-9.76
	c0-0.128,0.054-0.252,0.153-0.344c0.099-0.093,0.234-0.146,0.377-0.146h32.506c0.143,0,0.277,0.054,0.377,0.146
	c0.098,0.092,0.152,0.216,0.152,0.344v9.76c0,0.128-0.055,0.252-0.152,0.344C46.509,43.552,46.374,43.605,46.231,43.605z"/>
<path fill="#040F81" stroke="#040F81" stroke-width="0.2" d="M36.464,37.566L36.464,37.566c-0.139,0-0.275,0.039-0.392,0.111
	s-0.208,0.176-0.263,0.299s-0.068,0.26-0.041,0.391c0.028,0.131,0.098,0.25,0.196,0.344c0.1,0.092,0.226,0.154,0.361,0.18
	s0.277,0.014,0.405-0.037c0.129-0.049,0.24-0.135,0.318-0.244c0.078-0.11,0.121-0.24,0.121-0.374v-0.001
	c0-0.179-0.076-0.35-0.21-0.475C36.828,37.636,36.649,37.566,36.464,37.566z M36.463,39.883c-0.351,0-0.693-0.098-0.984-0.279
	s-0.517-0.439-0.649-0.74c-0.133-0.3-0.168-0.63-0.1-0.948c0.066-0.318,0.234-0.612,0.481-0.843s0.562-0.389,0.906-0.453
	s0.7-0.031,1.024,0.095c0.324,0.125,0.6,0.337,0.793,0.608c0.193,0.271,0.297,0.588,0.297,0.912
	c-0.001,0.436-0.186,0.854-0.517,1.163S36.934,39.883,36.463,39.883z"/>
<path fill="#040F81" stroke="#040F81" stroke-width="0.2" d="M41.49,37.566L41.49,37.566c-0.14,0-0.274,0.039-0.392,0.111
	c-0.115,0.072-0.207,0.176-0.262,0.299s-0.068,0.26-0.041,0.391s0.096,0.25,0.195,0.344c0.1,0.092,0.226,0.154,0.361,0.18
	c0.137,0.025,0.277,0.014,0.406-0.037c0.129-0.049,0.239-0.135,0.318-0.244c0.078-0.11,0.121-0.24,0.121-0.374v-0.001
	c-0.001-0.179-0.077-0.35-0.211-0.475C41.854,37.636,41.675,37.566,41.49,37.566z M41.489,39.883c-0.351,0-0.693-0.098-0.984-0.279
	s-0.516-0.439-0.649-0.74c-0.133-0.3-0.167-0.63-0.1-0.948s0.235-0.612,0.481-0.843c0.247-0.23,0.563-0.389,0.906-0.453
	s0.701-0.031,1.025,0.095c0.323,0.125,0.6,0.337,0.793,0.608c0.193,0.271,0.296,0.588,0.296,0.912
	c-0.001,0.436-0.186,0.854-0.517,1.163C42.411,39.707,41.96,39.883,41.489,39.883z"/>
<path fill="#040F81" stroke="#040F81" stroke-width="0.2" d="M17.763,38.918v0.1h0.1h1.457h0.1v-0.1v-1.363v-0.1h-0.1h-1.457h-0.1
	v0.1V38.918z M19.949,39.997h-2.717c-0.143,0-0.278-0.053-0.377-0.146c-0.099-0.092-0.153-0.217-0.153-0.344v-2.543
	c0-0.127,0.054-0.251,0.153-0.344c0.099-0.092,0.234-0.145,0.377-0.145h2.717c0.071,0,0.14,0.013,0.205,0.037
	c0.065,0.025,0.124,0.063,0.172,0.107c0.049,0.047,0.087,0.1,0.113,0.159c0.026,0.06,0.04,0.122,0.04,0.185v2.543
	c0,0.063-0.013,0.126-0.04,0.186c-0.026,0.059-0.064,0.112-0.113,0.158s-0.107,0.082-0.172,0.107S20.02,39.997,19.949,39.997z"/>
<path fill="#040F81" stroke="#040F81" stroke-width="0.2" d="M22.979,38.918v0.1h0.1h1.457h0.1v-0.1v-1.363v-0.1h-0.1h-1.457h-0.1
	v0.1V38.918z M25.165,39.997h-2.717c-0.143,0-0.278-0.053-0.377-0.146c-0.099-0.092-0.153-0.217-0.153-0.344v-2.543
	c0-0.127,0.054-0.251,0.153-0.344c0.099-0.092,0.234-0.145,0.377-0.145h2.717c0.143,0,0.278,0.053,0.377,0.145
	c0.099,0.093,0.153,0.217,0.153,0.344v2.543c0,0.127-0.054,0.252-0.153,0.344C25.443,39.944,25.308,39.997,25.165,39.997z"/>
<path fill="#040F81" stroke="#040F81" stroke-width="0.2" d="M28.189,38.918v0.1h0.1h1.457h0.1v-0.1v-1.363v-0.1h-0.1h-1.457h-0.1
	v0.1V38.918z M30.375,39.997h-2.717c-0.143,0-0.278-0.053-0.377-0.146c-0.099-0.092-0.153-0.217-0.153-0.344v-2.543
	c0-0.127,0.054-0.251,0.153-0.344c0.099-0.092,0.234-0.145,0.377-0.145h2.717c0.143,0,0.278,0.053,0.377,0.145
	c0.099,0.093,0.153,0.217,0.153,0.344v2.543c0,0.127-0.054,0.252-0.153,0.344C30.653,39.944,30.518,39.997,30.375,39.997z"/>
<path fill="#040F81" stroke="#040F81" stroke-width="0.2" d="M29.981,47.59c-0.143,0-0.278-0.053-0.377-0.146
	c-0.099-0.093-0.153-0.216-0.153-0.344v-3.986c0-0.128,0.054-0.251,0.153-0.344c0.099-0.093,0.234-0.146,0.377-0.146
	s0.278,0.053,0.377,0.146c0.099,0.093,0.153,0.216,0.153,0.344v3.986c0,0.128-0.054,0.251-0.153,0.344
	C30.26,47.537,30.124,47.59,29.981,47.59z"/>
<path fill="#040F81" stroke="#040F81" stroke-width="0.2" d="M29.981,47.59L29.981,47.59c-0.139,0-0.274,0.038-0.391,0.111
	c-0.116,0.072-0.208,0.176-0.262,0.299c-0.055,0.123-0.069,0.26-0.041,0.391s0.096,0.25,0.196,0.344
	c0.1,0.092,0.225,0.155,0.361,0.18c0.136,0.025,0.277,0.014,0.405-0.037c0.129-0.05,0.24-0.135,0.318-0.244
	c0.079-0.11,0.121-0.24,0.121-0.375l0,0c0-0.179-0.077-0.35-0.21-0.475C30.346,47.659,30.167,47.59,29.981,47.59z M29.981,49.906
	c-0.351,0-0.694-0.098-0.985-0.279c-0.291-0.182-0.516-0.439-0.649-0.74c-0.133-0.301-0.167-0.63-0.1-0.948
	c0.067-0.318,0.235-0.612,0.481-0.843c0.247-0.23,0.563-0.389,0.906-0.453c0.344-0.064,0.701-0.031,1.025,0.094
	c0.324,0.126,0.599,0.338,0.792,0.609s0.297,0.588,0.297,0.912c0,0.436-0.186,0.854-0.516,1.163
	C30.901,49.73,30.452,49.906,29.981,49.906z"/>
</svg>
