<?xml version="1.0" encoding="utf-8"?>
<!-- Generator: Adobe Illustrator 16.0.3, SVG Export Plug-In . SVG Version: 6.00 Build 0)  -->
<!DOCTYPE svg PUBLIC "-//W3C//DTD SVG 1.1//EN" "http://www.w3.org/Graphics/SVG/1.1/DTD/svg11.dtd">
<svg version="1.1" id="Warstwa_1" xmlns="http://www.w3.org/2000/svg" xmlns:xlink="http://www.w3.org/1999/xlink" x="0px" y="0px"
	 width="36.719px" height="35.105px" viewBox="5.64 5.447 36.719 35.105" enable-background="new 5.64 5.447 36.719 35.105"
	 xml:space="preserve">
<path fill="#040F81" d="M9.567,13.302c-2.165,0-3.927-1.762-3.927-3.927s1.762-3.927,3.927-3.927c2.166,0,3.928,1.762,3.928,3.927
	C13.495,11.54,11.733,13.302,9.567,13.302z M9.567,6.455c-0.577,0-1.142,0.171-1.622,0.492S7.091,7.724,6.87,8.257
	C6.649,8.791,6.591,9.378,6.704,9.944c0.112,0.566,0.391,1.086,0.799,1.495s0.929,0.687,1.495,0.799
	c0.566,0.113,1.153,0.055,1.687-0.166c0.533-0.221,0.989-0.595,1.31-1.075c0.321-0.48,0.492-1.045,0.492-1.622
	c0-0.774-0.309-1.516-0.856-2.063S10.341,6.456,9.567,6.455z"/>
<path fill="#040F81" d="M24,13.302c-2.166,0-3.927-1.762-3.927-3.927S21.834,5.447,24,5.447c2.166,0,3.928,1.762,3.928,3.927
	C27.928,11.54,26.166,13.302,24,13.302z M24,6.455c-0.578,0-1.142,0.171-1.622,0.492s-0.854,0.776-1.075,1.31
	s-0.279,1.121-0.166,1.687c0.112,0.566,0.391,1.086,0.799,1.495s0.928,0.687,1.495,0.799c0.566,0.113,1.154,0.055,1.687-0.166
	s0.989-0.595,1.311-1.075c0.32-0.48,0.492-1.045,0.491-1.622c-0.001-0.774-0.309-1.516-0.856-2.063
	C25.516,6.764,24.773,6.456,24,6.455z"/>
<path fill="#040F81" d="M38.434,13.302c-2.166,0-3.928-1.762-3.928-3.927s1.762-3.927,3.928-3.927c2.165,0,3.926,1.762,3.926,3.927
	C42.359,11.54,40.598,13.302,38.434,13.302z M38.434,6.455c-0.578,0-1.143,0.171-1.623,0.492s-0.854,0.776-1.075,1.31
	c-0.221,0.534-0.278,1.121-0.166,1.687c0.112,0.566,0.391,1.086,0.799,1.495s0.929,0.687,1.495,0.799
	c0.566,0.113,1.153,0.055,1.687-0.166c0.534-0.221,0.989-0.595,1.31-1.075c0.321-0.48,0.492-1.045,0.492-1.622
	c0-0.774-0.309-1.516-0.855-2.063C39.949,6.764,39.207,6.456,38.434,6.455z"/>
<path fill="#040F81" d="M9.567,26.927c-2.165,0-3.927-1.761-3.927-3.927s1.762-3.927,3.927-3.927c2.166,0,3.928,1.762,3.928,3.927
	S11.733,26.927,9.567,26.927z M9.567,20.081c-0.577,0-1.142,0.171-1.622,0.492s-0.854,0.777-1.075,1.31
	c-0.221,0.534-0.279,1.121-0.166,1.687c0.112,0.566,0.391,1.086,0.799,1.495s0.928,0.687,1.495,0.799
	c0.566,0.113,1.153,0.055,1.687-0.166c0.533-0.221,0.989-0.595,1.31-1.075s0.492-1.044,0.492-1.622c0-0.774-0.309-1.516-0.856-2.063
	S10.341,20.082,9.567,20.081z"/>
<path fill="#040F81" d="M24,26.927c-2.166,0-3.927-1.761-3.927-3.927s1.762-3.927,3.927-3.927c2.166,0,3.928,1.762,3.928,3.927
	S26.166,26.927,24,26.927z M24,20.081c-0.578,0-1.142,0.171-1.622,0.492s-0.854,0.777-1.075,1.31
	c-0.221,0.533-0.279,1.12-0.166,1.687c0.112,0.566,0.391,1.086,0.799,1.495s0.928,0.687,1.495,0.799
	c0.566,0.113,1.153,0.055,1.687-0.166s0.989-0.595,1.311-1.075c0.32-0.48,0.491-1.044,0.491-1.622
	c-0.001-0.774-0.309-1.516-0.856-2.063C25.516,20.39,24.773,20.082,24,20.081z"/>
<path fill="#040F81" d="M38.434,26.927c-2.166,0-3.928-1.761-3.928-3.927s1.762-3.927,3.928-3.927c2.165,0,3.926,1.762,3.926,3.927
	S40.598,26.927,38.434,26.927z M38.434,20.081c-0.578,0-1.143,0.171-1.623,0.492c-0.479,0.321-0.854,0.777-1.074,1.31
	s-0.279,1.12-0.166,1.687c0.112,0.566,0.391,1.086,0.799,1.495s0.928,0.687,1.494,0.799c0.566,0.113,1.153,0.055,1.687-0.166
	c0.534-0.221,0.989-0.595,1.31-1.075c0.321-0.48,0.492-1.044,0.492-1.622c0-0.774-0.309-1.516-0.855-2.063
	C39.949,20.39,39.207,20.082,38.434,20.081z"/>
<path fill="#040F81" d="M9.567,40.553c-2.165,0-3.927-1.761-3.927-3.928c0-2.166,1.762-3.927,3.927-3.927
	c2.166,0,3.928,1.762,3.928,3.927C13.495,38.791,11.733,40.553,9.567,40.553z M9.567,33.706c-0.577,0-1.142,0.171-1.622,0.492
	s-0.854,0.776-1.075,1.31c-0.221,0.534-0.279,1.121-0.166,1.688c0.112,0.566,0.391,1.086,0.799,1.494s0.928,0.687,1.495,0.799
	c0.566,0.113,1.153,0.056,1.687-0.166c0.534-0.221,0.99-0.595,1.311-1.074c0.321-0.48,0.492-1.045,0.492-1.623
	c0-0.773-0.309-1.516-0.856-2.063C11.083,34.015,10.341,33.707,9.567,33.706z"/>
<path fill="#040F81" d="M24,40.553c-2.166,0-3.927-1.762-3.927-3.928c0-2.164,1.762-3.927,3.927-3.927
	c2.166,0,3.928,1.762,3.928,3.927C27.928,38.791,26.166,40.553,24,40.553z M24,33.706c-0.578,0-1.142,0.171-1.622,0.492
	s-0.854,0.776-1.075,1.31s-0.279,1.121-0.166,1.688c0.112,0.566,0.391,1.086,0.799,1.494s0.928,0.687,1.495,0.799
	c0.566,0.113,1.154,0.056,1.687-0.166c0.533-0.221,0.989-0.595,1.311-1.074c0.32-0.48,0.491-1.045,0.491-1.623
	c-0.001-0.773-0.309-1.516-0.856-2.063C25.516,34.016,24.773,33.707,24,33.706z"/>
<path fill="#040F81" d="M38.434,40.553c-2.166,0-3.928-1.762-3.928-3.928c0-2.164,1.762-3.927,3.928-3.927
	c2.165,0,3.926,1.762,3.926,3.927C42.359,38.791,40.598,40.553,38.434,40.553z M38.434,33.706c-0.578,0-1.143,0.171-1.623,0.492
	s-0.854,0.776-1.075,1.31c-0.221,0.533-0.278,1.121-0.166,1.688s0.391,1.086,0.799,1.494s0.929,0.687,1.495,0.799
	c0.566,0.113,1.152,0.056,1.687-0.166c0.533-0.221,0.989-0.595,1.31-1.074c0.321-0.48,0.492-1.045,0.492-1.623
	c0-0.773-0.309-1.516-0.855-2.063S39.207,33.707,38.434,33.706z"/>
<path fill="#040F81" d="M20.577,23.504h-7.586c-0.134,0-0.262-0.053-0.356-0.147c-0.095-0.094-0.148-0.223-0.148-0.356
	s0.053-0.262,0.148-0.356c0.094-0.094,0.223-0.147,0.356-0.147h7.586c0.134,0,0.262,0.053,0.356,0.147
	c0.094,0.095,0.147,0.223,0.147,0.356s-0.053,0.262-0.147,0.356C20.838,23.451,20.71,23.504,20.577,23.504z"/>
<path fill="#040F81" d="M20.577,37.134h-7.586c-0.134,0-0.262-0.053-0.356-0.147c-0.095-0.095-0.148-0.223-0.148-0.356
	s0.053-0.262,0.148-0.356c0.094-0.094,0.223-0.147,0.356-0.147h7.586c0.134,0,0.262,0.054,0.356,0.147
	c0.094,0.095,0.147,0.223,0.147,0.356s-0.053,0.262-0.147,0.356C20.838,37.081,20.71,37.134,20.577,37.134z"/>
<path fill="#040F81" d="M35.01,37.134h-7.586c-0.135,0-0.262-0.053-0.357-0.147c-0.094-0.095-0.146-0.223-0.146-0.356
	s0.053-0.262,0.146-0.356c0.096-0.094,0.223-0.147,0.357-0.147h7.586c0.133,0,0.262,0.054,0.355,0.147
	c0.096,0.095,0.148,0.223,0.148,0.356s-0.053,0.262-0.148,0.356C35.271,37.081,35.143,37.134,35.01,37.134z"/>
<path fill="#040F81" d="M9.567,33.706c-0.133,0-0.262-0.053-0.356-0.147c-0.095-0.095-0.148-0.223-0.148-0.356v-6.779
	c0-0.134,0.053-0.262,0.148-0.356c0.094-0.094,0.223-0.147,0.356-0.147c0.134,0,0.262,0.053,0.356,0.147
	c0.095,0.095,0.148,0.223,0.148,0.356v6.779c0,0.134-0.053,0.262-0.148,0.356C9.829,33.653,9.701,33.706,9.567,33.706z"/>
<path fill="#040F81" d="M35.01,9.878h-7.586c-0.135,0-0.262-0.053-0.357-0.147c-0.094-0.094-0.146-0.223-0.146-0.356
	c0-0.133,0.053-0.262,0.146-0.356c0.096-0.094,0.223-0.147,0.357-0.147h7.586c0.133,0,0.262,0.053,0.355,0.147
	c0.096,0.095,0.148,0.223,0.148,0.356c0,0.134-0.053,0.262-0.148,0.356C35.271,9.826,35.143,9.878,35.01,9.878z"/>
<path fill="#040F81" d="M20.577,9.878h-7.586c-0.134,0-0.262-0.053-0.356-0.147c-0.095-0.094-0.148-0.223-0.148-0.356
	c0-0.133,0.053-0.262,0.148-0.356c0.094-0.094,0.223-0.147,0.356-0.147h7.586c0.134,0,0.262,0.053,0.356,0.147
	c0.094,0.095,0.147,0.223,0.147,0.356c0,0.134-0.053,0.262-0.147,0.356C20.838,9.826,20.71,9.878,20.577,9.878z"/>
<path fill="#040F81" d="M26.488,21.154c-0.1,0-0.199-0.03-0.282-0.087s-0.147-0.137-0.186-0.231
	c-0.037-0.094-0.046-0.196-0.024-0.295c0.022-0.099,0.074-0.188,0.146-0.258l9.455-8.926c0.098-0.09,0.227-0.138,0.359-0.134
	c0.133,0.005,0.258,0.062,0.35,0.158s0.141,0.225,0.137,0.358c-0.002,0.133-0.059,0.259-0.154,0.351l-9.454,8.926
	C26.742,21.105,26.617,21.155,26.488,21.154z"/>
</svg>
