<svg width="13" height="13" viewBox="0 0 13 13" fill="none" xmlns="http://www.w3.org/2000/svg">
<g clip-path="url(#clip0_5873_8350)">
<path d="M10.0644 8.09445C9.30636 8.09445 8.62774 8.44025 8.17747 8.9823L5.24844 7.31931C5.33952 7.06299 5.38958 6.78739 5.38958 6.50017C5.38958 6.21301 5.33952 5.93741 5.24844 5.68109L8.17724 4.0177C8.62745 4.55992 9.30619 4.90584 10.0643 4.90584C11.4165 4.90584 12.5166 3.80532 12.5166 2.45255C12.5167 1.10017 11.4166 0 10.0644 0C8.71202 0 7.61179 1.10017 7.61179 2.45249C7.61179 2.73971 7.66179 3.01536 7.75293 3.27174L4.82396 4.93519C4.37374 4.39326 3.69518 4.04757 2.93732 4.04757C1.58478 4.04757 0.484375 5.14774 0.484375 6.50011C0.484375 7.85243 1.58478 8.95261 2.93732 8.95261C3.69518 8.95261 4.37369 8.60692 4.82391 8.06504L7.75293 9.72809C7.66179 9.98446 7.61173 10.2602 7.61173 10.5475C7.61173 11.8998 8.71196 12.9999 10.0643 12.9999C11.4165 12.9999 12.5167 11.8997 12.5167 10.5475C12.5167 9.19491 11.4166 8.09445 10.0644 8.09445ZM10.0644 0.858214C10.9434 0.858214 11.6585 1.57339 11.6585 2.45249C11.6585 3.33205 10.9434 4.04757 10.0644 4.04757C9.18524 4.04757 8.47 3.33205 8.47 2.45249C8.47 1.57339 9.18524 0.858214 10.0644 0.858214ZM2.93738 8.09445C2.05805 8.09445 1.34265 7.37921 1.34265 6.50017C1.34265 5.62102 2.05805 4.90584 2.93738 4.90584C3.81636 4.90584 4.53143 5.62102 4.53143 6.50017C4.53143 7.37921 3.81631 8.09445 2.93738 8.09445ZM10.0644 12.1418C9.18524 12.1418 8.47 11.4265 8.47 10.5475C8.47 9.66813 9.18524 8.95266 10.0644 8.95266C10.9434 8.95266 11.6585 9.66813 11.6585 10.5475C11.6585 11.4265 10.9434 12.1418 10.0644 12.1418Z" fill="#040F81"/>
</g>
<defs>
<clipPath id="clip0_5873_8350">
<rect width="13" height="13" fill="white"/>
</clipPath>
</defs>
</svg>
