<svg width="14" height="11" viewBox="0 0 14 11" fill="none" xmlns="http://www.w3.org/2000/svg">
<path d="M1.33333 10.6667C0.966667 10.6667 0.652778 10.5361 0.391667 10.275C0.130556 10.0139 0 9.7 0 9.33333V1.33333C0 0.966667 0.130556 0.652778 0.391667 0.391667C0.652778 0.130556 0.966667 0 1.33333 0H12C12.3667 0 12.6806 0.130556 12.9417 0.391667C13.2028 0.652778 13.3333 0.966667 13.3333 1.33333V9.33333C13.3333 9.7 13.2028 10.0139 12.9417 10.275C12.6806 10.5361 12.3667 10.6667 12 10.6667H1.33333ZM6.66667 6L1.33333 2.66667V9.33333H12V2.66667L6.66667 6ZM6.66667 4.66667L12 1.33333H1.33333L6.66667 4.66667ZM1.33333 2.66667V1.33333V9.33333V2.66667Z" fill="#1C1B1F"/>
</svg>
