<?xml version="1.0" encoding="utf-8"?>
<!-- Generator: Adobe Illustrator 16.0.3, SVG Export Plug-In . SVG Version: 6.00 Build 0)  -->
<!DOCTYPE svg PUBLIC "-//W3C//DTD SVG 1.1//EN" "http://www.w3.org/Graphics/SVG/1.1/DTD/svg11.dtd">
<svg version="1.1" id="Warstwa_1" xmlns="http://www.w3.org/2000/svg" xmlns:xlink="http://www.w3.org/1999/xlink" x="0px" y="0px"
	 width="41.148px" height="36.5px" viewBox="6.426 9.167 41.148 36.5" enable-background="new 6.426 9.167 41.148 36.5"
	 xml:space="preserve">
<g>
	<defs>
		<rect id="SVGID_1_" y="0.514" width="54" height="50.656"/>
	</defs>
	<clipPath id="SVGID_2_">
		<use xlink:href="#SVGID_1_"  overflow="visible"/>
	</clipPath>
	<g clip-path="url(#SVGID_2_)">
		<path fill="#040F81" stroke="#040F81" stroke-width="0.1" d="M47.088,37.686H6.912c-0.129,0-0.252-0.051-0.343-0.139
			c-0.091-0.088-0.143-0.209-0.143-0.334V10.155c0-0.125,0.051-0.245,0.143-0.334c0.091-0.088,0.214-0.138,0.343-0.138h40.176
			c0.129,0,0.252,0.049,0.344,0.138c0.091,0.089,0.143,0.208,0.143,0.334v27.058c0,0.125-0.052,0.246-0.143,0.334
			C47.34,37.635,47.217,37.686,47.088,37.686z M7.398,36.742h39.204V10.626H7.398V36.742z"/>
		<path fill="#040F81" stroke="#040F81" stroke-width="0.1" d="M47.088,33.073H6.912c-0.129,0-0.252-0.05-0.343-0.138
			c-0.091-0.089-0.143-0.209-0.143-0.334V10.155c0-0.125,0.051-0.245,0.143-0.334c0.091-0.088,0.214-0.138,0.343-0.138h40.176
			c0.129,0,0.252,0.049,0.344,0.138c0.091,0.089,0.143,0.208,0.143,0.334v22.446c0,0.125-0.052,0.245-0.143,0.334
			C47.34,33.023,47.217,33.073,47.088,33.073z M7.398,32.13h39.204V10.626H7.398V32.13z"/>
		<path fill="#040F81" stroke="#040F81" stroke-width="0.1" d="M24.039,41.723c-0.129,0-0.252-0.049-0.343-0.138
			c-0.091-0.089-0.143-0.208-0.143-0.334v-4.037c0-0.125,0.051-0.245,0.143-0.333c0.091-0.089,0.214-0.139,0.343-0.139
			s0.252,0.05,0.344,0.139c0.091,0.088,0.143,0.208,0.143,0.333v4.037c0,0.126-0.051,0.245-0.143,0.334S24.167,41.723,24.039,41.723
			z"/>
		<path fill="#040F81" stroke="#040F81" stroke-width="0.1" d="M29.961,41.723c-0.129,0-0.253-0.049-0.344-0.138
			c-0.092-0.089-0.143-0.208-0.143-0.334v-4.037c0-0.125,0.051-0.245,0.143-0.333c0.091-0.089,0.215-0.139,0.344-0.139
			s0.252,0.05,0.344,0.139c0.091,0.088,0.143,0.208,0.143,0.333v4.037c0,0.126-0.052,0.245-0.143,0.334
			C30.213,41.674,30.09,41.723,29.961,41.723z"/>
		<path fill="#040F81" stroke="#040F81" stroke-width="0.1" d="M37.4,45.301H16.597c-0.129,0-0.252-0.049-0.343-0.138
			c-0.091-0.089-0.143-0.208-0.143-0.333v-3.579c0-0.126,0.051-0.245,0.143-0.334c0.091-0.089,0.214-0.138,0.343-0.138H37.4
			c0.129,0,0.253,0.049,0.344,0.138c0.092,0.089,0.143,0.208,0.143,0.334v3.579c0,0.125-0.051,0.244-0.143,0.333
			C37.653,45.252,37.529,45.301,37.4,45.301z M17.083,44.357h19.832v-2.635H17.083V44.357z"/>
		<path fill="#040F81" stroke="#040F81" stroke-width="0.1" d="M27.062,22.845c-0.068,0-0.135-0.014-0.198-0.041l-10.603-4.575
			c-0.086-0.037-0.159-0.098-0.21-0.175c-0.051-0.077-0.079-0.166-0.078-0.257c0-0.091,0.028-0.181,0.08-0.257
			c0.052-0.076,0.125-0.137,0.211-0.173l10.481-4.456c0.062-0.027,0.128-0.04,0.196-0.04c0.068,0,0.134,0.013,0.196,0.04
			l10.604,4.575c0.086,0.037,0.159,0.098,0.21,0.175c0.052,0.077,0.079,0.166,0.078,0.258c0,0.091-0.028,0.181-0.079,0.257
			c-0.052,0.077-0.125,0.137-0.211,0.174l-10.481,4.457C27.195,22.832,27.129,22.845,27.062,22.845z M17.662,17.802l9.401,4.056
			l9.276-3.943l-9.401-4.056L17.662,17.802z"/>
		<path fill="#040F81" stroke="#040F81" stroke-width="0.1" d="M27.061,27.637c-0.068,0-0.135-0.014-0.196-0.04l-7.393-3.19
			c-0.118-0.051-0.21-0.145-0.256-0.262c-0.046-0.117-0.042-0.247,0.01-0.361s0.149-0.204,0.27-0.249s0.254-0.042,0.372,0.009
			l7.195,3.104l7.072-3.006c0.059-0.025,0.121-0.038,0.186-0.04c0.063-0.001,0.127,0.01,0.186,0.032
			c0.061,0.023,0.114,0.057,0.16,0.1c0.047,0.043,0.084,0.094,0.109,0.151s0.039,0.118,0.04,0.18
			c0.001,0.062-0.01,0.123-0.033,0.181c-0.022,0.058-0.058,0.11-0.103,0.155c-0.044,0.045-0.097,0.081-0.155,0.105l-7.269,3.09
			C27.194,27.623,27.128,27.637,27.061,27.637z"/>
		<path fill="#040F81" stroke="#040F81" stroke-width="0.1" d="M32.402,28.157c-0.129,0-0.252-0.05-0.344-0.138
			c-0.091-0.089-0.143-0.209-0.143-0.334v-7.277L26.104,17.9c-0.059-0.025-0.111-0.061-0.155-0.106s-0.078-0.098-0.102-0.156
			c-0.022-0.058-0.034-0.12-0.032-0.181c0.002-0.062,0.016-0.123,0.042-0.18s0.063-0.108,0.109-0.15
			c0.046-0.043,0.101-0.076,0.16-0.099s0.123-0.033,0.187-0.031s0.127,0.015,0.185,0.041L32.6,19.67
			c0.087,0.037,0.16,0.098,0.211,0.175s0.078,0.167,0.078,0.258v7.584c0,0.124-0.052,0.244-0.143,0.332
			C32.654,28.107,32.531,28.157,32.402,28.157z"/>
		<path fill="#040F81" stroke="#040F81" stroke-width="0.1" d="M32.402,29.885c-0.272,0-0.539-0.078-0.766-0.225
			c-0.226-0.147-0.402-0.355-0.506-0.6c-0.105-0.244-0.133-0.514-0.079-0.772s0.185-0.497,0.377-0.685
			c0.192-0.187,0.438-0.314,0.705-0.365c0.267-0.052,0.544-0.025,0.796,0.076c0.252,0.101,0.467,0.271,0.617,0.492
			c0.152,0.219,0.232,0.478,0.232,0.742c0,0.354-0.145,0.694-0.403,0.945C33.117,29.744,32.768,29.885,32.402,29.885z
			 M32.402,28.157c-0.08,0-0.158,0.023-0.225,0.066c-0.066,0.044-0.119,0.104-0.149,0.177c-0.03,0.071-0.039,0.15-0.022,0.227
			c0.016,0.076,0.054,0.146,0.11,0.201s0.128,0.093,0.207,0.107c0.079,0.016,0.16,0.008,0.234-0.021
			c0.073-0.03,0.138-0.08,0.182-0.145c0.044-0.065,0.068-0.141,0.068-0.219c0-0.104-0.043-0.205-0.118-0.278
			C32.613,28.199,32.51,28.157,32.402,28.157z"/>
		<path fill="#040F81" stroke="#040F81" stroke-width="0.1" d="M19.669,24.447c-0.129,0-0.252-0.05-0.344-0.138
			c-0.091-0.089-0.142-0.208-0.142-0.333v-4.79c0-0.125,0.051-0.245,0.142-0.333c0.091-0.088,0.215-0.138,0.344-0.138
			s0.252,0.05,0.344,0.138s0.143,0.208,0.143,0.333v4.79c0,0.125-0.051,0.245-0.143,0.333
			C19.922,24.397,19.798,24.447,19.669,24.447z"/>
		<path fill="#040F81" stroke="#040F81" stroke-width="0.1" d="M34.33,24.545c-0.129,0-0.253-0.05-0.344-0.138
			c-0.092-0.088-0.143-0.208-0.143-0.333v-4.791c0-0.125,0.051-0.245,0.143-0.333c0.091-0.088,0.215-0.138,0.344-0.138
			s0.252,0.05,0.344,0.138c0.091,0.088,0.143,0.208,0.143,0.333v4.791c0,0.125-0.052,0.245-0.143,0.333
			C34.582,24.496,34.459,24.545,34.33,24.545z"/>
	</g>
</g>
</svg>
