<svg width="38" height="40" viewBox="0 0 38 40" fill="none" xmlns="http://www.w3.org/2000/svg">
<path d="M18.8999 23.0858C18.8059 23.0857 18.7134 23.0593 18.6309 23.0088L1.2284 12.3419C1.13992 12.2876 1.06607 12.2076 1.01463 12.1102C0.963183 12.0128 0.936035 11.9017 0.936035 11.7884C0.936035 11.6752 0.963183 11.564 1.01463 11.4667C1.06607 11.3693 1.13992 11.2893 1.2284 11.235L18.6309 0.568068C18.7134 0.517477 18.8059 0.490967 18.8999 0.490967C18.9939 0.490967 19.0864 0.517477 19.1689 0.568068L36.5714 11.235C36.6599 11.2893 36.7337 11.3693 36.7852 11.4667C36.8366 11.564 36.8638 11.6752 36.8638 11.7884C36.8638 11.9017 36.8366 12.0128 36.7852 12.1102C36.7337 12.2076 36.6599 12.2876 36.5714 12.3419L19.1689 23.0088C19.0863 23.0593 18.9939 23.0857 18.8999 23.0858ZM2.66925 11.7883L18.8999 21.7369L35.1305 11.7875L18.8999 1.83812L2.66925 11.7883Z" fill="#040F81" stroke="#2255A4" stroke-width="0.3"/>
<path d="M18.9001 31.1882C18.8061 31.1883 18.7136 31.1618 18.6311 31.1112L7.83806 24.4959L1.22861 20.4443C1.14007 20.3901 1.06617 20.3101 1.01469 20.2126C0.963206 20.1152 0.936035 20.004 0.936035 19.8908C0.936035 19.7775 0.963206 19.6663 1.01469 19.5689C1.06617 19.4715 1.14007 19.3914 1.22861 19.3372L7.83806 15.2856C7.90278 15.2459 7.97382 15.2209 8.04713 15.2121C8.12045 15.2033 8.19459 15.2107 8.26533 15.2341C8.33607 15.2574 8.40203 15.2962 8.45943 15.3482C8.51683 15.4002 8.56456 15.4643 8.59988 15.537C8.63521 15.6097 8.65744 15.6895 8.66531 15.7719C8.67318 15.8542 8.66653 15.9375 8.64574 16.017C8.62495 16.0964 8.59044 16.1705 8.54416 16.235C8.49789 16.2995 8.44076 16.3531 8.37604 16.3927L2.66947 19.8908L8.37674 23.3888L18.9001 29.8401L29.4242 23.3888L35.1315 19.8908L29.4242 16.3927C29.2935 16.3126 29.1965 16.1774 29.1545 16.017C29.1125 15.8565 29.129 15.6838 29.2003 15.537C29.2717 15.3902 29.392 15.2812 29.5349 15.2341C29.6778 15.1869 29.8314 15.2055 29.9622 15.2856L36.5716 19.3372C36.6601 19.3914 36.734 19.4715 36.7855 19.5689C36.837 19.6663 36.8642 19.7775 36.8642 19.8908C36.8642 20.004 36.837 20.1152 36.7855 20.2126C36.734 20.3101 36.6601 20.3901 36.5716 20.4443L29.9622 24.4959L19.1691 31.112C19.0865 31.1623 18.994 31.1885 18.9001 31.1882Z" fill="#040F81" stroke="#2255A4" stroke-width="0.3"/>
<path d="M18.9001 39.2935C18.8061 39.2935 18.7136 39.2669 18.6311 39.2163L1.22861 28.5494C1.14007 28.4951 1.06617 28.4151 1.01469 28.3177C0.963206 28.2203 0.936035 28.1091 0.936035 27.9958C0.936035 27.8825 0.963206 27.7713 1.01469 27.6739C1.06617 27.5765 1.14007 27.4965 1.22861 27.4422L7.83806 23.3906C7.90278 23.3509 7.97382 23.326 8.04713 23.3171C8.12045 23.3083 8.19459 23.3158 8.26533 23.3391C8.33607 23.3625 8.40203 23.4012 8.45943 23.4532C8.51683 23.5052 8.56456 23.5694 8.59989 23.6421C8.63521 23.7148 8.65744 23.7945 8.66531 23.8769C8.67318 23.9592 8.66653 24.0425 8.64574 24.122C8.62496 24.2014 8.59044 24.2755 8.54416 24.34C8.49789 24.4045 8.44076 24.4581 8.37604 24.4978L2.66877 27.9958L18.9001 37.9444L35.1308 27.995L29.4235 24.497C29.2928 24.4169 29.1958 24.2817 29.1538 24.1212C29.1118 23.9607 29.1283 23.7881 29.1996 23.6413C29.271 23.4944 29.3913 23.3855 29.5342 23.3383C29.6771 23.2912 29.8308 23.3097 29.9615 23.3898L36.5709 27.4414C36.6594 27.4957 36.7333 27.5757 36.7848 27.6731C36.8363 27.7705 36.8635 27.8817 36.8635 27.995C36.8635 28.1083 36.8363 28.2195 36.7848 28.3169C36.7333 28.4143 36.6594 28.4943 36.5709 28.5486L19.1684 39.2155C19.0862 39.2663 18.9939 39.2931 18.9001 39.2935Z" fill="#040F81" stroke="#2255A4" stroke-width="0.3"/>
</svg>
