<svg width="26" height="26" viewBox="0 0 26 26" fill="none" xmlns="http://www.w3.org/2000/svg">
<path d="M16.7231 22.3088H13.5364C13.4905 22.3088 13.4465 22.2906 13.4141 22.2581C13.3817 22.2257 13.3634 22.1817 13.3634 22.1358C13.3634 22.0899 13.3817 22.0459 13.4141 22.0135C13.4465 21.981 13.4905 21.9628 13.5364 21.9628H16.7231C16.769 21.9628 16.813 21.981 16.8454 22.0135C16.8779 22.0459 16.8961 22.0899 16.8961 22.1358C16.8961 22.1817 16.8779 22.2257 16.8454 22.2581C16.813 22.2906 16.769 22.3088 16.7231 22.3088Z" fill="#2255A4" stroke="#2255A4" stroke-width="0.2"/>
<path d="M12.4631 22.3088H9.27642C9.23054 22.3088 9.18653 22.2906 9.15409 22.2581C9.12164 22.2257 9.10342 22.1817 9.10342 22.1358C9.10342 22.0899 9.12164 22.0459 9.15409 22.0135C9.18653 21.981 9.23054 21.9628 9.27642 21.9628H12.4631C12.509 21.9628 12.553 21.981 12.5854 22.0135C12.6179 22.0459 12.6361 22.0899 12.6361 22.1358C12.6361 22.1817 12.6179 22.2257 12.5854 22.2581C12.553 22.2906 12.509 22.3088 12.4631 22.3088Z" fill="#2255A4" stroke="#2255A4" stroke-width="0.2"/>
<path d="M7.80059 15.407C7.75471 15.407 7.7107 15.3887 7.67826 15.3563C7.64581 15.3238 7.62759 15.2798 7.62759 15.234V13.8008C7.62759 13.7549 7.64581 13.7109 7.67826 13.6785C7.7107 13.6461 7.75471 13.6278 7.80059 13.6278C7.84647 13.6278 7.89047 13.6461 7.92292 13.6785C7.95536 13.7109 7.97359 13.7549 7.97359 13.8008V15.234C7.97359 15.2798 7.95536 15.3238 7.92292 15.3563C7.89047 15.3887 7.84647 15.407 7.80059 15.407Z" fill="#2255A4" stroke="#2255A4" stroke-width="0.2"/>
<path d="M8.88994 15.407C8.84406 15.407 8.80006 15.3887 8.76761 15.3563C8.73517 15.3238 8.71694 15.2798 8.71694 15.234V13.8008C8.71694 13.7549 8.73517 13.7109 8.76761 13.6785C8.80006 13.6461 8.84406 13.6278 8.88994 13.6278C8.93583 13.6278 8.97983 13.6461 9.01227 13.6785C9.04472 13.7109 9.06294 13.7549 9.06294 13.8008V15.234C9.06294 15.2798 9.04472 15.3238 9.01227 15.3563C8.97983 15.3887 8.93583 15.407 8.88994 15.407Z" fill="#2255A4" stroke="#2255A4" stroke-width="0.2"/>
<path d="M17.1102 15.407C17.0643 15.407 17.0203 15.3887 16.9878 15.3563C16.9554 15.3238 16.9372 15.2798 16.9372 15.234V13.8008C16.9372 13.7549 16.9554 13.7109 16.9878 13.6785C17.0203 13.6461 17.0643 13.6278 17.1102 13.6278C17.156 13.6278 17.2 13.6461 17.2325 13.6785C17.2649 13.7109 17.2832 13.7549 17.2832 13.8008V15.234C17.2832 15.2798 17.2649 15.3238 17.2325 15.3563C17.2 15.3887 17.156 15.407 17.1102 15.407Z" fill="#2255A4" stroke="#2255A4" stroke-width="0.2"/>
<path d="M18.2002 15.407C18.1544 15.407 18.1104 15.3887 18.0779 15.3563C18.0455 15.3238 18.0272 15.2798 18.0272 15.234V13.8008C18.0272 13.7549 18.0455 13.7109 18.0779 13.6785C18.1104 13.6461 18.1544 13.6278 18.2002 13.6278C18.2461 13.6278 18.2901 13.6461 18.3226 13.6785C18.355 13.7109 18.3732 13.7549 18.3732 13.8008V15.234C18.3732 15.2798 18.355 15.3238 18.3226 15.3563C18.2901 15.3887 18.2461 15.407 18.2002 15.407Z" fill="#2255A4" stroke="#2255A4" stroke-width="0.2"/>
<path d="M7.80059 9.45418C7.75471 9.45418 7.7107 9.43596 7.67826 9.40351C7.64581 9.37107 7.62759 9.32707 7.62759 9.28119V7.8482C7.62759 7.80231 7.64581 7.75831 7.67826 7.72587C7.7107 7.69342 7.75471 7.6752 7.80059 7.6752C7.84647 7.6752 7.89047 7.69342 7.92292 7.72587C7.95536 7.75831 7.97359 7.80231 7.97359 7.8482V9.28119C7.97359 9.32707 7.95536 9.37107 7.92292 9.40351C7.89047 9.43596 7.84647 9.45418 7.80059 9.45418Z" fill="#2255A4" stroke="#2255A4" stroke-width="0.2"/>
<path d="M8.88994 9.45418C8.84406 9.45418 8.80006 9.43596 8.76761 9.40351C8.73517 9.37107 8.71694 9.32707 8.71694 9.28119V7.8482C8.71694 7.80231 8.73517 7.75831 8.76761 7.72587C8.80006 7.69342 8.84406 7.6752 8.88994 7.6752C8.93583 7.6752 8.97983 7.69342 9.01227 7.72587C9.04472 7.75831 9.06294 7.80231 9.06294 7.8482V9.28119C9.06294 9.32707 9.04472 9.37107 9.01227 9.40351C8.97983 9.43596 8.93583 9.45418 8.88994 9.45418Z" fill="#2255A4" stroke="#2255A4" stroke-width="0.2"/>
<path d="M17.1102 9.45418C17.0643 9.45418 17.0203 9.43596 16.9878 9.40351C16.9554 9.37107 16.9372 9.32707 16.9372 9.28119V7.8482C16.9372 7.80231 16.9554 7.75831 16.9878 7.72587C17.0203 7.69342 17.0643 7.6752 17.1102 7.6752C17.156 7.6752 17.2 7.69342 17.2325 7.72587C17.2649 7.75831 17.2832 7.80231 17.2832 7.8482V9.28119C17.2832 9.32707 17.2649 9.37107 17.2325 9.40351C17.2 9.43596 17.156 9.45418 17.1102 9.45418Z" fill="#2255A4" stroke="#2255A4" stroke-width="0.2"/>
<path d="M18.2002 9.45418C18.1544 9.45418 18.1104 9.43596 18.0779 9.40351C18.0455 9.37107 18.0272 9.32707 18.0272 9.28119V7.8482C18.0272 7.80231 18.0455 7.75831 18.0779 7.72587C18.1104 7.69342 18.1544 7.6752 18.2002 7.6752C18.2461 7.6752 18.2901 7.69342 18.3226 7.72587C18.355 7.75831 18.3732 7.80231 18.3732 7.8482V9.28119C18.3732 9.32707 18.355 9.37107 18.3226 9.40351C18.2901 9.43596 18.2461 9.45418 18.2002 9.45418Z" fill="#2255A4" stroke="#2255A4" stroke-width="0.2"/>
<path d="M6.13033 7.57515V7.67515H6.23033H19.7698H19.8698V7.57515V3.60118V3.50118H19.7698H6.23033H6.13033V3.60118V7.57515ZM20.1652 3.20585L20.2356 3.13542L20.1652 3.20585C20.1976 3.23829 20.2158 3.28229 20.2158 3.32818V7.84815C20.2158 7.89403 20.1976 7.93803 20.1652 7.97047C20.1327 8.00292 20.0887 8.02115 20.0428 8.02115H5.95733C5.91144 8.02115 5.86744 8.00292 5.835 7.97048C5.80255 7.93803 5.78433 7.89403 5.78433 7.84815V3.32818C5.78433 3.28229 5.80255 3.23829 5.835 3.20585C5.86744 3.1734 5.91144 3.15518 5.95733 3.15518H20.0428C20.0887 3.15518 20.1327 3.1734 20.1652 3.20585Z" fill="#2255A4" stroke="#2255A4" stroke-width="0.2"/>
<path d="M15.8097 5.22432H15.8096C15.7378 5.22432 15.6675 5.24563 15.6077 5.28556C15.548 5.32549 15.5014 5.38224 15.4739 5.44864C15.4464 5.51504 15.4392 5.58811 15.4532 5.65859C15.4672 5.72908 15.5019 5.79383 15.5527 5.84465C15.6035 5.89547 15.6682 5.93008 15.7387 5.9441C15.8092 5.95812 15.8823 5.95092 15.9487 5.92342C16.0151 5.89592 16.0718 5.84934 16.1118 5.78958C16.1517 5.72982 16.173 5.65957 16.173 5.5877L16.173 5.5876C16.1729 5.49128 16.1346 5.39894 16.0665 5.33083C15.9984 5.26272 15.906 5.22442 15.8097 5.22432ZM15.8096 6.29708C15.6693 6.29708 15.5322 6.25548 15.4155 6.17753C15.2989 6.09958 15.2079 5.98879 15.1542 5.85917C15.1006 5.72955 15.0865 5.58691 15.1139 5.44931C15.1412 5.3117 15.2088 5.1853 15.308 5.08609C15.4072 4.98688 15.5336 4.91932 15.6712 4.89195C15.8088 4.86458 15.9515 4.87863 16.0811 4.93232C16.2107 4.98601 16.3215 5.07693 16.3995 5.19359C16.4774 5.31025 16.519 5.4474 16.519 5.5877C16.5188 5.77576 16.4439 5.95606 16.311 6.08904C16.178 6.22203 15.9977 6.29684 15.8096 6.29708Z" fill="#2255A4" stroke="#2255A4" stroke-width="0.2"/>
<path d="M17.987 5.22432H17.9869C17.915 5.22432 17.8447 5.24563 17.785 5.28556C17.7252 5.32549 17.6787 5.38224 17.6512 5.44864C17.6236 5.51504 17.6165 5.5881 17.6305 5.65859C17.6445 5.72908 17.6791 5.79383 17.7299 5.84465C17.7807 5.89547 17.8455 5.93008 17.916 5.9441C17.9865 5.95812 18.0595 5.95092 18.1259 5.92342C18.1923 5.89592 18.2491 5.84934 18.289 5.78958C18.3289 5.72983 18.3503 5.65957 18.3503 5.5877L18.3503 5.5876C18.3502 5.49128 18.3119 5.39894 18.2437 5.33083C18.1756 5.26272 18.0833 5.22442 17.987 5.22432ZM17.9869 6.29708C17.8466 6.29708 17.7094 6.25548 17.5928 6.17753C17.4761 6.09958 17.3852 5.98879 17.3315 5.85917C17.2778 5.72955 17.2637 5.58691 17.2911 5.44931C17.3185 5.3117 17.3861 5.1853 17.4853 5.08609C17.5845 4.98688 17.7109 4.91932 17.8485 4.89195C17.9861 4.86458 18.1287 4.87863 18.2583 4.93232C18.388 4.98601 18.4988 5.07693 18.5767 5.19359C18.6546 5.31025 18.6963 5.4474 18.6963 5.5877C18.696 5.77576 18.6212 5.95606 18.4882 6.08904C18.3552 6.22203 18.1749 6.29684 17.9869 6.29708Z" fill="#2255A4" stroke="#2255A4" stroke-width="0.2"/>
<path d="M7.64986 5.90371V6.00371H7.74986H8.38114H8.48114V5.90371V5.27256V5.17256H8.38114H7.74986H7.64986V5.27256V5.90371ZM8.65414 6.34971H7.47686C7.43098 6.34971 7.38697 6.33149 7.35453 6.29904C7.32208 6.2666 7.30386 6.22259 7.30386 6.17671V4.99956C7.30386 4.95368 7.32208 4.90968 7.35453 4.87723C7.38697 4.84479 7.43097 4.82656 7.47686 4.82656H8.65414C8.67686 4.82656 8.69935 4.83104 8.72034 4.83973C8.74133 4.84843 8.7604 4.86117 8.77647 4.87723C8.79253 4.8933 8.80527 4.91237 8.81397 4.93336C8.82266 4.95435 8.82714 4.97684 8.82714 4.99956V6.17671C8.82714 6.19943 8.82266 6.22193 8.81397 6.24292C8.80527 6.26391 8.79253 6.28298 8.77647 6.29904C8.7604 6.31511 8.74133 6.32785 8.72034 6.33654C8.69935 6.34524 8.67686 6.34971 8.65414 6.34971Z" fill="#2255A4" stroke="#2255A4" stroke-width="0.2"/>
<path d="M9.90791 5.90371V6.00371H10.0079H10.6391H10.7391V5.90371V5.27256V5.17256H10.6391H10.0079H9.90791V5.27256V5.90371ZM10.9121 6.34971H9.73491C9.68903 6.34971 9.64503 6.33149 9.61258 6.29904C9.58014 6.2666 9.56191 6.22259 9.56191 6.17671V4.99956C9.56191 4.95368 9.58014 4.90968 9.61258 4.87723C9.64503 4.84479 9.68903 4.82656 9.73491 4.82656H10.9121C10.9579 4.82656 11.002 4.84479 11.0344 4.87723C11.0668 4.90968 11.0851 4.95368 11.0851 4.99956V6.17671C11.0851 6.22259 11.0668 6.2666 11.0344 6.29904C11.002 6.33149 10.9579 6.34971 10.9121 6.34971Z" fill="#2255A4" stroke="#2255A4" stroke-width="0.2"/>
<path d="M12.1662 5.90371V6.00371H12.2662H12.8974H12.9974V5.90371V5.27256V5.17256H12.8974H12.2662H12.1662V5.27256V5.90371ZM13.1704 6.34971H11.9932C11.9473 6.34971 11.9033 6.33149 11.8709 6.29904C11.8384 6.2666 11.8202 6.22259 11.8202 6.17671V4.99956C11.8202 4.95368 11.8384 4.90968 11.8709 4.87723C11.9033 4.84479 11.9473 4.82656 11.9932 4.82656H13.1704C13.2162 4.82656 13.2603 4.84479 13.2927 4.87723C13.3251 4.90968 13.3434 4.95368 13.3434 4.99956V6.17671C13.3434 6.22259 13.3251 6.2666 13.2927 6.29904C13.2603 6.33149 13.2162 6.34971 13.1704 6.34971Z" fill="#2255A4" stroke="#2255A4" stroke-width="0.2"/>
<path d="M6.13033 13.5278V13.6278H6.23033H19.7698H19.8698V13.5278V9.55381V9.45381H19.7698H6.23033H6.13033V9.55381V13.5278ZM20.1652 9.15848L20.2356 9.08806L20.1652 9.15848C20.1976 9.19093 20.2158 9.23493 20.2158 9.28081V13.8008C20.2158 13.8467 20.1976 13.8907 20.1652 13.9231C20.1327 13.9556 20.0887 13.9738 20.0428 13.9738H5.95733C5.91144 13.9738 5.86744 13.9556 5.835 13.9231C5.80255 13.8907 5.78433 13.8467 5.78433 13.8008V9.28081C5.78433 9.23493 5.80255 9.19093 5.835 9.15848C5.86744 9.12604 5.91144 9.10781 5.95733 9.10781H20.0428C20.0887 9.10781 20.1327 9.12604 20.1652 9.15848Z" fill="#2255A4" stroke="#2255A4" stroke-width="0.2"/>
<path d="M15.9096 11.1918V11.1776H15.8096C15.7378 11.1776 15.6675 11.1989 15.6077 11.2388C15.548 11.2787 15.5014 11.3355 15.4739 11.4019C15.4464 11.4683 15.4392 11.5414 15.4532 11.6118C15.4672 11.6823 15.5019 11.7471 15.5527 11.7979C15.6035 11.8487 15.6682 11.8833 15.7387 11.8974C15.8092 11.9114 15.8823 11.9042 15.9487 11.8767C16.0151 11.8492 16.0718 11.8026 16.1118 11.7428C16.1517 11.6831 16.173 11.6128 16.173 11.541L16.173 11.5408C16.1729 11.4445 16.1345 11.3522 16.0664 11.2841C16.0224 11.2402 15.9684 11.2086 15.9096 11.1918ZM15.8096 12.2502C15.6693 12.2502 15.5322 12.2086 15.4155 12.1306C15.2988 12.0527 15.2079 11.9419 15.1542 11.8123C15.1005 11.6826 15.0865 11.54 15.1139 11.4024C15.1413 11.2648 15.2088 11.1384 15.3081 11.0392C15.4073 10.94 15.5337 10.8724 15.6713 10.8451C15.8089 10.8177 15.9516 10.8318 16.0812 10.8855C16.2108 10.9392 16.3216 11.0301 16.3995 11.1468C16.4774 11.2635 16.519 11.4006 16.519 11.5409C16.5188 11.729 16.444 11.9093 16.311 12.0422C16.178 12.1752 15.9977 12.25 15.8096 12.2502Z" fill="#2255A4" stroke="#2255A4" stroke-width="0.2"/>
<path d="M18.0869 11.1918V11.1776H17.9869C17.915 11.1776 17.8447 11.1989 17.785 11.2388C17.7252 11.2787 17.6787 11.3355 17.6512 11.4019C17.6236 11.4683 17.6165 11.5414 17.6305 11.6118C17.6445 11.6823 17.6791 11.7471 17.7299 11.7979C17.7807 11.8487 17.8455 11.8833 17.916 11.8974C17.9865 11.9114 18.0595 11.9042 18.1259 11.8767C18.1923 11.8492 18.2491 11.8026 18.289 11.7428C18.3289 11.6831 18.3503 11.6128 18.3503 11.541L18.3503 11.5408C18.3501 11.4445 18.3118 11.3522 18.2437 11.2841C18.1997 11.2402 18.1456 11.2086 18.0869 11.1918ZM17.9869 12.2502C17.8466 12.2502 17.7094 12.2086 17.5927 12.1306C17.4761 12.0527 17.3852 11.9419 17.3315 11.8123C17.2778 11.6826 17.2637 11.54 17.2911 11.4024C17.3185 11.2648 17.3861 11.1384 17.4853 11.0392C17.5845 10.94 17.7109 10.8724 17.8485 10.8451C17.9862 10.8177 18.1288 10.8318 18.2584 10.8855C18.388 10.9392 18.4988 11.0301 18.5768 11.1468C18.6547 11.2635 18.6963 11.4006 18.6963 11.5409C18.696 11.729 18.6212 11.9093 18.4882 12.0422C18.3552 12.1752 18.1749 12.25 17.9869 12.2502Z" fill="#2255A4" stroke="#2255A4" stroke-width="0.2"/>
<path d="M7.64986 11.856V11.956H7.74986H8.38114H8.48114V11.856V11.2252V11.1252H8.38114H7.74986H7.64986V11.2252V11.856ZM8.65414 12.302H7.47686C7.43098 12.302 7.38697 12.2837 7.35453 12.2513C7.32208 12.2188 7.30386 12.1748 7.30386 12.129V10.9522C7.30386 10.9063 7.32208 10.8623 7.35453 10.8299C7.38697 10.7974 7.43097 10.7792 7.47686 10.7792H8.65414C8.67686 10.7792 8.69935 10.7837 8.72034 10.7924C8.74133 10.8011 8.7604 10.8138 8.77647 10.8299C8.79253 10.8459 8.80527 10.865 8.81397 10.886C8.82266 10.907 8.82714 10.9295 8.82714 10.9522V12.129C8.82714 12.1517 8.82266 12.1742 8.81397 12.1952C8.80527 12.2162 8.79253 12.2352 8.77647 12.2513C8.7604 12.2674 8.74133 12.2801 8.72034 12.2888C8.69935 12.2975 8.67686 12.302 8.65414 12.302Z" fill="#2255A4" stroke="#2255A4" stroke-width="0.2"/>
<path d="M9.90791 11.856V11.956H10.0079H10.6391H10.7391V11.856V11.2252V11.1252H10.6391H10.0079H9.90791V11.2252V11.856ZM10.9121 12.302H9.73491C9.68903 12.302 9.64503 12.2837 9.61258 12.2513C9.58014 12.2188 9.56191 12.1748 9.56191 12.129V10.9522C9.56191 10.9063 9.58014 10.8623 9.61258 10.8299C9.64503 10.7974 9.68903 10.7792 9.73491 10.7792H10.9121C10.9579 10.7792 11.002 10.7974 11.0344 10.8299C11.0668 10.8623 11.0851 10.9063 11.0851 10.9522V12.129C11.0851 12.1748 11.0668 12.2188 11.0344 12.2513C11.002 12.2837 10.9579 12.302 10.9121 12.302Z" fill="#2255A4" stroke="#2255A4" stroke-width="0.2"/>
<path d="M12.1662 11.856V11.956H12.2662H12.8974H12.9974V11.856V11.2252V11.1252H12.8974H12.2662H12.1662V11.2252V11.856ZM13.1704 12.302H11.9932C11.9473 12.302 11.9033 12.2837 11.8709 12.2513C11.8384 12.2188 11.8202 12.1748 11.8202 12.129V10.9522C11.8202 10.9063 11.8384 10.8623 11.8709 10.8299C11.9033 10.7974 11.9473 10.7792 11.9932 10.7792H13.1704C13.2162 10.7792 13.2603 10.7974 13.2927 10.8299C13.3251 10.8623 13.3434 10.9063 13.3434 10.9522V12.129C13.3434 12.1748 13.3251 12.2188 13.2927 12.2513C13.2603 12.2837 13.2162 12.302 13.1704 12.302Z" fill="#2255A4" stroke="#2255A4" stroke-width="0.2"/>
<path d="M6.13033 19.4808V19.5808H6.23033H19.7698H19.8698V19.4808V15.5069V15.4069H19.7698H6.23033H6.13033V15.5069V19.4808ZM20.1652 15.1116L20.2358 15.0409L20.1652 15.1116C20.1976 15.1441 20.2158 15.1881 20.2158 15.2339V19.7538C20.2158 19.7997 20.1976 19.8437 20.1652 19.8761C20.1327 19.9086 20.0887 19.9268 20.0428 19.9268H5.95733C5.91144 19.9268 5.86744 19.9086 5.835 19.8761C5.80255 19.8437 5.78433 19.7997 5.78433 19.7538V15.2339C5.78433 15.1881 5.80255 15.1441 5.835 15.1116C5.86744 15.0792 5.91144 15.0609 5.95733 15.0609H20.0428C20.0887 15.0609 20.1327 15.0792 20.1652 15.1116Z" fill="#2255A4" stroke="#2255A4" stroke-width="0.2"/>
<path d="M15.8097 17.1306H15.8096C15.7378 17.1306 15.6675 17.1519 15.6077 17.1918C15.548 17.2317 15.5014 17.2885 15.4739 17.3549C15.4464 17.4213 15.4392 17.4944 15.4532 17.5648C15.4672 17.6353 15.5019 17.7001 15.5527 17.7509C15.6035 17.8017 15.6682 17.8363 15.7387 17.8503C15.8092 17.8644 15.8823 17.8572 15.9487 17.8297C16.0151 17.8022 16.0718 17.7556 16.1118 17.6958C16.1517 17.6361 16.173 17.5658 16.173 17.494L16.173 17.4939C16.1729 17.3975 16.1346 17.3052 16.0665 17.2371C15.9984 17.169 15.906 17.1307 15.8097 17.1306ZM15.8096 18.2033C15.6693 18.2033 15.5322 18.1617 15.4155 18.0838C15.2989 18.0058 15.2079 17.895 15.1542 17.7654C15.1006 17.6358 15.0865 17.4932 15.1139 17.3556C15.1412 17.218 15.2088 17.0916 15.308 16.9923C15.4072 16.8931 15.5336 16.8256 15.6712 16.7982C15.8088 16.7708 15.9515 16.7849 16.0811 16.8386C16.2107 16.8923 16.3215 16.9832 16.3995 17.0998C16.4774 17.2165 16.519 17.3536 16.519 17.494C16.5188 17.682 16.4439 17.8623 16.311 17.9953C16.178 18.1283 15.9977 18.2031 15.8096 18.2033Z" fill="#2255A4" stroke="#2255A4" stroke-width="0.2"/>
<path d="M17.987 17.1306H17.9869C17.915 17.1306 17.8447 17.1519 17.785 17.1918C17.7252 17.2317 17.6787 17.2885 17.6512 17.3549C17.6236 17.4213 17.6165 17.4944 17.6305 17.5648C17.6445 17.6353 17.6791 17.7001 17.7299 17.7509C17.7807 17.8017 17.8455 17.8363 17.916 17.8503C17.9865 17.8644 18.0595 17.8572 18.1259 17.8297C18.1923 17.8022 18.2491 17.7556 18.289 17.6958C18.3289 17.6361 18.3503 17.5658 18.3503 17.494L18.3503 17.4939C18.3502 17.3975 18.3119 17.3052 18.2437 17.2371C18.1756 17.169 18.0833 17.1307 17.987 17.1306ZM17.9869 18.2033C17.8466 18.2033 17.7094 18.1617 17.5928 18.0838C17.4761 18.0058 17.3852 17.895 17.3315 17.7654C17.2778 17.6358 17.2637 17.4932 17.2911 17.3556C17.3185 17.218 17.3861 17.0916 17.4853 16.9923C17.5845 16.8931 17.7109 16.8256 17.8485 16.7982C17.9861 16.7708 18.1287 16.7849 18.2583 16.8386C18.388 16.8923 18.4988 16.9832 18.5767 17.0998C18.6546 17.2165 18.6963 17.3536 18.6963 17.494C18.696 17.682 18.6212 17.8623 18.4882 17.9953C18.3552 18.1283 18.1749 18.2031 17.9869 18.2033Z" fill="#2255A4" stroke="#2255A4" stroke-width="0.2"/>
<path d="M7.64986 17.8101V17.9101H7.74986H8.38114H8.48114V17.8101V17.1788V17.0788H8.38114H7.74986H7.64986V17.1788V17.8101ZM8.65414 18.2561H7.47686C7.43097 18.2561 7.38697 18.2379 7.35453 18.2054C7.32208 18.173 7.30386 18.129 7.30386 18.0831V16.9058C7.30386 16.8599 7.32208 16.8159 7.35453 16.7835C7.38697 16.751 7.43097 16.7328 7.47686 16.7328H8.65414C8.67685 16.7328 8.69935 16.7373 8.72034 16.746C8.74133 16.7547 8.7604 16.7674 8.77647 16.7835C8.79253 16.7995 8.80527 16.8186 8.81397 16.8396C8.82266 16.8606 8.82714 16.8831 8.82714 16.9058V18.0831C8.82714 18.1058 8.82266 18.1283 8.81397 18.1493C8.80527 18.1703 8.79253 18.1894 8.77647 18.2054C8.7604 18.2215 8.74133 18.2342 8.72034 18.2429C8.69935 18.2516 8.67686 18.2561 8.65414 18.2561Z" fill="#2255A4" stroke="#2255A4" stroke-width="0.2"/>
<path d="M9.90791 17.8101V17.9101H10.0079H10.6391H10.7391V17.8101V17.1788V17.0788H10.6391H10.0079H9.90791V17.1788V17.8101ZM10.9121 18.2561H9.73491C9.68903 18.2561 9.64503 18.2379 9.61258 18.2054C9.58014 18.173 9.56191 18.129 9.56191 18.0831V16.9058C9.56191 16.8599 9.58014 16.8159 9.61258 16.7835C9.64503 16.751 9.68903 16.7328 9.73491 16.7328H10.9121C10.9579 16.7328 11.002 16.751 11.0344 16.7835C11.0668 16.8159 11.0851 16.8599 11.0851 16.9058V18.0831C11.0851 18.129 11.0668 18.173 11.0344 18.2054C11.002 18.2379 10.9579 18.2561 10.9121 18.2561Z" fill="#2255A4" stroke="#2255A4" stroke-width="0.2"/>
<path d="M12.1662 17.8101V17.9101H12.2662H12.8974H12.9974V17.8101V17.1788V17.0788H12.8974H12.2662H12.1662V17.1788V17.8101ZM13.1704 18.2561H11.9932C11.9473 18.2561 11.9033 18.2379 11.8709 18.2054C11.8384 18.173 11.8202 18.129 11.8202 18.0831V16.9058C11.8202 16.8599 11.8384 16.8159 11.8709 16.7835C11.9033 16.751 11.9473 16.7328 11.9932 16.7328H13.1704C13.2162 16.7328 13.2603 16.751 13.2927 16.7835C13.3251 16.8159 13.3434 16.8599 13.3434 16.9058V18.0831C13.3434 18.129 13.3251 18.173 13.2927 18.2054C13.2603 18.2379 13.2162 18.2561 13.1704 18.2561Z" fill="#2255A4" stroke="#2255A4" stroke-width="0.2"/>
<path d="M13.0008 21.7725C12.9549 21.7725 12.9109 21.7542 12.8785 21.7218C12.846 21.6894 12.8278 21.6454 12.8278 21.5995V19.7535C12.8278 19.7076 12.846 19.6636 12.8785 19.6311C12.9109 19.5987 12.9549 19.5805 13.0008 19.5805C13.0467 19.5805 13.0907 19.5987 13.1231 19.6311C13.1556 19.6636 13.1738 19.7076 13.1738 19.7535V21.5995C13.1738 21.6454 13.1556 21.6894 13.1231 21.7218C13.0907 21.7542 13.0467 21.7725 13.0008 21.7725Z" fill="#2255A4" stroke="#2255A4" stroke-width="0.2"/>
<path d="M13.0002 21.7722H13.0001C12.9282 21.7722 12.8579 21.7935 12.7982 21.8334C12.7384 21.8733 12.6918 21.9301 12.6643 21.9965C12.6368 22.0629 12.6296 22.136 12.6437 22.2064C12.6577 22.2769 12.6923 22.3417 12.7431 22.3925C12.7939 22.4433 12.8587 22.4779 12.9292 22.492C12.9997 22.506 13.0727 22.4988 13.1391 22.4713C13.2055 22.4438 13.2623 22.3972 13.3022 22.3374C13.3421 22.2777 13.3634 22.2074 13.3634 22.1356L13.3634 22.1355C13.3633 22.0391 13.325 21.9468 13.2569 21.8787C13.1888 21.8106 13.0965 21.7723 13.0002 21.7722ZM13.0001 22.8449C12.8598 22.8449 12.7226 22.8033 12.6059 22.7254C12.4893 22.6474 12.3984 22.5366 12.3447 22.407C12.291 22.2774 12.2769 22.1348 12.3043 21.9972C12.3317 21.8596 12.3992 21.7332 12.4984 21.6339C12.5977 21.5347 12.7241 21.4672 12.8617 21.4398C12.9993 21.4124 13.1419 21.4265 13.2715 21.4802C13.4011 21.5339 13.5119 21.6248 13.5899 21.7414C13.6678 21.8581 13.7094 21.9953 13.7094 22.1356C13.7092 22.3236 13.6344 22.5039 13.5014 22.6369C13.3684 22.7699 13.1881 22.8447 13.0001 22.8449Z" fill="#2255A4" stroke="#2255A4" stroke-width="0.2"/>
</svg>
