<svg width="32" height="32" viewBox="0 0 32 32" fill="none" xmlns="http://www.w3.org/2000/svg">
<g clip-path="url(#clip0_575_27085)">
<path d="M27.9041 22.224H4.09611C4.01972 22.224 3.94647 22.1937 3.89246 22.1397C3.83845 22.0857 3.80811 22.0124 3.80811 21.936V5.413C3.80811 5.33662 3.83845 5.26336 3.89246 5.20935C3.94647 5.15534 4.01972 5.125 4.09611 5.125H27.9041C27.9805 5.125 28.0537 5.15534 28.1077 5.20935C28.1618 5.26336 28.1921 5.33662 28.1921 5.413V21.936C28.1921 22.0124 28.1618 22.0857 28.1077 22.1397C28.0537 22.1937 27.9805 22.224 27.9041 22.224ZM4.38411 21.648H27.6161V5.701H4.38411V21.648Z" fill="#2255A4" stroke="#3D4DB6" stroke-width="0.1"/>
<path d="M27.9041 19.408H4.09611C4.01972 19.408 3.94647 19.3777 3.89246 19.3237C3.83845 19.2697 3.80811 19.1964 3.80811 19.12V5.413C3.80811 5.33662 3.83845 5.26336 3.89246 5.20935C3.94647 5.15534 4.01972 5.125 4.09611 5.125H27.9041C27.9805 5.125 28.0537 5.15534 28.1077 5.20935C28.1618 5.26336 28.1921 5.33662 28.1921 5.413V19.12C28.1921 19.1964 28.1618 19.2697 28.1077 19.3237C28.0537 19.3777 27.9805 19.408 27.9041 19.408ZM4.38411 18.832H27.6161V5.701H4.38411V18.832Z" fill="#2255A4" stroke="#3D4DB6" stroke-width="0.1"/>
<path d="M14.2453 24.6899C14.1689 24.6899 14.0956 24.6595 14.0416 24.6055C13.9876 24.5515 13.9573 24.4783 13.9573 24.4019V21.9364C13.9573 21.8601 13.9876 21.7868 14.0416 21.7328C14.0956 21.6788 14.1689 21.6484 14.2453 21.6484C14.3217 21.6484 14.3949 21.6788 14.4489 21.7328C14.5029 21.7868 14.5333 21.8601 14.5333 21.9364V24.4019C14.5333 24.4783 14.5029 24.5515 14.4489 24.6055C14.3949 24.6595 14.3217 24.6899 14.2453 24.6899Z" fill="#2255A4" stroke="#3D4DB6" stroke-width="0.1"/>
<path d="M17.7548 24.6899C17.6784 24.6899 17.6052 24.6595 17.5512 24.6055C17.4971 24.5515 17.4668 24.4783 17.4668 24.4019V21.9364C17.4668 21.8601 17.4971 21.7868 17.5512 21.7328C17.6052 21.6788 17.6784 21.6484 17.7548 21.6484C17.8312 21.6484 17.9044 21.6788 17.9584 21.7328C18.0125 21.7868 18.0428 21.8601 18.0428 21.9364V24.4019C18.0428 24.4783 18.0125 24.5515 17.9584 24.6055C17.9044 24.6595 17.8312 24.6899 17.7548 24.6899Z" fill="#2255A4" stroke="#3D4DB6" stroke-width="0.1"/>
<path d="M22.1641 26.8747H9.8361C9.75971 26.8747 9.68646 26.8444 9.63245 26.7904C9.57844 26.7364 9.5481 26.6631 9.5481 26.5867V24.4013C9.5481 24.3249 9.57844 24.2516 9.63245 24.1976C9.68646 24.1436 9.75971 24.1133 9.8361 24.1133H22.1641C22.2405 24.1133 22.3137 24.1436 22.3677 24.1976C22.4218 24.2516 22.4521 24.3249 22.4521 24.4013V26.5867C22.4521 26.6631 22.4218 26.7364 22.3677 26.7904C22.3137 26.8444 22.2405 26.8747 22.1641 26.8747ZM10.1241 26.2987H21.8761V24.6893H10.1241V26.2987Z" fill="#2255A4" stroke="#3D4DB6" stroke-width="0.1"/>
<path d="M16.0362 13.1623C15.9959 13.1624 15.9561 13.1539 15.9193 13.1375L9.63575 10.3438C9.58475 10.3211 9.54145 10.2841 9.51111 10.2372C9.48076 10.1904 9.46469 10.1357 9.46484 10.0799C9.465 10.0241 9.48137 9.96949 9.51197 9.9228C9.54256 9.87611 9.58607 9.83932 9.63719 9.81691L15.8481 7.09579C15.8847 7.07963 15.9243 7.07129 15.9643 7.07129C16.0043 7.07129 16.0439 7.07963 16.0805 7.09579L22.3641 9.88955C22.4151 9.91224 22.4584 9.94927 22.4887 9.99612C22.5191 10.043 22.5351 10.0976 22.535 10.1535C22.5348 10.2093 22.5185 10.2638 22.4879 10.3105C22.4573 10.3572 22.4138 10.394 22.3626 10.4164L16.1517 13.138C16.1153 13.154 16.076 13.1623 16.0362 13.1623ZM10.466 10.0825L16.037 12.5596L21.5338 10.1515L15.9628 7.67451L10.466 10.0825Z" fill="#2255A4" stroke="#3D4DB6" stroke-width="0.1"/>
<path d="M16.0364 16.0878C15.9964 16.088 15.9568 16.0798 15.9201 16.0638L11.5395 14.1157C11.4697 14.0847 11.415 14.0272 11.3876 13.9559C11.3602 13.8846 11.3622 13.8053 11.3932 13.7355C11.4242 13.6657 11.4817 13.6111 11.553 13.5837C11.6243 13.5562 11.7036 13.5583 11.7734 13.5893L16.0374 15.485L20.2281 13.649C20.2628 13.6338 20.3001 13.6256 20.3379 13.6248C20.3758 13.624 20.4134 13.6308 20.4486 13.6445C20.4839 13.6583 20.5161 13.6789 20.5434 13.7051C20.5707 13.7313 20.5925 13.7627 20.6077 13.7973C20.6229 13.832 20.6311 13.8693 20.6318 13.9072C20.6326 13.945 20.6259 13.9826 20.6121 14.0179C20.5983 14.0531 20.5778 14.0853 20.5515 14.1126C20.5253 14.1399 20.494 14.1618 20.4593 14.177L16.1521 16.0638C16.1156 16.0797 16.0762 16.0879 16.0364 16.0878Z" fill="#2255A4" stroke="#3D4DB6" stroke-width="0.1"/>
<path d="M19.201 16.4059C19.1247 16.4059 19.0514 16.3755 18.9974 16.3215C18.9434 16.2675 18.913 16.1942 18.913 16.1179V11.674L15.4681 10.1423C15.4335 10.127 15.4023 10.105 15.3762 10.0775C15.3501 10.0501 15.3297 10.0178 15.3161 9.9825C15.3025 9.94719 15.296 9.90954 15.297 9.87171C15.2979 9.83388 15.3063 9.79661 15.3217 9.76202C15.337 9.72744 15.3591 9.69622 15.3865 9.67014C15.4139 9.64407 15.4462 9.62365 15.4815 9.61006C15.5168 9.59646 15.5545 9.58996 15.5923 9.59091C15.6301 9.59187 15.6674 9.60026 15.702 9.61562L19.318 11.2235C19.3691 11.2462 19.4124 11.2832 19.4428 11.3301C19.4732 11.377 19.4892 11.4317 19.489 11.4876V16.1187C19.4888 16.1949 19.4584 16.268 19.4044 16.3218C19.3504 16.3756 19.2773 16.4059 19.201 16.4059Z" fill="#2255A4" stroke="#3D4DB6" stroke-width="0.1"/>
<path d="M19.201 17.4611C19.0396 17.4611 18.8819 17.4132 18.7477 17.3236C18.6135 17.2339 18.5089 17.1065 18.4471 16.9574C18.3854 16.8083 18.3692 16.6442 18.4007 16.4859C18.4322 16.3276 18.5099 16.1822 18.624 16.0681C18.7381 15.954 18.8835 15.8763 19.0418 15.8448C19.2001 15.8133 19.3642 15.8295 19.5133 15.8912C19.6624 15.953 19.7898 16.0576 19.8795 16.1918C19.9692 16.3259 20.017 16.4837 20.017 16.6451C20.017 16.8615 19.931 17.0691 19.778 17.2221C19.625 17.3751 19.4174 17.4611 19.201 17.4611ZM19.201 16.4062C19.1535 16.4062 19.1071 16.4203 19.0677 16.4467C19.0282 16.473 18.9974 16.5105 18.9793 16.5544C18.9611 16.5982 18.9564 16.6465 18.9656 16.693C18.9749 16.7396 18.9977 16.7824 19.0313 16.8159C19.0649 16.8495 19.1076 16.8724 19.1542 16.8816C19.2007 16.8909 19.249 16.8861 19.2929 16.868C19.3367 16.8498 19.3742 16.819 19.4006 16.7796C19.4269 16.7401 19.441 16.6937 19.441 16.6462C19.441 16.5826 19.4157 16.5215 19.3707 16.4765C19.3257 16.4315 19.2647 16.4062 19.201 16.4062Z" fill="#2255A4" stroke="#3D4DB6" stroke-width="0.1"/>
<path d="M11.6562 14.1403C11.5798 14.1403 11.5065 14.1099 11.4525 14.0559C11.3985 14.0019 11.3682 13.9287 11.3682 13.8523V10.9276C11.3682 10.8513 11.3985 10.778 11.4525 10.724C11.5065 10.67 11.5798 10.6396 11.6562 10.6396C11.7325 10.6396 11.8058 10.67 11.8598 10.724C11.9138 10.778 11.9442 10.8513 11.9442 10.9276V13.8523C11.9442 13.9287 11.9138 14.0019 11.8598 14.0559C11.8058 14.1099 11.7325 14.1403 11.6562 14.1403Z" fill="#2255A4" stroke="#3D4DB6" stroke-width="0.1"/>
<path d="M20.3437 14.2005C20.2673 14.2005 20.194 14.1702 20.14 14.1161C20.086 14.0621 20.0557 13.9889 20.0557 13.9125V10.9872C20.0557 10.9108 20.086 10.8376 20.14 10.7836C20.194 10.7296 20.2673 10.6992 20.3437 10.6992C20.42 10.6992 20.4933 10.7296 20.5473 10.7836C20.6013 10.8376 20.6317 10.9108 20.6317 10.9872V13.9125C20.6317 13.9889 20.6013 14.0621 20.5473 14.1161C20.4933 14.1702 20.42 14.2005 20.3437 14.2005Z" fill="#2255A4" stroke="#3D4DB6" stroke-width="0.1"/>
</g>
<defs>
<clipPath id="clip0_575_27085">
<rect width="32" height="32" fill="white"/>
</clipPath>
</defs>
</svg>
