<svg width="30" height="30" viewBox="0 0 30 30" fill="none" xmlns="http://www.w3.org/2000/svg">
<g clip-path="url(#clip0_5667_4556)">
<path d="M22.3023 13.0986L22.2524 13.0953C22.261 12.9659 22.2653 12.8345 22.2653 12.7057C22.2653 9.52299 19.6761 6.9335 16.4936 6.9335C13.9073 6.9335 11.6203 8.67216 10.9303 11.1613L10.9303 11.1613C10.9087 11.239 10.8578 11.3053 10.7883 11.3461C10.7188 11.387 10.6361 11.3993 10.5578 11.3804L10.5577 11.3804C10.3194 11.3227 10.0751 11.2936 9.82997 11.2936C8.13903 11.2936 6.76247 12.6692 6.76247 14.36V14.36C6.76212 14.6659 6.80761 14.9702 6.89744 15.2626C6.91176 15.3091 6.91497 15.3583 6.90681 15.4063C6.89865 15.4543 6.87933 15.4997 6.85043 15.5388C6.82152 15.578 6.78382 15.6098 6.74037 15.6317C6.69692 15.6537 6.64893 15.6651 6.60024 15.6651H5.79404C5.33733 15.6651 4.89932 15.8465 4.57638 16.1695C4.25343 16.4924 4.072 16.9304 4.072 17.3872C4.072 17.8439 4.25343 18.2819 4.57638 18.6048C4.89932 18.9278 5.33733 19.1092 5.79404 19.1092H9.15804C9.24053 19.1092 9.31963 19.142 9.37795 19.2003C9.43628 19.2586 9.46905 19.3377 9.46905 19.4202C9.46905 19.5027 9.43628 19.5818 9.37795 19.6401C9.31963 19.6984 9.24053 19.7312 9.15804 19.7312H5.79404C5.17246 19.7312 4.57631 19.4844 4.13672 19.0449C3.69714 18.6054 3.45012 18.0093 3.45 17.3877C3.45 16.095 4.50189 15.0434 5.79404 15.0434H6.2047C6.16254 14.8182 6.14137 14.5895 6.14149 14.3603C6.1418 13.3819 6.53065 12.4438 7.22254 11.7522C7.91442 11.0605 8.85268 10.6719 9.83099 10.6719H9.831C10.0267 10.672 10.2221 10.6875 10.4153 10.7182C10.8839 9.28221 11.8458 8.05792 13.1314 7.26306C14.4292 6.4606 15.9712 6.14872 17.4788 6.38373C18.9865 6.61875 20.3604 7.38517 21.3524 8.54455C22.3444 9.70394 22.8891 11.1799 22.8881 12.7057M22.3023 13.0986L22.8381 12.7057M22.3023 13.0986L22.2524 13.0953C22.2471 13.1746 22.2724 13.253 22.3231 13.3142C22.3738 13.3754 22.446 13.415 22.5249 13.4246L22.531 13.375M22.3023 13.0986L22.531 13.375M22.8881 12.7057L22.8381 12.7057M22.8881 12.7057C22.8881 12.7057 22.8881 12.7057 22.8881 12.7057H22.8381M22.8881 12.7057C22.8881 12.7548 22.8875 12.8042 22.8864 12.8535M22.8381 12.7057C22.8381 12.7683 22.8372 12.8315 22.8353 12.8942M22.8864 12.8535C22.8726 12.8506 22.8588 12.8478 22.8449 12.8451L22.8353 12.8942M22.8864 12.8535C24.4793 13.1856 25.648 14.6001 25.648 16.256C25.648 16.7124 25.5581 17.1644 25.3835 17.586C25.2088 18.0077 24.9528 18.3909 24.6301 18.7136C24.3074 19.0363 23.9242 19.2923 23.5025 19.467C23.0809 19.6416 22.6289 19.7315 22.1725 19.7315H21.256C21.1735 19.7315 21.0944 19.6987 21.0361 19.6404C20.9777 19.5821 20.945 19.503 20.945 19.4205C20.945 19.338 20.9777 19.2589 21.0361 19.2006C21.0944 19.1423 21.1735 19.1095 21.256 19.1095H22.1725C22.5473 19.1095 22.9183 19.0357 23.2645 18.8923C23.6107 18.7489 23.9253 18.5387 24.1903 18.2738C24.4552 18.0088 24.6654 17.6942 24.8088 17.348C24.9522 17.0018 25.026 16.6307 25.026 16.256C25.026 14.8167 23.9506 13.5993 22.5249 13.4246L22.531 13.375M22.8864 12.8535C22.8861 12.8676 22.8857 12.8816 22.8853 12.8957L22.8353 12.8942M22.8353 12.8942L22.531 13.375" fill="white" stroke="white" stroke-width="0.1"/>
<path d="M15.2063 22.6645C15.1371 22.6645 15.0707 22.637 15.0218 22.588C14.9728 22.5391 14.9453 22.4727 14.9453 22.4035V22.2219C14.9453 22.1527 14.9728 22.0863 15.0218 22.0374C15.0707 21.9884 15.1371 21.9609 15.2063 21.9609C15.2755 21.9609 15.3419 21.9884 15.3909 22.0374C15.4398 22.0863 15.4673 22.1527 15.4673 22.2219V22.4035C15.4673 22.4727 15.4398 22.5391 15.3909 22.588C15.3419 22.637 15.2755 22.6645 15.2063 22.6645Z" fill="white"/>
<path d="M15.2062 23.6372C15.1668 23.6372 15.128 23.6283 15.0926 23.6112C15.0572 23.5941 15.0262 23.5692 15.0017 23.5384L14.5651 22.9879C14.4845 22.8858 14.3819 22.8034 14.2648 22.7468C14.1477 22.6903 14.0193 22.661 13.8893 22.6613H9.15748C9.08826 22.6613 9.02188 22.6338 8.97293 22.5849C8.92398 22.5359 8.89648 22.4696 8.89648 22.4003V14.7571C8.89648 14.6879 8.92398 14.6215 8.97293 14.5725C9.02188 14.5236 9.08826 14.4961 9.15748 14.4961H13.8768C14.1405 14.4961 14.4 14.5617 14.6321 14.6869C14.8641 14.8122 15.0614 14.9931 15.2062 15.2136C15.3509 14.9931 15.5482 14.8122 15.7802 14.6869C16.0123 14.5617 16.2718 14.4961 16.5355 14.4961H21.2548C21.3241 14.4961 21.3904 14.5236 21.4394 14.5725C21.4883 14.6215 21.5158 14.6879 21.5158 14.7571V22.4009C21.5158 22.4701 21.4883 22.5365 21.4394 22.5855C21.3904 22.6344 21.3241 22.6619 21.2548 22.6619H16.523C16.393 22.6616 16.2646 22.6908 16.1475 22.7474C16.0304 22.8039 15.9277 22.8864 15.8472 22.9885L15.4106 23.5389C15.3861 23.5696 15.355 23.5944 15.3196 23.6114C15.2842 23.6284 15.2454 23.6372 15.2062 23.6372ZM9.41848 22.1399H13.8893C14.098 22.1394 14.304 22.1863 14.492 22.2771C14.6799 22.3678 14.8447 22.5001 14.974 22.6639L15.206 22.9564L15.438 22.6639C15.5673 22.5001 15.7321 22.3678 15.9201 22.2771C16.108 22.1863 16.3141 22.1394 16.5228 22.1399H20.9935V15.0181H16.5355C16.2806 15.0168 16.0337 15.1072 15.8399 15.2729C15.6461 15.4385 15.5184 15.6683 15.4799 15.9203C15.4715 15.9753 15.4672 16.0308 15.4672 16.0865V22.22C15.4672 22.2892 15.4397 22.3556 15.3907 22.4045C15.3418 22.4535 15.2754 22.481 15.2062 22.481C15.1369 22.481 15.0706 22.4535 15.0216 22.4045C14.9727 22.3556 14.9452 22.2892 14.9452 22.22V16.0859C14.9451 16.0302 14.9408 15.9746 14.9323 15.9196C14.8938 15.6676 14.7661 15.4378 14.5723 15.2722C14.3786 15.1066 14.1317 15.0162 13.8768 15.0175H9.41848V22.1399Z" fill="white"/>
<path d="M15.2063 23.6397C15.1371 23.6397 15.0707 23.6122 15.0218 23.5633C14.9728 23.5144 14.9453 23.448 14.9453 23.3787V22.2219C14.9453 22.1527 14.9728 22.0863 15.0218 22.0374C15.0707 21.9884 15.1371 21.9609 15.2063 21.9609C15.2755 21.9609 15.3419 21.9884 15.3909 22.0374C15.4398 22.0863 15.4673 22.1527 15.4673 22.2219V23.3787C15.4673 23.448 15.4398 23.5144 15.3909 23.5633C15.3419 23.6122 15.2755 23.6397 15.2063 23.6397Z" fill="white"/>
<path d="M15.2247 16.1431H15.1926C15.1234 16.1431 15.057 16.1156 15.0081 16.0666C14.9591 16.0177 14.9316 15.9513 14.9316 15.8821C14.9316 15.8129 14.9591 15.7465 15.0081 15.6975C15.057 15.6486 15.1234 15.6211 15.1926 15.6211H15.2247C15.2939 15.6211 15.3603 15.6486 15.4092 15.6975C15.4582 15.7465 15.4857 15.8129 15.4857 15.8821C15.4857 15.9513 15.4582 16.0177 15.4092 16.0666C15.3603 16.1156 15.2939 16.1431 15.2247 16.1431Z" fill="white"/>
<path d="M15.2063 22.6645C15.1371 22.6645 15.0707 22.637 15.0218 22.588C14.9728 22.5391 14.9453 22.4727 14.9453 22.4035V22.2219C14.9453 22.1527 14.9728 22.0863 15.0218 22.0374C15.0707 21.9884 15.1371 21.9609 15.2063 21.9609C15.2755 21.9609 15.3419 21.9884 15.3909 22.0374C15.4398 22.0863 15.4673 22.1527 15.4673 22.2219V22.4035C15.4673 22.4727 15.4398 22.5391 15.3909 22.588C15.3419 22.637 15.2755 22.6645 15.2063 22.6645Z" fill="white"/>
<path d="M14.9625 23.5695L14.9625 23.5695L14.5259 23.0189L14.5259 23.0189C14.45 22.9227 14.3533 22.8451 14.243 22.7918C14.1328 22.7386 14.0118 22.711 13.8894 22.7113H13.8893H9.15748C9.075 22.7113 8.9959 22.6786 8.93757 22.6202C8.87925 22.5619 8.84648 22.4828 8.84648 22.4003V14.7571C8.84648 14.6746 8.87925 14.5955 8.93757 14.5372C8.9959 14.4789 9.075 14.4461 9.15748 14.4461H13.8768C14.1488 14.4461 14.4165 14.5138 14.6558 14.6429C14.8736 14.7604 15.0616 14.9255 15.2062 15.1255C15.3507 14.9255 15.5388 14.7604 15.7565 14.6429C15.9958 14.5138 16.2635 14.4461 16.5355 14.4461H21.2548C21.3373 14.4461 21.4164 14.4789 21.4747 14.5372C21.5331 14.5955 21.5658 14.6746 21.5658 14.7571V22.4009C21.5658 22.4834 21.5331 22.5625 21.4747 22.6208C21.4164 22.6791 21.3373 22.7119 21.2548 22.7119H16.523H16.5229C16.4005 22.7116 16.2795 22.7391 16.1693 22.7924C16.059 22.8456 15.9623 22.9233 15.8865 23.0194L15.8864 23.0195L15.4498 23.5699L15.4497 23.57C15.4205 23.6066 15.3835 23.6362 15.3413 23.6565L14.9625 23.5695ZM14.9625 23.5695C14.9917 23.6062 15.0287 23.6359 15.0709 23.6562C15.1131 23.6766 15.1593 23.6872 15.2061 23.6872L14.9625 23.5695ZM20.9435 15.0681V15.0181H16.5355L14.492 22.2771C14.304 22.1863 14.098 22.1394 13.8893 22.1399V22.0899M20.9435 15.0681H16.5355H16.5353C16.2923 15.0669 16.0571 15.153 15.8724 15.3109C15.6877 15.4687 15.566 15.6877 15.5293 15.9278L15.5293 15.9279C15.5213 15.9804 15.5172 16.0334 15.5172 16.0865V22.22C15.5172 22.3024 15.4844 22.3815 15.4261 22.4399C15.3677 22.4982 15.2886 22.531 15.2062 22.531C15.1237 22.531 15.0446 22.4982 14.9862 22.4399C14.9279 22.3815 14.8952 22.3024 14.8952 22.22V16.0859C14.8952 16.0859 14.8952 16.0859 14.8952 16.0859C14.8951 16.0328 14.891 15.9797 14.8828 15.9272L14.8828 15.9271C14.8462 15.687 14.7245 15.468 14.5398 15.3102C14.3552 15.1524 14.1199 15.0663 13.8771 15.0675L13.8768 15.0675L9.46848 15.0675V22.0899L13.8891 22.0899L13.8893 22.0899M20.9435 15.0681V22.0899M20.9435 15.0681V22.0899M13.8893 22.0899C14.1055 22.0894 14.319 22.138 14.5137 22.232C14.7085 22.3261 14.8793 22.4632 15.0133 22.633M13.8893 22.0899L15.0133 22.633M15.206 22.876L15.0133 22.633M15.206 22.876L15.1741 22.9162L15.0133 22.633M15.206 22.876L15.3988 22.633C15.5328 22.4632 15.7036 22.3261 15.8983 22.232C16.093 22.138 16.3065 22.0894 16.5228 22.0899C16.5228 22.0899 16.5228 22.0899 16.5229 22.0899M15.206 22.876L16.5228 22.1399L16.5229 22.0899M16.5229 22.0899L20.9435 22.0899M16.5229 22.0899L20.9435 22.0899M14.9323 15.9196C14.9408 15.9746 14.9451 16.0302 14.9452 16.0859L14.9323 15.9196ZM14.9323 15.9196C14.8938 15.6676 14.7661 15.4378 14.5723 15.2722M14.9323 15.9196L14.5723 15.2722M14.5723 15.2722C14.3786 15.1066 14.1317 15.0162 13.8768 15.0175L14.5723 15.2722Z" fill="white" stroke="white" stroke-width="0.1"/>
<path d="M14.9864 23.5987C15.0447 23.657 15.1238 23.6897 15.2063 23.6897C15.2888 23.6897 15.3679 23.657 15.4262 23.5987C15.4845 23.5403 15.5173 23.4612 15.5173 23.3787V22.2219C15.5173 22.1395 15.4845 22.0604 15.4262 22.002C15.3679 21.9437 15.2888 21.9109 15.2063 21.9109C15.1238 21.9109 15.0447 21.9437 14.9864 22.002C14.9281 22.0604 14.8953 22.1395 14.8953 22.2219V23.3787C14.8953 23.4612 14.9281 23.5403 14.9864 23.5987Z" fill="white" stroke="white" stroke-width="0.1"/>
<path d="M13.9611 16.3501H10.4231C10.3539 16.3501 10.2875 16.3226 10.2386 16.2737C10.1896 16.2247 10.1621 16.1583 10.1621 16.0891C10.1621 16.0199 10.1896 15.9535 10.2386 15.9046C10.2875 15.8556 10.3539 15.8281 10.4231 15.8281H13.9611C14.0303 15.8281 14.0967 15.8556 14.1457 15.9046C14.1946 15.9535 14.2221 16.0199 14.2221 16.0891C14.2221 16.1583 14.1946 16.2247 14.1457 16.2737C14.0967 16.3226 14.0303 16.3501 13.9611 16.3501Z" fill="white"/>
<path d="M13.9611 17.5962H10.4231C10.3539 17.5962 10.2875 17.5687 10.2386 17.5198C10.1896 17.4708 10.1621 17.4044 10.1621 17.3352C10.1621 17.266 10.1896 17.1996 10.2386 17.1507C10.2875 17.1017 10.3539 17.0742 10.4231 17.0742H13.9611C14.0303 17.0742 14.0967 17.1017 14.1457 17.1507C14.1946 17.1996 14.2221 17.266 14.2221 17.3352C14.2221 17.4044 14.1946 17.4708 14.1457 17.5198C14.0967 17.5687 14.0303 17.5962 13.9611 17.5962Z" fill="white"/>
<path d="M13.9611 18.8423H10.4231C10.3539 18.8423 10.2875 18.8148 10.2386 18.7659C10.1896 18.7169 10.1621 18.6505 10.1621 18.5813C10.1621 18.5121 10.1896 18.4457 10.2386 18.3968C10.2875 18.3478 10.3539 18.3203 10.4231 18.3203H13.9611C14.0303 18.3203 14.0967 18.3478 14.1457 18.3968C14.1946 18.4457 14.2221 18.5121 14.2221 18.5813C14.2221 18.6505 14.1946 18.7169 14.1457 18.7659C14.0967 18.8148 14.0303 18.8423 13.9611 18.8423Z" fill="white"/>
<path d="M13.9611 20.0884H10.4231C10.3539 20.0884 10.2875 20.0609 10.2386 20.012C10.1896 19.963 10.1621 19.8966 10.1621 19.8274C10.1621 19.7582 10.1896 19.6918 10.2386 19.6429C10.2875 19.5939 10.3539 19.5664 10.4231 19.5664H13.9611C14.0303 19.5664 14.0967 19.5939 14.1457 19.6429C14.1946 19.6918 14.2221 19.7582 14.2221 19.8274C14.2221 19.8966 14.1946 19.963 14.1457 20.012C14.0967 20.0609 14.0303 20.0884 13.9611 20.0884Z" fill="white"/>
<path d="M13.9611 21.3345H10.4231C10.3539 21.3345 10.2875 21.307 10.2386 21.2581C10.1896 21.2091 10.1621 21.1427 10.1621 21.0735C10.1621 21.0043 10.1896 20.9379 10.2386 20.8889C10.2875 20.84 10.3539 20.8125 10.4231 20.8125H13.9611C14.0303 20.8125 14.0967 20.84 14.1457 20.8889C14.1946 20.9379 14.2221 21.0043 14.2221 21.0735C14.2221 21.1427 14.1946 21.2091 14.1457 21.2581C14.0967 21.307 14.0303 21.3345 13.9611 21.3345Z" fill="white"/>
<path d="M19.9865 16.3501H16.4485C16.3793 16.3501 16.3129 16.3226 16.2639 16.2737C16.215 16.2247 16.1875 16.1583 16.1875 16.0891C16.1875 16.0199 16.215 15.9535 16.2639 15.9046C16.3129 15.8556 16.3793 15.8281 16.4485 15.8281H19.9865C20.0557 15.8281 20.1221 15.8556 20.1711 15.9046C20.22 15.9535 20.2475 16.0199 20.2475 16.0891C20.2475 16.1583 20.22 16.2247 20.1711 16.2737C20.1221 16.3226 20.0557 16.3501 19.9865 16.3501Z" fill="white"/>
<path d="M19.9865 17.5962H16.4485C16.3793 17.5962 16.3129 17.5687 16.2639 17.5198C16.215 17.4708 16.1875 17.4044 16.1875 17.3352C16.1875 17.266 16.215 17.1996 16.2639 17.1507C16.3129 17.1017 16.3793 17.0742 16.4485 17.0742H19.9865C20.0557 17.0742 20.1221 17.1017 20.1711 17.1507C20.22 17.1996 20.2475 17.266 20.2475 17.3352C20.2475 17.4044 20.22 17.4708 20.1711 17.5198C20.1221 17.5687 20.0557 17.5962 19.9865 17.5962Z" fill="white"/>
<path d="M19.9865 18.8423H16.4485C16.3793 18.8423 16.3129 18.8148 16.2639 18.7659C16.215 18.7169 16.1875 18.6505 16.1875 18.5813C16.1875 18.5121 16.215 18.4457 16.2639 18.3968C16.3129 18.3478 16.3793 18.3203 16.4485 18.3203H19.9865C20.0557 18.3203 20.1221 18.3478 20.1711 18.3968C20.22 18.4457 20.2475 18.5121 20.2475 18.5813C20.2475 18.6505 20.22 18.7169 20.1711 18.7659C20.1221 18.8148 20.0557 18.8423 19.9865 18.8423Z" fill="white"/>
<path d="M19.9865 20.0884H16.4485C16.3793 20.0884 16.3129 20.0609 16.2639 20.012C16.215 19.963 16.1875 19.8966 16.1875 19.8274C16.1875 19.7582 16.215 19.6918 16.2639 19.6429C16.3129 19.5939 16.3793 19.5664 16.4485 19.5664H19.9865C20.0557 19.5664 20.1221 19.5939 20.1711 19.6429C20.22 19.6918 20.2475 19.7582 20.2475 19.8274C20.2475 19.8966 20.22 19.963 20.1711 20.012C20.1221 20.0609 20.0557 20.0884 19.9865 20.0884Z" fill="white"/>
<path d="M19.9865 21.3345H16.4485C16.3793 21.3345 16.3129 21.307 16.2639 21.2581C16.215 21.2091 16.1875 21.1427 16.1875 21.0735C16.1875 21.0043 16.215 20.9379 16.2639 20.8889C16.3129 20.84 16.3793 20.8125 16.4485 20.8125H19.9865C20.0557 20.8125 20.1221 20.84 20.1711 20.8889C20.22 20.9379 20.2475 21.0043 20.2475 21.0735C20.2475 21.1427 20.22 21.2091 20.1711 21.2581C20.1221 21.307 20.0557 21.3345 19.9865 21.3345Z" fill="white"/>
<path d="M15.2061 13.094C15.1718 13.094 15.1378 13.0873 15.1062 13.0742C15.0745 13.0611 15.0457 13.0418 15.0215 13.0176L14.3835 12.3796C14.3352 12.3305 14.3083 12.2643 14.3086 12.1954C14.3089 12.1266 14.3364 12.0606 14.3851 12.012C14.4338 11.9633 14.4997 11.9358 14.5686 11.9355C14.6374 11.9353 14.7036 11.9622 14.7527 12.0105L15.3907 12.6485C15.4271 12.685 15.452 12.7315 15.462 12.7822C15.4721 12.8328 15.4669 12.8852 15.4471 12.9329C15.4274 12.9806 15.3939 13.0213 15.351 13.05C15.3081 13.0786 15.2577 13.094 15.2061 13.094Z" fill="white"/>
<path d="M15.2062 13.094C15.1546 13.094 15.1042 13.0786 15.0613 13.05C15.0184 13.0213 14.9849 12.9806 14.9652 12.9329C14.9454 12.8852 14.9403 12.8328 14.9503 12.7822C14.9604 12.7315 14.9852 12.685 15.0216 12.6485L15.6596 12.0105C15.7087 11.9622 15.7749 11.9353 15.8437 11.9355C15.9126 11.9358 15.9785 11.9633 16.0272 12.012C16.0759 12.0606 16.1034 12.1266 16.1037 12.1954C16.104 12.2643 16.0771 12.3305 16.0288 12.3796L15.3908 13.0176C15.3666 13.0418 15.3378 13.0611 15.3062 13.0742C15.2745 13.0873 15.2405 13.094 15.2062 13.094Z" fill="white"/>
<path d="M15.2063 13.094C15.1371 13.094 15.0707 13.0665 15.0218 13.0175C14.9728 12.9686 14.9453 12.9022 14.9453 12.833V10.513C14.9453 10.4437 14.9728 10.3773 15.0218 10.3284C15.0707 10.2795 15.1371 10.252 15.2063 10.252C15.2755 10.252 15.3419 10.2795 15.3909 10.3284C15.4398 10.3773 15.4673 10.4437 15.4673 10.513V12.833C15.4673 12.9022 15.4398 12.9686 15.3909 13.0175C15.3419 13.0665 15.2755 13.094 15.2063 13.094Z" fill="white"/>
<path d="M12.6336 11.6714C12.6336 13.0902 13.7878 14.2444 15.2066 14.2444C16.6253 14.2444 17.7796 13.0902 17.7796 11.6714C17.7796 10.2527 16.6253 9.09844 15.2066 9.09844C13.7878 9.09844 12.6336 10.2527 12.6336 11.6714ZM13.2556 11.6714C13.2556 10.5957 14.1309 9.72044 15.2066 9.72044C16.2823 9.72044 17.1576 10.5957 17.1576 11.6714C17.1576 12.7471 16.2823 13.6224 15.2066 13.6224C14.1309 13.6224 13.2556 12.7471 13.2556 11.6714Z" fill="white" stroke="white" stroke-width="0.1"/>
</g>
<defs>
<clipPath id="clip0_5667_4556">
<rect width="29" height="29" fill="white" transform="translate(0.0488281 0.5)"/>
</clipPath>
</defs>
</svg>
