<?xml version="1.0" encoding="utf-8"?>
<!-- Generator: Adobe Illustrator 16.0.3, SVG Export Plug-In . SVG Version: 6.00 Build 0)  -->
<!DOCTYPE svg PUBLIC "-//W3C//DTD SVG 1.1//EN" "http://www.w3.org/Graphics/SVG/1.1/DTD/svg11.dtd">
<svg version="1.1" id="Warstwa_1" xmlns="http://www.w3.org/2000/svg" xmlns:xlink="http://www.w3.org/1999/xlink" x="0px" y="0px"
	 width="49.53px" height="34.833px" viewBox="7.735 15 49.53 34.833" enable-background="new 7.735 15 49.53 34.833"
	 xml:space="preserve">
<g>
	<defs>
		<rect id="SVGID_1_" width="65" height="65"/>
	</defs>
	<clipPath id="SVGID_2_">
		<use xlink:href="#SVGID_1_"  overflow="visible"/>
	</clipPath>
	<g clip-path="url(#SVGID_2_)">
		<path fill="#040F81" d="M32.5,49.699c-0.458,0-0.909-0.099-1.325-0.289s-0.786-0.468-1.085-0.814l-1.881-2.177
			c-0.005-0.007-0.011-0.013-0.016-0.02c-0.037-0.048-0.084-0.086-0.139-0.112s-0.114-0.039-0.174-0.039H8.32
			c-0.155,0-0.304-0.062-0.414-0.172c-0.11-0.109-0.171-0.258-0.171-0.413V19.825c0-0.155,0.062-0.304,0.171-0.414
			S8.165,19.24,8.32,19.24h2.958c0.155,0,0.304,0.062,0.414,0.171c0.11,0.11,0.171,0.258,0.171,0.414s-0.062,0.304-0.171,0.414
			c-0.109,0.11-0.258,0.171-0.414,0.171H8.905v24.668H27.88c0.234-0.001,0.466,0.051,0.678,0.152s0.397,0.249,0.544,0.432
			l1.874,2.17c0.189,0.219,0.423,0.395,0.687,0.514c0.263,0.121,0.549,0.184,0.838,0.184c0.289,0,0.576-0.063,0.837-0.184
			c0.264-0.119,0.498-0.295,0.688-0.514l1.874-2.17c0.146-0.183,0.333-0.33,0.544-0.432s0.443-0.154,0.678-0.153h18.975V20.41
			h-2.373c-0.154,0-0.304-0.062-0.414-0.171c-0.109-0.109-0.171-0.258-0.171-0.414s0.062-0.304,0.171-0.414
			c0.11-0.11,0.26-0.171,0.414-0.171h2.957c0.156,0,0.305,0.062,0.414,0.171s0.172,0.258,0.172,0.414v25.837
			c0,0.156-0.063,0.305-0.172,0.414s-0.258,0.172-0.414,0.172H37.121c-0.061-0.001-0.12,0.013-0.175,0.039
			c-0.054,0.025-0.102,0.064-0.139,0.112c-0.005,0.007-0.011,0.013-0.017,0.019l-1.881,2.178c-0.299,0.346-0.669,0.624-1.084,0.814
			C33.41,49.601,32.958,49.699,32.5,49.699z"/>
		<path fill="#040F81" d="M32.5,46.712c-0.088,0-0.175-0.021-0.254-0.058c-0.08-0.039-0.149-0.095-0.204-0.164l-1.532-1.93
			c-0.313-0.396-0.713-0.718-1.169-0.938c-0.456-0.221-0.955-0.334-1.461-0.333H11.277c-0.155,0-0.304-0.062-0.414-0.171
			s-0.171-0.259-0.171-0.414V15.886c0-0.155,0.062-0.304,0.171-0.414s0.259-0.171,0.414-0.171h16.559
			c0.963,0,1.908,0.266,2.73,0.768c0.822,0.501,1.491,1.219,1.934,2.075c0.442-0.856,1.111-1.574,1.934-2.075
			c0.822-0.501,1.768-0.767,2.73-0.768h16.559c0.155,0,0.304,0.062,0.414,0.171c0.109,0.11,0.171,0.259,0.171,0.414v26.819
			c0,0.155-0.062,0.304-0.171,0.414c-0.11,0.109-0.259,0.171-0.414,0.171H37.121c-0.507-0.001-1.008,0.112-1.463,0.332
			c-0.457,0.22-0.856,0.541-1.17,0.938l-1.532,1.93c-0.054,0.068-0.124,0.125-0.203,0.163C32.675,46.691,32.588,46.712,32.5,46.712z
			 M11.862,42.12h16.017c0.683-0.002,1.357,0.151,1.972,0.448c0.614,0.297,1.154,0.729,1.577,1.266l1.072,1.352l1.072-1.352
			c0.424-0.536,0.963-0.969,1.577-1.266s1.288-0.45,1.972-0.448h16.017V16.471H37.164c-1.082,0.001-2.118,0.432-2.883,1.196
			s-1.195,1.801-1.196,2.883v22.155c0,0.155-0.062,0.304-0.171,0.414c-0.109,0.109-0.258,0.171-0.414,0.171
			s-0.304-0.062-0.414-0.171c-0.11-0.11-0.171-0.259-0.171-0.414V20.55c-0.001-1.082-0.431-2.118-1.196-2.883
			c-0.765-0.765-1.801-1.195-2.883-1.196H11.862V42.12z"/>
		<path fill="#040F81" d="M32.5,46.712c-0.155,0-0.304-0.062-0.414-0.171c-0.11-0.11-0.171-0.259-0.171-0.414v-4.059
			c0-0.155,0.062-0.305,0.171-0.414c0.109-0.109,0.258-0.171,0.414-0.171s0.304,0.062,0.414,0.171s0.171,0.259,0.171,0.414v4.059
			c0,0.155-0.062,0.304-0.171,0.414C32.804,46.65,32.655,46.712,32.5,46.712z"/>
		<path fill="#040F81" d="M32.556,20.41h-0.112c-0.155,0-0.304-0.062-0.414-0.171c-0.11-0.109-0.171-0.258-0.171-0.414
			s0.062-0.304,0.171-0.414c0.109-0.11,0.258-0.171,0.414-0.171h0.112c0.155,0,0.304,0.062,0.414,0.171
			c0.109,0.11,0.171,0.258,0.171,0.414s-0.062,0.304-0.171,0.414C32.86,20.349,32.711,20.41,32.556,20.41z"/>
		<path fill="#040F81" d="M32.5,46.712c-0.088,0-0.175-0.021-0.254-0.058c-0.08-0.039-0.149-0.095-0.204-0.164l-1.532-1.93
			c-0.313-0.396-0.713-0.718-1.169-0.938c-0.456-0.221-0.955-0.334-1.461-0.333H11.277c-0.155,0-0.304-0.062-0.414-0.171
			s-0.171-0.259-0.171-0.414V15.886c0-0.155,0.062-0.304,0.171-0.414s0.259-0.171,0.414-0.171h16.559
			c0.963,0,1.908,0.266,2.73,0.768c0.822,0.501,1.491,1.219,1.934,2.075c0.442-0.856,1.111-1.574,1.934-2.075
			c0.822-0.501,1.768-0.767,2.73-0.768h16.559c0.155,0,0.304,0.062,0.414,0.171c0.109,0.11,0.171,0.259,0.171,0.414v26.819
			c0,0.155-0.062,0.304-0.171,0.414c-0.11,0.109-0.259,0.171-0.414,0.171H37.121c-0.507-0.001-1.008,0.112-1.463,0.332
			c-0.457,0.22-0.856,0.541-1.17,0.938l-1.532,1.93c-0.054,0.068-0.124,0.125-0.203,0.163C32.675,46.691,32.588,46.712,32.5,46.712z
			 M11.862,42.12h16.017c0.683-0.002,1.357,0.151,1.972,0.448c0.614,0.297,1.154,0.729,1.577,1.266l1.072,1.352l1.072-1.352
			c0.424-0.536,0.963-0.969,1.577-1.266s1.288-0.45,1.972-0.448h16.017V16.471H37.164c-1.082,0.001-2.118,0.432-2.883,1.196
			s-1.195,1.801-1.196,2.883v22.155c0,0.155-0.062,0.304-0.171,0.414c-0.109,0.109-0.258,0.171-0.414,0.171
			s-0.304-0.062-0.414-0.171c-0.11-0.11-0.171-0.259-0.171-0.414V20.55c-0.001-1.082-0.431-2.118-1.196-2.883
			c-0.765-0.765-1.801-1.195-2.883-1.196H11.862V42.12z"/>
		<path fill="#040F81" d="M32.5,46.712c-0.155,0-0.304-0.062-0.414-0.171c-0.11-0.11-0.171-0.259-0.171-0.414v-4.059
			c0-0.155,0.062-0.305,0.171-0.414c0.109-0.109,0.258-0.171,0.414-0.171s0.304,0.062,0.414,0.171s0.171,0.259,0.171,0.414v4.059
			c0,0.155-0.062,0.304-0.171,0.414C32.804,46.65,32.655,46.712,32.5,46.712z"/>
		<path fill="#040F81" d="M28.125,20.897H15.71c-0.155,0-0.304-0.062-0.414-0.171c-0.11-0.109-0.171-0.258-0.171-0.414
			s0.062-0.304,0.171-0.414s0.258-0.171,0.414-0.171h12.415c0.155,0,0.304,0.062,0.414,0.171s0.171,0.258,0.171,0.414
			s-0.062,0.304-0.171,0.414C28.429,20.836,28.28,20.897,28.125,20.897z"/>
		<path fill="#040F81" d="M28.125,24.49H15.71c-0.155,0-0.304-0.062-0.414-0.171c-0.11-0.109-0.171-0.258-0.171-0.414
			s0.062-0.304,0.171-0.414s0.258-0.171,0.414-0.171h12.415c0.155,0,0.304,0.062,0.414,0.171s0.171,0.258,0.171,0.414
			s-0.062,0.304-0.171,0.414C28.429,24.428,28.28,24.49,28.125,24.49z"/>
		<path fill="#040F81" d="M28.125,28.084H15.71c-0.155,0-0.304-0.062-0.414-0.171s-0.171-0.258-0.171-0.414s0.062-0.304,0.171-0.414
			s0.258-0.171,0.414-0.171h12.415c0.155,0,0.304,0.062,0.414,0.171s0.171,0.258,0.171,0.414s-0.062,0.304-0.171,0.414
			S28.28,28.084,28.125,28.084z"/>
		<path fill="#040F81" d="M28.125,31.678H15.71c-0.155,0-0.304-0.062-0.414-0.171c-0.11-0.109-0.171-0.258-0.171-0.414
			s0.062-0.304,0.171-0.414s0.258-0.171,0.414-0.171h12.415c0.155,0,0.304,0.062,0.414,0.171s0.171,0.258,0.171,0.414
			s-0.062,0.304-0.171,0.414C28.429,31.616,28.28,31.678,28.125,31.678z"/>
		<path fill="#040F81" d="M28.125,35.271H15.71c-0.155,0-0.304-0.062-0.414-0.172c-0.11-0.109-0.171-0.258-0.171-0.413
			s0.062-0.304,0.171-0.413c0.11-0.11,0.258-0.172,0.414-0.172h12.415c0.155,0,0.304,0.062,0.414,0.172
			c0.11,0.109,0.171,0.258,0.171,0.413s-0.062,0.304-0.171,0.413C28.429,35.21,28.28,35.271,28.125,35.271z"/>
		<path fill="#040F81" d="M28.125,38.865H15.71c-0.155,0-0.304-0.062-0.414-0.172c-0.11-0.109-0.171-0.258-0.171-0.413
			s0.062-0.304,0.171-0.413c0.11-0.11,0.258-0.172,0.414-0.172h12.415c0.155,0,0.304,0.062,0.414,0.172
			c0.11,0.109,0.171,0.258,0.171,0.413s-0.062,0.304-0.171,0.413C28.429,38.804,28.28,38.865,28.125,38.865z"/>
		<path fill="#040F81" d="M49.263,20.897H36.848c-0.155,0-0.305-0.062-0.414-0.171s-0.171-0.258-0.171-0.414
			s0.062-0.304,0.171-0.414c0.109-0.11,0.259-0.171,0.414-0.171h12.415c0.155,0,0.304,0.062,0.413,0.171
			c0.11,0.109,0.172,0.258,0.172,0.414s-0.062,0.304-0.172,0.414C49.566,20.836,49.418,20.897,49.263,20.897z"/>
		<path fill="#040F81" d="M49.263,24.49H36.848c-0.155,0-0.305-0.062-0.414-0.171c-0.109-0.11-0.171-0.259-0.171-0.414
			c0-0.155,0.062-0.304,0.171-0.414c0.109-0.109,0.259-0.171,0.414-0.171h12.415c0.155,0,0.304,0.062,0.413,0.171
			c0.11,0.11,0.172,0.259,0.172,0.414c0,0.155-0.062,0.304-0.172,0.414C49.566,24.428,49.418,24.49,49.263,24.49z"/>
		<path fill="#040F81" d="M49.263,28.084H36.848c-0.155,0-0.305-0.062-0.414-0.171s-0.171-0.259-0.171-0.414
			c0-0.155,0.062-0.304,0.171-0.414c0.109-0.109,0.259-0.171,0.414-0.171h12.415c0.155,0,0.304,0.062,0.413,0.171
			c0.11,0.11,0.172,0.259,0.172,0.414c0,0.155-0.062,0.304-0.172,0.414C49.566,28.022,49.418,28.084,49.263,28.084z"/>
		<path fill="#040F81" d="M49.263,31.678H36.848c-0.155,0-0.305-0.062-0.414-0.171s-0.171-0.258-0.171-0.414
			s0.062-0.304,0.171-0.414c0.109-0.11,0.259-0.171,0.414-0.171h12.415c0.155,0,0.304,0.062,0.413,0.171
			c0.11,0.109,0.172,0.258,0.172,0.414s-0.062,0.304-0.172,0.414C49.566,31.616,49.418,31.678,49.263,31.678z"/>
		<path fill="#040F81" d="M49.263,35.271H36.848c-0.155,0-0.305-0.062-0.414-0.172c-0.109-0.109-0.171-0.258-0.171-0.413
			s0.062-0.304,0.171-0.413c0.109-0.11,0.259-0.172,0.414-0.172h12.415c0.155,0,0.304,0.062,0.413,0.172
			c0.11,0.109,0.172,0.258,0.172,0.413s-0.062,0.304-0.172,0.413C49.566,35.21,49.418,35.271,49.263,35.271z"/>
		<path fill="#040F81" d="M49.263,38.865H36.848c-0.155,0-0.305-0.062-0.414-0.171c-0.109-0.11-0.171-0.259-0.171-0.414
			s0.062-0.304,0.171-0.413c0.109-0.11,0.259-0.172,0.414-0.172h12.415c0.155,0,0.304,0.062,0.413,0.172
			c0.11,0.109,0.172,0.258,0.172,0.413s-0.062,0.304-0.172,0.414C49.566,38.804,49.418,38.865,49.263,38.865z"/>
	</g>
</g>
</svg>
