<svg width="40" height="40" viewBox="0 0 40 40" fill="none" xmlns="http://www.w3.org/2000/svg">
<g clip-path="url(#clip0_3708_29468)">
<path d="M21.4105 40H18.5907C18.422 40 18.2797 39.8723 18.2533 39.7073L17.4732 34.4712C16.6036 34.3222 15.7497 34.0881 14.9275 33.7848L11.6648 37.9247C11.5594 38.0577 11.3749 38.095 11.2274 38.0098L8.78172 36.5837C8.63414 36.4986 8.57089 36.3177 8.63414 36.158L10.558 31.2305C9.87804 30.6558 9.25609 30.0226 8.69739 29.3521L3.81137 31.2891C3.65324 31.3529 3.47404 31.2891 3.3897 31.1401L1.97713 28.671C1.8928 28.522 1.9297 28.3358 2.06147 28.2293L6.16214 24.9302C5.8617 24.1054 5.63506 23.2433 5.48221 22.36L0.295753 21.5724C0.127087 21.5458 0.00585938 21.4022 0.00585938 21.2319V18.7628C0.00585938 18.5925 0.132358 18.4435 0.295753 18.4222L5.48221 17.64C5.63506 16.762 5.8617 15.9 6.16214 15.0698L2.06147 11.776C1.9297 11.6695 1.8928 11.478 1.97713 11.3343L3.3897 8.86524C3.47404 8.71624 3.65324 8.65239 3.81137 8.71624L8.69739 10.6532C9.26136 9.97206 9.88859 9.33883 10.558 8.77478L8.63414 3.84728C8.57089 3.68764 8.63414 3.50672 8.78172 3.42158L11.2274 1.99548C11.3749 1.91034 11.5594 1.94759 11.6648 2.08062L14.9275 6.22057C15.755 5.91725 16.6088 5.68312 17.4732 5.53412L18.2533 0.29267C18.2797 0.122389 18.422 0 18.5907 0H21.4105C21.5792 0 21.7215 0.127711 21.7479 0.29267L22.5279 5.53412C23.3923 5.68312 24.2462 5.91725 25.0737 6.22057L28.3363 2.08062C28.4418 1.94759 28.6315 1.91034 28.7738 1.99548L31.2195 3.42158C31.367 3.50672 31.4303 3.68764 31.367 3.84728L29.4485 8.77478C30.1179 9.33883 30.7451 9.97206 31.3091 10.6532L36.1898 8.71624C36.3479 8.65239 36.5271 8.71624 36.6115 8.86524L38.024 11.3343C38.1084 11.4833 38.0715 11.6695 37.9397 11.776L33.8338 15.0698C34.1342 15.8946 34.3608 16.7567 34.5137 17.64L39.7002 18.4276C39.8688 18.4542 39.99 18.5978 39.99 18.7681V21.2319C39.99 21.4022 39.8635 21.5458 39.7002 21.5724L34.5137 22.36C34.3608 23.2433 34.1342 24.1054 33.8338 24.9302L37.9397 28.2293C38.0715 28.3358 38.1084 28.5273 38.024 28.671L36.6115 31.1401C36.5271 31.2891 36.3479 31.3529 36.1898 31.2891L31.3091 29.3521C30.7451 30.0333 30.1231 30.6612 29.4485 31.2305L31.367 36.1634C31.4303 36.323 31.367 36.5039 31.2195 36.5891L28.7738 38.0152C28.6262 38.1003 28.4418 38.0631 28.3363 37.93L25.0737 33.7901C24.2515 34.0934 23.3976 34.3275 22.5279 34.4765L21.7479 39.7127C21.7215 39.8829 21.5792 40.0053 21.4105 40.0053V40ZM18.8858 39.3082H21.1154L21.8849 34.12C21.906 33.971 22.0219 33.8539 22.1695 33.8273C23.1604 33.673 24.1303 33.4123 25.0579 33.0504C25.195 32.9972 25.3583 33.0398 25.4479 33.1568L28.6842 37.2595L30.6186 36.1314L28.7158 31.2412C28.6631 31.1028 28.7053 30.9379 28.8213 30.8474C29.5961 30.2142 30.3076 29.5011 30.9348 28.7189C31.0297 28.6018 31.1878 28.5593 31.3249 28.6125L36.1635 30.5335L37.2809 28.5806L33.2118 25.308C33.0959 25.2122 33.0537 25.0525 33.1064 24.9142C33.4648 23.9883 33.7231 23.0092 33.8812 21.9981C33.9023 21.8491 34.0182 21.7321 34.1658 21.7108L39.3048 20.9339V19.0661L34.1658 18.2839C34.0182 18.2626 33.9023 18.1455 33.8812 17.9965C33.7231 16.9908 33.4648 16.0064 33.1064 15.0752C33.0537 14.9368 33.0959 14.7719 33.2118 14.6814L37.2809 11.4141L36.1635 9.46122L31.3249 11.3822C31.1826 11.4407 31.0297 11.3928 30.9348 11.2758C30.3023 10.4829 29.5908 9.76453 28.8213 9.14195C28.7053 9.04616 28.6631 8.88652 28.7158 8.74817L30.6186 3.86324L28.6842 2.73513L25.4479 6.83783C25.3531 6.9549 25.195 6.99747 25.0579 6.94426C24.1303 6.58241 23.1552 6.32167 22.1695 6.16735C22.0219 6.14607 21.906 6.029 21.8849 5.87468L21.1154 0.681123H18.8858L18.111 5.87468C18.0899 6.02368 17.974 6.14075 17.8264 6.16735C16.8408 6.32167 15.8657 6.58241 14.938 6.94426C14.801 6.99747 14.6428 6.9549 14.548 6.83783L11.3117 2.73513L9.37732 3.86324L11.2801 8.74817C11.3328 8.88652 11.2906 9.05148 11.1747 9.14195C10.3999 9.76986 9.69357 10.4882 9.06107 11.2758C8.9662 11.3928 8.80807 11.4354 8.67103 11.3822L3.82718 9.46122L2.70977 11.4141L6.77355 14.6814C6.88951 14.7772 6.93167 14.9368 6.87897 15.0752C6.52055 16.0117 6.26228 16.9908 6.10943 17.9965C6.08835 18.1455 5.97239 18.2626 5.81954 18.2839L0.68052 19.0608V20.9339L5.82481 21.7108C5.97239 21.7321 6.08835 21.8491 6.1147 21.9981C6.26755 23.0039 6.53109 23.983 6.88424 24.9089C6.93694 25.0472 6.89478 25.2122 6.77882 25.3026L2.70977 28.5752L3.82718 30.5281L8.67103 28.6072C8.80807 28.5486 8.97147 28.5965 9.06107 28.7136C9.67775 29.4905 10.3893 30.2089 11.1747 30.8474C11.2906 30.9432 11.3328 31.1028 11.2801 31.2412L9.37732 36.1261L11.3117 37.2542L14.548 33.1515C14.6428 33.0345 14.801 32.9919 14.938 33.0451C15.8657 33.4069 16.8408 33.6677 17.8264 33.822C17.974 33.8433 18.0899 33.9604 18.111 34.1147L18.8858 39.3029V39.3082Z" fill="#040F81" stroke="#040F81" stroke-width="0.5"/>
<path d="M19.9969 30.2188C14.4151 30.2188 9.87695 25.6372 9.87695 20.002C9.87695 14.3668 14.4151 9.78516 19.9969 9.78516C25.5786 9.78516 30.1168 14.3721 30.1168 20.002C30.1168 25.6319 25.5734 30.2188 19.9969 30.2188ZM19.9969 10.4716C14.7946 10.4716 10.5622 14.7446 10.5622 19.9967C10.5622 25.2488 14.7946 29.5218 19.9969 29.5218C25.1991 29.5218 29.4316 25.2488 29.4316 19.9967C29.4316 14.7446 25.1991 10.4716 19.9969 10.4716Z" fill="#040F81" stroke="#040F81" stroke-width="0.5"/>
<path d="M19.9983 30.2188C16.9992 30.2188 14.6484 25.7277 14.6484 20.002C14.6484 14.2763 16.9992 9.78516 19.9983 9.78516C22.9974 9.78516 25.3481 14.2763 25.3481 20.002C25.3481 25.7277 22.9974 30.2188 19.9983 30.2188ZM19.9983 10.4716C17.4261 10.4716 15.3336 14.7446 15.3336 19.9967C15.3336 25.2488 17.4261 29.5218 19.9983 29.5218C22.5704 29.5218 24.6629 25.1583 24.6629 19.9967C24.6629 14.835 22.5283 10.4716 19.9983 10.4716Z" fill="#040F81" stroke="#040F81" stroke-width="0.5"/>
<path d="M29.7794 20.3441H10.2196C10.0298 20.3441 9.87695 20.1898 9.87695 19.9982C9.87695 19.8067 10.0298 19.6523 10.2196 19.6523H29.7794C29.9692 19.6523 30.122 19.8067 30.122 19.9982C30.122 20.1898 29.9692 20.3441 29.7794 20.3441Z" fill="#040F81" stroke="#040F81" stroke-width="0.5"/>
<path d="M19.9969 30.2203C19.8071 30.2203 19.6543 30.0659 19.6543 29.8744V10.1271C19.6543 9.93557 19.8071 9.78125 19.9969 9.78125C20.1866 9.78125 20.3395 9.93557 20.3395 10.1271V29.8744C20.3395 30.0659 20.1866 30.2203 19.9969 30.2203Z" fill="#040F81" stroke="#040F81" stroke-width="0.5"/>
<path d="M20.0298 15.9051C17.347 15.9051 14.6536 15.4528 11.9655 14.5429C11.7863 14.4843 11.6914 14.2874 11.7494 14.1065C11.8074 13.9256 12.0024 13.8245 12.1816 13.8883C17.405 15.655 22.6652 15.655 27.8148 13.8883C27.994 13.8245 28.189 13.9256 28.247 14.1065C28.3102 14.2874 28.2101 14.4843 28.0309 14.5429C25.3849 15.4528 22.7074 15.9051 20.0246 15.9051H20.0298Z" fill="#040F81" stroke="#040F81" stroke-width="0.5"/>
<path d="M12.0703 25.926C11.928 25.926 11.7963 25.8355 11.7436 25.6919C11.6856 25.511 11.7805 25.3141 11.9597 25.2555C17.3253 23.4357 22.7279 23.4357 28.0303 25.2555C28.2095 25.3194 28.3044 25.511 28.2464 25.6919C28.1831 25.8728 27.9934 25.9686 27.8142 25.91C22.6594 24.1381 17.3991 24.1434 12.181 25.91C12.1441 25.9207 12.1072 25.926 12.0703 25.926Z" fill="#040F81" stroke="#040F81" stroke-width="0.5"/>
</g>
<defs>
<clipPath id="clip0_3708_29468">
<rect width="40" height="40" fill="white"/>
</clipPath>
</defs>
</svg>
