<svg width="40" height="40" viewBox="0 0 40 40" fill="none" xmlns="http://www.w3.org/2000/svg">
<g clip-path="url(#clip0_7_3065)">
<path d="M4.29908 13.6542C4.15347 13.6542 4.01383 13.5947 3.91087 13.4889C3.8079 13.383 3.75006 13.2395 3.75006 13.0898V10.0918C3.75006 9.94209 3.8079 9.79852 3.91087 9.69266C4.01383 9.58681 4.15347 9.52734 4.29908 9.52734C4.44469 9.52734 4.58434 9.58681 4.6873 9.69266C4.79026 9.79852 4.8481 9.94209 4.8481 10.0918V13.0898C4.8481 13.2395 4.79026 13.383 4.6873 13.4889C4.58434 13.5947 4.44469 13.6542 4.29908 13.6542Z" fill="#040F81"/>
<path d="M6.51637 13.6542C6.37076 13.6542 6.23111 13.5947 6.12815 13.4889C6.02519 13.383 5.96735 13.2395 5.96735 13.0898V10.0918C5.96735 9.94209 6.02519 9.79852 6.12815 9.69266C6.23111 9.58681 6.37076 9.52734 6.51637 9.52734C6.66197 9.52734 6.80162 9.58681 6.90458 9.69266C7.00754 9.79852 7.06539 9.94209 7.06539 10.0918V13.0898C7.06539 13.2395 7.00754 13.383 6.90458 13.4889C6.80162 13.5947 6.66197 13.6542 6.51637 13.6542Z" fill="#040F81"/>
<path d="M23.2431 13.6542C23.0975 13.6542 22.9579 13.5947 22.8549 13.4889C22.7519 13.383 22.6941 13.2395 22.6941 13.0898V10.0918C22.6941 9.94209 22.7519 9.79852 22.8549 9.69266C22.9579 9.58681 23.0975 9.52734 23.2431 9.52734C23.3887 9.52734 23.5284 9.58681 23.6313 9.69266C23.7343 9.79852 23.7921 9.94209 23.7921 10.0918V13.0898C23.7921 13.2395 23.7343 13.383 23.6313 13.4889C23.5284 13.5947 23.3887 13.6542 23.2431 13.6542Z" fill="#040F81"/>
<path d="M25.4606 13.6542C25.315 13.6542 25.1754 13.5947 25.0724 13.4889C24.9695 13.383 24.9116 13.2395 24.9116 13.0898V10.0918C24.9116 9.94209 24.9695 9.79852 25.0724 9.69266C25.1754 9.58681 25.315 9.52734 25.4606 9.52734C25.6062 9.52734 25.7459 9.58681 25.8489 9.69266C25.9518 9.79852 26.0097 9.94209 26.0097 10.0918V13.0898C26.0097 13.2395 25.9518 13.383 25.8489 13.4889C25.7459 13.5947 25.6062 13.6542 25.4606 13.6542Z" fill="#040F81"/>
<path d="M4.29908 26.1788C4.15347 26.1788 4.01383 26.1194 3.91087 26.0135C3.8079 25.9077 3.75006 25.7641 3.75006 25.6144V22.6167C3.75006 22.467 3.8079 22.3234 3.91087 22.2176C4.01383 22.1117 4.15347 22.0522 4.29908 22.0522C4.44469 22.0522 4.58434 22.1117 4.6873 22.2176C4.79026 22.3234 4.8481 22.467 4.8481 22.6167V25.6144C4.8481 25.6885 4.8339 25.7619 4.80631 25.8304C4.77872 25.8989 4.73828 25.9611 4.6873 26.0135C4.63632 26.0659 4.57579 26.1075 4.50918 26.1359C4.44257 26.1642 4.37118 26.1788 4.29908 26.1788Z" fill="#040F81"/>
<path d="M6.51637 26.1788C6.37076 26.1788 6.23111 26.1194 6.12815 26.0135C6.02519 25.9077 5.96735 25.7641 5.96735 25.6144V22.6167C5.96735 22.467 6.02519 22.3234 6.12815 22.2176C6.23111 22.1117 6.37076 22.0522 6.51637 22.0522C6.66197 22.0522 6.80162 22.1117 6.90458 22.2176C7.00754 22.3234 7.06539 22.467 7.06539 22.6167V25.6144C7.06539 25.6885 7.05118 25.7619 7.02359 25.8304C6.996 25.8989 6.95556 25.9611 6.90458 26.0135C6.8536 26.0659 6.79308 26.1075 6.72647 26.1359C6.65986 26.1642 6.58846 26.1788 6.51637 26.1788Z" fill="#040F81"/>
<path d="M20.5987 7.01481C20.2742 7.01486 19.957 6.91599 19.6872 6.73069C19.4174 6.5454 19.207 6.28201 19.0828 5.97382C18.9586 5.66564 18.9261 5.32652 18.9894 4.99933C19.0526 4.67214 19.2089 4.37159 19.4383 4.13569C19.6677 3.89979 19.96 3.73913 20.2783 3.67403C20.5965 3.60893 20.9264 3.64231 21.2262 3.76996C21.5259 3.89761 21.7822 4.11378 21.9624 4.39115C22.1427 4.66852 22.2389 4.99461 22.2389 5.3282C22.2384 5.77532 22.0655 6.20398 21.758 6.52017C21.4505 6.83635 21.0336 7.01424 20.5987 7.01481ZM20.5987 4.77048C20.4914 4.77043 20.3865 4.80309 20.2972 4.86434C20.208 4.9256 20.1384 5.01268 20.0973 5.11459C20.0562 5.21649 20.0454 5.32864 20.0663 5.43684C20.0872 5.54505 20.1389 5.64445 20.2147 5.72248C20.2906 5.8005 20.3872 5.85365 20.4925 5.87519C20.5977 5.89673 20.7068 5.8857 20.8059 5.8435C20.9051 5.80129 20.9898 5.72981 21.0495 5.63808C21.1091 5.54636 21.1409 5.43852 21.1409 5.3282C21.1407 5.1804 21.0835 5.0387 20.9819 4.93417C20.8802 4.82963 20.7424 4.77077 20.5987 4.77048Z" fill="#040F81"/>
<path d="M25.0272 7.01481C24.7027 7.01502 24.3854 6.91628 24.1155 6.73108C23.8456 6.54589 23.6351 6.28255 23.5108 5.97438C23.3865 5.66622 23.3538 5.32706 23.417 4.99982C23.4802 4.67258 23.6364 4.37196 23.8657 4.13598C24.0951 3.89999 24.3875 3.73925 24.7057 3.67409C25.024 3.60892 25.3539 3.64226 25.6537 3.76988C25.9535 3.89751 26.2098 4.11368 26.3901 4.39107C26.5704 4.66845 26.6667 4.99458 26.6667 5.3282C26.6662 5.77518 26.4933 6.20372 26.186 6.51988C25.8787 6.83604 25.462 7.01402 25.0272 7.01481ZM25.0272 4.77048C24.9199 4.77027 24.8149 4.8028 24.7255 4.86395C24.6362 4.92511 24.5665 5.01214 24.5253 5.11403C24.484 5.21592 24.4731 5.32809 24.494 5.43635C24.5148 5.54461 24.5664 5.64408 24.6422 5.72219C24.718 5.8003 24.8147 5.85352 24.9199 5.87513C25.0252 5.89674 25.1343 5.88575 25.2335 5.84357C25.3327 5.80139 25.4175 5.72991 25.4771 5.63817C25.5368 5.54643 25.5686 5.43856 25.5686 5.3282C25.5684 5.18054 25.5113 5.03897 25.4099 4.93445C25.3084 4.82993 25.1708 4.77098 25.0272 4.77048Z" fill="#040F81"/>
<path d="M15.228 4.77048H3.6413C3.4957 4.77048 3.35605 4.71101 3.25309 4.60516C3.15013 4.49931 3.09229 4.35574 3.09229 4.20604C3.09229 4.05634 3.15013 3.91278 3.25309 3.80692C3.35605 3.70107 3.4957 3.6416 3.6413 3.6416H15.228C15.3736 3.6416 15.5132 3.70107 15.6162 3.80692C15.7191 3.91278 15.777 4.05634 15.777 4.20604C15.777 4.35574 15.7191 4.49931 15.6162 4.60516C15.5132 4.71101 15.3736 4.77048 15.228 4.77048Z" fill="#040F81"/>
<path d="M15.228 7.01462H3.6413C3.4957 7.01462 3.35605 6.95516 3.25309 6.8493C3.15013 6.74345 3.09229 6.59988 3.09229 6.45018C3.09229 6.30048 3.15013 6.15692 3.25309 6.05106C3.35605 5.94521 3.4957 5.88574 3.6413 5.88574H15.228C15.3736 5.88574 15.5132 5.94521 15.6162 6.05106C15.7191 6.15692 15.777 6.30048 15.777 6.45018C15.777 6.59988 15.7191 6.74345 15.6162 6.8493C15.5132 6.95516 15.3736 7.01462 15.228 7.01462Z" fill="#040F81"/>
<path d="M29.211 10.6561H0.54902C0.403411 10.6561 0.263765 10.5966 0.160804 10.4908C0.057843 10.3849 0 10.2414 0 10.0917V0.56444C0 0.414741 0.057843 0.271174 0.160804 0.165321C0.263765 0.0594676 0.403411 0 0.54902 0H29.211C29.3566 0 29.4962 0.0594676 29.5992 0.165321C29.7022 0.271174 29.76 0.414741 29.76 0.56444V10.0917C29.76 10.2414 29.7022 10.3849 29.5992 10.4908C29.4962 10.5966 29.3566 10.6561 29.211 10.6561ZM1.09804 9.52721H28.662V1.12888H1.09804V9.52721Z" fill="#040F81"/>
<path d="M15.228 17.2954H3.6413C3.4957 17.2954 3.35605 17.2359 3.25309 17.1301C3.15013 17.0242 3.09229 16.8806 3.09229 16.7309C3.09229 16.5812 3.15013 16.4377 3.25309 16.3318C3.35605 16.226 3.4957 16.1665 3.6413 16.1665H15.228C15.3736 16.1665 15.5132 16.226 15.6162 16.3318C15.7191 16.4377 15.777 16.5812 15.777 16.7309C15.777 16.8806 15.7191 17.0242 15.6162 17.1301C15.5132 17.2359 15.3736 17.2954 15.228 17.2954Z" fill="#040F81"/>
<path d="M15.228 19.5395H3.6413C3.4957 19.5395 3.35605 19.4801 3.25309 19.3742C3.15013 19.2684 3.09229 19.1248 3.09229 18.9751C3.09229 18.8254 3.15013 18.6818 3.25309 18.576C3.35605 18.4701 3.4957 18.4106 3.6413 18.4106H15.228C15.3736 18.4106 15.5132 18.4701 15.6162 18.576C15.7191 18.6818 15.777 18.8254 15.777 18.9751C15.777 19.1248 15.7191 19.2684 15.6162 19.3742C15.5132 19.4801 15.3736 19.5395 15.228 19.5395Z" fill="#040F81"/>
<path d="M20.5987 19.5397C20.2742 19.5398 19.957 19.4409 19.6871 19.2556C19.4173 19.0703 19.207 18.8069 19.0828 18.4987C18.9586 18.1905 18.9261 17.8513 18.9894 17.5241C19.0527 17.1969 19.2089 16.8964 19.4384 16.6605C19.6678 16.4246 19.9602 16.264 20.2784 16.1989C20.5967 16.1338 20.9266 16.1673 21.2263 16.2949C21.5261 16.4226 21.7823 16.6388 21.9626 16.9162C22.1428 17.1936 22.239 17.5198 22.2389 17.8534C22.2384 18.3005 22.0655 18.7291 21.758 19.0452C21.4505 19.3614 21.0335 19.5392 20.5987 19.5397ZM20.5987 17.2957C20.4914 17.2956 20.3865 17.3283 20.2972 17.3895C20.208 17.4508 20.1384 17.5379 20.0973 17.6398C20.0562 17.7417 20.0454 17.8538 20.0663 17.962C20.0872 18.0702 20.1389 18.1696 20.2147 18.2476C20.2906 18.3257 20.3872 18.3788 20.4925 18.4004C20.5977 18.4219 20.7068 18.4109 20.8059 18.3687C20.9051 18.3265 20.9898 18.255 21.0495 18.1633C21.1091 18.0715 21.1409 17.9637 21.1409 17.8534C21.1407 17.7056 21.0835 17.5639 20.9819 17.4593C20.8802 17.3548 20.7424 17.2959 20.5987 17.2957Z" fill="#040F81"/>
<path d="M25.0272 19.5397C24.7027 19.5399 24.3854 19.4412 24.1155 19.256C23.8455 19.0708 23.6351 18.8074 23.5108 18.4992C23.3865 18.191 23.3538 17.8519 23.417 17.5246C23.4802 17.1974 23.6364 16.8968 23.8658 16.6608C24.0953 16.4248 24.3876 16.2641 24.7059 16.199C25.0241 16.1338 25.3541 16.1672 25.6539 16.2949C25.9537 16.4225 26.21 16.6387 26.3902 16.9162C26.5705 17.1936 26.6667 17.5197 26.6667 17.8534C26.6662 18.3003 26.4933 18.7288 26.186 19.045C25.8787 19.3611 25.4619 19.539 25.0272 19.5397ZM25.0272 17.2957C24.9199 17.2954 24.8149 17.328 24.7255 17.3891C24.6362 17.4503 24.5665 17.5373 24.5253 17.6392C24.484 17.7411 24.4731 17.8533 24.494 17.9615C24.5148 18.0698 24.5664 18.1693 24.6422 18.2474C24.718 18.3255 24.8147 18.3787 24.9199 18.4003C25.0252 18.4219 25.1343 18.4109 25.2335 18.3687C25.3327 18.3266 25.4175 18.2551 25.4771 18.1633C25.5368 18.0716 25.5686 17.9637 25.5686 17.8534C25.5684 17.7057 25.5113 17.5641 25.4099 17.4596C25.3084 17.3551 25.1708 17.2962 25.0272 17.2957Z" fill="#040F81"/>
<path d="M21.2578 23.1815H0.54902C0.403411 23.1815 0.263765 23.122 0.160804 23.0162C0.0578429 22.9103 0 22.7667 0 22.617V13.0898C0 12.9401 0.0578429 12.7966 0.160804 12.6907C0.263765 12.5849 0.403411 12.5254 0.54902 12.5254H29.2107C29.3563 12.5254 29.496 12.5849 29.5989 12.6907C29.7019 12.7966 29.7597 12.9401 29.7597 13.0898V18.3802C29.7597 18.5299 29.7019 18.6735 29.5989 18.7794C29.496 18.8852 29.3563 18.9447 29.2107 18.9447C29.0651 18.9447 28.9255 18.8852 28.8225 18.7794C28.7195 18.6735 28.6617 18.5299 28.6617 18.3802V13.6543H1.09804V22.0526H21.2578C21.4034 22.0526 21.543 22.1121 21.646 22.2179C21.749 22.3238 21.8068 22.4673 21.8068 22.617C21.8068 22.7667 21.749 22.9103 21.646 23.0162C21.543 23.122 21.4034 23.1815 21.2578 23.1815Z" fill="#040F81"/>
<path d="M15.228 29.8203H3.64106C3.49545 29.8203 3.35581 29.7608 3.25285 29.655C3.14988 29.5491 3.09204 29.4055 3.09204 29.2558C3.09204 29.1061 3.14988 28.9626 3.25285 28.8567C3.35581 28.7509 3.49545 28.6914 3.64106 28.6914H15.228C15.3736 28.6914 15.5132 28.7509 15.6162 28.8567C15.7192 28.9626 15.777 29.1061 15.777 29.2558C15.777 29.4055 15.7192 29.5491 15.6162 29.655C15.5132 29.7608 15.3736 29.8203 15.228 29.8203Z" fill="#040F81"/>
<path d="M15.228 32.0649H3.6413C3.4957 32.0649 3.35605 32.0054 3.25309 31.8996C3.15013 31.7937 3.09229 31.6502 3.09229 31.5005C3.09229 31.3508 3.15013 31.2072 3.25309 31.1014C3.35605 30.9955 3.4957 30.936 3.6413 30.936H15.228C15.3736 30.936 15.5132 30.9955 15.6162 31.1014C15.7191 31.2072 15.777 31.3508 15.777 31.5005C15.777 31.6502 15.7191 31.7937 15.6162 31.8996C15.5132 32.0054 15.3736 32.0649 15.228 32.0649Z" fill="#040F81"/>
<path d="M21.3132 35.7067H0.54902C0.403411 35.7067 0.263765 35.6472 0.160804 35.5413C0.057843 35.4355 0 35.2919 0 35.1422V25.6147C0 25.465 0.057843 25.3215 0.160804 25.2156C0.263765 25.1098 0.403411 25.0503 0.54902 25.0503H21.7561C21.9017 25.0503 22.0413 25.1098 22.1443 25.2156C22.2473 25.3215 22.3051 25.465 22.3051 25.6147C22.3051 25.7644 22.2473 25.908 22.1443 26.0139C22.0413 26.1197 21.9017 26.1792 21.7561 26.1792H1.09804V34.5778H21.3132C21.4588 34.5778 21.5985 34.6372 21.7014 34.7431C21.8044 34.8489 21.8622 34.9925 21.8622 35.1422C21.8622 35.2919 21.8044 35.4355 21.7014 35.5413C21.5985 35.6472 21.4588 35.7067 21.3132 35.7067Z" fill="#040F81"/>
<path d="M30.5077 40.0002H27.9145C27.7689 40.0002 27.6292 39.9407 27.5263 39.8349C27.4233 39.729 27.3655 39.5854 27.3655 39.4357V37.608C26.3588 37.3816 25.3994 36.9729 24.532 36.4009L23.2753 37.693C23.2243 37.7454 23.1638 37.787 23.0972 37.8153C23.0305 37.8437 22.9591 37.8583 22.887 37.8583C22.8149 37.8583 22.7435 37.8437 22.6769 37.8153C22.6103 37.787 22.5498 37.7454 22.4988 37.693L20.6651 35.8077C20.6141 35.7553 20.5736 35.6931 20.5461 35.6246C20.5185 35.5561 20.5043 35.4827 20.5043 35.4086C20.5043 35.3345 20.5185 35.2611 20.5461 35.1926C20.5736 35.1241 20.6141 35.0619 20.6651 35.0095L21.9218 33.7174C21.3656 32.8259 20.968 31.8398 20.7477 30.8052H18.9699C18.8243 30.8052 18.6847 30.7457 18.5817 30.6399C18.4787 30.534 18.4209 30.3904 18.4209 30.2407V27.5747C18.4209 27.425 18.4787 27.2814 18.5817 27.1756C18.6847 27.0697 18.8243 27.0103 18.9699 27.0103H20.7477C20.9679 25.9753 21.3655 24.9889 21.9218 24.0972L20.6651 22.8052C20.6141 22.7528 20.5736 22.6905 20.5461 22.6221C20.5185 22.5536 20.5043 22.4802 20.5043 22.406C20.5043 22.3319 20.5185 22.2585 20.5461 22.19C20.5736 22.1215 20.6141 22.0593 20.6651 22.0069L22.4988 20.1217C22.5498 20.0693 22.6103 20.0277 22.6769 19.9993C22.7435 19.9709 22.8149 19.9563 22.887 19.9563C22.9591 19.9563 23.0305 19.9709 23.0972 19.9993C23.1638 20.0277 23.2243 20.0693 23.2753 20.1217L24.532 21.4137C25.3994 20.8417 26.3588 20.433 27.3655 20.2066V18.3789C27.3655 18.2292 27.4233 18.0856 27.5263 17.9798C27.6292 17.8739 27.7689 17.8145 27.9145 17.8145H30.5077C30.6533 17.8145 30.793 17.8739 30.8959 17.9798C30.9989 18.0856 31.0567 18.2292 31.0567 18.3789V20.2066C32.0634 20.433 33.0228 20.8417 33.8902 21.4137L35.1469 20.1217C35.1979 20.0693 35.2584 20.0277 35.325 19.9993C35.3916 19.9709 35.463 19.9563 35.5351 19.9563C35.6072 19.9563 35.6786 19.9709 35.7453 19.9993C35.8119 20.0277 35.8724 20.0693 35.9234 20.1217L37.7571 22.0069C37.8081 22.0593 37.8485 22.1215 37.8761 22.19C37.9037 22.2585 37.9179 22.3319 37.9179 22.406C37.9179 22.4802 37.9037 22.5536 37.8761 22.6221C37.8485 22.6905 37.8081 22.7528 37.7571 22.8052L36.5004 24.0972C37.0564 24.9891 37.4536 25.9756 37.6734 27.0105H39.4512C39.5968 27.0105 39.7365 27.07 39.8394 27.1758C39.9424 27.2817 40.0002 27.4253 40.0002 27.575V30.2407C40.0002 30.3904 39.9424 30.534 39.8394 30.6399C39.7365 30.7457 39.5968 30.8052 39.4512 30.8052H37.6734C37.4532 31.8401 37.0557 32.8265 36.4993 33.7182L37.7561 35.0103C37.807 35.0627 37.8475 35.1249 37.8751 35.1934C37.9027 35.2619 37.9169 35.3353 37.9169 35.4094C37.9169 35.4835 37.9027 35.5569 37.8751 35.6254C37.8475 35.6939 37.807 35.7561 37.7561 35.8085L35.9223 37.6938C35.8714 37.7462 35.8108 37.7878 35.7442 37.8161C35.6776 37.8445 35.6062 37.8591 35.5341 37.8591C35.462 37.8591 35.3906 37.8445 35.324 37.8161C35.2574 37.7878 35.1968 37.7462 35.1459 37.6938L33.8891 36.4017C33.0218 36.9737 32.0623 37.3825 31.0557 37.6088V39.4365C31.0555 39.5859 30.9977 39.7291 30.895 39.8348C30.7922 39.9404 30.653 39.9999 30.5077 40.0002ZM28.4635 38.8713H29.9587V37.1417C29.9587 37.0075 30.0052 36.8778 30.0899 36.7757C30.1745 36.6736 30.2918 36.6058 30.4206 36.5845C31.5816 36.3908 32.6826 35.9214 33.6363 35.2137C33.7421 35.1352 33.8716 35.0979 34.0017 35.1087C34.1318 35.1194 34.2539 35.1774 34.3461 35.2723L35.5362 36.4955L36.5934 35.4086L35.4034 34.1851C35.3112 34.0903 35.2548 33.9648 35.2444 33.8311C35.2341 33.6974 35.2703 33.5643 35.3466 33.4556C36.035 32.4751 36.4915 31.3432 36.68 30.1496C36.7007 30.0172 36.7666 29.8966 36.8659 29.8096C36.9652 29.7225 37.0914 29.6747 37.2219 29.6747H38.9022V28.1375H37.2199C37.0894 28.1375 36.9631 28.0897 36.8638 28.0027C36.7645 27.9156 36.6986 27.7951 36.6779 27.6626C36.4895 26.469 36.0329 25.337 35.3446 24.3566C35.2681 24.2479 35.2319 24.1147 35.2422 23.981C35.2526 23.8473 35.309 23.7217 35.4013 23.6268L36.5914 22.4034L35.5341 21.3164L34.344 22.5399C34.2518 22.6347 34.1296 22.6927 33.9996 22.7034C33.8695 22.7141 33.74 22.6768 33.6342 22.5982C32.6805 21.8905 31.5795 21.4212 30.4185 21.2274C30.2897 21.2062 30.1724 21.1384 30.0878 21.0363C30.0031 20.9342 29.9566 20.8044 29.9566 20.6703V18.9447H28.4614V20.6743C28.4614 20.8084 28.4149 20.9382 28.3302 21.0403C28.2456 21.1424 28.1283 21.2102 27.9995 21.2315C26.8385 21.4253 25.7375 21.8946 24.7838 22.6023C24.678 22.6808 24.5486 22.718 24.4186 22.7073C24.2886 22.6966 24.1665 22.6387 24.0742 22.5439L22.8842 21.3204L21.8303 22.4063L23.0199 23.6287C23.1121 23.7236 23.1685 23.8491 23.1789 23.9829C23.1893 24.1166 23.153 24.2497 23.0766 24.3585C22.3882 25.3389 21.9317 26.4709 21.7433 27.6645C21.7226 27.7969 21.6566 27.9175 21.5573 28.0045C21.458 28.0916 21.3318 28.1394 21.2013 28.1394H19.52V29.6763H21.2029C21.3334 29.6763 21.4596 29.7241 21.5589 29.8112C21.6582 29.8982 21.7241 30.0188 21.7448 30.1512C21.9333 31.3448 22.3898 32.4767 23.0782 33.4572C23.1545 33.5659 23.1907 33.699 23.1804 33.8327C23.17 33.9664 23.1136 34.0919 23.0214 34.1867L21.8303 35.4097L22.8876 36.4966L24.0776 35.2734C24.1699 35.1786 24.2919 35.1206 24.4219 35.1099C24.5519 35.0991 24.6814 35.1363 24.7872 35.2148C25.7409 35.9225 26.8419 36.3918 28.0029 36.5856C28.1317 36.6069 28.249 36.6746 28.3336 36.7767C28.4183 36.8788 28.4648 37.0086 28.4648 37.1428L28.4635 38.8713Z" fill="#040F81"/>
<path d="M29.2107 34.206C26.3691 34.206 24.0575 31.8295 24.0575 28.9081C24.0575 25.9867 26.3691 23.6099 29.2107 23.6099C32.0523 23.6099 34.3642 25.9867 34.3642 28.9081C34.3642 31.8295 32.0523 34.206 29.2107 34.206ZM29.2107 24.7387C26.9746 24.7387 25.1555 26.6092 25.1555 28.9081C25.1555 31.207 26.9746 33.0771 29.2107 33.0771C31.4468 33.0771 33.2661 31.207 33.2661 28.9081C33.2661 26.6092 31.447 24.7387 29.2107 24.7387Z" fill="#040F81"/>
</g>
<defs>
<clipPath id="clip0_7_3065">
<rect width="40" height="40" fill="white"/>
</clipPath>
</defs>
</svg>
