<svg width="13" height="14" viewBox="0 0 13 14" fill="none" xmlns="http://www.w3.org/2000/svg">
<path d="M3.15789 2.10526C2.8655 2.10526 2.61696 2.2076 2.41228 2.41228C2.2076 2.61696 2.10526 2.8655 2.10526 3.15789C2.10526 3.45029 2.2076 3.69883 2.41228 3.90351C2.61696 4.10819 2.8655 4.21053 3.15789 4.21053C3.45029 4.21053 3.69883 4.10819 3.90351 3.90351C4.10819 3.69883 4.21053 3.45029 4.21053 3.15789C4.21053 2.8655 4.10819 2.61696 3.90351 2.41228C3.69883 2.2076 3.45029 2.10526 3.15789 2.10526ZM3.15789 9.12281C2.8655 9.12281 2.61696 9.22515 2.41228 9.42982C2.2076 9.6345 2.10526 9.88304 2.10526 10.1754C2.10526 10.4678 2.2076 10.7164 2.41228 10.9211C2.61696 11.1257 2.8655 11.2281 3.15789 11.2281C3.45029 11.2281 3.69883 11.1257 3.90351 10.9211C4.10819 10.7164 4.21053 10.4678 4.21053 10.1754C4.21053 9.88304 4.10819 9.6345 3.90351 9.42982C3.69883 9.22515 3.45029 9.12281 3.15789 9.12281ZM0.701754 0H11.9298C12.1287 0 12.2953 0.0672515 12.4298 0.201754C12.5643 0.336257 12.6316 0.502924 12.6316 0.701754V5.61404C12.6316 5.81287 12.5643 5.97953 12.4298 6.11404C12.2953 6.24854 12.1287 6.31579 11.9298 6.31579H0.701754C0.502924 6.31579 0.336257 6.24854 0.201754 6.11404C0.0672515 5.97953 0 5.81287 0 5.61404V0.701754C0 0.502924 0.0672515 0.336257 0.201754 0.201754C0.336257 0.0672515 0.502924 0 0.701754 0ZM1.40351 1.40351V4.91228H11.2281V1.40351H1.40351ZM0.701754 7.01754H11.9298C12.1287 7.01754 12.2953 7.0848 12.4298 7.2193C12.5643 7.3538 12.6316 7.52047 12.6316 7.7193V12.6316C12.6316 12.8304 12.5643 12.9971 12.4298 13.1316C12.2953 13.2661 12.1287 13.3333 11.9298 13.3333H0.701754C0.502924 13.3333 0.336257 13.2661 0.201754 13.1316C0.0672515 12.9971 0 12.8304 0 12.6316V7.7193C0 7.52047 0.0672515 7.3538 0.201754 7.2193C0.336257 7.0848 0.502924 7.01754 0.701754 7.01754ZM1.40351 8.42105V11.9298H11.2281V8.42105H1.40351Z" fill="#1C1B1F"/>
</svg>
