<svg width="12" height="12" viewBox="0 0 12 12" fill="none" xmlns="http://www.w3.org/2000/svg">
<path d="M10.2427 1.75734C9.10938 0.624117 7.60266 0 6 0C4.39734 0 2.89062 0.624117 1.75734 1.75734C0.624117 2.89059 0 4.39734 0 6C0 7.60266 0.624117 9.10941 1.75734 10.2427C2.89062 11.3759 4.39734 12 6 12C7.60266 12 9.10938 11.3759 10.2427 10.2427C11.3759 9.10941 12 7.60266 12 6C12 4.39734 11.3759 2.89059 10.2427 1.75734ZM4.86209 0.826594C4.66083 1.02237 4.4433 1.25566 4.22566 1.52721C3.8493 1.99683 3.53592 2.50228 3.29081 3.03382H1.61363C2.36276 1.92956 3.51757 1.12209 4.86209 0.826594ZM1.2116 3.73695H3.01205C2.80713 4.34904 2.68793 4.98928 2.6568 5.64844H0.715078C0.759867 4.96854 0.933352 4.32333 1.2116 3.73695ZM0.715078 6.35156H2.6568C2.68793 7.01072 2.80711 7.65096 3.01205 8.26305H1.2116C0.933352 7.67667 0.759867 7.03146 0.715078 6.35156ZM1.61363 8.96618H3.29081C3.53592 9.4977 3.8493 10.0032 4.22566 10.4728C4.44328 10.7443 4.6608 10.9776 4.86209 11.1734C3.51757 10.8779 2.36276 10.0704 1.61363 8.96618ZM5.64844 10.9408C5.39805 10.7249 5.08673 10.4229 4.77434 10.0331C4.50112 9.69216 4.26715 9.33616 4.07222 8.96618H5.64844V10.9408ZM5.64844 8.26305H3.75511C3.52657 7.65778 3.39495 7.01939 3.36082 6.35156H5.64844V8.26305ZM5.64844 5.64844H3.36082C3.39497 4.9807 3.52676 4.34234 3.75539 3.73695H5.64844V5.64844ZM5.64844 3.03382H4.07222C4.26314 2.67143 4.49161 2.32247 4.7576 1.98787C5.07398 1.58993 5.39266 1.28072 5.64844 1.06022V3.03382ZM11.2849 5.64844H9.34319C9.31207 4.98928 9.19289 4.34904 8.98795 3.73695H10.7884C11.0666 4.32333 11.2402 4.96854 11.2849 5.64844ZM10.3864 3.03382H8.70919C8.46408 2.5023 8.15069 1.99683 7.77434 1.52721C7.55672 1.25566 7.3392 1.02237 7.13791 0.826594C8.48245 1.12209 9.63727 1.92956 10.3864 3.03382ZM6.35156 1.05923C6.60195 1.27512 6.91327 1.57711 7.22566 1.96692C7.49888 2.30784 7.73285 2.66384 7.9278 3.03382H6.35156V1.05923ZM6.35156 3.73695H8.24489C8.47345 4.34222 8.60505 4.98061 8.63918 5.64844H6.35156V3.73695ZM6.35156 6.35156H8.63916C8.60501 7.0193 8.47322 7.65766 8.24459 8.26305H6.35156V6.35156ZM6.35156 10.9398V8.96618H7.92778C7.73686 9.32857 7.50839 9.67753 7.2424 10.0121C6.92602 10.41 6.60736 10.7192 6.35156 10.9398ZM7.13794 11.1734C7.3392 10.9776 7.55672 10.7443 7.77436 10.4728C8.15072 10.0032 8.4641 9.49772 8.70921 8.96618H10.3864C9.63727 10.0704 8.48245 10.8779 7.13794 11.1734ZM10.7884 8.26305H8.98795C9.19287 7.65096 9.31207 7.01072 9.34319 6.35156H11.2849C11.2402 7.03146 11.0666 7.67667 10.7884 8.26305Z" fill="#4F4F4F"/>
</svg>
