<svg width="40" height="40" viewBox="0 0 40 40" fill="none" xmlns="http://www.w3.org/2000/svg">
<g clip-path="url(#clip0_2675_15770)">
<path d="M24.4219 31.7961H15.178C14.8912 31.7961 14.6486 31.558 14.6486 31.2766V30.0645C14.6486 28.2679 13.8102 26.558 12.3541 25.3459C9.37581 22.8783 7.87561 19.1337 8.33891 15.3026C8.95663 10.151 13.2366 5.9952 18.4873 5.41079C21.8186 5.04282 25.0176 6.06014 27.5105 8.22464C29.9594 10.3675 31.3493 13.4411 31.3493 16.6662C31.3493 19.8913 29.8491 23.1813 27.2237 25.3459C25.7897 26.5363 24.9514 28.2463 24.9514 30.0428V31.2549C24.9514 31.5363 24.7087 31.7744 24.4219 31.7744V31.7961ZM15.7075 30.7571H23.8924V30.0861C23.8924 27.9865 24.8631 25.9736 26.5398 24.5883C28.9225 22.6186 30.2683 19.7614 30.2683 16.7095C30.2683 13.6575 28.9887 10.9952 26.7825 9.04715C24.5322 7.07745 21.6201 6.16836 18.5976 6.49304C13.8323 7.01252 9.94941 10.7788 9.39787 15.4541C8.9787 18.9173 10.3465 22.3372 13.0381 24.5666C14.7368 25.9736 15.7075 27.9865 15.7075 30.0645V30.7355V30.7571Z" fill="#3D4DB6"/>
<path d="M25.0617 34.524H14.5383C13.4793 34.524 12.6189 33.6799 12.6189 32.6409C12.6189 31.602 13.4793 30.7578 14.5383 30.7578H25.0617C26.1207 30.7578 26.9811 31.602 26.9811 32.6409C26.9811 33.6799 26.1207 34.524 25.0617 34.524ZM14.5383 31.7968C14.075 31.7968 13.6779 32.1647 13.6779 32.6409C13.6779 33.1171 14.0529 33.4851 14.5383 33.4851H25.0617C25.525 33.4851 25.9221 33.1171 25.9221 32.6409C25.9221 32.1647 25.5471 31.7968 25.0617 31.7968H14.5383Z" fill="#3D4DB6"/>
<path d="M25.0617 39.9996H14.5383C13.4793 39.9996 12.6189 39.1555 12.6189 38.1165C12.6189 37.0776 13.4793 36.2334 14.5383 36.2334H25.0617C26.1207 36.2334 26.9811 37.0776 26.9811 38.1165C26.9811 39.1555 26.1207 39.9996 25.0617 39.9996ZM14.5383 37.2724C14.075 37.2724 13.6779 37.6403 13.6779 38.1165C13.6779 38.5927 14.0529 38.9607 14.5383 38.9607H25.0617C25.525 38.9607 25.9221 38.5927 25.9221 38.1165C25.9221 37.6403 25.5471 37.2724 25.0617 37.2724H14.5383Z" fill="#3D4DB6"/>
<path d="M24.3777 37.2506H15.2221C14.9353 37.2506 14.6926 37.0125 14.6926 36.7311V34.0039C14.6926 33.7225 14.9353 33.4844 15.2221 33.4844H24.3777C24.6645 33.4844 24.9072 33.7225 24.9072 34.0039V36.7311C24.9072 37.0125 24.6645 37.2506 24.3777 37.2506ZM15.7516 36.2116H23.8482V34.5233H15.7516V36.2116Z" fill="#3D4DB6"/>
<path d="M31.2832 39.9999H7.8537C7.5669 39.9999 7.32422 39.7618 7.32422 39.4804C7.32422 39.199 7.5669 38.9609 7.8537 38.9609H31.2832C31.57 38.9609 31.8127 39.199 31.8127 39.4804C31.8127 39.7618 31.57 39.9999 31.2832 39.9999Z" fill="#3D4DB6"/>
<path d="M21.4215 31.7962C21.0464 31.7312 20.8479 31.4715 20.892 31.1901L23.1423 18.3979L22.1936 19.0256C22.0171 19.1338 21.7965 19.1555 21.62 19.0256L19.811 17.9001L18.0019 19.0256C17.8254 19.1338 17.6048 19.1338 17.4283 19.0256L16.4797 18.3979L18.7299 31.1901C18.7741 31.4715 18.5755 31.7529 18.2887 31.7962C18.0019 31.8395 17.7151 31.6447 17.671 31.3633L15.2221 17.359C15.178 17.1425 15.2883 16.9477 15.4648 16.8395C15.6413 16.7312 15.884 16.7312 16.0605 16.8395L17.7372 17.965L19.5462 16.8395C19.7227 16.7312 19.9433 16.7312 20.1198 16.8395L21.9289 17.965L23.6056 16.8395C23.7821 16.7312 24.0027 16.7096 24.2013 16.8395C24.3777 16.9477 24.466 17.1641 24.4439 17.359L21.9951 31.3633C21.951 31.623 21.7303 31.7962 21.4656 31.7962H21.4215Z" fill="#3D4DB6"/>
<path d="M19.811 3.50649C19.5242 3.50649 19.2815 3.2684 19.2815 2.98701V0.519481C19.2815 0.238095 19.5242 0 19.811 0C20.0978 0 20.3405 0.238095 20.3405 0.519481V2.96537C20.3405 3.24675 20.0978 3.48485 19.811 3.48485V3.50649Z" fill="#3D4DB6"/>
<path d="M25.7236 4.78337C25.7236 4.78337 25.5692 4.78337 25.503 4.74008C25.2383 4.61021 25.128 4.30718 25.2383 4.04744L26.2972 1.818C26.4296 1.55826 26.7385 1.45004 27.0032 1.55826C27.2679 1.68813 27.3783 1.99116 27.2679 2.2509L26.209 4.48034C26.1207 4.67515 25.9222 4.78337 25.7236 4.78337Z" fill="#3D4DB6"/>
<path d="M30.555 8.42038C30.4006 8.42038 30.2461 8.35545 30.1358 8.22558C29.9373 8.00913 29.9814 7.68445 30.202 7.48965L32.1214 5.90956C32.342 5.71476 32.6729 5.75805 32.8715 5.9745C33.07 6.19095 33.0259 6.51562 32.8053 6.71043L30.8859 8.29051C30.8859 8.29051 30.6653 8.42038 30.5329 8.42038H30.555Z" fill="#3D4DB6"/>
<path d="M33.3569 13.7018C33.1142 13.7018 32.9156 13.5503 32.8494 13.3122C32.7832 13.0308 32.9377 12.7494 33.2245 12.6628L35.6292 12.0351C35.916 11.9485 36.2028 12.1217 36.2911 12.4031C36.3572 12.6844 36.2028 12.9658 35.916 13.0524L33.5113 13.6801C33.5113 13.6801 33.423 13.6801 33.3789 13.6801L33.3569 13.7018Z" fill="#3D4DB6"/>
<path d="M36.0705 20.0648L33.5113 19.6319C33.2245 19.5886 33.026 19.3072 33.0701 19.0258C33.1142 18.7445 33.401 18.5496 33.6878 18.5929L36.1367 19.0258C36.4235 19.0691 36.622 19.3505 36.5779 19.6319C36.5338 19.8916 36.3132 20.0648 36.0484 20.0648H36.0705Z" fill="#3D4DB6"/>
<path d="M33.3349 26.5587C33.3349 26.5587 33.1143 26.5371 33.026 26.4721L30.9743 25.0652C30.7316 24.892 30.6654 24.5674 30.8419 24.3293C31.0184 24.0912 31.3493 24.0262 31.592 24.1994L33.6437 25.6063C33.8864 25.7795 33.9526 26.1042 33.7761 26.3423C33.6658 26.4938 33.5114 26.5587 33.3349 26.5587Z" fill="#3D4DB6"/>
<path d="M13.8765 4.78387C13.678 4.78387 13.4794 4.67564 13.3912 4.48084L12.3322 2.2514C12.1998 1.99166 12.3322 1.68863 12.5969 1.55876C12.8617 1.42889 13.1705 1.55876 13.3029 1.8185L14.3619 4.04794C14.4943 4.30768 14.3619 4.61071 14.0971 4.74058C14.031 4.78387 13.9427 4.78387 13.8765 4.78387Z" fill="#3D4DB6"/>
<path d="M9.0669 8.42038C8.9566 8.42038 8.82423 8.37709 8.71392 8.29051L6.79455 6.71043C6.57393 6.51562 6.52981 6.19095 6.72836 5.9745C6.92692 5.75805 7.25784 5.71476 7.47846 5.90956L9.39783 7.48965C9.61845 7.68445 9.66257 8.00913 9.46402 8.22558C9.35371 8.35545 9.19928 8.42038 9.04484 8.42038H9.0669Z" fill="#3D4DB6"/>
<path d="M6.26506 13.7016C6.26506 13.7016 6.17681 13.7016 6.13269 13.7016L3.72796 13.0739C3.44116 13.009 3.26467 12.7059 3.35291 12.4245C3.4191 12.1432 3.72796 11.97 4.01476 12.0566L6.41949 12.6843C6.70629 12.7492 6.88279 13.0523 6.79454 13.3336C6.72836 13.5717 6.50774 13.7232 6.28712 13.7232L6.26506 13.7016Z" fill="#3D4DB6"/>
<path d="M3.5296 20.0654C3.26486 20.0654 3.04424 19.8922 3.00012 19.6325C2.95599 19.3511 3.13249 19.0697 3.44135 19.0264L5.8902 18.5935C6.17701 18.5502 6.46381 18.7234 6.50793 19.0264C6.55205 19.3078 6.37556 19.5892 6.0667 19.6325L3.61785 20.0654C3.61785 20.0654 3.55166 20.0654 3.5296 20.0654Z" fill="#3D4DB6"/>
<path d="M6.26507 26.5587C6.08858 26.5587 5.93414 26.4721 5.82384 26.3423C5.64734 26.1042 5.71353 25.7795 5.95621 25.6063L8.00795 24.1994C8.25063 24.0262 8.58155 24.0912 8.75804 24.3293C8.93454 24.5674 8.86835 24.892 8.62567 25.0652L6.57393 26.4721C6.57393 26.4721 6.37538 26.5587 6.26507 26.5587Z" fill="#3D4DB6"/>
</g>
<defs>
<clipPath id="clip0_2675_15770">
<rect width="33.6" height="40" fill="white" transform="translate(3)"/>
</clipPath>
</defs>
</svg>
