<svg width="18" height="18" viewBox="0 0 18 18" fill="none" xmlns="http://www.w3.org/2000/svg">
<mask id="mask0_9234_275" style="mask-type:alpha" maskUnits="userSpaceOnUse" x="0" y="0" width="18" height="18">
<rect width="18" height="18" fill="#D9D9D9"/>
</mask>
<g mask="url(#mask0_9234_275)">
<path d="M3.38062 14.9248C3.04299 14.9248 2.75762 14.8082 2.52449 14.5751C2.29137 14.342 2.1748 14.0566 2.1748 13.719V6.08062C2.1748 5.74299 2.29137 5.45762 2.52449 5.22449C2.75762 4.99137 3.04299 4.8748 3.38062 4.8748H5.7748V3.75168C5.7748 3.41293 5.89137 3.12793 6.12449 2.89668C6.35762 2.66543 6.64299 2.5498 6.98062 2.5498H11.019C11.3566 2.5498 11.642 2.66637 11.8751 2.89949C12.1082 3.13262 12.2248 3.41799 12.2248 3.75562V4.8748H14.619C14.9566 4.8748 15.242 4.99137 15.4751 5.22449C15.7082 5.45762 15.8248 5.74299 15.8248 6.08062V13.719C15.8248 14.0566 15.7082 14.342 15.4751 14.5751C15.242 14.8082 14.9566 14.9248 14.619 14.9248H3.38062ZM6.7498 4.8748H11.2498V3.75562C11.2498 3.69787 11.2257 3.64499 11.1776 3.59699C11.1296 3.54887 11.0767 3.5248 11.019 3.5248H6.98062C6.92287 3.5248 6.86999 3.54887 6.82199 3.59699C6.77387 3.64499 6.7498 3.69787 6.7498 3.75562V4.8748ZM14.8498 10.8373H10.8748V12.2248H7.1248V10.8373H3.1498V13.719C3.1498 13.7767 3.17387 13.8296 3.22199 13.8776C3.26999 13.9257 3.32287 13.9498 3.38062 13.9498H14.619C14.6767 13.9498 14.7296 13.9257 14.7776 13.8776C14.8257 13.8296 14.8498 13.7767 14.8498 13.719V10.8373ZM8.0998 11.2498H9.89981V9.4498H8.0998V11.2498ZM3.1498 9.8623H7.1248V8.4748H10.8748V9.8623H14.8498V6.08062C14.8498 6.02287 14.8257 5.96999 14.7776 5.92199C14.7296 5.87387 14.6767 5.8498 14.619 5.8498H3.38062C3.32287 5.8498 3.26999 5.87387 3.22199 5.92199C3.17387 5.96999 3.1498 6.02287 3.1498 6.08062V9.8623Z" fill="#4C505A"/>
</g>
</svg>
