<svg width="18" height="18" viewBox="0 0 18 18" fill="none" xmlns="http://www.w3.org/2000/svg">
<mask id="mask0_9234_63" style="mask-type:alpha" maskUnits="userSpaceOnUse" x="0" y="0" width="18" height="18">
<rect width="18" height="18" fill="#D9D9D9"/>
</mask>
<g mask="url(#mask0_9234_63)">
<path d="M6.11841 15.825C5.52616 15.825 5.02091 15.6159 4.60266 15.1975C4.18429 14.7792 3.9751 14.274 3.9751 13.6817V4.46255C3.9751 3.82705 4.19747 3.28692 4.64222 2.84217C5.08697 2.39742 5.6271 2.17505 6.2626 2.17505H14.0251V12.4947C13.703 12.4947 13.4277 12.6115 13.1993 12.8451C12.971 13.0786 12.8568 13.36 12.8568 13.6894C12.8568 14.0189 12.971 14.2979 13.1993 14.5262C13.4277 14.7546 13.703 14.8688 14.0251 14.8688V15.825H6.11841ZM4.9501 11.902C5.12035 11.7856 5.29966 11.6959 5.48804 11.6329C5.67654 11.57 5.88666 11.5386 6.11841 11.5386H6.44429V3.15005H6.2626C5.90197 3.15005 5.5931 3.27867 5.33597 3.53592C5.07872 3.79305 4.9501 4.10192 4.9501 4.46255V11.902ZM7.41929 11.5386H13.0501V3.15005H7.41929V11.5386ZM6.11841 14.85H12.2453C12.1241 14.6798 12.0332 14.5024 11.9727 14.3179C11.9121 14.1333 11.8818 13.9258 11.8818 13.6954C11.8818 13.4778 11.9164 13.269 11.9857 13.069C12.0549 12.8689 12.1477 12.6837 12.2641 12.5134H6.11841C5.78379 12.5134 5.50541 12.6276 5.28329 12.856C5.06116 13.0844 4.9501 13.3596 4.9501 13.6817C4.9501 14.0164 5.06116 14.2947 5.28329 14.5169C5.50541 14.739 5.78379 14.85 6.11841 14.85Z" fill="#4C505A"/>
</g>
</svg>
