<svg width="18" height="18" viewBox="0 0 18 18" fill="none" xmlns="http://www.w3.org/2000/svg">
<mask id="mask0_9234_93" style="mask-type:alpha" maskUnits="userSpaceOnUse" x="0" y="0" width="18" height="18">
<rect width="18" height="18" fill="#D9D9D9"/>
</mask>
<g mask="url(#mask0_9234_93)">
<path d="M11.394 3.43862H7.70755C7.64018 3.43862 7.58487 3.46025 7.54162 3.5035C7.49837 3.54675 7.47674 3.602 7.47674 3.66925V8.48237H11.394V3.43862ZM14.619 3.43862H12.369V8.48237H14.619C14.6864 8.48237 14.7417 8.46194 14.7849 8.42106C14.8282 8.38019 14.8498 8.32606 14.8498 8.25869V3.66925C14.8498 3.602 14.8282 3.54675 14.7849 3.5035C14.7417 3.46025 14.6864 3.43862 14.619 3.43862ZM11.3796 9.45719H6.21318V13.9501H9.89981C10.1886 13.9501 10.467 13.9032 10.7351 13.8094C11.0032 13.7157 11.2434 13.5784 11.4555 13.3977L14.7561 10.7438C14.6368 10.6573 14.5164 10.5893 14.3947 10.5398C14.2731 10.4902 14.1378 10.4529 13.9888 10.4279C13.7811 10.4 13.5721 10.4123 13.362 10.4648C13.152 10.5172 12.9595 10.6121 12.7845 10.7496L10.8056 12.2684H7.85174V11.2934H10.4854L11.694 10.3429C11.7614 10.2833 11.8126 10.2174 11.8477 10.1453C11.8827 10.0732 11.8931 9.99119 11.8787 9.89931C11.8643 9.77181 11.8089 9.66625 11.7124 9.58262C11.616 9.499 11.5051 9.45719 11.3796 9.45719ZM5.23837 9.45006H3.38062C3.31324 9.45006 3.25793 9.47169 3.21468 9.51494C3.17143 9.55819 3.1498 9.6135 3.1498 9.68087V14.6192C3.1498 14.6866 3.17143 14.7419 3.21468 14.7852C3.25793 14.8284 3.31324 14.8501 3.38062 14.8501H5.00755C5.0748 14.8501 5.13005 14.8284 5.1733 14.7852C5.21668 14.7419 5.23837 14.6866 5.23837 14.6192V9.45006ZM6.50174 9.45719V3.66925C6.50174 3.2905 6.60799 2.99487 6.82049 2.78237C7.03299 2.56987 7.32868 2.46362 7.70755 2.46362H14.619C14.9979 2.46362 15.2936 2.56987 15.5061 2.78237C15.7186 2.99487 15.8248 3.2905 15.8248 3.66925V8.25156C15.8248 8.63044 15.7186 8.92606 15.5061 9.13844C15.2936 9.35094 14.9979 9.45719 14.619 9.45719H6.50174ZM5.00155 15.8322H3.38062C3.00174 15.8322 2.70605 15.7259 2.49355 15.5134C2.28105 15.3009 2.1748 15.0053 2.1748 14.6266V9.688C2.1748 9.30925 2.28105 9.01362 2.49355 8.80112C2.70605 8.58862 3.00174 8.48237 3.38062 8.48237H10.7162C11.7152 8.48237 12.6849 8.61362 13.6252 8.87612C14.5656 9.13862 15.3108 9.67656 15.8608 10.4899L16.1406 10.852L12.0546 14.1751C11.7507 14.4227 11.4129 14.6107 11.0413 14.7392C10.6697 14.8679 10.2892 14.9322 9.89981 14.9322H6.21468C6.16368 15.2197 6.02862 15.4416 5.80949 15.5978C5.59024 15.7541 5.32093 15.8322 5.00155 15.8322Z" fill="#4C505A"/>
</g>
</svg>
