<svg width="18" height="18" viewBox="0 0 18 18" fill="none" xmlns="http://www.w3.org/2000/svg">
<mask id="mask0_9234_246" style="mask-type:alpha" maskUnits="userSpaceOnUse" x="0" y="0" width="18" height="18">
<rect width="18" height="18" fill="#D9D9D9"/>
</mask>
<g mask="url(#mask0_9234_246)">
<path d="M6.6748 14.9252V13.1252H3.38062C3.04299 13.1252 2.75762 13.0086 2.52449 12.7753C2.29137 12.5421 2.1748 12.2565 2.1748 11.9186V4.27576C2.1748 3.93788 2.29137 3.65332 2.52449 3.42207C2.75762 3.19082 3.04299 3.0752 3.38062 3.0752H9.87093V4.0502H3.38062C3.32287 4.0502 3.26999 4.07426 3.22199 4.12238C3.17387 4.17038 3.1498 4.22326 3.1498 4.28101V11.9194C3.1498 11.9771 3.17387 12.03 3.22199 12.078C3.26999 12.1261 3.32287 12.1502 3.38062 12.1502H14.619C14.6767 12.1502 14.7296 12.1261 14.7776 12.078C14.8257 12.03 14.8498 11.9771 14.8498 11.9194V10.0877H15.8248V11.9194C15.8248 12.2608 15.7082 12.5471 15.4751 12.7783C15.242 13.0096 14.9566 13.1252 14.619 13.1252H11.3248V14.9252H6.6748ZM12.9733 9.61895L10.1017 6.74738L10.7912 6.05795L12.5046 7.77863V3.0752H13.4796V7.74113L15.1931 6.02045L15.8826 6.70988L12.9733 9.61895Z" fill="#4C505A"/>
</g>
</svg>
