<svg width="102" height="101" viewBox="0 0 102 101" fill="none" xmlns="http://www.w3.org/2000/svg">
<path d="M90.2245 89.6643H11.7751C8.05813 89.6643 5.04688 86.6374 5.04688 82.936V33.6268C5.04688 29.9098 8.07381 26.8986 11.7751 26.8986H43.0325C43.6285 26.8986 44.1618 27.2279 44.4284 27.7455L52.4113 43.3193C52.6466 43.7741 52.6466 44.323 52.3956 44.7779L46.875 54.9879L53.2739 59.0499C53.7915 59.3793 54.0738 59.9909 53.9797 60.6026L52.427 70.891L62.4488 56.2896L57.2732 54.3762C56.8027 54.2037 56.442 53.8116 56.3009 53.3411C56.1597 52.8549 56.2695 52.3373 56.5675 51.9453L63.1389 43.4604L58.9357 28.8747C58.7946 28.4042 58.8887 27.8866 59.1866 27.4945C59.4846 27.1024 59.9395 26.8672 60.4413 26.8672H90.1931C93.9101 26.8672 96.9214 29.8941 96.9214 33.5955V82.9047C96.9527 86.6531 93.9415 89.6643 90.2245 89.6643ZM11.7751 30.0196C9.799 30.0196 8.18359 31.635 8.18359 33.6111V82.9203C8.18359 84.9122 9.799 86.5119 11.7751 86.5119H90.2245C92.2163 86.5119 93.816 84.8965 93.816 82.9203V33.6268C93.816 31.6507 92.2006 30.0353 90.2245 30.0353H62.5586L66.4011 43.382C66.5422 43.8682 66.4325 44.3858 66.1345 44.7779L60.3786 52.1962L65.4287 54.0625C65.8835 54.2351 66.2286 54.5958 66.3854 55.0663C66.5422 55.5368 66.4638 56.023 66.1815 56.4308L51.1566 78.2937C50.7489 78.8897 49.9647 79.1406 49.2903 78.8583C48.6159 78.5917 48.2081 77.8859 48.3179 77.1645L50.7175 61.1515L43.9422 56.8542C43.2521 56.4151 43.0169 55.5054 43.4089 54.784L49.2276 44.0094L42.0602 30.0353H11.7751V30.0196Z" fill="#8187C0"/>
<path d="M95.3847 41.4844H63.7822C62.9196 41.4844 62.2139 40.7786 62.2139 39.916C62.2139 39.0534 62.9196 38.3477 63.7822 38.3477H95.3847C96.2473 38.3477 96.953 39.0534 96.953 39.916C96.953 40.7786 96.2629 41.4844 95.3847 41.4844Z" fill="#8187C0"/>
<path d="M48.9139 41.4844H6.61523C5.75264 41.4844 5.04688 40.7786 5.04688 39.916C5.04688 39.0534 5.75264 38.3477 6.61523 38.3477H48.9139C49.7765 38.3477 50.4822 39.0534 50.4822 39.916C50.4822 40.7786 49.7765 41.4844 48.9139 41.4844Z" fill="#8187C0"/>
<path d="M49.8703 78.9659C49.6821 78.9659 49.4782 78.9346 49.29 78.8561C48.6156 78.5895 48.2078 77.8838 48.3176 77.1623L50.7172 61.1494L43.9419 56.8521C43.2518 56.4129 43.0166 55.5033 43.4087 54.7818L49.2273 44.0072L41.6207 29.1705C41.2286 28.402 41.5266 27.461 42.2951 27.0532C43.0636 26.6611 44.0046 26.9591 44.4124 27.7276L52.3954 43.3014C52.6306 43.7563 52.6306 44.3052 52.3797 44.76L46.8591 54.97L53.258 59.0321C53.7755 59.3614 54.0578 59.9731 53.9637 60.5848L52.4111 70.8732L62.4329 56.2718L57.2573 54.3584C56.7868 54.1858 56.426 53.7938 56.2849 53.3232C56.1437 52.8371 56.2535 52.3195 56.5515 51.9274L63.1229 43.4426L58.9197 28.8568C58.6845 28.0256 59.155 27.163 59.9862 26.9121C60.8175 26.6768 61.6801 27.1473 61.931 27.9786L66.3538 43.3328C66.4949 43.819 66.3851 44.3366 66.0871 44.7286L60.3313 52.147L65.3814 54.0133C65.8362 54.1858 66.1812 54.5466 66.3381 55.0171C66.4949 55.4876 66.4165 55.9738 66.1342 56.3815L51.1093 78.2445C50.8584 78.715 50.3722 78.9659 49.8703 78.9659Z" fill="#8187C0"/>
<path d="M54.3562 35.146C53.823 35.146 53.3054 34.8637 53.0074 34.3775L40.3037 13.0792C40.0214 12.593 40.0057 11.9971 40.288 11.4952C40.5703 10.9933 41.0879 10.6953 41.6525 10.6953H52.2546C53.0545 10.6953 53.7289 11.307 53.823 12.1068L55.9246 33.4052C56.003 34.1423 55.5482 34.8167 54.8581 35.0519C54.6856 35.1147 54.5287 35.146 54.3562 35.146ZM44.4128 13.8477L52.1135 26.7396L50.8431 13.8477H44.4128Z" fill="#8187C0"/>
</svg>
