<svg width="88" height="88" viewBox="0 0 88 88" fill="none" xmlns="http://www.w3.org/2000/svg">
<path d="M15.1255 85.2515C15.0128 85.2515 14.8945 85.2377 14.779 85.2075C14.042 85.015 13.602 84.2642 13.7973 83.53L22.0473 51.905C22.2178 51.2587 22.8283 50.8132 23.491 50.882C24.1565 50.9397 24.6873 51.465 24.745 52.1332L27.495 83.7582C27.561 84.5145 27 85.1827 26.2438 85.2487C25.4793 85.3065 24.8193 84.7537 24.756 83.9975L22.6963 60.3062L16.4538 84.223C16.2943 84.8417 15.7388 85.2515 15.1255 85.2515Z" fill="#040F81" fill-opacity="0.5"/>
<path d="M31.625 85.2503C30.866 85.2503 30.25 84.6343 30.25 83.8753V29.3125C30.25 28.8093 30.525 28.3473 30.965 28.108L40.5763 22.8335C42.5315 21.761 43.8487 19.7975 44.0962 17.581C44.3492 15.3645 43.5023 13.1535 41.8358 11.6685L35.2908 5.84954C34.7243 5.35179 33.8553 5.39304 33.3438 5.96504C32.8377 6.53154 31.966 6.58104 31.405 6.07779C30.8358 5.57179 30.7862 4.70279 31.2922 4.13629C32.7992 2.44229 35.4145 2.28829 37.114 3.79254L43.6617 9.61429C46.002 11.6933 47.1817 14.787 46.8297 17.889C46.4805 20.991 44.638 23.741 41.8962 25.2453L33 30.1265V83.8753C33 84.6343 32.384 85.2503 31.625 85.2503Z" fill="#040F81" fill-opacity="0.5"/>
<path d="M9.58394 85.2502C9.50694 85.2502 9.42994 85.2447 9.35294 85.231C8.60494 85.1045 8.09894 84.395 8.22544 83.647L13.0462 54.9452C12.8289 54.981 12.6034 55.0002 12.3752 55.0002C10.1009 55.0002 8.25019 53.1495 8.25019 50.8752V33.0002C8.25019 27.668 11.1432 22.0002 16.5002 22.0002H28.1932C29.8047 22.0002 31.4079 21.5905 32.8269 20.8122L37.9309 18.01C38.3324 17.79 38.5799 17.416 38.6322 16.9595C38.6872 16.5002 38.5249 16.0822 38.1812 15.777C37.6119 15.2737 37.5597 14.402 38.0657 13.8355C38.5689 13.2635 39.4434 13.214 40.0072 13.72C41.0219 14.622 41.5197 15.9145 41.3657 17.2675C41.2117 18.6205 40.4417 19.7672 39.2509 20.419L34.1469 23.2212C32.3237 24.2222 30.2639 24.7502 28.1932 24.7502H16.5002C12.9279 24.7502 11.0002 29.0017 11.0002 33.0002V50.8752C11.0002 51.6342 11.6189 52.2502 12.3752 52.2502C12.9417 52.2502 13.4312 51.9065 13.6402 51.4142L13.7694 50.647C13.8904 49.943 14.4954 49.4425 15.2407 49.5057C15.9529 49.5635 16.5002 50.1602 16.5002 50.8752C16.5002 51.3042 16.4369 51.7167 16.3132 52.1072L10.9397 84.1035C10.8269 84.7772 10.2439 85.2502 9.58394 85.2502Z" fill="#040F81" fill-opacity="0.5"/>
<path d="M15.125 52.25C14.366 52.25 13.75 51.634 13.75 50.875V34.375C13.75 33.616 14.366 33 15.125 33C15.884 33 16.5 33.616 16.5 34.375V50.875C16.5 51.634 15.884 52.25 15.125 52.25Z" fill="#8187C0"/>
<path d="M15.1255 85.2515C15.0128 85.2515 14.8945 85.2377 14.779 85.2075C14.042 85.015 13.602 84.2642 13.7973 83.53L22.0473 51.905C22.2178 51.2587 22.8283 50.8132 23.491 50.882C24.1565 50.9397 24.6873 51.465 24.745 52.1332L27.495 83.7582C27.561 84.5145 27 85.1827 26.2438 85.2487C25.4793 85.3065 24.8193 84.7537 24.756 83.9975L22.6963 60.3062L16.4538 84.223C16.2943 84.8417 15.7388 85.2515 15.1255 85.2515Z" fill="#040F81" fill-opacity="0.1"/>
<path d="M26.125 19.25C21.5765 19.25 17.875 15.5485 17.875 11C17.875 6.4515 21.5765 2.75 26.125 2.75C30.6735 2.75 34.375 6.4515 34.375 11C34.375 15.5485 30.6735 19.25 26.125 19.25ZM26.125 5.5C23.089 5.5 20.625 7.964 20.625 11C20.625 14.036 23.089 16.5 26.125 16.5C29.161 16.5 31.625 14.036 31.625 11C31.625 7.964 29.161 5.5 26.125 5.5Z" fill="#8187C0"/>
<path d="M63.25 85.25C59.4578 85.25 56.375 82.1645 56.375 78.375C56.375 77.4565 56.5538 76.56 56.9085 75.7158C57.1973 75.0145 58.0002 74.679 58.707 74.9787C59.4082 75.273 59.7382 76.0788 59.444 76.7773C59.2322 77.2833 59.125 77.8195 59.125 78.3723C59.125 80.6465 60.9757 82.4973 63.25 82.4973C65.5243 82.4973 67.375 80.6465 67.375 78.3723C67.375 76.098 65.5243 74.25 63.25 74.25C62.491 74.25 61.875 73.634 61.875 72.875C61.875 72.116 62.491 71.5 63.25 71.5C67.0422 71.5 70.125 74.5855 70.125 78.375C70.125 82.1645 67.0422 85.25 63.25 85.25Z" fill="#040F81" fill-opacity="0.5"/>
<path d="M63.25 68.749C60.2167 68.749 57.75 66.2822 57.75 63.249V61.874C57.75 56.5857 59.2982 52.7467 62.6147 49.785C63.7065 48.8087 64.8862 47.9617 65.9285 47.2164C69.4017 44.7194 71.5 43.2125 71.5 38.499C71.5 32.592 67.0835 31.0079 65.7277 30.6614C62.348 29.8034 57.5905 31.0135 54.329 37.003C53.6277 38.2927 52.4645 39.2332 51.0565 39.6485C49.6485 40.0582 48.1607 39.9069 46.871 39.2057C45.5812 38.5044 44.6407 37.3412 44.2255 35.9305C43.8102 34.5197 43.967 33.0347 44.6682 31.7449C44.9185 31.2857 45.1825 30.8375 45.4465 30.4002C45.8452 29.7485 46.6922 29.5505 47.3385 29.9465C47.9847 30.3425 48.1882 31.1895 47.7922 31.8385C47.5475 32.2345 47.311 32.6415 47.0827 33.0595C46.7307 33.7057 46.651 34.4482 46.86 35.1522C47.0662 35.8562 47.5365 36.4392 48.1827 36.7885C48.8235 37.1377 49.566 37.2202 50.2755 37.0112C50.9795 36.8049 51.5625 36.3347 51.9117 35.6912C55.9322 28.3102 62.04 26.8802 66.407 28.0022C70.1965 28.9647 74.25 32.229 74.25 38.499C74.25 44.6232 71.137 46.8617 67.5345 49.4494C66.5472 50.159 65.428 50.9564 64.4462 51.8364C61.754 54.24 60.5 57.4272 60.5 61.874V63.249C60.5 64.7642 61.732 65.999 63.25 65.999C64.768 65.999 66 64.7642 66 63.249V61.874C66 58.1422 67.0835 56.8579 68.0982 55.9477C68.838 55.2877 69.7592 54.6222 70.741 53.9209C74.756 51.0334 79.75 47.4447 79.75 38.499C79.75 30.854 74.932 24.4932 67.7655 22.6672C61.853 21.1602 55.8057 22.9477 51.161 27.5649C50.622 28.1012 49.7502 28.0957 49.2167 27.5595C48.6832 27.0205 48.6832 26.1514 49.2222 25.6152C54.571 20.2939 61.5752 18.2535 68.4447 20.0025C76.8487 22.142 82.5 29.5752 82.5 38.499C82.5 48.8555 76.3895 53.2444 72.347 56.1484C71.4477 56.7919 70.6035 57.3942 69.9352 57.9909C69.4347 58.4419 68.75 59.0552 68.75 61.874V63.249C68.75 66.2822 66.2832 68.749 63.25 68.749Z" fill="#040F81" fill-opacity="0.5"/>
<path d="M39.875 85.25C40.6344 85.25 41.25 84.6344 41.25 83.875C41.25 83.1156 40.6344 82.5 39.875 82.5C39.1156 82.5 38.5 83.1156 38.5 83.875C38.5 84.6344 39.1156 85.25 39.875 85.25Z" fill="#040F81" fill-opacity="0.5"/>
<path d="M45.375 85.25C46.1344 85.25 46.75 84.6344 46.75 83.875C46.75 83.1156 46.1344 82.5 45.375 82.5C44.6156 82.5 44 83.1156 44 83.875C44 84.6344 44.6156 85.25 45.375 85.25Z" fill="#040F81" fill-opacity="0.5"/>
<path d="M50.875 85.25C51.6344 85.25 52.25 84.6344 52.25 83.875C52.25 83.1156 51.6344 82.5 50.875 82.5C50.1156 82.5 49.5 83.1156 49.5 83.875C49.5 84.6344 50.1156 85.25 50.875 85.25Z" fill="#040F81" fill-opacity="0.5"/>
</svg>
