<svg width="13" height="13" viewBox="0 0 13 13" fill="none" xmlns="http://www.w3.org/2000/svg">
<path d="M12.6863 5.00423L8.41638 0.757093C8.22229 0.564042 7.93117 0.564042 7.73708 0.757093L6.1844 2.30151C5.94179 2.54282 6.03883 2.8324 6.1844 2.97719L6.52405 3.31503L5.06841 4.76291C4.34058 4.61812 2.35121 4.28028 1.28374 5.34207C1.08965 5.53512 1.08965 5.8247 1.28374 6.01775L4.04946 8.76873L0.99261 11.8093C0.798525 12.0023 0.798525 12.2919 0.99261 12.485C1.1867 12.678 1.52635 12.6298 1.67191 12.485L4.72876 9.44441L7.49447 12.1954C7.7856 12.4367 8.07673 12.3402 8.17377 12.1954C9.24124 11.1336 8.90159 9.15483 8.75603 8.43089L10.2117 6.98301L10.5513 7.32085C10.7454 7.5139 11.0365 7.5139 11.2306 7.32085L12.7833 5.77643C12.8803 5.48686 12.8803 5.19728 12.6863 5.00423ZM10.7939 6.2108L10.4543 5.87296C10.2602 5.67991 9.96906 5.67991 9.77498 5.87296L7.7856 7.9C7.64004 8.04479 7.59152 8.18958 7.64004 8.38263C7.7856 8.91352 8.02821 10.2166 7.64004 11.0854L2.30269 5.77643C3.12755 5.39033 4.48615 5.63164 5.01988 5.77643C5.16545 5.8247 5.35953 5.77643 5.5051 5.63164L7.49447 3.65287C7.7856 3.36329 7.64004 3.12197 7.49447 2.97719L7.15482 2.63935L8.07673 1.77061L11.6673 5.34207L10.7939 6.2108Z" fill="#040F81"/>
</svg>
