<svg width="104" height="72" viewBox="0 0 104 72" fill="none" xmlns="http://www.w3.org/2000/svg">
<rect width="104" height="71.04" rx="4" fill="#EDF4FF"/>
<path d="M9.80096 59.28V52.0073H12.3933C12.9567 52.0073 13.4243 52.1044 13.796 52.2985C14.17 52.4926 14.4494 52.7613 14.6341 53.1046C14.8187 53.4455 14.911 53.8397 14.911 54.2871C14.911 54.7322 14.8175 55.124 14.6305 55.4626C14.4458 55.7987 14.1665 56.0603 13.7924 56.2474C13.4208 56.4344 12.9532 56.5279 12.3897 56.5279H10.426V55.5833H12.2903C12.6454 55.5833 12.9342 55.5324 13.1568 55.4306C13.3817 55.3288 13.5462 55.1808 13.6504 54.9867C13.7546 54.7926 13.8066 54.5594 13.8066 54.2871C13.8066 54.0125 13.7534 53.7746 13.6468 53.5734C13.5427 53.3721 13.3781 53.2182 13.1532 53.1117C12.9307 53.0028 12.6383 52.9484 12.2761 52.9484H10.8983V59.28H9.80096ZM13.3912 55.9988L15.188 59.28H13.938L12.1767 55.9988H13.3912ZM18.3435 59.3901C17.8061 59.3901 17.3433 59.2753 16.955 59.0457C16.5692 58.8136 16.2709 58.4881 16.0602 58.0691C15.8518 57.6477 15.7477 57.1541 15.7477 56.5883C15.7477 56.0296 15.8518 55.5371 16.0602 55.111C16.2709 54.6849 16.5644 54.3522 16.9408 54.1131C17.3196 53.874 17.7623 53.7545 18.269 53.7545C18.5767 53.7545 18.875 53.8054 19.1638 53.9072C19.4527 54.009 19.7119 54.1688 19.9415 54.3866C20.1712 54.6044 20.3523 54.8873 20.4849 55.2353C20.6174 55.5809 20.6837 56.0011 20.6837 56.4959V56.8724H16.3478V56.0769H19.6433C19.6433 55.7975 19.5864 55.5502 19.4728 55.3347C19.3592 55.1169 19.1994 54.9453 18.9934 54.8198C18.7898 54.6943 18.5507 54.6316 18.2761 54.6316C17.9778 54.6316 17.7174 54.705 17.4948 54.8518C17.2746 54.9962 17.1042 55.1856 16.9835 55.4199C16.8651 55.652 16.8059 55.9041 16.8059 56.1763V56.7978C16.8059 57.1624 16.8698 57.4725 16.9977 57.7282C17.1279 57.9839 17.309 58.1792 17.541 58.3141C17.773 58.4467 18.0441 58.513 18.3542 58.513C18.5554 58.513 18.7389 58.4846 18.9046 58.4278C19.0703 58.3686 19.2136 58.281 19.3343 58.165C19.455 58.049 19.5474 57.9057 19.6113 57.7353L20.6163 57.9164C20.5358 58.2123 20.3914 58.4716 20.183 58.6941C19.9771 58.9143 19.7178 59.0859 19.4053 59.209C19.0952 59.3297 18.7413 59.3901 18.3435 59.3901ZM25.8492 55.1572L24.8868 55.3276C24.8466 55.2045 24.7827 55.0873 24.6951 54.9761C24.6098 54.8648 24.4938 54.7736 24.3471 54.7026C24.2003 54.6316 24.0168 54.5961 23.7966 54.5961C23.496 54.5961 23.245 54.6636 23.0438 54.7985C22.8426 54.9311 22.7419 55.1027 22.7419 55.3134C22.7419 55.4957 22.8094 55.6425 22.9444 55.7538C23.0793 55.865 23.2971 55.9562 23.5978 56.0272L24.4642 56.2261C24.9661 56.3421 25.3402 56.5208 25.5864 56.7623C25.8326 57.0038 25.9557 57.3174 25.9557 57.7033C25.9557 58.03 25.861 58.3212 25.6716 58.5769C25.4846 58.8302 25.223 59.0291 24.8868 59.1735C24.553 59.3179 24.1659 59.3901 23.7256 59.3901C23.1148 59.3901 22.6165 59.2599 22.2306 58.9995C21.8447 58.7367 21.6079 58.3638 21.5203 57.8809L22.5466 57.7246C22.6105 57.9922 22.7419 58.1946 22.9408 58.3319C23.1397 58.4668 23.3989 58.5343 23.7185 58.5343C24.0665 58.5343 24.3447 58.4621 24.553 58.3177C24.7614 58.1709 24.8655 57.9922 24.8655 57.7814C24.8655 57.611 24.8016 57.4678 24.6738 57.3518C24.5483 57.2358 24.3553 57.1482 24.0949 57.089L23.1716 56.8866C22.6626 56.7706 22.2862 56.5859 22.0424 56.3326C21.8009 56.0793 21.6801 55.7585 21.6801 55.3702C21.6801 55.0483 21.7701 54.7665 21.95 54.5251C22.13 54.2836 22.3785 54.0954 22.6958 53.9604C23.013 53.8231 23.3764 53.7545 23.786 53.7545C24.3755 53.7545 24.8395 53.8823 25.178 54.138C25.5166 54.3913 25.7403 54.731 25.8492 55.1572ZM29.3207 59.3901C28.8094 59.3901 28.3631 59.2729 27.982 59.0386C27.6008 58.8042 27.3049 58.4763 27.0942 58.0549C26.8835 57.6335 26.7781 57.1411 26.7781 56.5776C26.7781 56.0118 26.8835 55.517 27.0942 55.0932C27.3049 54.6695 27.6008 54.3404 27.982 54.106C28.3631 53.8716 28.8094 53.7545 29.3207 53.7545C29.8321 53.7545 30.2784 53.8716 30.6595 54.106C31.0407 54.3404 31.3366 54.6695 31.5473 55.0932C31.758 55.517 31.8634 56.0118 31.8634 56.5776C31.8634 57.1411 31.758 57.6335 31.5473 58.0549C31.3366 58.4763 31.0407 58.8042 30.6595 59.0386C30.2784 59.2729 29.8321 59.3901 29.3207 59.3901ZM29.3243 58.4988C29.6557 58.4988 29.9304 58.4112 30.1482 58.236C30.366 58.0608 30.5269 57.8276 30.6311 57.5364C30.7376 57.2452 30.7909 56.9244 30.7909 56.5741C30.7909 56.2261 30.7376 55.9064 30.6311 55.6153C30.5269 55.3217 30.366 55.0861 30.1482 54.9086C29.9304 54.731 29.6557 54.6422 29.3243 54.6422C28.9905 54.6422 28.7135 54.731 28.4933 54.9086C28.2755 55.0861 28.1134 55.3217 28.0068 55.6153C27.9027 55.9064 27.8506 56.2261 27.8506 56.5741C27.8506 56.9244 27.9027 57.2452 28.0068 57.5364C28.1134 57.8276 28.2755 58.0608 28.4933 58.236C28.7135 58.4112 28.9905 58.4988 29.3243 58.4988ZM36.4038 57.018V53.8255H37.4691V59.28H36.4251V58.3354H36.3683C36.2428 58.6266 36.0416 58.8693 35.7646 59.0634C35.49 59.2552 35.1479 59.3511 34.7383 59.3511C34.3879 59.3511 34.0778 59.2741 33.8079 59.1202C33.5404 58.964 33.3297 58.7332 33.1758 58.4278C33.0243 58.1224 32.9485 57.7448 32.9485 57.2949V53.8255H34.0103V57.1671C34.0103 57.5388 34.1133 57.8347 34.3193 58.0549C34.5252 58.2751 34.7928 58.3851 35.1218 58.3851C35.3207 58.3851 35.5184 58.3354 35.7149 58.236C35.9137 58.1366 36.0783 57.9862 36.2085 57.785C36.3411 57.5838 36.4062 57.3281 36.4038 57.018ZM38.7958 59.28V53.8255H39.8221V54.692H39.8789C39.9783 54.3984 40.1535 54.1676 40.4045 53.9995C40.6578 53.829 40.9442 53.7438 41.2638 53.7438C41.3301 53.7438 41.4083 53.7462 41.4982 53.7509C41.5906 53.7556 41.6628 53.7616 41.7148 53.7687V54.7843C41.6722 54.7725 41.5965 54.7594 41.4876 54.7452C41.3787 54.7287 41.2698 54.7204 41.1609 54.7204C40.9099 54.7204 40.6862 54.7736 40.4897 54.8802C40.2956 54.9843 40.1417 55.1299 40.0281 55.317C39.9144 55.5016 39.8576 55.7123 39.8576 55.9491V59.28H38.7958ZM44.636 59.3901C44.108 59.3901 43.6535 59.2706 43.2723 59.0314C42.8936 58.79 42.6024 58.4573 42.3988 58.0336C42.1952 57.6098 42.0934 57.1245 42.0934 56.5776C42.0934 56.0236 42.1975 55.5348 42.4059 55.111C42.6142 54.6849 42.9078 54.3522 43.2865 54.1131C43.6653 53.874 44.1116 53.7545 44.6253 53.7545C45.0396 53.7545 45.4089 53.8314 45.7333 53.9853C46.0576 54.1368 46.3192 54.3499 46.5181 54.6245C46.7193 54.8991 46.8389 55.2199 46.8767 55.5868H45.8434C45.7865 55.3312 45.6563 55.111 45.4527 54.9263C45.2515 54.7417 44.9816 54.6493 44.6431 54.6493C44.3471 54.6493 44.0879 54.7275 43.8654 54.8837C43.6452 55.0376 43.4736 55.2578 43.3505 55.5442C43.2274 55.8283 43.1658 56.1645 43.1658 56.5528C43.1658 56.9505 43.2262 57.2938 43.3469 57.5826C43.4677 57.8714 43.6381 58.0951 43.8583 58.2538C44.0808 58.4124 44.3424 58.4917 44.6431 58.4917C44.8443 58.4917 45.0266 58.455 45.19 58.3816C45.3557 58.3058 45.4942 58.1981 45.6054 58.0584C45.7191 57.9188 45.7984 57.7507 45.8434 57.5542H46.8767C46.8389 57.9069 46.724 58.2218 46.5323 58.4988C46.3405 58.7758 46.0837 58.9936 45.7617 59.1522C45.4421 59.3108 45.0668 59.3901 44.636 59.3901ZM50.2631 59.3901C49.7257 59.3901 49.2628 59.2753 48.8746 59.0457C48.4887 58.8136 48.1904 58.4881 47.9797 58.0691C47.7714 57.6477 47.6672 57.1541 47.6672 56.5883C47.6672 56.0296 47.7714 55.5371 47.9797 55.111C48.1904 54.6849 48.4839 54.3522 48.8604 54.1131C49.2392 53.874 49.6819 53.7545 50.1885 53.7545C50.4963 53.7545 50.7946 53.8054 51.0834 53.9072C51.3722 54.009 51.6314 54.1688 51.8611 54.3866C52.0907 54.6044 52.2718 54.8873 52.4044 55.2353C52.537 55.5809 52.6033 56.0011 52.6033 56.4959V56.8724H48.2673V56.0769H51.5628C51.5628 55.7975 51.506 55.5502 51.3923 55.3347C51.2787 55.1169 51.1189 54.9453 50.9129 54.8198C50.7093 54.6943 50.4702 54.6316 50.1956 54.6316C49.8973 54.6316 49.6369 54.705 49.4143 54.8518C49.1942 54.9962 49.0237 55.1856 48.903 55.4199C48.7846 55.652 48.7254 55.9041 48.7254 56.1763V56.7978C48.7254 57.1624 48.7893 57.4725 48.9172 57.7282C49.0474 57.9839 49.2285 58.1792 49.4605 58.3141C49.6925 58.4467 49.9636 58.513 50.2737 58.513C50.475 58.513 50.6584 58.4846 50.8241 58.4278C50.9899 58.3686 51.1331 58.281 51.2538 58.165C51.3746 58.049 51.4669 57.9057 51.5308 57.7353L52.5358 57.9164C52.4553 58.2123 52.3109 58.4716 52.1026 58.6941C51.8966 58.9143 51.6374 59.0859 51.3249 59.209C51.0147 59.3297 50.6608 59.3901 50.2631 59.3901ZM56.3131 59.28V52.0073H58.9054C59.4712 52.0073 59.94 52.1103 60.3116 52.3163C60.6833 52.5222 60.9615 52.8039 61.1462 53.1614C61.3308 53.5165 61.4232 53.9166 61.4232 54.3617C61.4232 54.8091 61.3296 55.2116 61.1426 55.5691C60.958 55.9242 60.6786 56.2059 60.3045 56.4143C59.9329 56.6202 59.4653 56.7232 58.9018 56.7232H57.1192V55.7928H58.8024C59.1599 55.7928 59.4499 55.7313 59.6724 55.6082C59.895 55.4827 60.0583 55.3122 60.1625 55.0968C60.2667 54.8814 60.3187 54.6363 60.3187 54.3617C60.3187 54.0871 60.2667 53.8432 60.1625 53.6302C60.0583 53.4171 59.8938 53.2502 59.6689 53.1295C59.4464 53.0087 59.1528 52.9484 58.7882 52.9484H57.4104V59.28H56.3131ZM62.5243 59.28V53.8255H63.5506V54.692H63.6074C63.7069 54.3984 63.882 54.1676 64.133 53.9995C64.3863 53.829 64.6728 53.7438 64.9924 53.7438C65.0587 53.7438 65.1368 53.7462 65.2267 53.7509C65.3191 53.7556 65.3913 53.7616 65.4434 53.7687V54.7843C65.4007 54.7725 65.325 54.7594 65.2161 54.7452C65.1072 54.7287 64.9983 54.7204 64.8894 54.7204C64.6384 54.7204 64.4147 54.7736 64.2182 54.8802C64.0241 54.9843 63.8702 55.1299 63.7566 55.317C63.6429 55.5016 63.5861 55.7123 63.5861 55.9491V59.28H62.5243ZM68.3645 59.3901C67.8531 59.3901 67.4069 59.2729 67.0257 59.0386C66.6446 58.8042 66.3486 58.4763 66.1379 58.0549C65.9272 57.6335 65.8219 57.1411 65.8219 56.5776C65.8219 56.0118 65.9272 55.517 66.1379 55.0932C66.3486 54.6695 66.6446 54.3404 67.0257 54.106C67.4069 53.8716 67.8531 53.7545 68.3645 53.7545C68.8759 53.7545 69.3221 53.8716 69.7033 54.106C70.0844 54.3404 70.3804 54.6695 70.5911 55.0932C70.8018 55.517 70.9071 56.0118 70.9071 56.5776C70.9071 57.1411 70.8018 57.6335 70.5911 58.0549C70.3804 58.4763 70.0844 58.8042 69.7033 59.0386C69.3221 59.2729 68.8759 59.3901 68.3645 59.3901ZM68.368 58.4988C68.6995 58.4988 68.9741 58.4112 69.1919 58.236C69.4097 58.0608 69.5707 57.8276 69.6749 57.5364C69.7814 57.2452 69.8347 56.9244 69.8347 56.5741C69.8347 56.2261 69.7814 55.9064 69.6749 55.6153C69.5707 55.3217 69.4097 55.0861 69.1919 54.9086C68.9741 54.731 68.6995 54.6422 68.368 54.6422C68.0342 54.6422 67.7572 54.731 67.5371 54.9086C67.3193 55.0861 67.1571 55.3217 67.0506 55.6153C66.9464 55.9064 66.8943 56.2261 66.8943 56.5741C66.8943 56.9244 66.9464 57.2452 67.0506 57.5364C67.1571 57.8276 67.3193 58.0608 67.5371 58.236C67.7572 58.4112 68.0342 58.4988 68.368 58.4988ZM76.4729 53.8255L74.495 59.28H73.3586L71.3771 53.8255H72.517L73.8984 58.0229H73.9552L75.333 53.8255H76.4729ZM77.3708 59.28V53.8255H78.4326V59.28H77.3708ZM77.907 52.9839C77.7224 52.9839 77.5638 52.9223 77.4312 52.7992C77.301 52.6737 77.2359 52.5246 77.2359 52.3518C77.2359 52.1766 77.301 52.0274 77.4312 51.9043C77.5638 51.7788 77.7224 51.7161 77.907 51.7161C78.0917 51.7161 78.2491 51.7788 78.3793 51.9043C78.5119 52.0274 78.5782 52.1766 78.5782 52.3518C78.5782 52.5246 78.5119 52.6737 78.3793 52.7992C78.2491 52.9223 78.0917 52.9839 77.907 52.9839ZM81.8029 59.3866C81.3626 59.3866 80.9696 59.2741 80.624 59.0492C80.2807 58.8219 80.0108 58.4988 79.8143 58.0797C79.6202 57.6583 79.5231 57.1529 79.5231 56.5634C79.5231 55.9739 79.6214 55.4697 79.8179 55.0506C80.0167 54.6316 80.289 54.3108 80.6346 54.0883C80.9803 53.8657 81.3721 53.7545 81.81 53.7545C82.1486 53.7545 82.4208 53.8113 82.6268 53.9249C82.8351 54.0362 82.9961 54.1664 83.1098 54.3155C83.2258 54.4647 83.3157 54.5961 83.3797 54.7097H83.4436V52.0073H84.5054V59.28H83.4684V58.4313H83.3797C83.3157 58.5473 83.2234 58.6799 83.1027 58.829C82.9843 58.9782 82.8209 59.1084 82.6126 59.2197C82.4043 59.3309 82.1344 59.3866 81.8029 59.3866ZM82.0373 58.481C82.3427 58.481 82.6008 58.4005 82.8115 58.2395C83.0245 58.0762 83.1855 57.8501 83.2944 57.5613C83.4057 57.2725 83.4613 56.9363 83.4613 56.5528C83.4613 56.174 83.4069 55.8425 83.298 55.5584C83.1891 55.2743 83.0293 55.053 82.8186 54.8944C82.6079 54.7358 82.3475 54.6564 82.0373 54.6564C81.7177 54.6564 81.4514 54.7393 81.2383 54.905C81.0252 55.0707 80.8643 55.2968 80.7554 55.5833C80.6488 55.8698 80.5956 56.1929 80.5956 56.5528C80.5956 56.9173 80.65 57.2452 80.7589 57.5364C80.8678 57.8276 81.0288 58.0584 81.2419 58.2289C81.4573 58.397 81.7225 58.481 82.0373 58.481ZM88.2717 59.3901C87.7343 59.3901 87.2714 59.2753 86.8832 59.0457C86.4973 58.8136 86.199 58.4881 85.9883 58.0691C85.7799 57.6477 85.6758 57.1541 85.6758 56.5883C85.6758 56.0296 85.7799 55.5371 85.9883 55.111C86.199 54.6849 86.4925 54.3522 86.869 54.1131C87.2478 53.874 87.6905 53.7545 88.1971 53.7545C88.5049 53.7545 88.8031 53.8054 89.092 53.9072C89.3808 54.009 89.64 54.1688 89.8697 54.3866C90.0993 54.6044 90.2804 54.8873 90.413 55.2353C90.5456 55.5809 90.6119 56.0011 90.6119 56.4959V56.8724H86.2759V56.0769H89.5714C89.5714 55.7975 89.5146 55.5502 89.4009 55.3347C89.2873 55.1169 89.1275 54.9453 88.9215 54.8198C88.7179 54.6943 88.4788 54.6316 88.2042 54.6316C87.9059 54.6316 87.6455 54.705 87.4229 54.8518C87.2028 54.9962 87.0323 55.1856 86.9116 55.4199C86.7932 55.652 86.734 55.9041 86.734 56.1763V56.7978C86.734 57.1624 86.7979 57.4725 86.9258 57.7282C87.056 57.9839 87.2371 58.1792 87.4691 58.3141C87.7011 58.4467 87.9722 58.513 88.2823 58.513C88.4835 58.513 88.667 58.4846 88.8327 58.4278C88.9985 58.3686 89.1417 58.281 89.2624 58.165C89.3832 58.049 89.4755 57.9057 89.5394 57.7353L90.5444 57.9164C90.4639 58.2123 90.3195 58.4716 90.1112 58.6941C89.9052 58.9143 89.646 59.0859 89.3335 59.209C89.0233 59.3297 88.6694 59.3901 88.2717 59.3901ZM91.69 59.28V53.8255H92.7162V54.692H92.773C92.8725 54.3984 93.0477 54.1676 93.2986 53.9995C93.5519 53.829 93.8384 53.7438 94.158 53.7438C94.2243 53.7438 94.3024 53.7462 94.3924 53.7509C94.4847 53.7556 94.5569 53.7616 94.609 53.7687V54.7843C94.5664 54.7725 94.4906 54.7594 94.3817 54.7452C94.2728 54.7287 94.1639 54.7204 94.055 54.7204C93.8041 54.7204 93.5803 54.7736 93.3838 54.8802C93.1897 54.9843 93.0358 55.1299 92.9222 55.317C92.8086 55.5016 92.7517 55.7123 92.7517 55.9491V59.28H91.69Z" fill="#3D4DB6"/>
<g clip-path="url(#clip0_3430_25175)">
<path d="M56.0155 13.0899C56.6788 13.0899 57.2166 12.5773 57.2166 11.945C57.2166 11.3126 56.6788 10.8 56.0155 10.8C55.3522 10.8 54.8145 11.3126 54.8145 11.945C54.8145 12.5773 55.3522 13.0899 56.0155 13.0899Z" fill="#3D4DB6"/>
<path d="M49.4099 11.3724H37.3994C37.0677 11.3724 36.7988 11.6288 36.7988 11.9449C36.7988 12.2611 37.0677 12.5174 37.3994 12.5174H49.4099C49.7415 12.5174 50.0104 12.2611 50.0104 11.9449C50.0104 11.6288 49.7415 11.3724 49.4099 11.3724Z" fill="#3D4DB6"/>
<path d="M53.613 11.3724H51.8115C51.4798 11.3724 51.2109 11.6288 51.2109 11.9449C51.2109 12.2611 51.4798 12.5174 51.8115 12.5174H53.613C53.9447 12.5174 54.2136 12.2611 54.2136 11.9449C54.2136 11.6288 53.9447 11.3724 53.613 11.3724Z" fill="#3D4DB6"/>
<path d="M56.0155 19.9597C56.6788 19.9597 57.2166 19.4471 57.2166 18.8147C57.2166 18.1824 56.6788 17.6697 56.0155 17.6697C55.3522 17.6697 54.8145 18.1824 54.8145 18.8147C54.8145 19.4471 55.3522 19.9597 56.0155 19.9597Z" fill="#3D4DB6"/>
<path d="M49.4099 18.2422H37.3994C37.0677 18.2422 36.7988 18.4986 36.7988 18.8147C36.7988 19.1309 37.0677 19.3872 37.3994 19.3872H49.4099C49.7415 19.3872 50.0104 19.1309 50.0104 18.8147C50.0104 18.4986 49.7415 18.2422 49.4099 18.2422Z" fill="#3D4DB6"/>
<path d="M53.613 18.2422H51.8115C51.4798 18.2422 51.2109 18.4986 51.2109 18.8147C51.2109 19.1309 51.4798 19.3872 51.8115 19.3872H53.613C53.9447 19.3872 54.2136 19.1309 54.2136 18.8147C54.2136 18.4986 53.9447 18.2422 53.613 18.2422Z" fill="#3D4DB6"/>
<path d="M49.4099 25.1121H37.3994C37.0677 25.1121 36.7988 25.3684 36.7988 25.6845C36.7988 26.0007 37.0677 26.257 37.3994 26.257H49.4099C49.7415 26.257 50.0104 26.0007 50.0104 25.6845C50.0104 25.3684 49.7415 25.1121 49.4099 25.1121Z" fill="#3D4DB6"/>
<path d="M49.4099 31.9819H37.3994C37.0677 31.9819 36.7988 32.2382 36.7988 32.5544C36.7988 32.8705 37.0677 33.1268 37.3994 33.1268H49.4099C49.7415 33.1268 50.0104 32.8705 50.0104 32.5544C50.0104 32.2382 49.7415 31.9819 49.4099 31.9819Z" fill="#3D4DB6"/>
<path d="M70.428 24.8258C70.428 23.7765 69.2185 22.9824 67.4254 22.4534V11.9449C67.4254 11.6288 67.1565 11.3725 66.8248 11.3725H59.6185V10.8C59.6185 9.85144 58.812 9.08252 57.817 9.08252H36.1981C35.2031 9.08252 34.3965 9.85144 34.3965 10.8V13.0899C34.3965 14.0384 35.2031 14.8074 36.1981 14.8074H37.3991V15.9523H36.1981C35.2031 15.9523 34.3965 16.7212 34.3965 17.6698V19.9597C34.3965 20.9082 35.2031 21.6772 36.1981 21.6772H37.3991V22.8221H36.1981C35.2031 22.8221 34.3965 23.591 34.3965 24.5396V26.8295C34.3965 27.778 35.2031 28.547 36.1981 28.547H37.3991V29.6919H36.1981C35.2031 29.6919 34.3965 30.4608 34.3965 31.4094V33.6993C34.3965 34.6478 35.2031 35.4168 36.1981 35.4168H37.3991V38.8517C37.3991 39.1678 37.668 39.4242 37.9996 39.4242H51.8117V40.2623C51.8117 42.3026 56.4958 43.3703 61.1198 43.3703C65.7439 43.3703 70.428 42.3026 70.428 40.2623V35.4168H70.3835C70.4107 35.3164 70.4257 35.2135 70.428 35.1099V30.2644H70.3835C70.4107 30.1641 70.4257 30.0611 70.428 29.9576V25.1121H70.3871C70.4111 25.0182 70.4248 24.9224 70.428 24.8258ZM36.1981 13.6624C35.8664 13.6624 35.5975 13.4061 35.5975 13.0899V10.8C35.5975 10.4838 35.8664 10.2275 36.1981 10.2275H57.817C58.1486 10.2275 58.4175 10.4838 58.4175 10.8V13.0899C58.4175 13.4061 58.1486 13.6624 57.817 13.6624H36.1981ZM55.4149 14.8074V15.9523H38.6002V14.8074H55.4149ZM36.1981 20.5322C35.8664 20.5322 35.5975 20.2759 35.5975 19.9597V17.6698C35.5975 17.3536 35.8664 17.0973 36.1981 17.0973H57.817C58.1486 17.0973 58.4175 17.3536 58.4175 17.6698V19.9597C58.4175 20.2759 58.1486 20.5322 57.817 20.5322H36.1981ZM51.8117 24.8258C51.8149 24.9224 51.8286 25.0182 51.8525 25.1121H51.8117V29.9576C51.814 30.0611 51.829 30.1641 51.8561 30.2644H51.8117V35.1099C51.814 35.2135 51.829 35.3164 51.8561 35.4168H51.8117V38.2792H38.6002V35.4168H50.0101C50.3418 35.4168 50.6107 35.1604 50.6107 34.8443C50.6107 34.5281 50.3418 34.2718 50.0101 34.2718H36.1981C35.8664 34.2718 35.5975 34.0155 35.5975 33.6993V31.4094C35.5975 31.0932 35.8664 30.8369 36.1981 30.8369H50.0101C50.3418 30.8369 50.6107 30.5806 50.6107 30.2644C50.6107 29.9483 50.3418 29.6919 50.0101 29.6919H38.6002V28.547H50.0101C50.3418 28.547 50.6107 28.2906 50.6107 27.9745C50.6107 27.6583 50.3418 27.402 50.0101 27.402H36.1981C35.8664 27.402 35.5975 27.1457 35.5975 26.8295V24.5396C35.5975 24.2234 35.8664 23.9671 36.1981 23.9671H50.0101C50.3418 23.9671 50.6107 23.7108 50.6107 23.3946C50.6107 23.0785 50.3418 22.8221 50.0101 22.8221H38.6002V21.6772H57.817C58.812 21.6772 59.6185 20.9082 59.6185 19.9597V17.6698C59.6185 16.7212 58.812 15.9523 57.817 15.9523H56.6159V14.8074H57.817C58.812 14.8074 59.6185 14.0384 59.6185 13.0899V12.5174H66.2243V22.1563C64.5449 21.8282 62.8342 21.6676 61.1198 21.6772C56.4958 21.6772 51.8117 22.7592 51.8117 24.8258ZM69.2269 40.2623C69.2269 40.9286 66.3654 42.2253 61.1198 42.2253C55.8743 42.2253 53.0128 40.9286 53.0128 40.2623V36.7174C54.699 37.7067 57.922 38.2179 61.1198 38.2179C64.3176 38.2179 67.5407 37.7067 69.2269 36.7174V40.2623ZM69.2269 35.1099C69.2269 35.7763 66.3654 37.073 61.1198 37.073C55.8743 37.073 53.0128 35.7763 53.0128 35.1099V31.5651C54.699 32.5543 57.922 33.0656 61.1198 33.0656C64.3176 33.0656 67.5407 32.5543 69.2269 31.5651V35.1099ZM69.2269 29.9576C69.2269 30.6239 66.3654 31.9206 61.1198 31.9206C55.8743 31.9206 53.0128 30.6239 53.0128 29.9576V26.4545C54.699 27.4592 57.922 27.9745 61.1198 27.9745C64.3176 27.9745 67.5407 27.4592 69.2269 26.4545V29.9576ZM61.1198 26.8295C55.8743 26.8295 53.0128 25.5059 53.0128 24.8258C53.0128 24.1457 55.8743 22.8221 61.1198 22.8221C66.3654 22.8221 69.2269 24.1463 69.2269 24.8258C69.2269 25.5059 66.3654 26.8295 61.1198 26.8295Z" fill="#3D4DB6"/>
</g>
<defs>
<clipPath id="clip0_3430_25175">
<rect width="36.0315" height="34.349" fill="white" transform="translate(34.3965 9.05188)"/>
</clipPath>
</defs>
</svg>
