<svg width="16" height="16" viewBox="0 0 16 16" fill="none" xmlns="http://www.w3.org/2000/svg">
<rect width="16" height="16" fill="white"/>
<g clip-path="url(#clip0_776_7920)">
<path d="M12.2512 6.48174H11.8374V4.0101C11.8663 3.5051 11.8263 2.99848 11.7187 2.50452C11.5676 1.93834 11.2728 1.42207 10.8638 1.00701C10.4547 0.591961 9.94561 0.292577 9.38698 0.138608V0.138608C9.28391 0.109935 9.17941 0.0868145 9.07393 0.0693437H9.04874C8.95878 0.0693437 8.86523 0.0474708 8.77527 0.0401799H8.7069H8.34707C8.29435 0.0367369 8.24147 0.0367369 8.18875 0.0401799L8.00523 0.0584073L7.89369 0.0802801C7.82093 0.0936628 7.74888 0.110696 7.67779 0.131317H7.6454H7.59863C7.04764 0.291231 6.54708 0.593331 6.14593 1.00805C5.74478 1.42277 5.45677 1.93591 5.31011 2.49723C5.20261 2.99369 5.16146 3.50254 5.18777 4.0101V6.50361H5.15898H4.73438C4.32414 6.46075 3.91387 6.58441 3.59348 6.8475C3.27309 7.11059 3.06873 7.49164 3.02519 7.90712C3.01439 8.01621 3.01439 8.12612 3.02519 8.23521V14.2831C3.01439 14.3751 3.01439 14.4681 3.02519 14.5601C3.04193 14.7699 3.09956 14.9743 3.19473 15.1614C3.28989 15.3485 3.42072 15.5147 3.57965 15.6503C3.73858 15.7859 3.92246 15.8882 4.12066 15.9514C4.31886 16.0145 4.52745 16.0373 4.73438 16.0183H12.2512C12.347 16.0256 12.4433 16.0256 12.5391 16.0183C12.7462 16.0013 12.9479 15.943 13.1326 15.8465C13.3173 15.7501 13.4813 15.6176 13.6152 15.4566C13.749 15.2956 13.85 15.1093 13.9124 14.9085C13.9747 14.7077 13.9972 14.4963 13.9784 14.2867V8.21699C13.9892 8.10668 13.9892 7.99556 13.9784 7.88525C13.9565 7.67799 13.8943 7.47717 13.7955 7.29432C13.6967 7.11148 13.5633 6.95021 13.4028 6.81979C13.2423 6.68937 13.0579 6.59236 12.8603 6.53435C12.6627 6.47634 12.4557 6.45846 12.2512 6.48174V6.48174ZM5.9578 6.44164V3.34663C5.95778 2.67361 6.22019 2.02784 6.68789 1.5499C7.1556 1.07196 7.79074 0.800562 8.45502 0.794794H8.48021C8.76641 0.792082 9.05141 0.832628 9.32581 0.915094L9.39418 0.940613C9.45535 0.962486 9.51292 0.984358 9.5669 1.00988C10.0126 1.20948 10.3916 1.5358 10.658 1.94927C10.9243 2.36274 11.0665 2.84561 11.0674 3.33934V6.47445H5.9578V6.44164ZM12.4635 15.096C12.4038 15.1033 12.3434 15.1033 12.2836 15.096H4.70559C4.50282 15.1196 4.29909 15.0607 4.13918 14.9322C3.97927 14.8036 3.87626 14.6161 3.8528 14.4107C3.84741 14.3561 3.84741 14.3012 3.8528 14.2466V8.16595C3.84021 8.06373 3.84763 7.96 3.87464 7.86069C3.90165 7.76138 3.94773 7.66844 4.01022 7.58718C4.07271 7.50592 4.15041 7.43794 4.23885 7.38712C4.3273 7.33631 4.42477 7.30366 4.52568 7.29103C4.58543 7.28374 4.64584 7.28374 4.70559 7.29103H12.2836C12.4858 7.26739 12.6891 7.32583 12.8489 7.45358C13.0087 7.58133 13.1121 7.76798 13.1364 7.97274C13.1436 8.0345 13.1436 8.0969 13.1364 8.15866V14.2174C13.1505 14.3201 13.1442 14.4246 13.1178 14.5247C13.0914 14.6248 13.0455 14.7186 12.9828 14.8005C12.9201 14.8823 12.8419 14.9507 12.7527 15.0014C12.6635 15.0522 12.5652 15.0843 12.4635 15.096V15.096Z" fill="#F2994A"/>
<path d="M8.49818 9.47833C8.15882 9.47544 7.82627 9.57475 7.54272 9.76366C7.25916 9.95257 7.03739 10.2226 6.90554 10.5394C6.7737 10.8562 6.73772 11.2055 6.80217 11.5431C6.86663 11.8806 7.02861 12.1912 7.26756 12.4353C7.50652 12.6795 7.81167 12.8462 8.14431 12.9143C8.47694 12.9825 8.82206 12.949 9.13588 12.8181C9.44969 12.6872 9.71804 12.4648 9.90689 12.1791C10.0957 11.8935 10.1966 11.5574 10.1966 11.2136C10.1966 10.7559 10.0181 10.3167 9.70001 9.9917C9.38191 9.6667 8.94994 9.48218 8.49818 9.47833ZM8.49818 12.1468C8.25354 12.1468 8.01887 12.0486 7.84554 11.8737C7.67222 11.6988 7.57437 11.4614 7.57342 11.2136V11.2136C7.57342 11.0283 7.62765 10.8471 7.72927 10.6931C7.83088 10.539 7.97531 10.4189 8.14429 10.348C8.31327 10.2771 8.49921 10.2585 8.67859 10.2947C8.85798 10.3308 9.02276 10.4201 9.15209 10.5511C9.28142 10.6821 9.36949 10.8491 9.40517 11.0308C9.44086 11.2125 9.42254 11.4009 9.35255 11.5721C9.28256 11.7433 9.16403 11.8896 9.01195 11.9926C8.85987 12.0955 8.68108 12.1505 8.49818 12.1505V12.1468Z" fill="#F2994A"/>
</g>
<defs>
<clipPath id="clip0_776_7920">
<rect width="11" height="16" fill="white" transform="translate(3)"/>
</clipPath>
</defs>
</svg>
