<svg width="8" height="8" viewBox="0 0 8 8" fill="none" xmlns="http://www.w3.org/2000/svg">
<path d="M0.00231348 1.92944C0.00231348 1.40428 0.00231348 0.876807 0.00231348 0.351648C0.00231348 0.11336 0.115674 0.00231348 0.353962 0.00231348C1.41122 0 2.47079 0.00231348 3.52805 0C3.64835 0 3.7432 0.0393291 3.8288 0.124928C5.16831 1.46674 6.51012 2.80856 7.85194 4.15038C8.04858 4.34702 8.04627 4.54135 7.85194 4.738C6.81319 5.77675 5.77444 6.8155 4.73569 7.85425C4.54367 8.04627 4.34471 8.04858 4.155 7.85656C2.8155 6.51706 1.47831 5.17756 0.136495 3.84037C0.0416426 3.74552 0 3.64372 0 3.50954C0.00462695 2.98207 0.00231348 2.45691 0.00231348 1.92944ZM1.04106 1.631C1.04106 1.9572 1.30249 2.22094 1.62869 2.22094C1.9572 2.22094 2.22094 1.95951 2.22094 1.63331C2.22325 1.30249 1.95951 1.03875 1.62869 1.04106C1.30249 1.04106 1.04106 1.3048 1.04106 1.631Z" fill="#666666"/>
</svg>
