<svg width="40" height="40" viewBox="0 0 40 40" fill="none" xmlns="http://www.w3.org/2000/svg">
<g clip-path="url(#clip0_2675_15592)">
<path d="M19.8167 37.736C10.1348 37.736 2.26416 29.8654 2.26416 20.1834C2.26416 10.5015 10.1348 2.63086 19.8167 2.63086C29.4987 2.63086 37.3693 10.5015 37.3693 20.1834C37.3693 29.8654 29.4987 37.736 19.8167 37.736ZM19.8167 3.6659C10.717 3.6659 3.2992 11.0837 3.2992 20.1834C3.2992 29.2832 10.717 36.7009 19.8167 36.7009C28.9165 36.7009 36.3342 29.2832 36.3342 20.1834C36.3342 11.0837 28.9165 3.6659 19.8167 3.6659Z" fill="#3D4DB6"/>
<path d="M19.8168 32.7552C12.895 32.7552 7.24536 27.1271 7.24536 20.1837C7.24536 13.2619 12.8734 7.6123 19.8168 7.6123C26.7386 7.6123 32.3882 13.2403 32.3882 20.1837C32.3882 27.1271 26.7386 32.7552 19.8168 32.7552ZM19.8168 8.66891C13.4556 8.66891 8.30197 13.8441 8.30197 20.1837C8.30197 26.5449 13.4772 31.6986 19.8168 31.6986C26.178 31.6986 31.3316 26.5234 31.3316 20.1837C31.3316 13.8441 26.1564 8.66891 19.8168 8.66891Z" fill="#3D4DB6"/>
<path d="M19.8166 26.9106C16.1077 26.9106 13.0889 23.8917 13.0889 20.1828C13.0889 16.4739 16.1077 13.4551 19.8166 13.4551C23.5255 13.4551 26.5444 16.4739 26.5444 20.1828C26.5444 23.8917 23.5255 26.9106 19.8166 26.9106ZM19.8166 14.5117C16.6899 14.5117 14.1239 17.0562 14.1239 20.2044C14.1239 23.3311 16.6684 25.8971 19.8166 25.8971C22.9433 25.8971 25.5094 23.3527 25.5094 20.2044C25.4878 17.0562 22.9433 14.5117 19.8166 14.5117Z" fill="#3D4DB6"/>
<path d="M19.8166 14.5117C19.5363 14.5117 19.2991 14.2745 19.2991 13.9942V0.905216C19.2991 0.624892 19.5363 0.387695 19.8166 0.387695C20.0969 0.387695 20.3341 0.624892 20.3341 0.905216V13.9942C20.3341 14.2745 20.0969 14.5117 19.8166 14.5117Z" fill="#3D4DB6"/>
<path d="M39.0943 20.7011H26.0053C25.725 20.7011 25.4878 20.4639 25.4878 20.1835C25.4878 19.9032 25.725 19.666 26.0053 19.666H39.0943C39.3746 19.666 39.6118 19.9032 39.6118 20.1835C39.6333 20.4854 39.3961 20.7011 39.0943 20.7011Z" fill="#3D4DB6"/>
<path d="M19.8166 40C19.5363 40 19.2991 39.7628 19.2991 39.4824V26.3935C19.2991 26.1132 19.5363 25.876 19.8166 25.876C20.0969 25.876 20.3341 26.1132 20.3341 26.3935V39.4824C20.3341 39.7628 20.0969 40 19.8166 40Z" fill="#3D4DB6"/>
<path d="M13.6065 20.7011H0.51752C0.237197 20.7011 0 20.4854 0 20.1835C0 19.9032 0.237197 19.666 0.51752 19.666H13.6065C13.8868 19.666 14.124 19.9032 14.124 20.1835C14.124 20.4854 13.8868 20.7011 13.6065 20.7011Z" fill="#3D4DB6"/>
<path d="M19.8168 20.7005C19.6874 20.7005 19.5581 20.6574 19.4502 20.5496C19.2562 20.3555 19.2562 20.0105 19.4502 19.8164L34.9112 4.35551C35.1052 4.16144 35.4502 4.16144 35.6443 4.35551C35.8384 4.54958 35.8384 4.8946 35.6443 5.08867L20.1834 20.5496C20.0756 20.6574 19.9462 20.7005 19.8168 20.7005Z" fill="#3D4DB6"/>
<path d="M19.8168 20.7004C19.6874 20.7004 19.5365 20.6357 19.4502 20.5495C19.3424 20.4417 19.2777 20.2907 19.2993 20.1398L19.5149 17.2503C19.5149 16.97 19.7737 16.7543 20.054 16.7759C20.3559 16.7975 20.5715 17.0347 20.55 17.3365L20.3775 19.6223L22.6632 19.4498C22.9435 19.4282 23.2023 19.6438 23.2238 19.9241C23.2454 20.2045 23.0298 20.4632 22.7494 20.4848L19.8599 20.7004C19.8384 20.7004 19.8168 20.7004 19.8168 20.7004Z" fill="#3D4DB6"/>
<path d="M36.205 6.96487H33.5527C33.2724 6.96487 33.0352 6.72767 33.0352 6.44735V3.79506C33.0352 3.66568 33.0998 3.51473 33.1861 3.42848L36.4637 0.150852C36.5931 0.021472 36.8087 -0.0432181 36.9812 0.021472C37.1753 0.086162 37.3047 0.237105 37.3478 0.409612L37.7144 2.2425L39.612 2.6522C39.806 2.69533 39.957 2.82471 40.0001 3.01878C40.0648 3.19128 40.0001 3.40692 39.8707 3.5363L36.5931 6.81393C36.4853 6.90018 36.3559 6.96487 36.205 6.96487ZM34.0918 5.92983H36.0109L38.4476 3.49317L37.1538 3.21285C36.9597 3.16972 36.7872 3.01878 36.7441 2.80314L36.5069 1.5956L34.0918 4.01069V5.92983Z" fill="#3D4DB6"/>
</g>
<defs>
<clipPath id="clip0_2675_15592">
<rect width="40" height="40" fill="white"/>
</clipPath>
</defs>
</svg>
