<svg width="11" height="11" viewBox="0 0 11 11" fill="none" xmlns="http://www.w3.org/2000/svg">
<path d="M1.375 2.74996H2.29167M2.29167 2.74996H9.625M2.29167 2.74996V9.16663C2.29167 9.40974 2.38824 9.6429 2.56015 9.81481C2.73206 9.98671 2.96522 10.0833 3.20833 10.0833H7.79167C8.03478 10.0833 8.26794 9.98671 8.43985 9.81481C8.61176 9.6429 8.70833 9.40974 8.70833 9.16663V2.74996H2.29167ZM3.66667 2.74996V1.83329C3.66667 1.59018 3.76324 1.35702 3.93515 1.18511C4.10706 1.0132 4.34022 0.916626 4.58333 0.916626H6.41667C6.65978 0.916626 6.89294 1.0132 7.06485 1.18511C7.23676 1.35702 7.33333 1.59018 7.33333 1.83329V2.74996" stroke="#0D6EFD" stroke-width="1.1" stroke-linecap="round" stroke-linejoin="round"/>
</svg>
