<svg width="12" height="12" viewBox="0 0 12 12" fill="none" xmlns="http://www.w3.org/2000/svg">
<g clip-path="url(#clip0_980_1574)">
<path d="M1.5 3H2.5M2.5 3H10.5M2.5 3V10C2.5 10.2652 2.60536 10.5196 2.79289 10.7071C2.98043 10.8946 3.23478 11 3.5 11H8.5C8.76522 11 9.01957 10.8946 9.20711 10.7071C9.39464 10.5196 9.5 10.2652 9.5 10V3H2.5ZM4 3V2C4 1.73478 4.10536 1.48043 4.29289 1.29289C4.48043 1.10536 4.73478 1 5 1H7C7.26522 1 7.51957 1.10536 7.70711 1.29289C7.89464 1.48043 8 1.73478 8 2V3" stroke="white" stroke-width="1.1" stroke-linecap="round" stroke-linejoin="round"/>
</g>
<defs>
<clipPath id="clip0_980_1574">
<rect width="12" height="12" fill="white"/>
</clipPath>
</defs>
</svg>
