<svg width="24" height="24" viewBox="0 0 24 24" fill="none" xmlns="http://www.w3.org/2000/svg">
<g clip-path="url(#clip0_5873_8365)">
<path d="M17.2897 17.4166H14.1718L13.9615 17.1115L11.2506 13.1727L7.60269 17.4166H6.70312L10.8495 12.5905L7.47563 7.68841L6.71527 6.58337H9.8333L10.0435 6.8889L12.5811 10.5754L15.2448 7.47495L16.0148 6.58337H16.9144L12.9821 11.1582L16.5294 16.3116L17.2897 17.4166Z" fill="black"/>
<path d="M16.5329 16.2606L12.9856 11.1072L12.5846 10.5244L10.047 6.8379L9.83678 6.53238H6.71875L7.47911 7.63741L10.853 12.5395L11.2541 13.1217L13.965 17.0605L14.1753 17.3656H17.2932L16.5329 16.2606ZM14.5459 16.6603L11.7295 12.5684L11.3285 11.9859L8.06041 7.23771H9.46611L12.1091 11.0777L12.5101 11.6602L15.9517 16.6603H14.5459Z" fill="white"/>
<path d="M11.726 12.5684L11.2506 13.1217L7.60269 17.3656H6.70312L10.8495 12.5395L11.325 11.9859L11.726 12.5684Z" fill="white"/>
<path d="M16.9182 6.53238L12.9859 11.1072L12.5104 11.6602L12.1094 11.0777L12.5849 10.5244L15.2486 7.42395L16.0186 6.53238H16.9182Z" fill="white"/>
<path d="M23.0569 7.32897C22.7561 6.61777 22.3839 5.93197 21.9505 5.29047C21.5212 4.65505 21.0282 4.05766 20.4853 3.51471C19.9423 2.97175 19.3449 2.47877 18.7095 2.04952C18.068 1.61613 17.3822 1.24394 16.671 0.943069C15.1914 0.317256 13.6199 0 12 0C10.3801 0 8.80862 0.317256 7.32897 0.943069C6.61777 1.24394 5.93197 1.61613 5.29047 2.04952C4.65505 2.47877 4.05766 2.97175 3.51471 3.51471C2.97175 4.05766 2.47877 4.65505 2.04952 5.29047C1.61613 5.93197 1.24394 6.61777 0.943069 7.32897C0.317256 8.80862 0 10.3801 0 12C0 13.6199 0.317256 15.1914 0.943069 16.671C1.24394 17.3822 1.61613 18.068 2.04952 18.7095C2.47877 19.3449 2.97175 19.9423 3.51471 20.4853C4.05766 21.0282 4.65505 21.5212 5.29047 21.9505C5.93197 22.3839 6.61777 22.7561 7.32897 23.0569C8.80862 23.6827 10.3801 24 12 24C13.6199 24 15.1914 23.6827 16.671 23.0569C17.3822 22.7561 18.068 22.3839 18.7095 21.9505C19.3449 21.5212 19.9423 21.0282 20.4853 20.4853C21.0282 19.9423 21.5212 19.3449 21.9505 18.7095C22.3839 18.068 22.7561 17.3822 23.0569 16.671C23.6827 15.1914 24 13.6199 24 12C24 10.3801 23.6827 8.80862 23.0569 7.32897ZM14.1754 17.3656L13.965 17.0605L11.2542 13.1217L7.60626 17.3656H6.70669L10.8531 12.5395L7.4792 7.63742L6.71883 6.53239H9.83687L10.0471 6.83791L12.5846 10.5244L15.2483 7.42396L16.0184 6.53239H16.918L12.9857 11.1072L16.5329 16.2606L17.2933 17.3656H14.1754Z" fill="black"/>
</g>
<defs>
<clipPath id="clip0_5873_8365">
<rect width="24" height="24" fill="white"/>
</clipPath>
</defs>
</svg>
