<svg width="16" height="16" viewBox="0 0 16 16" fill="none" xmlns="http://www.w3.org/2000/svg">
<rect width="16" height="16" fill="white"/>
<path d="M8.31384 9.16413C8.33676 9.14249 8.35969 9.12084 8.37974 9.0992C8.84963 8.5921 9.31666 8.08809 9.78655 7.58098C9.96133 7.39546 10.1991 7.36454 10.394 7.4975C10.6547 7.67684 10.6948 8.06026 10.4713 8.30453C10.2249 8.57664 9.97279 8.84255 9.72352 9.11157C9.22211 9.65268 8.72357 10.1907 8.22216 10.7318C7.98434 10.9885 7.70929 10.9885 7.47434 10.7349C6.72652 9.92788 5.98157 9.12393 5.23376 8.3169C4.97016 8.03243 5.05038 7.58098 5.39134 7.44803C5.58618 7.37072 5.76095 7.42329 5.90994 7.58098C6.16781 7.85618 6.42281 8.13447 6.67782 8.40966C6.88697 8.63538 7.09613 8.86111 7.30529 9.08683C7.32248 9.10538 7.34254 9.12393 7.37979 9.13321C7.37979 9.10229 7.37979 9.06828 7.37979 9.03736C7.38265 7.54079 7.38552 6.04731 7.38552 4.55074C7.38552 4.36522 7.43423 4.20443 7.58035 4.09621C7.72934 3.9818 7.89266 3.96943 8.05311 4.0591C8.21929 4.15186 8.29952 4.30647 8.30238 4.50436C8.30525 4.75791 8.30238 5.01455 8.30238 5.26811C8.29952 6.53277 8.29379 7.79434 8.29092 9.059C8.29092 9.08992 8.29092 9.12084 8.29092 9.14867C8.30238 9.15795 8.30811 9.16104 8.31384 9.16413Z" fill="#666666" stroke="#666666" stroke-width="0.2"/>
<path d="M7.85412 11.7792C9.19015 11.7792 10.5225 11.7792 11.8585 11.7792C12.3907 11.7792 12.7516 12.0849 12.6884 12.4824C12.6437 12.7766 12.2939 12.9983 11.8622 12.9983C11.1998 13.0021 10.5411 12.9983 9.87863 12.9983C7.88018 12.9983 5.878 12.9983 3.87954 12.9983C3.4925 12.9983 3.18734 12.8569 3.06081 12.62C2.84496 12.2072 3.22827 11.7754 3.82372 11.7754C5.17091 11.7792 6.51438 11.7792 7.85412 11.7792Z" fill="#666666" stroke="#666666" stroke-width="0.2"/>
</svg>
