<svg width="13" height="19" viewBox="0 0 13 19" fill="none" xmlns="http://www.w3.org/2000/svg">
<path d="M2.68711 7.37607V4.62497C2.65466 4.06743 2.70095 3.50819 2.82469 2.96286C3.05455 2.14267 3.56747 1.42422 4.27748 0.927931C4.98749 0.431642 5.85142 0.187683 6.72447 0.236944C7.59752 0.286206 8.42661 0.625695 9.07277 1.19851C9.71894 1.77132 10.1429 2.54263 10.2736 3.38316C10.2841 3.54858 10.2841 3.71447 10.2736 3.87989C10.2818 3.94315 10.2764 4.00739 10.2576 4.0685C10.2389 4.12961 10.2072 4.18625 10.1647 4.23479C10.1222 4.28334 10.0697 4.32272 10.0106 4.35043C9.95149 4.37814 9.88711 4.39356 9.82154 4.39572C9.54638 4.39572 9.3695 4.20467 9.34984 3.89899C9.34984 3.15416 9.04545 2.43983 8.50363 1.91315C7.96181 1.38647 7.22694 1.09058 6.46069 1.09058C5.69444 1.09058 4.95958 1.38647 4.41776 1.91315C3.87594 2.43983 3.57154 3.15416 3.57154 3.89899C3.57154 4.98796 3.57154 6.09604 3.57154 7.20412V7.35696H10.8042C11.0692 7.32994 11.337 7.36078 11.5881 7.44724C11.8392 7.53369 12.0672 7.67358 12.2556 7.85667C12.4439 8.03977 12.5878 8.26145 12.6768 8.50553C12.7657 8.74961 12.7975 9.00992 12.7697 9.26744V15.935C12.7938 16.1918 12.7596 16.4506 12.6694 16.693C12.5791 16.9355 12.4351 17.1557 12.2476 17.338C12.06 17.5203 11.8335 17.6603 11.5841 17.748C11.3346 17.8357 11.0684 17.869 10.8042 17.8455H2.1761C1.91196 17.869 1.64573 17.8357 1.3963 17.748C1.14686 17.6603 0.920335 17.5203 0.732775 17.338C0.545215 17.1557 0.401217 16.9355 0.310992 16.693C0.220768 16.4506 0.186526 16.1918 0.210694 15.935V9.22923C0.182894 8.97171 0.214623 8.7114 0.303564 8.46732C0.392506 8.22324 0.536413 8.00156 0.724773 7.81846C0.913134 7.63537 1.14119 7.49548 1.39229 7.40903C1.64338 7.32257 1.91118 7.29173 2.1761 7.31875L2.68711 7.37607ZM6.61793 8.25489H2.1368C2.00394 8.23953 1.86923 8.25366 1.74281 8.29624C1.61639 8.33881 1.50155 8.40871 1.40694 8.50067C1.31234 8.59264 1.24043 8.70426 1.19663 8.82715C1.15283 8.95004 1.13829 9.08098 1.15409 9.21013V15.9159C1.14148 16.0436 1.1584 16.1723 1.20362 16.2928C1.24884 16.4133 1.32121 16.5224 1.41543 16.6121C1.50965 16.7019 1.62334 16.77 1.74815 16.8115C1.87297 16.853 2.00576 16.8669 2.1368 16.852H10.8632C10.9961 16.8674 11.1308 16.8533 11.2572 16.8107C11.3836 16.7681 11.4985 16.6982 11.5931 16.6063C11.6877 16.5143 11.7596 16.4027 11.8034 16.2798C11.8472 16.1569 11.8617 16.026 11.8459 15.8968V9.21013C11.8617 9.08098 11.8472 8.95004 11.8034 8.82715C11.7596 8.70426 11.6877 8.59264 11.5931 8.50067C11.4985 8.40871 11.3836 8.33881 11.2572 8.29624C11.1308 8.25366 10.9961 8.23953 10.8632 8.25489H6.61793Z" fill="#27AE60" stroke="#27AE60" stroke-width="0.4"/>
</svg>
