<svg width="14" height="14" viewBox="0 0 14 14" fill="none" xmlns="http://www.w3.org/2000/svg">
<path fill-rule="evenodd" clip-rule="evenodd" d="M12.7575 6.70834C12.3841 6.06084 10.3308 2.81167 6.84246 2.91667C3.61663 2.99834 1.74996 5.83334 1.24246 6.70834C1.13826 6.88882 1.13826 7.11119 1.24246 7.29167C1.60996 7.92751 3.57579 11.0833 7.01163 11.0833H7.15746C10.3833 11.0017 12.2558 8.16667 12.7575 7.29167C12.8617 7.11119 12.8617 6.88882 12.7575 6.70834ZM6.99996 9.04167C5.87238 9.04167 4.95829 8.12759 4.95829 7.00001C4.95829 5.87243 5.87238 4.95834 6.99996 4.95834C8.12754 4.95834 9.04163 5.87243 9.04163 7.00001C9.04163 8.12759 8.12754 9.04167 6.99996 9.04167ZM6.99996 7.87501C7.48321 7.87501 7.87496 7.48326 7.87496 7.00001C7.87496 6.51676 7.48321 6.12501 6.99996 6.12501C6.51671 6.12501 6.12496 6.51676 6.12496 7.00001C6.12496 7.48326 6.51671 7.87501 6.99996 7.87501Z" fill="#4F4F4F"/>
</svg>
