<svg width="16" height="16" viewBox="0 0 16 16" fill="none" xmlns="http://www.w3.org/2000/svg">
<path d="M2.06177 6.26949H13.9444" stroke="#4F4F4F" stroke-linecap="round" stroke-linejoin="round"/>
<path fill-rule="evenodd" clip-rule="evenodd" d="M4.28882 8.87311C4.28882 8.45889 4.6246 8.12311 5.03882 8.12311H5.04499C5.45921 8.12311 5.79499 8.45889 5.79499 8.87311C5.79499 9.28732 5.45921 9.62311 5.04499 9.62311H5.03882C4.6246 9.62311 4.28882 9.28732 4.28882 8.87311ZM8.00338 8.12313C7.58917 8.12313 7.25338 8.45892 7.25338 8.87313C7.25338 9.28734 7.58917 9.62313 8.00338 9.62313H8.00956C8.42377 9.62313 8.75956 9.28734 8.75956 8.87313C8.75956 8.45892 8.42377 8.12313 8.00956 8.12313H8.00338ZM10.9617 8.12313C10.5475 8.12313 10.2117 8.45892 10.2117 8.87313C10.2117 9.28734 10.5475 9.62313 10.9617 9.62313H10.9679C11.3821 9.62313 11.7179 9.28734 11.7179 8.87313C11.7179 8.45892 11.3821 8.12313 10.9679 8.12313H10.9617ZM10.9617 10.7141C10.5475 10.7141 10.2117 11.0499 10.2117 11.4641C10.2117 11.8783 10.5475 12.2141 10.9617 12.2141H10.9679C11.3821 12.2141 11.7179 11.8783 11.7179 11.4641C11.7179 11.0499 11.3821 10.7141 10.9679 10.7141H10.9617ZM7.25338 11.4641C7.25338 11.0499 7.58917 10.7141 8.00338 10.7141H8.00956C8.42377 10.7141 8.75956 11.0499 8.75956 11.4641C8.75956 11.8783 8.42377 12.2141 8.00956 12.2141H8.00338C7.58917 12.2141 7.25338 11.8783 7.25338 11.4641ZM5.03882 10.7141C4.6246 10.7141 4.28882 11.0499 4.28882 11.4641C4.28882 11.8783 4.6246 12.2141 5.03882 12.2141H5.04499C5.45921 12.2141 5.79499 11.8783 5.79499 11.4641C5.79499 11.0499 5.45921 10.7141 5.04499 10.7141H5.03882Z" fill="#4F4F4F"/>
<path d="M10.6958 1.33331V3.52717" stroke="#4F4F4F" stroke-linecap="round" stroke-linejoin="round"/>
<path d="M5.31051 1.33331V3.52717" stroke="#4F4F4F" stroke-linecap="round" stroke-linejoin="round"/>
<path fill-rule="evenodd" clip-rule="evenodd" d="M10.8255 2.38611H5.18064C3.22285 2.38611 2 3.47673 2 5.48146V11.5146C2 13.5508 3.22285 14.6666 5.18064 14.6666H10.8193C12.7833 14.6666 14 13.5697 14 11.565V5.48146C14.0062 3.47673 12.7895 2.38611 10.8255 2.38611Z" stroke="#4F4F4F" stroke-linecap="round" stroke-linejoin="round"/>
</svg>
