<svg width="16" height="16" viewBox="0 0 16 16" fill="none" xmlns="http://www.w3.org/2000/svg">
<g clip-path="url(#clip0_657_7526)">
<rect width="16" height="16" fill="white"/>
<path fill-rule="evenodd" clip-rule="evenodd" d="M12.3866 7.77799C12.1021 7.28466 10.5377 4.8091 7.87992 4.8891C5.42214 4.95133 3.99992 7.11133 3.61326 7.77799C3.53386 7.9155 3.53386 8.08492 3.61326 8.22244C3.89326 8.70688 5.39103 11.1113 8.00881 11.1113H8.11992C10.5777 11.0491 12.0044 8.8891 12.3866 8.22244C12.466 8.08492 12.466 7.9155 12.3866 7.77799ZM7.99992 9.55577C7.14081 9.55577 6.44437 8.85932 6.44437 8.00021C6.44437 7.1411 7.14081 6.44466 7.99992 6.44466C8.85903 6.44466 9.55548 7.1411 9.55548 8.00021C9.55548 8.85932 8.85903 9.55577 7.99992 9.55577ZM7.99992 8.66688C8.36811 8.66688 8.66659 8.3684 8.66659 8.00021C8.66659 7.63202 8.36811 7.33355 7.99992 7.33355C7.63173 7.33355 7.33326 7.63202 7.33326 8.00021C7.33326 8.3684 7.63173 8.66688 7.99992 8.66688Z" fill="#666666"/>
</g>
<defs>
<clipPath id="clip0_657_7526">
<rect width="16" height="16" fill="white"/>
</clipPath>
</defs>
</svg>
