<svg width="16" height="16" viewBox="0 0 16 16" fill="none" xmlns="http://www.w3.org/2000/svg">
<path d="M8.99609 4.25969C8.99609 3.71009 8.99609 3.16049 8.99609 2.61089C9.00069 1.91442 9.46916 1.43115 10.1443 1.43115C11.2145 1.43115 12.2846 1.43115 13.3594 1.43115C14.0253 1.43115 14.4984 1.91442 14.4984 2.60142C14.503 3.71009 14.503 4.8235 14.4984 5.93218C14.4984 6.61917 14.0253 7.10244 13.3594 7.10718C12.2892 7.11192 11.2191 7.10718 10.1443 7.10718C9.46916 7.10718 8.99609 6.62391 8.99609 5.92744C8.99609 5.3731 8.99609 4.81877 8.99609 4.25969ZM13.9473 4.28338C13.9473 3.73378 13.9473 3.18418 13.9473 2.63458C13.9473 2.22712 13.7268 1.9997 13.3318 1.9997C12.2754 1.9997 11.2237 1.9997 10.1673 1.9997C9.7677 1.9997 9.54724 2.22238 9.54724 2.62985C9.54724 3.72431 9.54724 4.81876 9.54724 5.91322C9.54724 6.31121 9.7723 6.53863 10.1535 6.54337C11.2145 6.54337 12.2754 6.54337 13.3318 6.54337C13.7268 6.54337 13.9427 6.31595 13.9427 5.90375C13.9473 5.35889 13.9473 4.8235 13.9473 4.28338Z" fill="#4F4F4F" stroke="#4F4F4F" stroke-width="0.3"/>
<path d="M4.32121 7.10722C3.34292 7.10722 2.36463 7.10722 1.38175 7.10722C1.01891 7.10722 0.904089 6.91297 1.08321 6.58605C2.0661 4.8046 3.04898 3.02788 4.03186 1.24642C4.10075 1.12323 4.16965 1.00952 4.32581 1.00952C4.48197 1.00952 4.55086 1.12323 4.61975 1.24642C5.60723 3.03261 6.59011 4.81407 7.57759 6.60027C7.75212 6.91297 7.63729 7.11196 7.28364 7.11196C6.29157 7.10722 5.30869 7.10722 4.32121 7.10722ZM6.89784 6.53394C6.03437 4.96568 5.18468 3.42586 4.32121 1.85761C3.45315 3.4306 2.60806 4.97516 1.74918 6.53394C3.47612 6.53394 5.1709 6.53394 6.89784 6.53394Z" fill="#4F4F4F" stroke="#4F4F4F" stroke-width="0.3"/>
<path d="M15.0014 11.684C14.9968 11.9446 14.9003 12.2052 14.6982 12.4137C13.9634 13.1765 13.2285 13.9393 12.4845 14.6926C12.0619 15.119 11.4373 15.1143 11.0147 14.6831C10.2753 13.9345 9.54041 13.1765 8.81473 12.4137C8.38759 11.9683 8.39218 11.3145 8.81473 10.8691C9.54041 10.111 10.2661 9.35771 11.001 8.61385C11.4327 8.17323 12.0619 8.16849 12.4982 8.60912C13.2331 9.35297 13.9588 10.111 14.6891 10.8644C14.8911 11.0823 14.9968 11.3476 15.0014 11.684ZM14.4916 11.6556C14.4181 11.5135 14.3767 11.3713 14.2895 11.2766C13.573 10.528 12.8519 9.78412 12.1308 9.04027C11.8966 8.79863 11.6026 8.80337 11.3684 9.04501C10.6473 9.78412 9.93081 10.5232 9.21891 11.2624C8.98926 11.4992 8.98926 11.7977 9.21891 12.0346C9.9354 12.7832 10.6565 13.5271 11.3822 14.2662C11.6118 14.4984 11.9012 14.4984 12.1308 14.2662C12.8565 13.5271 13.5776 12.7832 14.2895 12.0299C14.3767 11.9351 14.4181 11.793 14.4916 11.6556Z" fill="#4F4F4F" stroke="#4F4F4F" stroke-width="0.3"/>
<path d="M1.29493 11.6414C1.29034 9.92155 2.65443 8.5286 4.33085 8.52386C5.9797 8.52386 7.3438 9.92155 7.34839 11.6225C7.35298 13.3518 6.00267 14.7637 4.34003 14.7637C2.65443 14.7732 1.29953 13.3802 1.29493 11.6414Z" fill="#4F4F4F" stroke="#4F4F4F" stroke-width="0.3"/>
</svg>
