<svg width="12" height="10" viewBox="0 0 12 10" fill="none" xmlns="http://www.w3.org/2000/svg">
<g clip-path="url(#clip0_7377_14718)">
<rect width="12" height="9" transform="translate(0 0.351562)" fill="white"/>
<path d="M6.00025 9.34893C5.88984 9.34895 5.78073 9.32321 5.68033 9.27344C5.57994 9.22367 5.49062 9.15105 5.41846 9.06052L4.96425 8.49102C4.96291 8.48941 4.96166 8.48771 4.9604 8.48601C4.95146 8.47354 4.93998 8.46348 4.92686 8.45661C4.91374 8.44974 4.89934 8.44624 4.88477 8.4464H0.162715C0.125258 8.4464 0.0893358 8.43028 0.0628499 8.40158C0.036364 8.37289 0.0214844 8.33397 0.0214844 8.2934V1.53581C0.0214844 1.49523 0.036364 1.45632 0.0628499 1.42763C0.0893358 1.39893 0.125258 1.38281 0.162715 1.38281H0.876715C0.914172 1.38281 0.950094 1.39893 0.97658 1.42763C1.00307 1.45632 1.01795 1.49523 1.01795 1.53581C1.01795 1.57639 1.00307 1.61531 0.97658 1.644C0.950094 1.67269 0.914172 1.68881 0.876715 1.68881H0.303946V8.14031H4.88477C4.94139 8.14015 4.99733 8.15382 5.0484 8.18031C5.09948 8.2068 5.14439 8.24542 5.17978 8.29331L5.63219 8.86052C5.67786 8.91776 5.73437 8.96369 5.79788 8.99516C5.86139 9.02664 5.93041 9.04293 6.00025 9.04293C6.07009 9.04293 6.13912 9.02664 6.20263 8.99516C6.26614 8.96369 6.32265 8.91776 6.36832 8.86052L6.8208 8.29323C6.85619 8.24535 6.90108 8.20673 6.95214 8.18024C7.00321 8.15375 7.05913 8.14007 7.11574 8.14023H11.6966V1.68881H11.1238C11.0863 1.68881 11.0504 1.67269 11.0239 1.644C10.9974 1.61531 10.9826 1.57639 10.9826 1.53581C10.9826 1.49523 10.9974 1.45632 11.0239 1.42763C11.0504 1.39893 11.0863 1.38281 11.1238 1.38281H11.8378C11.8752 1.38281 11.9112 1.39893 11.9377 1.42763C11.9641 1.45632 11.979 1.49523 11.979 1.53581V8.29331C11.979 8.33389 11.9641 8.37281 11.9377 8.4015C11.9112 8.43019 11.8752 8.44631 11.8378 8.44631H7.11574C7.10117 8.44616 7.08676 8.44965 7.07364 8.45652C7.06052 8.4634 7.04904 8.47346 7.0401 8.48592C7.03885 8.48762 7.03759 8.48932 7.03626 8.49094L6.58205 9.06044C6.50989 9.15098 6.42058 9.22362 6.32018 9.2734C6.21979 9.32318 6.11067 9.34894 6.00025 9.34893Z" fill="#010E87"/>
<path d="M5.99914 8.56664C5.97787 8.56664 5.95687 8.56144 5.93771 8.55141C5.91856 8.54139 5.90174 8.52681 5.88851 8.50876L5.51872 8.00411C5.44303 7.90022 5.34652 7.81631 5.23651 7.75874C5.12649 7.70116 5.00584 7.67142 4.88366 7.67176H0.875606C0.838149 7.67176 0.802226 7.65564 0.77574 7.62695C0.749255 7.59826 0.734375 7.55934 0.734375 7.51876V0.504562C0.734375 0.463984 0.749255 0.425068 0.77574 0.396375C0.802226 0.367682 0.838149 0.351563 0.875606 0.351563H4.87314C5.10569 0.351744 5.33372 0.421177 5.5323 0.552271C5.73089 0.683365 5.89239 0.871076 5.99914 1.09489C6.1059 0.871076 6.2674 0.683365 6.46598 0.552271C6.66457 0.421177 6.8926 0.351744 7.12515 0.351563H11.1227C11.1601 0.351562 11.1961 0.367682 11.2225 0.396375C11.249 0.425068 11.2639 0.463984 11.2639 0.504562V7.51868C11.2639 7.55925 11.249 7.59817 11.2225 7.62686C11.1961 7.65556 11.1601 7.67168 11.1227 7.67168H7.11463C6.99238 7.67128 6.87163 7.70099 6.76153 7.75857C6.65143 7.81614 6.55485 7.90008 6.47909 8.00403L6.10938 8.50867C6.09621 8.52668 6.07945 8.54125 6.06037 8.55128C6.04129 8.56132 6.02036 8.56657 5.99914 8.56664ZM1.01684 7.36568H4.88366C5.04845 7.36517 5.21119 7.40526 5.35959 7.48291C5.50798 7.56056 5.63814 7.67373 5.74022 7.81388L5.99914 8.16757L6.25807 7.81388C6.36015 7.67373 6.49031 7.56056 6.6387 7.48291C6.78709 7.40526 6.94984 7.36517 7.11463 7.36568H10.9815V0.657562H7.12515C6.86406 0.657877 6.61375 0.770377 6.42913 0.970379C6.24451 1.17038 6.14067 1.44155 6.14038 1.7244V7.51868C6.14038 7.55925 6.1255 7.59817 6.09901 7.62686C6.07252 7.65556 6.0366 7.67168 5.99914 7.67168C5.96169 7.67168 5.92577 7.65556 5.89928 7.62686C5.87279 7.59817 5.85791 7.55925 5.85791 7.51868V1.7244C5.85762 1.44155 5.75378 1.17038 5.56916 0.970379C5.38454 0.770377 5.13423 0.657877 4.87314 0.657562H1.01684V7.36568Z" fill="#010E87"/>
<path d="M6.00061 8.5706C5.96315 8.5706 5.92723 8.55449 5.90074 8.52579C5.87425 8.4971 5.85938 8.45818 5.85938 8.4176V7.35612C5.85937 7.31555 5.87425 7.27663 5.90074 7.24794C5.92723 7.21924 5.96315 7.20312 6.00061 7.20312C6.03806 7.20312 6.07398 7.21924 6.10047 7.24794C6.12696 7.27663 6.14184 7.31555 6.14184 7.35612V8.4176C6.14184 8.45818 6.12696 8.4971 6.10047 8.52579C6.07398 8.55449 6.03806 8.5706 6.00061 8.5706Z" fill="#010E87"/>
<path d="M6.01408 1.68881H5.98693C5.94948 1.68881 5.91355 1.67269 5.88707 1.644C5.86058 1.61531 5.8457 1.57639 5.8457 1.53581C5.8457 1.49523 5.86058 1.45632 5.88707 1.42763C5.91355 1.39893 5.94948 1.38281 5.98693 1.38281H6.01408C6.05154 1.38281 6.08746 1.39893 6.11395 1.42763C6.14043 1.45632 6.15531 1.49523 6.15531 1.53581C6.15531 1.57639 6.14043 1.61531 6.11395 1.644C6.08746 1.67269 6.05154 1.68881 6.01408 1.68881Z" fill="#010E87"/>
<path d="M5.99914 8.56664C5.97787 8.56664 5.95687 8.56144 5.93771 8.55141C5.91856 8.54139 5.90174 8.52681 5.88851 8.50876L5.51872 8.00411C5.44303 7.90022 5.34652 7.81631 5.23651 7.75874C5.12649 7.70116 5.00584 7.67142 4.88366 7.67176H0.875606C0.838149 7.67176 0.802226 7.65564 0.77574 7.62695C0.749255 7.59826 0.734375 7.55934 0.734375 7.51876V0.504562C0.734375 0.463984 0.749255 0.425068 0.77574 0.396375C0.802226 0.367682 0.838149 0.351563 0.875606 0.351563H4.87314C5.10569 0.351744 5.33372 0.421177 5.5323 0.552271C5.73089 0.683365 5.89239 0.871076 5.99914 1.09489C6.1059 0.871076 6.2674 0.683365 6.46598 0.552271C6.66457 0.421177 6.8926 0.351744 7.12515 0.351563H11.1227C11.1601 0.351562 11.1961 0.367682 11.2225 0.396375C11.249 0.425068 11.2639 0.463984 11.2639 0.504562V7.51868C11.2639 7.55925 11.249 7.59817 11.2225 7.62686C11.1961 7.65556 11.1601 7.67168 11.1227 7.67168H7.11463C6.99238 7.67128 6.87163 7.70099 6.76153 7.75857C6.65143 7.81614 6.55485 7.90008 6.47909 8.00403L6.10938 8.50867C6.09621 8.52668 6.07945 8.54125 6.06037 8.55128C6.04129 8.56132 6.02036 8.56657 5.99914 8.56664ZM1.01684 7.36568H4.88366C5.04845 7.36517 5.21119 7.40526 5.35959 7.48291C5.50798 7.56056 5.63814 7.67373 5.74022 7.81388L5.99914 8.16757L6.25807 7.81388C6.36015 7.67373 6.49031 7.56056 6.6387 7.48291C6.78709 7.40526 6.94984 7.36517 7.11463 7.36568H10.9815V0.657562H7.12515C6.86406 0.657877 6.61375 0.770377 6.42913 0.970379C6.24451 1.17038 6.14067 1.44155 6.14038 1.7244V7.51868C6.14038 7.55925 6.1255 7.59817 6.09901 7.62686C6.07252 7.65556 6.0366 7.67168 5.99914 7.67168C5.96169 7.67168 5.92577 7.65556 5.89928 7.62686C5.87279 7.59817 5.85791 7.55925 5.85791 7.51868V1.7244C5.85762 1.44155 5.75378 1.17038 5.56916 0.970379C5.38454 0.770377 5.13423 0.657877 4.87314 0.657562H1.01684V7.36568Z" fill="#010E87"/>
<path d="M6.00061 8.5706C5.96315 8.5706 5.92723 8.55449 5.90074 8.52579C5.87425 8.4971 5.85938 8.45818 5.85938 8.4176V7.35612C5.85937 7.31555 5.87425 7.27663 5.90074 7.24794C5.92723 7.21924 5.96315 7.20312 6.00061 7.20312C6.03806 7.20312 6.07398 7.21924 6.10047 7.24794C6.12696 7.27663 6.14184 7.31555 6.14184 7.35612V8.4176C6.14184 8.45818 6.12696 8.4971 6.10047 8.52579C6.07398 8.55449 6.03806 8.5706 6.00061 8.5706Z" fill="#010E87"/>
<path d="M4.9451 1.82162H1.94787C1.91041 1.82162 1.87449 1.80551 1.84801 1.77681C1.82152 1.74812 1.80664 1.7092 1.80664 1.66862C1.80664 1.62805 1.82152 1.58913 1.84801 1.56044C1.87449 1.53174 1.91041 1.51562 1.94787 1.51562H4.9451C4.98256 1.51562 5.01848 1.53174 5.04497 1.56044C5.07145 1.58913 5.08633 1.62805 5.08633 1.66862C5.08633 1.7092 5.07145 1.74812 5.04497 1.77681C5.01848 1.80551 4.98256 1.82162 4.9451 1.82162Z" fill="#010E87"/>
<path d="M4.9451 2.75912H1.94787C1.91041 2.75912 1.87449 2.74301 1.84801 2.71431C1.82152 2.68562 1.80664 2.6467 1.80664 2.60612C1.80664 2.56555 1.82152 2.52663 1.84801 2.49794C1.87449 2.46924 1.91041 2.45312 1.94787 2.45312H4.9451C4.98256 2.45312 5.01848 2.46924 5.04497 2.49794C5.07145 2.52663 5.08633 2.56555 5.08633 2.60612C5.08633 2.6467 5.07145 2.68562 5.04497 2.71431C5.01848 2.74301 4.98256 2.75912 4.9451 2.75912Z" fill="#010E87"/>
<path d="M4.9451 3.69662H1.94787C1.91041 3.69662 1.87449 3.68051 1.84801 3.65181C1.82152 3.62312 1.80664 3.5842 1.80664 3.54362C1.80664 3.50305 1.82152 3.46413 1.84801 3.43544C1.87449 3.40674 1.91041 3.39062 1.94787 3.39062H4.9451C4.98256 3.39062 5.01848 3.40674 5.04497 3.43544C5.07145 3.46413 5.08633 3.50305 5.08633 3.54362C5.08633 3.5842 5.07145 3.62312 5.04497 3.65181C5.01848 3.68051 4.98256 3.69662 4.9451 3.69662Z" fill="#010E87"/>
<path d="M4.9451 4.63412H1.94787C1.91041 4.63412 1.87449 4.61801 1.84801 4.58931C1.82152 4.56062 1.80664 4.5217 1.80664 4.48112C1.80664 4.44055 1.82152 4.40163 1.84801 4.37294C1.87449 4.34424 1.91041 4.32812 1.94787 4.32812H4.9451C4.98256 4.32812 5.01848 4.34424 5.04497 4.37294C5.07145 4.40163 5.08633 4.44055 5.08633 4.48112C5.08633 4.5217 5.07145 4.56062 5.04497 4.58931C5.01848 4.61801 4.98256 4.63412 4.9451 4.63412Z" fill="#010E87"/>
<path d="M4.9451 5.57162H1.94787C1.91041 5.57162 1.87449 5.55551 1.84801 5.52681C1.82152 5.49812 1.80664 5.4592 1.80664 5.41862C1.80664 5.37805 1.82152 5.33913 1.84801 5.31044C1.87449 5.28174 1.91041 5.26562 1.94787 5.26562H4.9451C4.98256 5.26562 5.01848 5.28174 5.04497 5.31044C5.07145 5.33913 5.08633 5.37805 5.08633 5.41862C5.08633 5.4592 5.07145 5.49812 5.04497 5.52681C5.01848 5.55551 4.98256 5.57162 4.9451 5.57162Z" fill="#010E87"/>
<path d="M4.9451 6.52475H1.94787C1.91041 6.52475 1.87449 6.50863 1.84801 6.47994C1.82152 6.45124 1.80664 6.41233 1.80664 6.37175C1.80664 6.33117 1.82152 6.29226 1.84801 6.26356C1.87449 6.23487 1.91041 6.21875 1.94787 6.21875H4.9451C4.98256 6.21875 5.01848 6.23487 5.04497 6.26356C5.07145 6.29226 5.08633 6.33117 5.08633 6.37175C5.08633 6.41233 5.07145 6.45124 5.04497 6.47994C5.01848 6.50863 4.98256 6.52475 4.9451 6.52475Z" fill="#010E87"/>
<path d="M10.0467 1.82162H7.04943C7.01198 1.82162 6.97605 1.80551 6.94957 1.77681C6.92308 1.74812 6.9082 1.7092 6.9082 1.66862C6.9082 1.62805 6.92308 1.58913 6.94957 1.56044C6.97605 1.53174 7.01198 1.51562 7.04943 1.51562H10.0467C10.0841 1.51562 10.12 1.53174 10.1465 1.56044C10.173 1.58913 10.1879 1.62805 10.1879 1.66862C10.1879 1.7092 10.173 1.74812 10.1465 1.77681C10.12 1.80551 10.0841 1.82162 10.0467 1.82162Z" fill="#010E87"/>
<path d="M10.0467 2.75912H7.04943C7.01198 2.75912 6.97605 2.74301 6.94957 2.71431C6.92308 2.68562 6.9082 2.6467 6.9082 2.60612C6.9082 2.56555 6.92308 2.52663 6.94957 2.49794C6.97605 2.46924 7.01198 2.45312 7.04943 2.45312H10.0467C10.0841 2.45312 10.12 2.46924 10.1465 2.49794C10.173 2.52663 10.1879 2.56555 10.1879 2.60612C10.1879 2.6467 10.173 2.68562 10.1465 2.71431C10.12 2.74301 10.0841 2.75912 10.0467 2.75912Z" fill="#010E87"/>
<path d="M10.0467 3.69662H7.04943C7.01198 3.69662 6.97605 3.68051 6.94957 3.65181C6.92308 3.62312 6.9082 3.5842 6.9082 3.54362C6.9082 3.50305 6.92308 3.46413 6.94957 3.43544C6.97605 3.40674 7.01198 3.39062 7.04943 3.39062H10.0467C10.0841 3.39062 10.12 3.40674 10.1465 3.43544C10.173 3.46413 10.1879 3.50305 10.1879 3.54362C10.1879 3.5842 10.173 3.62312 10.1465 3.65181C10.12 3.68051 10.0841 3.69662 10.0467 3.69662Z" fill="#010E87"/>
<path d="M10.0467 4.63412H7.04943C7.01198 4.63412 6.97605 4.61801 6.94957 4.58931C6.92308 4.56062 6.9082 4.5217 6.9082 4.48112C6.9082 4.44055 6.92308 4.40163 6.94957 4.37294C6.97605 4.34424 7.01198 4.32812 7.04943 4.32812H10.0467C10.0841 4.32812 10.12 4.34424 10.1465 4.37294C10.173 4.40163 10.1879 4.44055 10.1879 4.48112C10.1879 4.5217 10.173 4.56062 10.1465 4.58931C10.12 4.61801 10.0841 4.63412 10.0467 4.63412Z" fill="#010E87"/>
<path d="M10.0467 5.57162H7.04943C7.01198 5.57162 6.97605 5.55551 6.94957 5.52681C6.92308 5.49812 6.9082 5.4592 6.9082 5.41862C6.9082 5.37805 6.92308 5.33913 6.94957 5.31044C6.97605 5.28174 7.01198 5.26562 7.04943 5.26562H10.0467C10.0841 5.26562 10.12 5.28174 10.1465 5.31044C10.173 5.33913 10.1879 5.37805 10.1879 5.41862C10.1879 5.4592 10.173 5.49812 10.1465 5.52681C10.12 5.55551 10.0841 5.57162 10.0467 5.57162Z" fill="#010E87"/>
<path d="M10.0467 6.52475H7.04943C7.01198 6.52475 6.97605 6.50863 6.94957 6.47994C6.92308 6.45124 6.9082 6.41233 6.9082 6.37175C6.9082 6.33117 6.92308 6.29226 6.94957 6.26356C6.97605 6.23487 7.01198 6.21875 7.04943 6.21875H10.0467C10.0841 6.21875 10.12 6.23487 10.1465 6.26356C10.173 6.29226 10.1879 6.33117 10.1879 6.37175C10.1879 6.41233 10.173 6.45124 10.1465 6.47994C10.12 6.50863 10.0841 6.52475 10.0467 6.52475Z" fill="#010E87"/>
</g>
<defs>
<clipPath id="clip0_7377_14718">
<rect width="12" height="9" fill="white" transform="translate(0 0.351562)"/>
</clipPath>
</defs>
</svg>
