<svg width="14" height="15" viewBox="0 0 14 15" fill="none" xmlns="http://www.w3.org/2000/svg">
<path d="M9.00451 12.7418H7.2886C7.24961 12.7418 7.21222 12.7263 7.18466 12.6987C7.15709 12.6711 7.1416 12.6337 7.1416 12.5948C7.1416 12.5558 7.15709 12.5184 7.18466 12.4908C7.21222 12.4632 7.24961 12.4478 7.2886 12.4478H9.00451C9.0435 12.4478 9.08089 12.4632 9.10846 12.4908C9.13602 12.5184 9.15151 12.5558 9.15151 12.5948C9.15151 12.6337 9.13602 12.6711 9.10846 12.6987C9.08089 12.7263 9.0435 12.7418 9.00451 12.7418Z" fill="#010E87"/>
<path d="M6.71154 12.7418H4.99563C4.95665 12.7418 4.91926 12.7263 4.89169 12.6987C4.86412 12.6711 4.84863 12.6337 4.84863 12.5948C4.84863 12.5558 4.86412 12.5184 4.89169 12.4908C4.91926 12.4632 4.95665 12.4478 4.99563 12.4478H6.71154C6.75053 12.4478 6.78792 12.4632 6.81549 12.4908C6.84306 12.5184 6.85854 12.5558 6.85854 12.5948C6.85854 12.6337 6.84306 12.6711 6.81549 12.6987C6.78792 12.7263 6.75053 12.7418 6.71154 12.7418Z" fill="#010E87"/>
<path d="M4.19876 9.02564C4.15977 9.02564 4.12238 9.01015 4.09481 8.98259C4.06725 8.95502 4.05176 8.91763 4.05176 8.87864V8.10696C4.05176 8.06797 4.06725 8.03058 4.09481 8.00302C4.12238 7.97545 4.15977 7.95996 4.19876 7.95996C4.23774 7.95996 4.27513 7.97545 4.3027 8.00302C4.33027 8.03058 4.34576 8.06797 4.34576 8.10696V8.87864C4.34576 8.91763 4.33027 8.95502 4.3027 8.98259C4.27513 9.01015 4.23774 9.02564 4.19876 9.02564Z" fill="#010E87"/>
<path d="M4.78665 9.02564C4.74766 9.02564 4.71027 9.01015 4.6827 8.98259C4.65514 8.95502 4.63965 8.91763 4.63965 8.87864V8.10696C4.63965 8.06797 4.65514 8.03058 4.6827 8.00302C4.71027 7.97545 4.74766 7.95996 4.78665 7.95996C4.82564 7.95996 4.86303 7.97545 4.89059 8.00302C4.91816 8.03058 4.93365 8.06797 4.93365 8.10696V8.87864C4.93365 8.91763 4.91816 8.95502 4.89059 8.98259C4.86303 9.01015 4.82564 9.02564 4.78665 9.02564Z" fill="#010E87"/>
<path d="M9.21145 9.02564C9.17247 9.02564 9.13508 9.01015 9.10751 8.98259C9.07994 8.95502 9.06445 8.91763 9.06445 8.87864V8.10696C9.06445 8.06797 9.07994 8.03058 9.10751 8.00302C9.13508 7.97545 9.17247 7.95996 9.21145 7.95996C9.25044 7.95996 9.28783 7.97545 9.3154 8.00302C9.34297 8.03058 9.35845 8.06797 9.35845 8.10696V8.87864C9.35845 8.91763 9.34297 8.95502 9.3154 8.98259C9.28783 9.01015 9.25044 9.02564 9.21145 9.02564Z" fill="#010E87"/>
<path d="M9.79934 9.02564C9.76036 9.02564 9.72297 9.01015 9.6954 8.98259C9.66783 8.95502 9.65234 8.91763 9.65234 8.87864V8.10696C9.65234 8.06797 9.66783 8.03058 9.6954 8.00302C9.72297 7.97545 9.76036 7.95996 9.79934 7.95996C9.83833 7.95996 9.87572 7.97545 9.90329 8.00302C9.93086 8.03058 9.94634 8.06797 9.94634 8.10696V8.87864C9.94634 8.91763 9.93086 8.95502 9.90329 8.98259C9.87572 9.01015 9.83833 9.02564 9.79934 9.02564Z" fill="#010E87"/>
<path d="M4.19876 5.82C4.15977 5.82 4.12238 5.80452 4.09481 5.77695C4.06725 5.74938 4.05176 5.71199 4.05176 5.673V4.90139C4.05176 4.86241 4.06725 4.82502 4.09481 4.79745C4.12238 4.76988 4.15977 4.75439 4.19876 4.75439C4.23774 4.75439 4.27513 4.76988 4.3027 4.79745C4.33027 4.82502 4.34576 4.86241 4.34576 4.90139V5.673C4.34576 5.71199 4.33027 5.74938 4.3027 5.77695C4.27513 5.80452 4.23774 5.82 4.19876 5.82Z" fill="#010E87"/>
<path d="M4.78665 5.82C4.74766 5.82 4.71027 5.80452 4.6827 5.77695C4.65514 5.74938 4.63965 5.71199 4.63965 5.673V4.90139C4.63965 4.86241 4.65514 4.82502 4.6827 4.79745C4.71027 4.76988 4.74766 4.75439 4.78665 4.75439C4.82564 4.75439 4.86303 4.76988 4.89059 4.79745C4.91816 4.82502 4.93365 4.86241 4.93365 4.90139V5.673C4.93365 5.71199 4.91816 5.74938 4.89059 5.77695C4.86303 5.80452 4.82564 5.82 4.78665 5.82Z" fill="#010E87"/>
<path d="M9.21145 5.82C9.17247 5.82 9.13508 5.80452 9.10751 5.77695C9.07994 5.74938 9.06445 5.71199 9.06445 5.673V4.90139C9.06445 4.86241 9.07994 4.82502 9.10751 4.79745C9.13508 4.76988 9.17247 4.75439 9.21145 4.75439C9.25044 4.75439 9.28783 4.76988 9.3154 4.79745C9.34297 4.82502 9.35845 4.86241 9.35845 4.90139V5.673C9.35845 5.71199 9.34297 5.74938 9.3154 5.77695C9.28783 5.80452 9.25044 5.82 9.21145 5.82Z" fill="#010E87"/>
<path d="M9.79934 5.82C9.76036 5.82 9.72297 5.80452 9.6954 5.77695C9.66783 5.74938 9.65234 5.71199 9.65234 5.673V4.90139C9.65234 4.86241 9.66783 4.82502 9.6954 4.79745C9.72297 4.76988 9.76036 4.75439 9.79934 4.75439C9.83833 4.75439 9.87572 4.76988 9.90329 4.79745C9.93086 4.82502 9.94634 4.86241 9.94634 4.90139V5.673C9.94634 5.71199 9.93086 5.74938 9.90329 5.77695C9.87572 5.80452 9.83833 5.82 9.79934 5.82Z" fill="#010E87"/>
<path d="M10.794 5.04863H3.2095C3.17051 5.04863 3.13312 5.03314 3.10556 5.00558C3.07799 4.97801 3.0625 4.94062 3.0625 4.90163V2.4678C3.0625 2.42881 3.07799 2.39142 3.10556 2.36386C3.13312 2.33629 3.17051 2.3208 3.2095 2.3208H10.794C10.833 2.3208 10.8704 2.33629 10.8979 2.36386C10.9255 2.39142 10.941 2.42881 10.941 2.4678V4.90163C10.941 4.94062 10.9255 4.97801 10.8979 5.00558C10.8704 5.03314 10.833 5.04863 10.794 5.04863ZM3.3565 4.75463H10.647V2.6148H3.3565V4.75463Z" fill="#010E87"/>
<path d="M8.5159 4.12066C8.4297 4.12066 8.34544 4.0951 8.27377 4.04721C8.2021 3.99933 8.14624 3.93126 8.11325 3.85162C8.08027 3.77199 8.07164 3.68436 8.08845 3.59982C8.10527 3.51528 8.14678 3.43762 8.20773 3.37667C8.26868 3.31572 8.34633 3.27421 8.43087 3.2574C8.51541 3.24058 8.60304 3.24921 8.68268 3.2822C8.76231 3.31518 8.83038 3.37104 8.87827 3.44271C8.92616 3.51439 8.95172 3.59865 8.95172 3.68484C8.95159 3.80039 8.90563 3.91117 8.82393 3.99287C8.74222 4.07458 8.63145 4.12053 8.5159 4.12066ZM8.5159 3.54302C8.48785 3.54302 8.46043 3.55134 8.43711 3.56692C8.41379 3.58251 8.39561 3.60466 8.38487 3.63057C8.37414 3.65649 8.37133 3.685 8.3768 3.71251C8.38228 3.74002 8.39578 3.76529 8.41562 3.78513C8.43545 3.80496 8.46072 3.81847 8.48823 3.82394C8.51574 3.82941 8.54426 3.8266 8.57017 3.81587C8.59608 3.80513 8.61823 3.78696 8.63382 3.76363C8.6494 3.74031 8.65772 3.71289 8.65772 3.68484C8.65768 3.64724 8.64273 3.61119 8.61614 3.5846C8.58955 3.55801 8.5535 3.54306 8.5159 3.54302Z" fill="#010E87"/>
<path d="M9.6868 4.12066C9.6006 4.12066 9.51634 4.0951 9.44467 4.04721C9.373 3.99933 9.31714 3.93126 9.28415 3.85162C9.25117 3.77199 9.24253 3.68436 9.25935 3.59982C9.27617 3.51528 9.31768 3.43762 9.37863 3.37667C9.43958 3.31572 9.51723 3.27421 9.60177 3.2574C9.68631 3.24058 9.77394 3.24921 9.85358 3.2822C9.93321 3.31518 10.0013 3.37104 10.0492 3.44271C10.0971 3.51439 10.1226 3.59865 10.1226 3.68484C10.1225 3.80039 10.0765 3.91117 9.99483 3.99287C9.91312 4.07458 9.80234 4.12053 9.6868 4.12066ZM9.6868 3.54302C9.65875 3.54302 9.63133 3.55134 9.60801 3.56692C9.58468 3.58251 9.56651 3.60466 9.55577 3.63057C9.54504 3.65649 9.54223 3.685 9.5477 3.71251C9.55317 3.74002 9.56668 3.76529 9.58652 3.78513C9.60635 3.80496 9.63162 3.81847 9.65913 3.82394C9.68664 3.82941 9.71515 3.8266 9.74107 3.81587C9.76698 3.80513 9.78913 3.78696 9.80472 3.76363C9.8203 3.74031 9.82862 3.71289 9.82862 3.68484C9.82858 3.64724 9.81363 3.61119 9.78704 3.5846C9.76045 3.55801 9.7244 3.54306 9.6868 3.54302Z" fill="#010E87"/>
<path d="M4.65885 4.14904H4.02493C3.98594 4.14904 3.94855 4.13355 3.92098 4.10599C3.89342 4.07842 3.87793 4.04103 3.87793 4.00204V3.36819C3.87793 3.3292 3.89342 3.29181 3.92098 3.26425C3.94855 3.23668 3.98594 3.22119 4.02493 3.22119H4.65885C4.67815 3.22119 4.69727 3.22499 4.7151 3.23238C4.73294 3.23977 4.74914 3.2506 4.76279 3.26425C4.77644 3.2779 4.78727 3.2941 4.79466 3.31194C4.80205 3.32977 4.80585 3.34889 4.80585 3.36819V4.00204C4.80585 4.02135 4.80205 4.04046 4.79466 4.0583C4.78727 4.07613 4.77644 4.09234 4.76279 4.10599C4.74914 4.11964 4.73294 4.13046 4.7151 4.13785C4.69727 4.14524 4.67815 4.14904 4.65885 4.14904ZM4.17193 3.85504H4.51185V3.51519H4.17193V3.85504Z" fill="#010E87"/>
<path d="M5.87558 4.14904H5.24173C5.20274 4.14904 5.16535 4.13355 5.13778 4.10599C5.11021 4.07842 5.09473 4.04103 5.09473 4.00204V3.36819C5.09473 3.3292 5.11021 3.29181 5.13778 3.26425C5.16535 3.23668 5.20274 3.22119 5.24173 3.22119H5.87558C5.91456 3.22119 5.95195 3.23668 5.97952 3.26425C6.00709 3.29181 6.02258 3.3292 6.02258 3.36819V4.00204C6.02258 4.04103 6.00709 4.07842 5.97952 4.10599C5.95195 4.13355 5.91456 4.14904 5.87558 4.14904ZM5.38873 3.85504H5.72858V3.51519H5.38873V3.85504Z" fill="#010E87"/>
<path d="M7.09237 4.14904H6.45852C6.41954 4.14904 6.38215 4.13355 6.35458 4.10599C6.32701 4.07842 6.31152 4.04103 6.31152 4.00204V3.36819C6.31152 3.3292 6.32701 3.29181 6.35458 3.26425C6.38215 3.23668 6.41954 3.22119 6.45852 3.22119H7.09237C7.13136 3.22119 7.16875 3.23668 7.19632 3.26425C7.22389 3.29181 7.23937 3.3292 7.23937 3.36819V4.00204C7.23937 4.04103 7.22389 4.07842 7.19632 4.10599C7.16875 4.13355 7.13136 4.14904 7.09237 4.14904ZM6.60552 3.85504H6.94537V3.51519H6.60552V3.85504Z" fill="#010E87"/>
<path d="M10.794 8.2542H3.2095C3.17051 8.2542 3.13312 8.23871 3.10556 8.21114C3.07799 8.18357 3.0625 8.14618 3.0625 8.1072V5.67337C3.0625 5.63438 3.07799 5.59699 3.10556 5.56942C3.13312 5.54185 3.17051 5.52637 3.2095 5.52637H10.794C10.833 5.52637 10.8704 5.54185 10.8979 5.56942C10.9255 5.59699 10.941 5.63438 10.941 5.67337V8.1072C10.941 8.14618 10.9255 8.18357 10.8979 8.21114C10.8704 8.23871 10.833 8.2542 10.794 8.2542ZM3.3565 7.9602H10.647V5.82037H3.3565V7.9602Z" fill="#010E87"/>
<path d="M8.51102 7.32623C8.42482 7.32623 8.34055 7.30067 8.26888 7.25278C8.19721 7.20488 8.14135 7.13681 8.10836 7.05717C8.07538 6.97754 8.06675 6.8899 8.08357 6.80536C8.1004 6.72082 8.14191 6.64316 8.20287 6.58221C8.26383 6.52127 8.34149 6.47976 8.42603 6.46296C8.51058 6.44615 8.59821 6.45479 8.67785 6.48778C8.75748 6.52078 8.82554 6.57665 8.87342 6.64833C8.9213 6.72001 8.94685 6.80428 8.94683 6.89048C8.94671 7.00602 8.90074 7.11679 8.81904 7.19848C8.73733 7.28018 8.62656 7.32612 8.51102 7.32623ZM8.51102 6.74866C8.48297 6.74866 8.45555 6.75698 8.43222 6.77256C8.4089 6.78814 8.39072 6.81029 8.37999 6.83621C8.36926 6.86212 8.36645 6.89064 8.37192 6.91815C8.37739 6.94566 8.3909 6.97093 8.41073 6.99076C8.43057 7.0106 8.45584 7.0241 8.48335 7.02958C8.51086 7.03505 8.53937 7.03224 8.56529 7.0215C8.5912 7.01077 8.61335 6.99259 8.62893 6.96927C8.64452 6.94595 8.65283 6.91853 8.65283 6.89048C8.65278 6.85289 8.63782 6.81686 8.61123 6.79028C8.58465 6.76371 8.54861 6.74877 8.51102 6.74873V6.74866Z" fill="#010E87"/>
<path d="M9.6868 7.32623C9.6006 7.32623 9.51633 7.30067 9.44466 7.25278C9.37299 7.20488 9.31713 7.13681 9.28414 7.05717C9.25116 6.97754 9.24253 6.8899 9.25936 6.80536C9.27618 6.72082 9.31769 6.64316 9.37865 6.58221C9.43961 6.52127 9.51727 6.47976 9.60182 6.46296C9.68636 6.44615 9.77399 6.45479 9.85363 6.48778C9.93326 6.52078 10.0013 6.57665 10.0492 6.64833C10.0971 6.72001 10.1226 6.80428 10.1226 6.89048C10.1225 7.00602 10.0765 7.11679 9.99482 7.19848C9.91311 7.28018 9.80234 7.32612 9.6868 7.32623ZM9.6868 6.74866C9.65875 6.74866 9.63133 6.75698 9.60801 6.77256C9.58468 6.78814 9.56651 6.81029 9.55577 6.83621C9.54504 6.86212 9.54223 6.89064 9.5477 6.91815C9.55317 6.94566 9.56668 6.97093 9.58652 6.99076C9.60635 7.0106 9.63162 7.0241 9.65913 7.02958C9.68664 7.03505 9.71515 7.03224 9.74107 7.0215C9.76698 7.01077 9.78913 6.99259 9.80472 6.96927C9.8203 6.94595 9.82862 6.91853 9.82862 6.89048C9.82856 6.85289 9.8136 6.81686 9.78701 6.79028C9.76043 6.76371 9.72439 6.74877 9.6868 6.74873V6.74866Z" fill="#010E87"/>
<path d="M4.65885 7.35342H4.02493C3.98594 7.35342 3.94855 7.33793 3.92098 7.31037C3.89342 7.2828 3.87793 7.24541 3.87793 7.20642V6.57278C3.87793 6.53379 3.89342 6.4964 3.92098 6.46884C3.94855 6.44127 3.98594 6.42578 4.02493 6.42578H4.65885C4.67815 6.42578 4.69727 6.42958 4.7151 6.43697C4.73294 6.44436 4.74914 6.45519 4.76279 6.46884C4.77644 6.48249 4.78727 6.49869 4.79466 6.51653C4.80205 6.53436 4.80585 6.55348 4.80585 6.57278V7.20642C4.80585 7.22573 4.80205 7.24484 4.79466 7.26268C4.78727 7.28051 4.77644 7.29672 4.76279 7.31037C4.74914 7.32402 4.73294 7.33484 4.7151 7.34223C4.69727 7.34962 4.67815 7.35342 4.65885 7.35342ZM4.17193 7.05942H4.51185V6.71978H4.17193V7.05942Z" fill="#010E87"/>
<path d="M5.87558 7.35342H5.24173C5.20274 7.35342 5.16535 7.33793 5.13778 7.31037C5.11021 7.2828 5.09473 7.24541 5.09473 7.20642V6.57278C5.09473 6.53379 5.11021 6.4964 5.13778 6.46884C5.16535 6.44127 5.20274 6.42578 5.24173 6.42578H5.87558C5.91456 6.42578 5.95195 6.44127 5.97952 6.46884C6.00709 6.4964 6.02258 6.53379 6.02258 6.57278V7.20642C6.02258 7.24541 6.00709 7.2828 5.97952 7.31037C5.95195 7.33793 5.91456 7.35342 5.87558 7.35342ZM5.38873 7.05942H5.72858V6.71978H5.38873V7.05942Z" fill="#010E87"/>
<path d="M7.09237 7.35342H6.45852C6.41954 7.35342 6.38215 7.33793 6.35458 7.31037C6.32701 7.2828 6.31152 7.24541 6.31152 7.20642V6.57278C6.31152 6.53379 6.32701 6.4964 6.35458 6.46884C6.38215 6.44127 6.41954 6.42578 6.45852 6.42578H7.09237C7.13136 6.42578 7.16875 6.44127 7.19632 6.46884C7.22389 6.4964 7.23937 6.53379 7.23937 6.57278V7.20642C7.23937 7.24541 7.22389 7.2828 7.19632 7.31037C7.16875 7.33793 7.13136 7.35342 7.09237 7.35342ZM6.60552 7.05942H6.94537V6.71978H6.60552V7.05942Z" fill="#010E87"/>
<path d="M10.794 11.4592H3.2095C3.17051 11.4592 3.13312 11.4437 3.10556 11.4162C3.07799 11.3886 3.0625 11.3512 3.0625 11.3122V8.87845C3.0625 8.83946 3.07799 8.80207 3.10556 8.7745C3.13312 8.74693 3.17051 8.73145 3.2095 8.73145H10.794C10.833 8.73145 10.8704 8.74693 10.8979 8.7745C10.9255 8.80207 10.941 8.83946 10.941 8.87845V11.3122C10.941 11.3512 10.9255 11.3886 10.8979 11.4162C10.8704 11.4437 10.833 11.4592 10.794 11.4592ZM3.3565 11.1652H10.647V9.02545H3.3565V11.1652Z" fill="#010E87"/>
<path d="M8.51102 10.5318C8.42482 10.5318 8.34056 10.5062 8.26889 10.4583C8.19722 10.4105 8.14136 10.3424 8.10837 10.2628C8.07538 10.1831 8.06675 10.0955 8.08357 10.011C8.10039 9.92641 8.14189 9.84876 8.20284 9.7878C8.26379 9.72685 8.34145 9.68535 8.42599 9.66853C8.51053 9.65171 8.59816 9.66035 8.6778 9.69333C8.75743 9.72632 8.8255 9.78218 8.87339 9.85385C8.92127 9.92552 8.94683 10.0098 8.94683 10.096C8.94671 10.2115 8.90075 10.3223 8.81904 10.404C8.73734 10.4857 8.62656 10.5317 8.51102 10.5318ZM8.51102 9.95416C8.48297 9.95416 8.45555 9.96247 8.43222 9.97806C8.4089 9.99364 8.39072 10.0158 8.37999 10.0417C8.36926 10.0676 8.36645 10.0961 8.37192 10.1236C8.37739 10.1512 8.3909 10.1764 8.41073 10.1963C8.43057 10.2161 8.45584 10.2296 8.48335 10.2351C8.51086 10.2405 8.53937 10.2377 8.56529 10.227C8.5912 10.2163 8.61335 10.1981 8.62893 10.1748C8.64452 10.1514 8.65283 10.124 8.65283 10.096C8.6528 10.0584 8.63784 10.0223 8.61126 9.99574C8.58467 9.96915 8.54862 9.95419 8.51102 9.95416Z" fill="#010E87"/>
<path d="M9.6868 10.5318C9.6006 10.5318 9.51634 10.5062 9.44467 10.4583C9.373 10.4105 9.31714 10.3424 9.28415 10.2628C9.25117 10.1831 9.24253 10.0955 9.25935 10.011C9.27617 9.92641 9.31768 9.84876 9.37863 9.7878C9.43958 9.72685 9.51723 9.68535 9.60177 9.66853C9.68631 9.65171 9.77394 9.66035 9.85358 9.69333C9.93321 9.72632 10.0013 9.78218 10.0492 9.85385C10.0971 9.92552 10.1226 10.0098 10.1226 10.096C10.1225 10.2115 10.0765 10.3223 9.99483 10.404C9.91312 10.4857 9.80234 10.5317 9.6868 10.5318ZM9.6868 9.95416C9.65875 9.95416 9.63133 9.96247 9.60801 9.97806C9.58468 9.99364 9.56651 10.0158 9.55577 10.0417C9.54504 10.0676 9.54223 10.0961 9.5477 10.1236C9.55317 10.1512 9.56668 10.1764 9.58652 10.1963C9.60635 10.2161 9.63162 10.2296 9.65913 10.2351C9.68664 10.2405 9.71515 10.2377 9.74107 10.227C9.76698 10.2163 9.78913 10.1981 9.80472 10.1748C9.8203 10.1514 9.82862 10.124 9.82862 10.096C9.82858 10.0584 9.81363 10.0223 9.78704 9.99574C9.76045 9.96915 9.7244 9.95419 9.6868 9.95416Z" fill="#010E87"/>
<path d="M4.65885 10.5598H4.02493C3.98594 10.5598 3.94855 10.5443 3.92098 10.5167C3.89342 10.4891 3.87793 10.4517 3.87793 10.4128V9.77884C3.87793 9.73985 3.89342 9.70246 3.92098 9.67489C3.94855 9.64732 3.98594 9.63184 4.02493 9.63184H4.65885C4.67815 9.63184 4.69727 9.63564 4.7151 9.64303C4.73294 9.65041 4.74914 9.66124 4.76279 9.67489C4.77644 9.68854 4.78727 9.70475 4.79466 9.72258C4.80205 9.74042 4.80585 9.75953 4.80585 9.77884V10.4128C4.80585 10.4321 4.80205 10.4512 4.79466 10.469C4.78727 10.4868 4.77644 10.5031 4.76279 10.5167C4.74914 10.5304 4.73294 10.5412 4.7151 10.5486C4.69727 10.556 4.67815 10.5598 4.65885 10.5598ZM4.17193 10.2658H4.51185V9.92584H4.17193V10.2658Z" fill="#010E87"/>
<path d="M5.87558 10.5598H5.24173C5.20274 10.5598 5.16535 10.5443 5.13778 10.5167C5.11021 10.4891 5.09473 10.4517 5.09473 10.4128V9.77884C5.09473 9.73985 5.11021 9.70246 5.13778 9.67489C5.16535 9.64732 5.20274 9.63184 5.24173 9.63184H5.87558C5.91456 9.63184 5.95195 9.64732 5.97952 9.67489C6.00709 9.70246 6.02258 9.73985 6.02258 9.77884V10.4128C6.02258 10.4517 6.00709 10.4891 5.97952 10.5167C5.95195 10.5443 5.91456 10.5598 5.87558 10.5598ZM5.38873 10.2658H5.72858V9.92584H5.38873V10.2658Z" fill="#010E87"/>
<path d="M7.09237 10.5598H6.45852C6.41954 10.5598 6.38215 10.5443 6.35458 10.5167C6.32701 10.4891 6.31152 10.4517 6.31152 10.4128V9.77884C6.31152 9.73985 6.32701 9.70246 6.35458 9.67489C6.38215 9.64732 6.41954 9.63184 6.45852 9.63184H7.09237C7.13136 9.63184 7.16875 9.64732 7.19632 9.67489C7.22389 9.70246 7.23937 9.73985 7.23937 9.77884V10.4128C7.23937 10.4517 7.22389 10.4891 7.19632 10.5167C7.16875 10.5443 7.13136 10.5598 7.09237 10.5598ZM6.60552 10.2658H6.94537V9.92584H6.60552V10.2658Z" fill="#010E87"/>
<path d="M7.00149 12.453C6.96251 12.453 6.92512 12.4376 6.89755 12.41C6.86998 12.3824 6.85449 12.345 6.85449 12.306V11.312C6.85449 11.2731 6.86998 11.2357 6.89755 11.2081C6.92512 11.1805 6.96251 11.165 7.00149 11.165C7.04048 11.165 7.07787 11.1805 7.10544 11.2081C7.133 11.2357 7.14849 11.2731 7.14849 11.312V12.306C7.14849 12.345 7.133 12.3824 7.10544 12.41C7.07787 12.4376 7.04048 12.453 7.00149 12.453Z" fill="#010E87"/>
<path d="M6.99832 13.0308C6.91212 13.0308 6.82786 13.0053 6.75619 12.9574C6.68452 12.9095 6.62866 12.8414 6.59568 12.7618C6.56269 12.6821 6.55406 12.5945 6.57087 12.51C6.58769 12.4254 6.6292 12.3478 6.69015 12.2868C6.7511 12.2259 6.82876 12.1844 6.9133 12.1676C6.99784 12.1507 7.08547 12.1594 7.1651 12.1924C7.24474 12.2253 7.3128 12.2812 7.36069 12.3529C7.40858 12.4245 7.43414 12.5088 7.43414 12.595C7.43401 12.7105 7.38805 12.8213 7.30635 12.903C7.22464 12.9847 7.11387 13.0307 6.99832 13.0308ZM6.99832 12.4532C6.97027 12.4532 6.94285 12.4615 6.91953 12.4771C6.89621 12.4927 6.87803 12.5148 6.8673 12.5407C6.85656 12.5666 6.85375 12.5952 6.85923 12.6227C6.8647 12.6502 6.8782 12.6754 6.89804 12.6953C6.91787 12.7151 6.94314 12.7286 6.97065 12.7341C6.99816 12.7396 7.02668 12.7368 7.05259 12.726C7.07851 12.7153 7.10066 12.6971 7.11624 12.6738C7.13182 12.6505 7.14014 12.623 7.14014 12.595C7.1401 12.5574 7.12515 12.5213 7.09856 12.4948C7.07197 12.4682 7.03592 12.4532 6.99832 12.4532Z" fill="#010E87"/>
</svg>
