<svg width="14" height="15" viewBox="0 0 14 15" fill="none" xmlns="http://www.w3.org/2000/svg">
<g id="tabs/icon/other/default" clip-path="url(#clip0_7377_14753)">
<path id="Vector" d="M2.78994 4.52234C2.1584 4.52234 1.64453 4.00847 1.64453 3.37686C1.64453 2.74525 2.1584 2.23145 2.78994 2.23145C3.42148 2.23145 3.93542 2.74532 3.93542 3.37686C3.93542 4.0084 3.42155 4.52234 2.78994 4.52234ZM2.78994 2.52545C2.62153 2.52545 2.4569 2.57539 2.31688 2.66895C2.17685 2.76252 2.06771 2.8955 2.00327 3.05109C1.93883 3.20669 1.92197 3.37789 1.95483 3.54307C1.98769 3.70824 2.06879 3.85996 2.18788 3.97904C2.30697 4.09812 2.45869 4.17921 2.62387 4.21205C2.78904 4.2449 2.96025 4.22803 3.11584 4.16357C3.27142 4.09911 3.4044 3.98997 3.49795 3.84993C3.59151 3.7099 3.64144 3.54526 3.64142 3.37686C3.64118 3.15111 3.55139 2.93468 3.39176 2.77506C3.23212 2.61544 3.01569 2.52567 2.78994 2.52545Z" fill="#010E87" stroke="#010E87" stroke-width="0.3"/>
<path id="Vector_2" d="M7.00088 4.52234C6.36927 4.52234 5.85547 4.00847 5.85547 3.37686C5.85547 2.74525 6.36927 2.23145 7.00088 2.23145C7.63249 2.23145 8.14629 2.74532 8.14629 3.37686C8.14629 4.0084 7.63249 4.52234 7.00088 4.52234ZM7.00088 2.52545C6.83247 2.52543 6.66783 2.57536 6.5278 2.66892C6.38776 2.76247 6.27861 2.89546 6.21416 3.05105C6.1497 3.20664 6.13283 3.37785 6.16569 3.54302C6.19854 3.7082 6.27964 3.85993 6.39872 3.97901C6.51781 4.0981 6.66953 4.1792 6.83471 4.21205C6.99989 4.2449 7.1711 4.22803 7.32669 4.16358C7.48228 4.09912 7.61526 3.98997 7.70882 3.84994C7.80237 3.7099 7.8523 3.54527 7.85229 3.37686C7.85205 3.15112 7.76227 2.9347 7.60265 2.77508C7.44303 2.61547 7.22661 2.52569 7.00088 2.52545Z" fill="#010E87" stroke="#010E87" stroke-width="0.3"/>
<path id="Vector_3" d="M11.2099 4.52234C10.5783 4.52234 10.0645 4.00847 10.0645 3.37686C10.0645 2.74525 10.5783 2.23145 11.2099 2.23145C11.8415 2.23145 12.3553 2.74532 12.3553 3.37686C12.3553 4.0084 11.8415 4.52234 11.2099 4.52234ZM11.2099 2.52545C11.0415 2.52543 10.8769 2.57536 10.7368 2.66892C10.5968 2.76247 10.4877 2.89546 10.4232 3.05105C10.3588 3.20664 10.3419 3.37785 10.3747 3.54302C10.4076 3.7082 10.4887 3.85993 10.6078 3.97901C10.7269 4.0981 10.8786 4.1792 11.0438 4.21205C11.2089 4.2449 11.3802 4.22803 11.5357 4.16358C11.6913 4.09912 11.8243 3.98997 11.9179 3.84994C12.0114 3.7099 12.0614 3.54527 12.0613 3.37686C12.0611 3.15113 11.9713 2.93472 11.8117 2.7751C11.6521 2.61549 11.4357 2.5257 11.2099 2.52545Z" fill="#010E87" stroke="#010E87" stroke-width="0.3"/>
<path id="Vector_4" d="M2.78994 8.49687C2.1584 8.49687 1.64453 7.98307 1.64453 7.35146C1.64453 6.71985 2.1584 6.20605 2.78994 6.20605C3.42148 6.20605 3.93542 6.71985 3.93542 7.35146C3.93542 7.98307 3.42155 8.49687 2.78994 8.49687ZM2.78994 6.50005C2.62155 6.50007 2.45695 6.55001 2.31694 6.64358C2.17694 6.73714 2.06782 6.87012 2.00339 7.02569C1.93896 7.18127 1.92211 7.35246 1.95497 7.51761C1.98783 7.68276 2.06892 7.83446 2.188 7.95353C2.30707 8.07259 2.45878 8.15367 2.62394 8.18652C2.78909 8.21937 2.96028 8.2025 3.11585 8.13806C3.27142 8.07361 3.40439 7.96449 3.49794 7.82448C3.59149 7.68446 3.64142 7.51985 3.64142 7.35146C3.64118 7.12572 3.55139 6.90929 3.39176 6.74967C3.23212 6.59005 3.01569 6.50028 2.78994 6.50005Z" fill="#010E87" stroke="#010E87" stroke-width="0.3"/>
<path id="Vector_5" d="M7.00088 8.49687C6.36927 8.49687 5.85547 7.98307 5.85547 7.35146C5.85547 6.71985 6.36927 6.20605 7.00088 6.20605C7.63249 6.20605 8.14629 6.71985 8.14629 7.35146C8.14629 7.98307 7.63249 8.49687 7.00088 8.49687ZM7.00088 6.50005C6.83249 6.50005 6.66787 6.54999 6.52786 6.64354C6.38785 6.7371 6.27872 6.87007 6.21428 7.02564C6.14984 7.18122 6.13298 7.35241 6.16583 7.51757C6.19868 7.68272 6.27977 7.83443 6.39884 7.9535C6.51791 8.07257 6.66962 8.15366 6.83478 8.18652C6.99993 8.21937 7.17112 8.20251 7.3267 8.13806C7.48227 8.07362 7.61525 7.9645 7.7088 7.82448C7.80235 7.68447 7.85229 7.51986 7.85229 7.35146C7.85205 7.12573 7.76227 6.90931 7.60265 6.74969C7.44303 6.59007 7.22661 6.5003 7.00088 6.50005Z" fill="#010E87" stroke="#010E87" stroke-width="0.3"/>
<path id="Vector_6" d="M11.2099 8.49687C10.5783 8.49687 10.0645 7.98307 10.0645 7.35146C10.0645 6.71985 10.5783 6.20605 11.2099 6.20605C11.8415 6.20605 12.3553 6.71985 12.3553 7.35146C12.3553 7.98307 11.8415 8.49687 11.2099 8.49687ZM11.2099 6.50005C11.0415 6.50005 10.8769 6.54999 10.7369 6.64354C10.5969 6.7371 10.4878 6.87007 10.4233 7.02564C10.3589 7.18122 10.342 7.35241 10.3749 7.51757C10.4077 7.68272 10.4888 7.83443 10.6079 7.9535C10.727 8.07257 10.8787 8.15366 11.0438 8.18652C11.209 8.21937 11.3802 8.20251 11.5358 8.13806C11.6913 8.07362 11.8243 7.9645 11.9179 7.82448C12.0114 7.68447 12.0613 7.51986 12.0613 7.35146C12.0611 7.12574 11.9713 6.90933 11.8117 6.74971C11.6521 6.5901 11.4357 6.50031 11.2099 6.50005Z" fill="#010E87" stroke="#010E87" stroke-width="0.3"/>
<path id="Vector_7" d="M2.78994 12.4711C2.1584 12.4711 1.64453 11.9575 1.64453 11.3257C1.64453 10.6938 2.1584 10.1802 2.78994 10.1802C3.42148 10.1802 3.93542 10.694 3.93542 11.3257C3.93542 11.9573 3.42155 12.4711 2.78994 12.4711ZM2.78994 10.4742C2.62153 10.4742 2.45691 10.5241 2.31688 10.6177C2.17686 10.7112 2.06772 10.8442 2.00328 10.9998C1.93883 11.1554 1.92197 11.3266 1.95482 11.4918C1.98768 11.6569 2.06877 11.8087 2.18785 11.9277C2.30694 12.0468 2.45865 12.1279 2.62383 12.1608C2.789 12.1936 2.9602 12.1768 3.11579 12.1123C3.27138 12.0479 3.40436 11.9387 3.49792 11.7987C3.59148 11.6587 3.64142 11.4941 3.64142 11.3257C3.64118 11.0999 3.55139 10.8835 3.39176 10.7238C3.23213 10.5642 3.01569 10.4744 2.78994 10.4742Z" fill="#010E87" stroke="#010E87" stroke-width="0.3"/>
<path id="Vector_8" d="M7.00088 12.4711C6.36927 12.4711 5.85547 11.9572 5.85547 11.3257C5.85547 10.6941 6.36927 10.1802 7.00088 10.1802C7.63249 10.1802 8.14629 10.694 8.14629 11.3257C8.14629 11.9573 7.63249 12.4711 7.00088 12.4711ZM7.00088 10.4742C6.83247 10.4742 6.66784 10.5241 6.5278 10.6176C6.38777 10.7112 6.27862 10.8442 6.21416 10.9998C6.14971 11.1553 6.13283 11.3266 6.16568 11.4917C6.19853 11.6569 6.27962 11.8086 6.3987 11.9277C6.51778 12.0468 6.66949 12.1279 6.83467 12.1608C6.99984 12.1936 7.17105 12.1768 7.32664 12.1123C7.48223 12.0479 7.61522 11.9387 7.70878 11.7987C7.80235 11.6587 7.85229 11.4941 7.85229 11.3257C7.85205 11.0999 7.76227 10.8835 7.60265 10.7239C7.44304 10.5642 7.22662 10.4744 7.00088 10.4742Z" fill="#010E87" stroke="#010E87" stroke-width="0.3"/>
<path id="Vector_9" d="M11.2099 12.4711C10.5783 12.4711 10.0645 11.9572 10.0645 11.3257C10.0645 10.6941 10.5783 10.1802 11.2099 10.1802C11.8415 10.1802 12.3553 10.694 12.3553 11.3257C12.3553 11.9573 11.8415 12.4711 11.2099 12.4711ZM11.2099 10.4742C11.0415 10.4742 10.8769 10.5241 10.7369 10.6176C10.5968 10.7112 10.4877 10.8442 10.4232 10.9998C10.3588 11.1553 10.3419 11.3266 10.3747 11.4917C10.4076 11.6569 10.4887 11.8086 10.6078 11.9277C10.7268 12.0468 10.8785 12.1279 11.0437 12.1608C11.2089 12.1936 11.3801 12.1768 11.5357 12.1123C11.6913 12.0479 11.8243 11.9387 11.9178 11.7987C12.0114 11.6587 12.0613 11.4941 12.0613 11.3257C12.0611 11.0999 11.9713 10.8835 11.8117 10.7239C11.6521 10.5643 11.4357 10.4745 11.2099 10.4742Z" fill="#010E87" stroke="#010E87" stroke-width="0.3"/>
<path id="Vector_10" d="M6.00123 7.49859H3.7886C3.74961 7.49859 3.71222 7.4831 3.68466 7.45553C3.65709 7.42797 3.6416 7.39058 3.6416 7.35159C3.6416 7.3126 3.65709 7.27521 3.68466 7.24765C3.71222 7.22008 3.74961 7.20459 3.7886 7.20459H6.00123C6.04022 7.20459 6.07761 7.22008 6.10518 7.24765C6.13274 7.27521 6.14823 7.3126 6.14823 7.35159C6.14823 7.39058 6.13274 7.42797 6.10518 7.45553C6.07761 7.4831 6.04022 7.49859 6.00123 7.49859Z" fill="#010E87" stroke="#010E87" stroke-width="0.3"/>
<path id="Vector_11" d="M6.00123 11.4742H3.7886C3.74961 11.4742 3.71222 11.4587 3.68466 11.4311C3.65709 11.4036 3.6416 11.3662 3.6416 11.3272C3.6416 11.2882 3.65709 11.2508 3.68466 11.2232C3.71222 11.1957 3.74961 11.1802 3.7886 11.1802H6.00123C6.04022 11.1802 6.07761 11.1957 6.10518 11.2232C6.13274 11.2508 6.14823 11.2882 6.14823 11.3272C6.14823 11.3662 6.13274 11.4036 6.10518 11.4311C6.07761 11.4587 6.04022 11.4742 6.00123 11.4742Z" fill="#010E87" stroke="#010E87" stroke-width="0.3"/>
<path id="Vector_12" d="M10.2112 11.4742H7.99856C7.95958 11.4742 7.92219 11.4587 7.89462 11.4311C7.86705 11.4036 7.85156 11.3662 7.85156 11.3272C7.85156 11.2882 7.86705 11.2508 7.89462 11.2232C7.92219 11.1957 7.95958 11.1802 7.99856 11.1802H10.2112C10.2502 11.1802 10.2876 11.1957 10.3151 11.2232C10.3427 11.2508 10.3582 11.2882 10.3582 11.3272C10.3582 11.3662 10.3427 11.4036 10.3151 11.4311C10.2876 11.4587 10.2502 11.4742 10.2112 11.4742Z" fill="#010E87" stroke="#010E87" stroke-width="0.3"/>
<path id="Vector_13" d="M2.79055 10.4744C2.75157 10.4744 2.71418 10.4589 2.68661 10.4314C2.65904 10.4038 2.64355 10.3664 2.64355 10.3274V8.35012C2.64355 8.31114 2.65904 8.27375 2.68661 8.24618C2.71418 8.21861 2.75157 8.20312 2.79055 8.20312C2.82954 8.20312 2.86693 8.21861 2.8945 8.24618C2.92207 8.27375 2.93755 8.31114 2.93755 8.35012V10.3274C2.93755 10.3664 2.92207 10.4038 2.8945 10.4314C2.86693 10.4589 2.82954 10.4744 2.79055 10.4744Z" fill="#010E87" stroke="#010E87" stroke-width="0.3"/>
<path id="Vector_14" d="M10.2112 3.52447H7.99856C7.95958 3.52447 7.92219 3.50898 7.89462 3.48141C7.86705 3.45385 7.85156 3.41646 7.85156 3.37747C7.85156 3.33848 7.86705 3.30109 7.89462 3.27352C7.92219 3.24596 7.95958 3.23047 7.99856 3.23047H10.2112C10.2502 3.23047 10.2876 3.24596 10.3151 3.27352C10.3427 3.30109 10.3582 3.33848 10.3582 3.37747C10.3582 3.41646 10.3427 3.45385 10.3151 3.48141C10.2876 3.50898 10.2502 3.52447 10.2112 3.52447Z" fill="#010E87" stroke="#010E87" stroke-width="0.3"/>
<path id="Vector_15" d="M6.00123 3.52447H3.7886C3.74961 3.52447 3.71222 3.50898 3.68466 3.48141C3.65709 3.45385 3.6416 3.41646 3.6416 3.37747C3.6416 3.33848 3.65709 3.30109 3.68466 3.27352C3.71222 3.24596 3.74961 3.23047 3.7886 3.23047H6.00123C6.04022 3.23047 6.07761 3.24596 6.10518 3.27352C6.13274 3.30109 6.14823 3.33848 6.14823 3.37747C6.14823 3.41646 6.13274 3.45385 6.10518 3.48141C6.07761 3.50898 6.04022 3.52447 6.00123 3.52447Z" fill="#010E87" stroke="#010E87" stroke-width="0.3"/>
<path id="Vector_16" d="M7.72613 6.81346C7.69669 6.81347 7.66793 6.80464 7.64357 6.78811C7.61921 6.77159 7.60038 6.74813 7.5895 6.72077C7.57863 6.69342 7.57621 6.66343 7.58258 6.63469C7.58894 6.60595 7.60378 6.57978 7.62519 6.55958L10.3828 3.9562C10.4112 3.92985 10.4489 3.91579 10.4876 3.91707C10.5263 3.91836 10.563 3.9349 10.5896 3.96308C10.6162 3.99127 10.6306 4.02882 10.6297 4.06757C10.6287 4.10632 10.6125 4.14313 10.5846 4.16998L7.82707 6.77336C7.7998 6.79916 7.76367 6.81351 7.72613 6.81346Z" fill="#010E87" stroke="#010E87" stroke-width="0.3"/>
</g>
<defs>
<clipPath id="clip0_7377_14753">
<rect width="14" height="14" fill="white" transform="translate(0 0.351562)"/>
</clipPath>
</defs>
</svg>
