<svg width="14" height="15" viewBox="0 0 14 15" fill="none" xmlns="http://www.w3.org/2000/svg">
<path d="M6.80072 8.51031C6.77194 8.5103 6.74363 8.50309 6.71836 8.48933L1.39029 5.58181C1.3632 5.56702 1.34059 5.5452 1.32484 5.51866C1.30909 5.49211 1.30078 5.46182 1.30078 5.43095C1.30078 5.40009 1.30909 5.36979 1.32484 5.34325C1.34059 5.3167 1.3632 5.29489 1.39029 5.2801L6.71836 2.37258C6.74362 2.35879 6.77194 2.35156 6.80072 2.35156C6.8295 2.35156 6.85781 2.35879 6.88307 2.37258L12.2111 5.2801C12.2382 5.29489 12.2608 5.3167 12.2766 5.34325C12.2923 5.36979 12.3007 5.40009 12.3007 5.43095C12.3007 5.46182 12.2923 5.49211 12.2766 5.51866C12.2608 5.5452 12.2382 5.56702 12.2111 5.58181L6.88307 8.48933C6.8578 8.50309 6.82949 8.5103 6.80072 8.51031ZM1.83143 5.43092L6.80072 8.14265L11.77 5.4307L6.80072 2.71876L1.83143 5.43092Z" fill="#010E87" stroke="#010E87" stroke-width="0.230187"/>
<path d="M6.80078 10.7228C6.77201 10.7229 6.74369 10.7156 6.71843 10.7019L3.41395 8.89869L1.39036 7.79434C1.36325 7.77955 1.34063 7.75774 1.32486 7.73118C1.3091 7.70463 1.30078 7.67432 1.30078 7.64345C1.30078 7.61257 1.3091 7.58226 1.32486 7.55571C1.34063 7.52916 1.36325 7.50734 1.39036 7.49256L3.41395 6.3882C3.43377 6.37738 3.45552 6.37058 3.47796 6.36817C3.50041 6.36576 3.52311 6.3678 3.54477 6.37416C3.56643 6.38052 3.58662 6.39109 3.60419 6.40526C3.62177 6.41943 3.63638 6.43692 3.6472 6.45673C3.65801 6.47655 3.66482 6.4983 3.66723 6.52075C3.66964 6.54319 3.6676 6.56589 3.66124 6.58755C3.65487 6.60921 3.6443 6.6294 3.63014 6.64698C3.61597 6.66455 3.59848 6.67917 3.57866 6.68998L1.8315 7.64345L3.57888 8.59691L6.80078 10.3554L10.0229 8.59691L11.7703 7.64345L10.0229 6.68998C9.98288 6.66814 9.95318 6.63129 9.94033 6.58755C9.92747 6.54381 9.93252 6.49675 9.95437 6.45673C9.97621 6.41672 10.0131 6.38701 10.0568 6.37416C10.1005 6.36131 10.1476 6.36636 10.1876 6.3882L12.2112 7.49256C12.2383 7.50734 12.2609 7.52916 12.2767 7.55571C12.2925 7.58226 12.3008 7.61257 12.3008 7.64345C12.3008 7.67432 12.2925 7.70463 12.2767 7.73118C12.2609 7.75774 12.2383 7.77955 12.2112 7.79434L10.1876 8.89869L6.88314 10.7021C6.85786 10.7158 6.82954 10.7229 6.80078 10.7228Z" fill="#010E87" stroke="#010E87" stroke-width="0.230187"/>
<path d="M6.80078 12.9263C6.772 12.9262 6.74368 12.919 6.71843 12.9052L1.39036 9.99768C1.36325 9.98289 1.34063 9.96108 1.32486 9.93452C1.3091 9.90797 1.30078 9.87766 1.30078 9.84679C1.30078 9.81591 1.3091 9.7856 1.32486 9.75905C1.34063 9.7325 1.36325 9.71068 1.39036 9.6959L3.41395 8.59154C3.43377 8.58072 3.45552 8.57392 3.47796 8.57151C3.50041 8.5691 3.52311 8.57114 3.54477 8.5775C3.56643 8.58386 3.58662 8.59443 3.60419 8.6086C3.62177 8.62277 3.63638 8.64026 3.6472 8.66007C3.65801 8.67989 3.66482 8.70164 3.66723 8.72409C3.66964 8.74653 3.6676 8.76923 3.66124 8.79089C3.65487 8.81255 3.6443 8.83274 3.63014 8.85032C3.61597 8.86789 3.59848 8.88251 3.57866 8.89332L1.83129 9.84679L6.80078 12.5585L11.7701 9.84657L10.0227 8.89311C9.98267 8.87126 9.95296 8.83442 9.94011 8.79068C9.92726 8.74693 9.93231 8.69988 9.95415 8.65986C9.97599 8.61984 10.0128 8.59014 10.0566 8.57729C10.1003 8.56443 10.1474 8.56948 10.1874 8.59132L12.211 9.69568C12.2381 9.71047 12.2607 9.73228 12.2765 9.75883C12.2922 9.78539 12.3006 9.81569 12.3006 9.84657C12.3006 9.87745 12.2922 9.90776 12.2765 9.93431C12.2607 9.96086 12.2381 9.98268 12.211 9.99746L6.88292 12.905C6.85775 12.9188 6.82951 12.9261 6.80078 12.9263Z" fill="#010E87" stroke="#010E87" stroke-width="0.230187"/>
</svg>
