<svg width="16" height="16" viewBox="0 0 16 16" fill="none" xmlns="http://www.w3.org/2000/svg">
<path d="M3.14062 13.5H12.8594C13.8932 13.5 14.7344 12.6589 14.7344 11.625V1.875C14.7344 0.841125 13.8932 0 12.8594 0H3.14062C2.10675 0 1.26562 0.841125 1.26562 1.875V14.125C1.26562 15.1589 2.10675 16 3.14062 16H12.2344H12.8594C13.8932 16 14.7344 15.1589 14.7344 14.125V14.1234C14.2117 14.5167 13.5623 14.75 12.8594 14.75H12.2344H3.14062C2.796 14.75 2.51562 14.4696 2.51562 14.125C2.51562 13.7804 2.796 13.5 3.14062 13.5ZM2.51562 1.875C2.51562 1.53038 2.796 1.25 3.14062 1.25H12.8594C13.204 1.25 13.4844 1.53038 13.4844 1.875V11.625C13.4844 11.9696 13.204 12.25 12.8594 12.25H3.14062C2.92159 12.25 2.71119 12.2878 2.51562 12.3571V1.875ZM6.95312 5.26813H5.70312C5.70312 4.62694 5.97794 4.01322 6.45713 3.58425C6.94259 3.14962 7.59566 2.94187 8.249 3.01444C9.29566 3.13059 10.1385 3.97122 10.253 5.01331C10.3575 5.96375 9.80013 6.64575 9.37178 7.07606C9.26153 7.18681 9.15978 7.28384 9.07 7.3695C8.66159 7.759 8.60956 7.8245 8.60956 8.09363V8.125H7.35956V8.09359C7.35956 7.27337 7.75244 6.89872 8.20734 6.46488C8.29572 6.38059 8.38713 6.29344 8.48588 6.19422C8.88953 5.78869 9.04644 5.47638 9.01056 5.14988C8.95938 4.68456 8.58116 4.30897 8.11116 4.25681C7.80659 4.22313 7.51509 4.31488 7.29087 4.51562C7.07306 4.71056 6.95312 4.97781 6.95312 5.26813ZM7.35938 9.0625H8.60938V10.3125H7.35938V9.0625Z" fill="white"/>
</svg>
